<?xml version="1.0" encoding="UTF-8" standalone="no"?>
<!DOCTYPE svg PUBLIC "-//W3C//DTD SVG 1.1//EN" "http://www.w3.org/Graphics/SVG/1.1/DTD/svg11.dtd">
<svg xmlns="http://www.w3.org/2000/svg" version="1.1" viewBox="0.00 0.00 1633.00 1633.00">
<g stroke-width="2.00" fill="none" stroke-linecap="butt">
<path stroke="#506151" vector-effect="non-scaling-stroke" d="
  M 256.40 870.12
  Q 244.84 872.07 233.00 870.65
  Q 230.53 870.35 213.66 870.95
  Q 209.66 871.09 208.35 871.00
  C 203.64 870.69 200.02 871.21 195.00 870.91
  Q 194.38 870.87 186.00 870.51
  A 0.67 0.66 -89.6 0 0 185.31 871.20
  Q 185.43 874.82 186.05 878.46
  C 186.94 883.69 187.25 887.62 187.43 892.05
  Q 187.59 895.69 188.21 898.36
  Q 189.64 904.46 191.16 915.90
  C 192.52 926.07 194.28 933.72 196.76 947.05
  Q 199.06 959.37 205.99 983.25
  Q 213.41 1008.77 219.10 1024.79
  Q 224.46 1039.87 225.13 1041.63
  Q 231.55 1058.37 245.92 1089.83
  Q 248.88 1096.31 254.41 1106.52
  C 259.95 1116.75 264.12 1125.52 269.98 1135.07
  Q 279.28 1150.22 292.97 1171.24
  Q 301.17 1183.82 309.61 1194.44
  Q 328.58 1218.30 331.55 1221.83
  Q 346.17 1239.18 370.20 1263.94
  C 374.10 1267.96 378.89 1272.09 383.13 1276.49
  Q 387.92 1281.45 396.69 1288.92
  C 401.82 1293.30 408.26 1299.74 414.98 1305.16
  Q 431.01 1318.12 432.46 1319.27
  Q 459.34 1340.78 488.27 1357.86
  C 492.15 1360.14 495.99 1363.33 500.51 1365.77
  C 507.29 1369.43 512.04 1372.52 517.40 1375.14
  Q 523.88 1378.30 541.45 1387.95
  C 544.84 1389.81 549.34 1391.40 552.51 1393.00
  C 559.19 1396.37 567.55 1400.52 575.16 1403.43
  C 583.67 1406.67 601.58 1414.69 613.26 1418.44
  Q 641.61 1427.52 673.50 1435.20
  C 692.26 1439.72 708.28 1442.02 728.73 1445.34
  C 733.28 1446.08 737.11 1445.89 740.92 1446.64
  Q 744.45 1447.34 749.64 1447.82
  Q 784.88 1451.06 804.02 1451.16
  Q 822.19 1451.26 846.24 1450.38
  Q 849.85 1450.25 856.83 1449.61
  Q 861.16 1449.21 867.44 1448.90
  Q 883.43 1448.10 898.29 1445.93
  Q 906.58 1444.72 911.86 1444.00
  Q 931.61 1441.34 937.92 1439.87
  Q 970.81 1432.22 971.18 1432.13
  Q 992.00 1426.70 996.31 1425.51
  Q 1002.62 1423.77 1005.23 1422.86
  C 1012.75 1420.23 1019.70 1418.51 1027.28 1415.54
  C 1034.30 1412.80 1040.10 1411.25 1046.60 1408.29
  Q 1046.96 1408.12 1055.87 1404.62
  Q 1077.29 1396.19 1108.97 1379.73
  Q 1114.38 1376.92 1114.71 1376.75
  Q 1118.87 1374.65 1120.41 1373.73
  Q 1134.08 1365.61 1141.72 1361.00
  Q 1149.06 1356.57 1152.95 1353.98
  Q 1159.45 1349.64 1173.94 1340.34
  C 1178.56 1337.36 1182.32 1334.30 1186.68 1331.35
  Q 1189.62 1329.36 1195.97 1324.27
  Q 1203.37 1318.34 1215.14 1309.48
  C 1218.52 1306.93 1221.11 1304.27 1224.12 1302.03
  Q 1226.93 1299.94 1230.83 1296.36
  Q 1262.61 1267.18 1291.27 1236.94
  C 1295.19 1232.80 1299.13 1227.97 1303.25 1223.33
  Q 1307.61 1218.42 1311.92 1212.87
  Q 1318.90 1203.87 1320.18 1201.73
  Q 1320.29 1201.55 1327.69 1191.71
  Q 1332.45 1185.39 1335.11 1181.64
  Q 1361.41 1144.47 1380.81 1106.61
  Q 1382.53 1103.27 1387.68 1092.75
  Q 1390.93 1086.10 1394.10 1078.68
  C 1398.24 1068.98 1401.48 1062.23 1404.44 1054.18
  Q 1407.19 1046.70 1408.57 1043.68
  C 1413.90 1032.01 1416.82 1021.17 1421.16 1008.22
  Q 1425.38 995.64 1433.03 966.56
  C 1434.06 962.65 1434.55 957.71 1435.63 954.24
  Q 1436.89 950.21 1437.74 945.05
  Q 1437.92 943.96 1440.71 930.50
  C 1442.09 923.84 1442.63 916.39 1444.04 909.41
  C 1444.93 905.08 1444.99 900.31 1446.12 895.84
  A 2.04 1.04 83.1 0 0 1446.17 895.59
  L 1448.34 872.38
  A 1.13 1.13 0.0 0 0 1447.21 871.14
  L 1352.97 870.85
  A 0.12 0.11 -6.4 0 1 1352.86 870.77
  L 1352.80 870.51
  A 0.28 0.28 0.0 0 1 1353.07 870.19
  L 1355.96 870.06"
/>
<path stroke="#8d8f75" vector-effect="non-scaling-stroke" d="
  M 1303.16 869.62
  L 1296.79 869.68"
/>
<path stroke="#506151" vector-effect="non-scaling-stroke" d="
  M 1181.91 869.70
  Q 1182.61 871.06 1182.96 872.51
  Q 1183.43 874.50 1183.87 875.37
  C 1189.21 886.04 1191.62 895.32 1194.74 908.14
  Q 1195.95 913.11 1196.36 916.50
  C 1197.24 923.98 1199.01 930.29 1199.63 937.53
  Q 1201.10 954.66 1201.03 959.76
  C 1200.95 965.06 1201.30 970.59 1200.93 974.93
  Q 1199.45 992.22 1195.31 1010.73
  C 1193.04 1020.90 1189.75 1028.85 1186.10 1039.30
  Q 1184.00 1045.31 1182.45 1048.46
  Q 1176.40 1060.79 1168.62 1074.25
  C 1164.90 1080.69 1159.93 1086.63 1155.38 1092.01
  A 0.87 0.87 0.0 0 0 1155.48 1093.23
  Q 1155.88 1093.59 1156.80 1093.74
  Q 1159.02 1094.11 1169.29 1094.65
  Q 1199.49 1096.23 1226.68 1100.61
  Q 1239.04 1102.60 1250.83 1105.77
  C 1256.83 1107.38 1275.15 1113.91 1268.89 1122.74
  Q 1267.14 1125.21 1261.89 1129.36
  Q 1259.15 1131.53 1247.58 1137.28
  C 1234.59 1143.73 1216.85 1149.22 1203.63 1153.14
  Q 1202.83 1153.38 1186.46 1157.50
  Q 1185.62 1157.71 1179.69 1159.38
  Q 1174.86 1160.74 1146.96 1166.85
  Q 1138.18 1168.78 1137.82 1168.87
  Q 1135.95 1169.35 1128.64 1170.84
  Q 1120.55 1172.49 1114.00 1174.01
  Q 1113.09 1174.23 1099.00 1176.59
  C 1096.24 1177.06 1092.90 1177.86 1090.23 1178.24
  Q 1074.72 1180.44 1066.97 1181.83
  C 1059.38 1183.19 1052.60 1183.82 1046.03 1184.80
  C 1033.88 1186.61 1017.82 1187.98 1008.10 1189.29
  C 992.27 1191.42 977.96 1192.08 962.71 1193.48
  C 955.12 1194.17 948.57 1193.94 940.19 1194.58
  Q 927.24 1195.58 915.82 1196.44
  Q 907.54 1197.07 899.94 1197.19
  C 886.36 1197.41 876.50 1198.22 863.51 1198.18
  C 858.10 1198.16 852.39 1198.66 847.50 1198.73
  Q 820.59 1199.13 786.51 1198.88
  Q 777.05 1198.81 773.00 1198.55
  Q 764.29 1197.99 760.50 1197.93
  Q 752.19 1197.78 748.01 1197.37
  C 741.10 1196.68 733.56 1197.38 726.01 1196.59
  Q 719.93 1195.95 709.00 1195.41
  Q 693.53 1194.65 682.93 1194.14
  C 672.12 1193.61 663.20 1192.50 654.26 1191.83
  Q 643.65 1191.03 632.78 1189.69
  Q 613.32 1187.30 603.74 1186.25
  Q 598.47 1185.67 596.06 1185.22
  C 589.07 1183.91 585.53 1183.78 577.19 1182.53
  C 558.90 1179.76 551.59 1178.74 537.64 1176.26
  Q 526.49 1174.28 522.72 1173.67
  C 514.96 1172.42 508.29 1170.67 501.82 1169.21
  C 497.97 1168.33 493.15 1168.09 489.07 1167.20
  Q 459.03 1160.72 453.94 1159.52
  Q 428.24 1153.45 403.39 1145.07
  Q 373.88 1135.12 370.90 1134.05
  Q 364.94 1131.91 347.96 1126.02
  Q 329.40 1119.58 312.30 1111.87
  C 307.81 1109.85 305.10 1107.97 300.76 1105.32
  Q 300.31 1105.04 298.00 1102.77
  A 1.17 1.17 0.0 0 1 298.50 1100.81
  Q 302.83 1099.54 308.24 1099.84
  A 8.03 7.71 -46.2 0 0 309.72 1099.78
  Q 319.98 1098.31 333.74 1098.34
  Q 341.18 1098.36 351.26 1097.68
  Q 363.47 1096.86 368.76 1096.80
  C 376.68 1096.70 384.57 1095.26 392.75 1095.07
  Q 410.60 1094.66 420.31 1094.59
  A 0.70 0.70 0.0 0 0 420.88 1093.48
  Q 418.00 1089.42 414.05 1085.57
  Q 412.73 1084.28 406.87 1078.05
  Q 399.36 1070.07 377.29 1041.96
  Q 362.91 1023.66 357.20 1014.52
  C 354.05 1009.48 349.73 1004.72 346.95 1000.62
  Q 336.85 985.78 330.69 977.37
  Q 321.66 965.06 314.21 954.30
  Q 309.50 947.51 290.05 920.65
  Q 288.06 917.90 286.69 915.86
  Q 279.99 905.87 275.07 898.29
  C 272.95 895.04 271.76 892.59 270.03 890.03
  Q 268.21 887.34 266.26 883.84
  Q 262.10 876.36 257.44 869.19"
/>
<path stroke="#506151" vector-effect="non-scaling-stroke" d="
  M 843.72 689.81
  Q 844.28 689.28 844.80 689.07
  A 1.52 1.50 -42.2 0 1 846.01 689.12
  Q 848.67 690.44 849.55 690.52
  Q 854.42 690.94 859.99 693.00
  Q 861.86 693.69 865.85 693.98
  A 12.59 12.06 53.7 0 1 868.20 694.39
  C 876.23 696.62 884.90 696.92 891.97 698.00
  C 898.17 698.95 903.42 698.92 909.03 699.67
  Q 914.62 700.41 921.83 700.13
  Q 936.46 699.57 950.25 698.82
  Q 955.78 698.52 961.77 697.57
  C 970.23 696.24 973.71 696.12 979.80 694.54
  Q 981.60 694.08 986.88 693.48
  A 2.21 1.79 -49.1 0 0 987.16 693.42
  L 1001.71 688.84
  A 0.81 0.69 -49.7 0 1 1001.95 688.80
  L 1005.02 688.69
  A 0.99 0.98 71.5 0 0 1005.79 687.14
  Q 1003.44 683.78 1001.84 680.93
  Q 997.90 673.94 993.78 665.71
  Q 985.89 649.96 986.66 632.44
  Q 986.92 626.64 990.49 619.57
  Q 993.18 614.25 999.37 609.60
  C 1008.69 602.61 1017.89 598.35 1028.75 593.26
  Q 1034.71 590.47 1045.28 582.95
  C 1054.56 576.35 1062.48 567.11 1068.18 558.20
  Q 1075.22 547.23 1078.24 532.73
  C 1079.01 529.05 1080.75 521.89 1080.94 517.18
  C 1081.32 508.15 1081.52 498.81 1080.10 489.85
  Q 1078.79 481.68 1078.44 479.58
  Q 1073.92 452.67 1058.28 431.12
  C 1053.41 424.40 1046.61 417.83 1040.92 412.82
  Q 1028.65 402.03 1011.91 395.63
  Q 1000.41 391.23 987.25 388.50
  Q 975.02 385.96 961.75 385.70
  Q 949.36 385.46 935.72 386.81
  Q 929.68 387.41 923.52 389.02
  Q 912.80 391.84 911.54 392.27
  Q 890.33 399.59 872.56 413.05
  C 864.71 418.98 856.68 426.72 850.71 433.44
  Q 839.87 445.64 831.04 462.73
  Q 823.65 477.04 820.57 486.51
  Q 817.68 495.39 814.52 510.50
  C 811.15 526.57 810.60 543.32 811.02 561.08
  C 811.23 570.19 812.62 581.34 814.25 589.57
  Q 815.72 596.94 816.59 601.43
  C 820.30 620.70 825.77 639.70 832.93 661.10
  C 834.25 665.03 835.27 670.24 837.04 674.25
  Q 838.15 676.76 842.38 689.47
  A 0.82 0.82 0.0 0 0 843.72 689.81"
/>
<path stroke="#7f8066" vector-effect="non-scaling-stroke" d="
  M 1063.25 596.13
  A 0.20 0.20 0.0 0 0 1063.32 596.50
  Q 1076.60 599.41 1087.59 602.40
  Q 1096.93 604.93 1123.74 611.78
  Q 1148.54 618.12 1180.72 622.70
  Q 1183.71 623.13 1185.27 623.34
  C 1199.84 625.38 1215.52 626.87 1230.84 627.01
  Q 1243.72 627.13 1250.50 626.43
  Q 1263.06 625.15 1266.74 624.06
  Q 1274.43 621.79 1279.20 618.81
  C 1282.53 616.73 1282.49 612.43 1279.41 610.06
  C 1275.46 607.03 1271.00 604.99 1265.98 603.27
  Q 1258.86 600.82 1237.64 593.92
  C 1228.26 590.87 1217.98 586.18 1209.58 582.88
  Q 1206.21 581.55 1199.35 578.21
  Q 1189.42 573.37 1189.13 573.23
  Q 1170.23 563.98 1155.02 553.83
  C 1152.08 551.86 1148.80 549.13 1145.45 546.95
  Q 1141.67 544.49 1138.29 541.74
  Q 1121.82 528.38 1110.01 513.97
  Q 1107.77 511.25 1105.40 507.72
  A 0.37 0.37 0.0 0 0 1104.73 507.96
  Q 1105.55 515.49 1104.37 524.00
  Q 1103.87 527.60 1102.19 535.50
  Q 1099.44 548.47 1094.85 558.83
  C 1087.94 574.42 1077.53 586.76 1063.25 596.13"
/>
<path stroke="#939885" vector-effect="non-scaling-stroke" d="
  M 1020.57 725.80
  L 1032.70 722.10
  A 0.80 0.79 -31.1 0 0 1033.03 720.78
  Q 1019.88 707.53 1009.18 692.32
  Q 1008.29 691.05 1006.62 689.47
  A 0.55 0.55 0.0 0 0 1005.77 689.58
  Q 1005.65 689.77 1005.65 689.78
  A 1.50 1.48 -83.1 0 1 1004.83 690.43
  Q 980.59 698.24 953.99 700.50
  C 949.44 700.89 943.11 701.69 937.98 701.88
  Q 907.80 702.98 877.23 698.46
  Q 865.90 696.79 852.07 693.16
  Q 847.26 691.89 843.54 690.43
  A 0.42 0.42 0.0 0 0 842.99 690.97
  Q 849.06 706.88 854.07 718.49
  Q 856.11 723.21 858.29 727.14
  A 4.52 4.51 -4.8 0 0 860.73 729.20
  Q 876.59 734.80 893.54 736.92"
/>
<path stroke="#7f8066" vector-effect="non-scaling-stroke" d="
  M 1000.31 936.94
  Q 999.60 931.87 998.35 925.18
  Q 997.48 920.50 995.48 913.65
  Q 984.92 877.55 961.85 846.90
  Q 952.96 835.09 943.10 824.43
  Q 898.67 776.44 836.29 758.75
  Q 832.46 757.66 831.08 757.13
  C 827.01 755.56 822.52 755.25 818.59 754.00
  Q 815.69 753.07 811.33 752.41
  C 807.46 751.82 802.54 750.39 798.20 750.04
  Q 795.27 749.80 793.21 749.28
  Q 789.79 748.43 785.74 748.07
  Q 779.18 747.48 769.72 746.48
  C 745.28 743.89 720.67 743.49 696.16 744.87
  C 685.85 745.45 678.78 746.63 668.59 747.39
  Q 659.76 748.05 648.01 750.09
  Q 628.35 753.52 607.43 758.91
  Q 593.39 762.53 589.26 763.77
  Q 554.60 774.15 516.66 788.45
  C 507.12 792.04 498.09 794.82 487.36 798.56
  Q 471.47 804.10 446.96 810.21
  Q 442.83 811.24 441.31 811.46
  C 436.31 812.20 431.67 813.62 427.07 814.36
  C 411.37 816.88 395.01 818.96 378.80 818.75
  C 374.51 818.70 369.16 818.85 364.25 818.14
  Q 364.06 818.12 363.95 817.90
  A 0.37 0.36 76.4 0 0 363.65 817.71
  Q 359.00 817.50 354.77 816.71
  Q 354.51 816.66 354.32 816.88
  A 0.35 0.34 40.9 0 0 354.36 817.37
  Q 362.62 824.38 371.89 830.68
  Q 379.80 836.06 390.87 841.55
  C 412.99 852.53 434.54 860.03 457.24 864.03
  Q 480.65 868.16 508.88 868.88
  Q 518.22 869.12 530.61 868.36
  Q 548.57 867.26 552.27 866.67
  Q 571.31 863.60 579.43 861.88
  C 589.84 859.67 604.46 855.58 617.19 851.28
  Q 638.94 843.95 664.79 833.80
  Q 693.44 822.56 713.85 817.65
  C 749.12 809.16 786.19 808.31 821.41 817.18
  Q 837.28 821.17 853.19 828.98
  C 855.14 829.94 857.17 829.97 858.31 831.92
  A 0.47 0.46 -11.5 0 1 857.85 832.61
  C 856.01 832.40 853.44 831.78 850.69 831.73
  Q 831.89 831.45 818.68 831.68
  Q 801.27 831.99 790.75 833.31
  C 779.41 834.73 773.63 834.93 765.19 836.92
  Q 761.19 837.86 755.13 838.74
  C 750.89 839.36 747.53 840.72 742.99 841.62
  Q 739.41 842.32 733.94 843.98
  Q 709.95 851.28 687.23 860.50
  Q 650.05 875.60 644.90 877.62
  Q 627.87 884.32 613.73 888.71
  Q 609.83 889.92 605.72 890.80
  A 0.55 0.54 -40.2 0 0 605.63 891.84
  Q 628.82 900.93 648.30 915.95
  Q 668.97 931.89 689.89 951.03
  A 0.58 0.58 0.0 0 0 690.67 951.04
  Q 717.58 926.44 737.33 909.58
  Q 761.27 889.15 782.88 876.40
  Q 796.90 868.12 813.95 861.75
  Q 819.85 859.55 826.11 858.03
  Q 834.99 855.87 838.57 855.36
  Q 855.15 852.97 871.40 853.76
  Q 887.62 854.55 903.71 859.48
  Q 944.25 871.89 973.97 903.06
  Q 988.86 918.68 999.41 937.25
  A 0.49 0.48 -63.9 0 0 1000.31 936.94"
/>
<path stroke="#7f8066" vector-effect="non-scaling-stroke" d="
  M 871.87 885.95
  L 871.87 1042.80
  A 1.39 1.38 -4.0 0 0 873.45 1044.17
  Q 886.64 1042.27 898.73 1039.44
  C 902.70 1038.51 905.98 1037.20 909.86 1035.98
  A 2.47 2.46 -73.2 0 0 910.66 1035.55
  Q 912.58 1033.99 912.58 1032.06
  Q 912.69 947.94 912.57 899.02
  Q 912.56 896.18 910.78 895.22
  Q 905.87 892.56 895.94 889.82
  Q 884.28 886.61 872.37 885.50
  A 0.45 0.45 0.0 0 0 871.87 885.95"
/>
<path stroke="#7f8066" vector-effect="non-scaling-stroke" d="
  M 847.36 886.27
  Q 829.23 889.06 812.51 896.23
  C 808.90 897.78 807.86 899.15 807.67 903.08
  Q 807.44 907.98 807.44 908.50
  Q 807.57 978.24 807.37 1032.05
  Q 807.36 1035.54 810.38 1036.67
  C 821.17 1040.69 831.29 1042.33 845.19 1044.15
  Q 846.22 1044.28 846.86 1044.18
  A 1.06 1.05 85.1 0 0 847.73 1043.14
  L 847.73 886.58
  A 0.32 0.31 -4.7 0 0 847.36 886.27"
/>
<path stroke="#7f8066" vector-effect="non-scaling-stroke" d="
  M 500.18 1012.72
  Q 510.24 1017.68 525.96 1023.23
  A 0.45 0.45 0.0 0 0 526.55 1022.73
  Q 526.17 1020.48 526.17 1020.25
  Q 526.45 992.65 525.93 968.64
  Q 525.82 963.39 525.98 960.85
  C 526.39 954.29 525.86 948.83 526.02 941.42
  Q 526.37 925.19 525.72 907.02
  A 1.62 1.62 0.0 0 0 524.11 905.46
  Q 509.63 905.40 497.18 903.91
  Q 486.26 902.60 474.06 901.71
  C 471.88 901.55 469.34 900.74 467.06 900.40
  Q 449.87 897.85 444.74 896.41
  Q 439.91 895.06 434.60 894.08
  A 0.75 0.75 0.0 0 0 433.82 895.20
  Q 454.58 930.19 485.16 956.72
  A 0.52 0.52 0.0 0 1 484.81 957.63
  Q 470.04 957.54 452.76 955.62
  Q 437.19 953.89 420.37 950.28
  Q 394.31 944.68 360.61 933.22
  Q 348.24 929.02 335.78 923.60
  A 0.39 0.38 -7.3 0 0 335.32 924.19
  C 349.79 942.39 363.16 961.31 376.12 981.99
  C 382.15 991.62 395.42 1013.12 406.55 1029.46
  Q 418.75 1047.38 433.04 1063.45
  Q 467.40 1102.10 513.52 1124.16
  C 526.98 1130.59 542.41 1136.05 556.22 1139.77
  Q 574.22 1144.63 596.92 1148.29
  Q 606.47 1149.84 619.68 1151.14
  Q 641.80 1153.33 642.50 1153.37
  Q 676.07 1155.08 694.50 1155.90
  Q 715.05 1156.82 752.50 1157.60
  C 757.82 1157.71 763.40 1158.23 768.52 1158.31
  Q 802.45 1158.88 830.20 1158.17
  C 834.20 1158.07 839.32 1157.57 842.61 1157.56
  Q 889.15 1157.40 938.49 1153.10
  Q 951.83 1151.94 960.80 1150.80
  A 4.91 4.87 21.1 0 0 963.36 1149.68
  Q 977.49 1137.75 990.25 1123.95
  Q 997.32 1116.30 1004.15 1106.57
  Q 1014.44 1091.93 1016.64 1088.15
  C 1024.28 1075.00 1030.98 1061.68 1036.09 1046.57
  Q 1043.97 1023.31 1044.32 999.76
  Q 1044.52 986.77 1043.57 978.69
  C 1041.49 960.83 1037.08 943.39 1029.77 926.06
  Q 1025.03 914.80 1020.67 905.41
  A 0.31 0.30 32.0 0 0 1020.09 905.54
  L 1020.13 907.68
  A 1.97 1.67 40.3 0 0 1020.20 908.10
  Q 1022.95 917.18 1023.01 919.02
  Q 1023.15 923.50 1024.30 930.73
  Q 1024.63 932.80 1024.54 939.54
  C 1024.47 945.55 1023.42 951.53 1022.37 958.48
  Q 1021.39 965.00 1020.28 968.52
  Q 1007.89 1007.86 978.53 1032.82
  Q 943.73 1062.41 896.63 1071.52
  Q 884.60 1073.85 870.30 1074.19
  Q 855.23 1074.55 843.78 1073.74
  Q 823.27 1072.30 801.28 1065.73
  Q 752.99 1051.30 715.04 1017.43
  Q 706.64 1009.94 690.80 994.66
  A 0.49 0.49 0.0 0 0 690.10 994.68
  Q 676.01 1009.96 657.28 1023.53
  Q 632.79 1041.28 605.46 1049.22
  Q 590.12 1053.67 571.48 1053.15
  Q 549.71 1052.54 531.19 1043.58
  Q 511.24 1033.94 500.56 1015.21
  Q 499.89 1014.02 499.72 1013.06
  A 0.32 0.32 0.0 0 1 500.18 1012.72"
/>
<path stroke="#7f8066" vector-effect="non-scaling-stroke" d="
  M 585.68 1023.25
  Q 586.06 1019.69 586.04 1015.75
  Q 585.73 963.40 586.02 917.00
  C 586.04 912.91 583.37 912.55 580.31 911.70
  Q 564.28 907.20 548.67 905.73
  A 1.12 1.12 0.0 0 0 547.45 906.85
  Q 547.56 937.10 547.48 1010.75
  Q 547.47 1019.64 547.95 1026.25
  Q 548.09 1028.28 550.19 1028.37
  Q 566.59 1029.07 582.35 1025.86
  Q 584.75 1025.37 585.43 1024.09
  A 2.31 2.18 -30.1 0 0 585.68 1023.25"
/>
<path stroke="#7f8066" vector-effect="non-scaling-stroke" d="
  M 937.90 1020.27
  A 0.73 0.73 0.0 0 0 938.99 1021.08
  Q 955.21 1010.79 968.06 996.32
  Q 979.24 983.73 986.73 968.03
  A 0.83 0.81 43.2 0 0 986.70 967.26
  C 979.27 954.33 970.98 941.41 960.86 930.91
  C 954.73 924.54 948.36 917.90 940.93 912.88
  Q 940.27 912.44 940.01 911.96
  Q 939.46 910.95 938.70 911.12
  A 0.56 0.55 -6.6 0 0 938.27 911.66
  Q 938.48 956.96 938.36 1016.49
  Q 938.35 1018.62 937.90 1020.27"
/>
<path stroke="#7f8066" vector-effect="non-scaling-stroke" d="
  M 783.61 1026.58
  L 783.61 913.12
  A 0.79 0.79 0.0 0 0 782.36 912.47
  Q 756.68 930.65 732.96 952.48
  Q 719.51 964.86 711.96 972.54
  A 0.37 0.36 -51.7 0 0 712.02 973.11
  Q 714.33 974.54 715.81 975.99
  Q 725.11 985.00 737.64 995.82
  C 752.00 1008.22 767.30 1018.39 783.02 1026.93
  A 0.40 0.40 0.0 0 0 783.61 1026.58"
/>
<path stroke="#7f8066" vector-effect="non-scaling-stroke" d="
  M 608.68 926.84
  Q 609.39 929.46 608.97 936.74
  Q 608.77 940.31 608.99 946.75
  Q 609.33 956.47 608.95 967.43
  C 608.82 971.03 609.23 975.65 609.19 978.25
  Q 608.83 997.78 608.88 1015.51
  A 0.33 0.33 0.0 0 0 609.36 1015.81
  Q 622.60 1009.18 635.12 999.88
  Q 652.11 987.26 667.23 973.15
  A 0.59 0.58 -45.3 0 0 667.23 972.30
  Q 653.99 959.92 637.42 946.35
  Q 632.18 942.07 623.73 936.09
  Q 610.73 926.89 609.50 926.21
  A 0.56 0.56 0.0 0 0 608.68 926.84"
/>
<path stroke="#506151" vector-effect="non-scaling-stroke" d="
  M 1020.3446 476.2119
  A 26.00 25.02 -10.5 0 0 990.2205 456.3490
  A 26.00 25.02 -10.5 0 0 969.2154 485.6881
  A 26.00 25.02 -10.5 0 0 999.3395 505.5510
  A 26.00 25.02 -10.5 0 0 1020.3446 476.2119"
/>
<path stroke="#7f8066" vector-effect="non-scaling-stroke" d="
  M 1152.73 571.47
  C 1150.97 564.67 1142.40 558.84 1137.62 554.63
  C 1133.98 551.41 1126.73 547.30 1123.98 553.47
  C 1121.34 559.39 1123.17 565.82 1127.32 570.23
  C 1132.23 575.44 1138.05 579.14 1145.31 578.83
  Q 1151.73 578.56 1152.77 572.75
  A 3.05 2.93 -47.9 0 0 1152.73 571.47"
/>
<path stroke="#506151" vector-effect="non-scaling-stroke" d="
  M 470.96 1224.48
  Q 470.73 1227.22 472.96 1229.27
  Q 477.36 1233.29 482.20 1236.04
  Q 492.52 1241.92 499.37 1245.36
  Q 512.10 1251.75 525.48 1255.18
  C 532.24 1256.91 539.76 1259.03 545.02 1259.92
  Q 554.35 1261.50 574.45 1263.66
  C 577.79 1264.01 583.13 1264.07 587.64 1264.79
  Q 590.91 1265.32 597.53 1265.52
  Q 621.97 1266.26 646.93 1270.01
  C 650.26 1270.51 653.57 1271.55 656.62 1271.91
  C 661.79 1272.51 667.93 1274.47 672.65 1275.36
  Q 677.27 1276.23 680.76 1277.02
  C 687.48 1278.56 689.97 1279.25 696.38 1280.17
  Q 699.13 1280.57 703.91 1281.85
  Q 712.60 1284.16 724.28 1285.70
  Q 739.69 1287.72 757.01 1289.39
  C 764.65 1290.13 772.31 1289.81 779.97 1290.39
  Q 788.46 1291.03 796.10 1291.11
  Q 824.15 1291.37 855.02 1289.77
  Q 859.26 1289.55 864.47 1288.99
  C 872.47 1288.14 880.35 1287.97 888.06 1287.01
  Q 910.04 1284.27 913.05 1283.76
  Q 927.41 1281.29 951.26 1275.26
  C 958.06 1273.54 965.24 1272.13 969.71 1271.51
  Q 976.76 1270.53 982.43 1269.21
  C 987.64 1268.00 996.41 1267.18 1003.18 1267.13
  C 1009.41 1267.09 1015.98 1266.19 1021.51 1266.07
  Q 1025.85 1265.97 1032.36 1264.99
  Q 1035.57 1264.51 1043.20 1264.00
  Q 1071.19 1262.14 1096.77 1253.23
  C 1102.18 1251.35 1105.81 1250.32 1110.48 1248.16
  C 1121.86 1242.92 1130.82 1238.60 1140.33 1232.25
  A 5.56 5.50 1.9 0 0 1141.57 1231.10
  C 1142.71 1229.65 1145.34 1226.46 1143.99 1224.71
  Q 1143.76 1224.41 1142.94 1224.36
  Q 1130.41 1223.63 1117.87 1225.05
  C 1108.53 1226.10 1102.90 1226.58 1088.36 1227.95
  Q 1078.49 1228.88 1068.11 1229.02
  Q 1044.92 1229.33 1037.76 1229.19
  Q 1014.57 1228.75 1008.54 1229.55
  Q 1007.85 1229.64 997.48 1229.98
  Q 992.09 1230.16 986.01 1230.83
  Q 956.86 1234.04 930.56 1240.54
  C 923.73 1242.22 917.24 1242.66 910.96 1244.32
  A 8.16 8.05 -53.1 0 1 909.09 1244.60
  C 903.25 1244.81 898.34 1246.07 892.63 1246.71
  Q 880.50 1248.09 868.49 1249.16
  Q 858.30 1250.07 852.06 1250.05
  Q 850.77 1250.05 836.44 1250.58
  Q 809.09 1251.59 782.50 1250.59
  Q 774.55 1250.30 757.82 1249.26
  Q 756.75 1249.19 753.97 1248.93
  Q 743.51 1247.96 726.24 1246.11
  Q 722.06 1245.66 672.40 1235.97
  Q 651.24 1231.85 636.34 1230.77
  Q 626.03 1230.02 625.40 1229.90
  C 622.93 1229.42 618.90 1229.76 616.75 1229.67
  Q 589.61 1228.55 575.70 1228.91
  C 567.40 1229.13 559.95 1228.75 551.91 1228.74
  Q 544.11 1228.72 534.11 1228.00
  Q 513.25 1226.49 498.64 1224.64
  C 492.79 1223.90 486.57 1223.94 480.32 1223.58
  Q 476.54 1223.36 471.53 1223.89
  A 0.64 0.63 89.5 0 0 470.96 1224.48"
/>
<path stroke="#506151" vector-effect="non-scaling-stroke" d="
  M 1031.60 1312.80
  L 1029.59 1313.11
  A 2.83 2.80 47.7 0 1 1028.44 1313.05
  L 1025.05 1312.14
  A 9.24 9.12 -37.5 0 0 1022.50 1311.82
  C 1017.06 1311.78 1006.88 1311.64 999.23 1313.10
  Q 997.13 1313.50 990.26 1314.08
  Q 977.78 1315.14 962.21 1318.30
  C 954.78 1319.81 945.96 1320.65 938.14 1322.54
  Q 928.81 1324.78 922.11 1325.73
  C 912.82 1327.05 903.16 1329.26 893.58 1330.43
  Q 859.13 1334.66 836.02 1335.71
  Q 826.49 1336.15 793.44 1335.94
  C 786.10 1335.89 779.22 1334.78 772.75 1334.52
  C 763.22 1334.14 752.26 1332.46 742.46 1331.50
  Q 735.32 1330.80 727.72 1329.38
  Q 711.33 1326.33 699.07 1324.59
  Q 696.66 1324.25 693.76 1323.39
  C 690.26 1322.35 687.01 1322.29 683.43 1321.27
  Q 680.49 1320.43 678.47 1320.07
  Q 664.31 1317.51 658.69 1316.00
  C 653.72 1314.66 648.84 1314.31 644.19 1313.29
  Q 639.82 1312.33 633.25 1311.68
  Q 616.85 1310.06 597.26 1310.63
  Q 595.94 1310.67 594.98 1311.34
  A 1.60 1.56 55.6 0 0 594.60 1313.53
  Q 599.54 1320.75 606.73 1325.82
  Q 615.90 1332.30 623.37 1335.61
  C 635.50 1340.99 646.75 1345.77 658.77 1349.04
  C 666.78 1351.22 673.27 1354.12 681.24 1356.27
  Q 699.82 1361.29 706.78 1362.90
  Q 726.24 1367.40 747.75 1369.76
  Q 762.83 1371.42 780.50 1372.46
  Q 789.00 1372.97 794.50 1372.91
  C 803.65 1372.82 815.11 1373.47 824.00 1372.94
  C 832.96 1372.40 839.29 1372.47 846.66 1371.89
  Q 863.50 1370.56 882.39 1368.54
  Q 894.82 1367.21 901.02 1365.93
  C 911.13 1363.84 919.85 1362.59 929.38 1360.26
  C 939.23 1357.85 949.27 1355.45 958.36 1351.89
  C 961.75 1350.56 964.93 1350.03 968.12 1348.67
  Q 970.72 1347.56 975.33 1345.86
  Q 992.79 1339.43 996.45 1337.64
  Q 1005.26 1333.33 1007.76 1332.16
  C 1012.53 1329.92 1015.92 1326.97 1020.66 1324.12
  C 1025.42 1321.26 1028.78 1317.50 1031.87 1313.24
  A 0.28 0.28 0.0 0 0 1031.60 1312.80"
/>
</g>
<path fill="#415241" d="
  M 948.72 1478.75
  L 948.44 1478.67
  A 0.06 0.05 8.2 0 0 948.36 1478.72
  Q 948.37 1478.78 948.20 1479.04
  A 0.39 0.38 -77.1 0 1 947.91 1479.23
  L 931.97 1481.67
  A 1.98 1.57 -51.5 0 0 931.71 1481.73
  Q 930.27 1482.27 929.38 1482.39
  Q 920.35 1483.67 912.03 1484.92
  Q 905.59 1485.90 902.37 1486.13
  C 898.05 1486.44 894.44 1487.37 889.52 1487.78
  Q 879.78 1488.59 866.84 1489.58
  C 840.51 1491.61 813.40 1491.59 788.06 1490.82
  C 779.02 1490.55 770.45 1489.25 762.82 1489.15
  C 757.95 1489.09 751.68 1488.08 746.78 1487.78
  Q 742.04 1487.48 738.77 1486.77
  C 735.45 1486.04 731.50 1486.03 728.05 1485.51
  C 719.99 1484.29 711.32 1483.27 702.91 1481.64
  Q 699.84 1481.04 693.29 1480.02
  Q 688.68 1479.30 686.77 1478.73
  C 684.02 1477.91 681.30 1477.77 678.08 1477.07
  Q 587.78 1457.46 509.24 1416.22
  Q 476.20 1398.87 438.45 1373.04
  Q 411.85 1354.83 376.49 1324.05
  Q 364.89 1313.95 351.13 1300.27
  Q 332.93 1282.18 326.29 1274.93
  Q 312.69 1260.09 295.89 1239.84
  Q 240.22 1172.72 203.23 1089.53
  Q 173.68 1023.08 158.64 952.38
  Q 156.48 942.21 154.28 927.26
  Q 154.24 926.97 154.10 926.32
  Q 151.60 914.08 149.21 892.49
  Q 149.13 891.81 149.05 891.05
  Q 146.76 870.96 146.49 860.29
  Q 146.42 857.52 145.68 850.79
  Q 145.33 847.57 145.18 841.25
  Q 144.50 811.46 145.19 780.23
  Q 145.28 776.01 145.58 771.38
  A 1.54 1.50 -22.9 0 1 145.97 770.45
  L 146.06 770.36
  A 1.03 1.01 -22.8 0 0 146.36 769.64
  Q 146.49 753.39 148.41 736.26
  Q 150.37 718.69 151.34 711.21
  C 152.05 705.80 152.96 701.57 153.36 696.40
  C 153.45 695.25 154.18 693.50 154.36 692.36
  Q 165.68 621.94 192.39 554.59
  Q 207.52 516.43 227.19 479.15
  Q 235.43 463.52 248.13 442.89
  Q 282.79 386.56 326.40 339.64
  Q 341.42 323.49 362.79 303.53
  Q 388.89 279.15 419.29 257.33
  Q 478.01 215.16 543.71 185.95
  C 557.88 179.65 578.32 171.44 595.07 165.69
  Q 638.56 150.76 683.46 141.27
  Q 733.10 130.77 782.25 128.96
  Q 816.61 127.69 858.57 129.28
  Q 863.80 129.48 868.90 130.16
  C 873.38 130.75 877.23 130.58 882.68 131.15
  Q 939.04 137.10 993.04 151.64
  C 1000.37 153.62 1008.72 156.56 1016.59 158.58
  Q 1018.63 159.10 1026.00 161.43
  C 1116.88 190.19 1201.73 238.32 1271.48 303.27
  C 1300.00 329.83 1326.45 358.44 1350.03 389.44
  Q 1387.09 438.17 1415.91 495.50
  C 1433.53 530.53 1448.38 566.90 1460.17 605.59
  Q 1471.02 641.21 1477.24 674.51
  Q 1484.02 710.89 1486.93 746.78
  Q 1487.20 750.11 1488.66 773.16
  C 1489.79 790.97 1489.50 809.05 1489.50 826.66
  C 1489.50 839.48 1487.88 855.04 1487.76 865.49
  Q 1487.71 870.15 1486.99 875.49
  C 1486.36 880.15 1486.55 884.13 1485.83 888.82
  Q 1485.14 893.35 1484.50 901.25
  C 1484.38 902.80 1483.68 904.96 1483.50 906.86
  Q 1482.67 915.48 1480.71 927.14
  Q 1472.65 974.99 1458.51 1019.55
  Q 1442.33 1070.54 1418.25 1118.06
  Q 1401.54 1151.04 1382.51 1181.28
  Q 1368.54 1203.48 1350.85 1226.10
  Q 1328.33 1254.89 1306.75 1278.00
  Q 1298.83 1286.49 1284.71 1300.46
  Q 1273.41 1311.63 1261.67 1321.87
  Q 1219.18 1358.91 1177.24 1386.47
  Q 1156.25 1400.26 1125.75 1416.54
  C 1116.40 1421.53 1102.92 1427.77 1094.46 1431.69
  Q 1046.03 1454.13 992.96 1468.65
  Q 971.20 1474.60 948.82 1478.75
  A 0.25 0.25 0.0 0 1 948.72 1478.75
  Z
  M 256.40 870.12
  Q 244.84 872.07 233.00 870.65
  Q 230.53 870.35 213.66 870.95
  Q 209.66 871.09 208.35 871.00
  C 203.64 870.69 200.02 871.21 195.00 870.91
  Q 194.38 870.87 186.00 870.51
  A 0.67 0.66 -89.6 0 0 185.31 871.20
  Q 185.43 874.82 186.05 878.46
  C 186.94 883.69 187.25 887.62 187.43 892.05
  Q 187.59 895.69 188.21 898.36
  Q 189.64 904.46 191.16 915.90
  C 192.52 926.07 194.28 933.72 196.76 947.05
  Q 199.06 959.37 205.99 983.25
  Q 213.41 1008.77 219.10 1024.79
  Q 224.46 1039.87 225.13 1041.63
  Q 231.55 1058.37 245.92 1089.83
  Q 248.88 1096.31 254.41 1106.52
  C 259.95 1116.75 264.12 1125.52 269.98 1135.07
  Q 279.28 1150.22 292.97 1171.24
  Q 301.17 1183.82 309.61 1194.44
  Q 328.58 1218.30 331.55 1221.83
  Q 346.17 1239.18 370.20 1263.94
  C 374.10 1267.96 378.89 1272.09 383.13 1276.49
  Q 387.92 1281.45 396.69 1288.92
  C 401.82 1293.30 408.26 1299.74 414.98 1305.16
  Q 431.01 1318.12 432.46 1319.27
  Q 459.34 1340.78 488.27 1357.86
  C 492.15 1360.14 495.99 1363.33 500.51 1365.77
  C 507.29 1369.43 512.04 1372.52 517.40 1375.14
  Q 523.88 1378.30 541.45 1387.95
  C 544.84 1389.81 549.34 1391.40 552.51 1393.00
  C 559.19 1396.37 567.55 1400.52 575.16 1403.43
  C 583.67 1406.67 601.58 1414.69 613.26 1418.44
  Q 641.61 1427.52 673.50 1435.20
  C 692.26 1439.72 708.28 1442.02 728.73 1445.34
  C 733.28 1446.08 737.11 1445.89 740.92 1446.64
  Q 744.45 1447.34 749.64 1447.82
  Q 784.88 1451.06 804.02 1451.16
  Q 822.19 1451.26 846.24 1450.38
  Q 849.85 1450.25 856.83 1449.61
  Q 861.16 1449.21 867.44 1448.90
  Q 883.43 1448.10 898.29 1445.93
  Q 906.58 1444.72 911.86 1444.00
  Q 931.61 1441.34 937.92 1439.87
  Q 970.81 1432.22 971.18 1432.13
  Q 992.00 1426.70 996.31 1425.51
  Q 1002.62 1423.77 1005.23 1422.86
  C 1012.75 1420.23 1019.70 1418.51 1027.28 1415.54
  C 1034.30 1412.80 1040.10 1411.25 1046.60 1408.29
  Q 1046.96 1408.12 1055.87 1404.62
  Q 1077.29 1396.19 1108.97 1379.73
  Q 1114.38 1376.92 1114.71 1376.75
  Q 1118.87 1374.65 1120.41 1373.73
  Q 1134.08 1365.61 1141.72 1361.00
  Q 1149.06 1356.57 1152.95 1353.98
  Q 1159.45 1349.64 1173.94 1340.34
  C 1178.56 1337.36 1182.32 1334.30 1186.68 1331.35
  Q 1189.62 1329.36 1195.97 1324.27
  Q 1203.37 1318.34 1215.14 1309.48
  C 1218.52 1306.93 1221.11 1304.27 1224.12 1302.03
  Q 1226.93 1299.94 1230.83 1296.36
  Q 1262.61 1267.18 1291.27 1236.94
  C 1295.19 1232.80 1299.13 1227.97 1303.25 1223.33
  Q 1307.61 1218.42 1311.92 1212.87
  Q 1318.90 1203.87 1320.18 1201.73
  Q 1320.29 1201.55 1327.69 1191.71
  Q 1332.45 1185.39 1335.11 1181.64
  Q 1361.41 1144.47 1380.81 1106.61
  Q 1382.53 1103.27 1387.68 1092.75
  Q 1390.93 1086.10 1394.10 1078.68
  C 1398.24 1068.98 1401.48 1062.23 1404.44 1054.18
  Q 1407.19 1046.70 1408.57 1043.68
  C 1413.90 1032.01 1416.82 1021.17 1421.16 1008.22
  Q 1425.38 995.64 1433.03 966.56
  C 1434.06 962.65 1434.55 957.71 1435.63 954.24
  Q 1436.89 950.21 1437.74 945.05
  Q 1437.92 943.96 1440.71 930.50
  C 1442.09 923.84 1442.63 916.39 1444.04 909.41
  C 1444.93 905.08 1444.99 900.31 1446.12 895.84
  A 2.04 1.04 83.1 0 0 1446.17 895.59
  L 1448.34 872.38
  A 1.13 1.13 0.0 0 0 1447.21 871.14
  L 1352.97 870.85
  A 0.12 0.11 -6.4 0 1 1352.86 870.77
  L 1352.80 870.51
  A 0.28 0.28 0.0 0 1 1353.07 870.19
  L 1355.96 870.06
  L 1448.07 869.83
  A 0.30 0.29 -85.4 0 0 1448.36 869.58
  C 1449.67 860.93 1449.75 853.05 1450.22 843.56
  Q 1451.48 818.12 1451.00 802.00
  Q 1450.20 775.42 1449.39 763.76
  Q 1448.20 746.58 1444.83 718.07
  Q 1444.50 715.32 1444.11 713.97
  C 1443.14 710.67 1443.30 707.74 1442.62 703.67
  Q 1437.30 672.14 1433.06 655.91
  Q 1427.26 633.67 1425.35 627.20
  Q 1402.86 550.94 1363.84 482.44
  C 1346.32 451.69 1326.69 423.45 1304.93 397.15
  Q 1290.87 380.15 1288.02 376.98
  Q 1276.01 363.58 1256.02 344.11
  Q 1240.40 328.90 1224.89 316.04
  Q 1204.87 299.43 1192.02 290.02
  Q 1159.46 266.16 1120.63 245.37
  Q 1034.57 199.27 937.91 180.36
  C 935.34 179.86 933.22 179.87 931.17 179.22
  Q 929.04 178.55 926.20 178.15
  Q 916.85 176.82 907.30 175.22
  Q 899.05 173.83 874.15 171.48
  C 871.69 171.25 869.18 170.84 866.49 170.64
  Q 817.65 167.01 768.81 170.39
  C 763.60 170.75 759.73 171.51 755.14 171.79
  Q 751.07 172.03 744.89 172.83
  C 734.39 174.18 726.86 174.97 718.79 176.35
  Q 715.38 176.93 711.91 177.42
  Q 707.93 177.98 701.64 179.26
  Q 691.25 181.36 687.57 182.12
  Q 661.75 187.42 635.72 195.26
  Q 582.81 211.20 533.09 235.98
  C 517.82 243.59 500.61 253.26 486.60 261.63
  Q 441.94 288.29 398.86 326.36
  Q 364.12 357.05 338.55 386.84
  C 326.08 401.36 313.67 417.44 302.83 432.58
  Q 301.47 434.48 293.19 446.78
  Q 285.97 457.48 283.73 461.10
  Q 255.38 506.79 234.44 556.91
  Q 227.85 572.67 222.31 588.94
  Q 216.06 607.31 211.76 621.50
  Q 202.40 652.35 196.16 684.58
  Q 191.18 710.23 188.26 734.51
  Q 187.35 742.03 186.38 754.24
  C 186.21 756.35 185.52 758.96 185.41 761.25
  Q 184.88 771.69 183.91 788.78
  Q 182.99 805.09 183.53 827.50
  Q 184.02 847.61 185.25 868.91
  A 0.97 0.96 -88.2 0 0 186.09 869.81
  L 188.69 870.14
  A 0.20 0.17 49.7 0 0 188.75 870.15
  L 256.40 870.12
  Z"
/>
<path fill="#bcae8a" d="
  M 1303.16 869.62
  L 1296.79 869.68
  Q 1297.52 869.03 1296.79 868.15
  A 1.25 1.24 37.3 0 1 1296.61 866.84
  L 1297.71 864.34
  A 4.76 4.38 -28.6 0 0 1297.99 863.52
  Q 1302.33 845.46 1296.48 828.35
  Q 1294.97 823.93 1298.99 819.96
  Q 1308.09 810.98 1313.66 802.67
  Q 1314.57 801.33 1319.88 791.52
  C 1324.76 782.53 1327.75 774.11 1329.57 764.60
  Q 1329.81 763.34 1330.84 754.86
  Q 1331.64 748.37 1331.75 745.09
  Q 1332.23 730.76 1329.31 716.39
  Q 1327.43 707.12 1322.89 697.35
  Q 1322.48 696.47 1322.15 696.17
  A 1.42 1.27 -53.0 0 0 1320.11 696.57
  C 1314.42 705.68 1305.35 712.02 1296.35 718.88
  A 2.56 2.54 69.2 0 0 1295.36 721.11
  Q 1296.44 734.22 1295.00 747.26
  Q 1293.39 761.93 1289.12 772.75
  Q 1283.75 786.33 1273.51 798.61
  Q 1271.16 801.42 1268.80 803.21
  C 1267.04 804.54 1264.69 807.12 1262.20 809.02
  Q 1249.76 818.52 1235.13 824.13
  Q 1233.77 824.65 1229.39 825.65
  C 1223.64 826.97 1217.47 825.87 1212.18 823.35
  A 3.31 3.25 83.4 0 1 1211.03 822.42
  C 1207.48 817.86 1206.08 809.72 1210.50 805.19
  Q 1215.50 800.08 1220.04 798.54
  Q 1229.62 795.30 1232.90 793.64
  Q 1240.93 789.60 1250.19 781.30
  C 1253.48 778.35 1257.54 773.04 1259.30 769.30
  C 1260.71 766.30 1264.03 759.88 1265.18 755.45
  Q 1267.86 745.18 1267.21 733.77
  A 1.71 1.70 -5.8 0 0 1265.25 732.18
  Q 1249.15 734.64 1233.00 731.47
  Q 1222.43 729.39 1214.09 722.72
  Q 1207.50 717.45 1207.54 709.77
  Q 1207.55 706.44 1210.37 702.52
  C 1214.10 697.33 1223.10 697.70 1228.69 699.53
  C 1233.47 701.10 1238.47 703.50 1243.17 704.10
  Q 1254.14 705.49 1264.84 703.06
  Q 1269.71 701.95 1276.24 698.51
  Q 1282.21 695.36 1286.57 691.83
  Q 1287.46 691.11 1293.34 685.41
  C 1300.52 678.45 1306.04 670.38 1309.82 661.33
  C 1312.21 655.60 1313.58 647.44 1316.71 639.93
  A 6.85 6.82 -14.8 0 1 1317.58 638.44
  C 1321.14 633.84 1324.82 626.81 1325.35 620.78
  Q 1326.39 608.99 1323.74 601.28
  Q 1321.80 595.64 1316.99 589.01
  Q 1314.03 584.93 1308.88 581.15
  Q 1302.76 576.66 1298.29 573.22
  A 7.43 7.43 0.0 0 1 1296.03 570.37
  Q 1292.58 562.71 1287.93 556.02
  Q 1284.45 551.01 1281.92 548.59
  C 1277.93 544.78 1274.46 540.51 1270.06 537.88
  Q 1264.21 534.39 1256.21 532.79
  C 1251.73 531.89 1245.72 532.89 1242.27 534.00
  C 1236.89 535.72 1235.07 541.75 1232.30 545.55
  Q 1230.97 547.37 1228.87 546.63
  Q 1223.74 544.82 1220.77 542.98
  C 1217.40 540.89 1215.06 534.33 1215.07 530.26
  C 1215.09 524.92 1214.87 521.19 1218.05 517.78
  C 1224.49 510.87 1231.01 506.24 1240.79 504.78
  Q 1251.54 503.18 1262.45 504.97
  A 0.83 0.82 -84.1 0 0 1263.40 504.19
  C 1263.74 496.84 1261.76 491.50 1259.43 483.01
  Q 1257.91 477.49 1255.32 472.44
  Q 1248.75 459.62 1242.37 452.11
  Q 1235.74 444.31 1223.35 434.44
  C 1221.24 432.76 1218.05 431.38 1216.42 430.52
  Q 1213.51 428.97 1212.40 431.93
  Q 1211.54 434.21 1208.86 442.91
  C 1205.55 453.59 1194.90 479.19 1180.55 478.10
  Q 1176.26 477.78 1172.57 475.64
  C 1169.58 473.89 1168.09 468.94 1167.37 465.67
  Q 1166.87 463.42 1168.26 460.49
  C 1170.69 455.36 1174.52 450.56 1176.88 445.55
  Q 1188.21 421.51 1183.04 394.95
  Q 1180.07 379.66 1171.52 366.99
  Q 1171.03 366.27 1163.35 357.16
  Q 1160.18 353.39 1156.91 350.60
  C 1151.17 345.71 1149.55 344.36 1143.85 340.46
  Q 1140.97 338.49 1137.51 336.78
  Q 1125.23 330.72 1114.63 326.92
  A 1.01 1.01 0.0 0 0 1113.28 327.94
  Q 1113.68 334.00 1112.42 340.47
  Q 1110.03 352.75 1105.33 365.08
  C 1104.17 368.11 1105.40 370.60 1107.73 373.05
  Q 1112.87 378.46 1115.70 381.61
  Q 1120.72 387.19 1126.26 398.45
  Q 1131.90 409.91 1132.80 422.72
  C 1133.36 430.64 1131.34 443.96 1122.87 447.57
  A 1.98 1.97 67.5 0 1 1120.25 446.48
  C 1117.32 439.11 1115.31 430.56 1111.26 423.21
  Q 1105.36 412.48 1099.83 404.42
  C 1097.46 400.97 1093.42 397.04 1091.23 393.34
  C 1089.48 390.38 1087.98 389.27 1086.34 386.75
  Q 1086.04 386.28 1084.16 384.38
  Q 1068.54 368.56 1048.02 360.28
  C 1045.52 359.28 1043.70 357.85 1042.90 354.93
  C 1041.38 349.43 1040.43 342.25 1046.56 339.49
  C 1050.63 337.66 1054.33 335.75 1058.39 336.86
  Q 1060.29 337.38 1065.81 339.90
  Q 1073.43 343.39 1078.86 349.05
  A 0.98 0.98 0.0 0 0 1080.46 348.77
  Q 1081.09 347.35 1081.33 345.94
  C 1082.72 338.08 1083.55 334.83 1083.90 327.90
  C 1084.15 322.94 1084.48 316.29 1081.76 311.60
  Q 1074.64 299.29 1063.59 289.22
  Q 1050.99 277.74 1039.27 272.02
  Q 1025.97 265.53 1021.81 264.17
  Q 1011.08 260.66 1006.24 260.23
  Q 999.70 259.65 992.29 258.34
  A 0.98 0.98 0.0 0 0 991.21 259.66
  Q 991.86 261.34 992.04 263.14
  Q 993.06 273.23 992.89 282.46
  Q 992.85 284.41 992.08 287.82
  C 989.01 301.25 979.76 307.30 967.24 299.45
  A 3.20 3.18 4.7 0 1 966.01 298.01
  Q 964.00 293.25 964.28 288.62
  Q 964.81 279.88 962.30 267.90
  Q 960.94 261.39 958.17 256.66
  C 954.10 249.67 949.58 243.38 943.04 238.75
  C 936.54 234.15 930.97 230.61 924.25 228.71
  C 920.28 227.58 916.88 226.02 913.04 225.44
  Q 889.38 221.91 869.95 235.25
  Q 863.21 239.87 856.83 247.56
  Q 849.59 256.27 846.71 266.44
  Q 844.72 273.48 841.59 285.30
  Q 840.43 289.66 839.89 294.81
  C 839.39 299.67 838.17 304.68 838.09 308.74
  Q 837.96 316.25 837.41 324.48
  Q 835.38 354.46 834.59 383.75
  A 1.96 1.96 0.0 0 1 833.63 385.38
  L 830.99 386.94
  A 3.72 3.66 7.6 0 0 830.26 387.49
  Q 818.23 398.89 808.87 411.37
  Q 799.21 424.25 797.87 426.12
  Q 796.92 427.46 796.46 427.67
  A 2.22 2.15 69.5 0 1 793.50 426.26
  Q 790.24 415.68 790.39 405.38
  C 790.48 399.10 777.55 387.54 772.67 383.46
  C 770.02 381.25 766.44 379.62 764.00 377.66
  C 758.62 373.34 750.07 370.64 743.86 369.05
  C 737.86 367.52 729.47 367.96 724.51 367.99
  C 718.34 368.03 712.37 366.39 710.38 360.66
  Q 708.02 353.89 710.94 348.62
  C 717.04 337.61 732.68 339.36 743.03 340.36
  Q 748.83 340.92 755.09 343.37
  Q 769.93 349.17 771.05 349.76
  Q 781.16 355.08 788.10 358.72
  Q 790.15 359.79 791.78 362.12
  A 0.50 0.50 0.0 0 0 792.69 361.91
  L 793.20 358.68
  A 2.25 1.73 -48.7 0 0 793.23 358.23
  Q 792.26 333.36 792.21 325.50
  Q 792.08 305.11 791.73 293.75
  Q 791.28 279.26 786.56 264.19
  C 783.09 253.09 775.17 243.34 765.98 236.29
  C 762.19 233.38 759.92 231.61 755.06 230.25
  Q 739.22 225.84 722.25 227.46
  Q 719.83 227.69 704.24 231.90
  A 4.68 4.58 20.0 0 0 702.85 232.53
  L 693.52 238.73
  A 2.02 2.01 -39.8 0 0 693.23 241.86
  C 695.62 244.18 699.20 247.01 702.52 249.06
  Q 711.27 254.45 715.71 257.28
  Q 717.25 258.25 719.87 261.11
  A 5.02 4.92 13.1 0 1 720.83 262.62
  Q 725.04 272.84 720.15 281.96
  A 3.74 3.72 -5.9 0 1 719.26 283.05
  C 716.99 284.98 712.78 286.21 709.54 285.14
  Q 708.56 284.81 706.17 284.68
  A 3.67 3.60 59.1 0 1 704.76 284.31
  Q 697.41 280.66 690.79 274.63
  C 680.82 265.55 669.86 259.31 656.66 257.46
  Q 641.97 255.41 623.56 259.25
  Q 622.00 259.58 613.38 262.87
  Q 608.45 264.75 603.63 267.44
  C 594.82 272.35 586.35 277.12 579.74 283.50
  Q 569.14 293.72 559.57 307.84
  Q 557.55 310.81 557.32 312.59
  C 556.25 320.66 556.51 332.68 546.98 332.73
  Q 541.02 332.77 536.29 330.77
  A 8.74 8.69 56.1 0 0 532.94 330.10
  C 523.72 330.10 513.53 330.78 504.87 334.90
  C 501.41 336.54 496.46 338.44 492.90 340.66
  Q 474.95 351.88 463.55 368.79
  Q 461.72 371.50 458.69 377.26
  C 455.64 383.04 454.49 389.35 452.42 395.48
  A 2.19 2.19 0.0 0 0 454.04 398.33
  C 458.96 399.36 463.38 399.95 467.78 401.74
  C 477.60 405.75 487.24 410.09 495.10 416.62
  A 4.80 4.68 5.3 0 1 496.13 417.83
  Q 497.11 419.47 497.28 423.78
  Q 497.62 432.29 491.82 436.84
  C 486.06 441.38 477.52 438.11 470.41 434.89
  A 3.11 3.05 -9.4 0 1 469.54 434.28
  Q 468.10 432.84 464.33 430.92
  C 441.67 419.37 414.43 428.08 397.52 445.63
  Q 390.52 452.90 386.25 459.26
  Q 384.21 462.31 379.96 471.04
  C 377.53 476.04 376.54 481.09 375.01 486.78
  C 373.18 493.62 373.02 503.43 372.61 508.31
  A 0.85 0.85 0.0 0 0 373.75 509.18
  C 377.45 507.87 380.98 508.21 384.46 507.72
  C 392.53 506.57 404.91 505.92 415.09 503.18
  A 13.33 13.30 22.0 0 0 418.47 501.75
  L 425.89 497.30
  A 10.21 10.00 6.9 0 0 427.69 495.92
  Q 431.11 492.63 438.31 485.07
  C 441.25 481.98 445.16 481.53 449.29 481.31
  Q 457.57 480.86 460.21 488.13
  C 463.08 496.05 458.38 502.31 454.13 508.36
  Q 452.42 510.78 449.67 513.49
  Q 435.41 527.52 415.58 531.80
  Q 405.01 534.09 397.23 534.88
  Q 389.03 535.72 386.37 536.37
  C 361.71 542.37 340.13 561.38 330.16 584.74
  Q 326.76 592.72 324.01 601.77
  C 321.18 611.10 321.54 616.29 321.42 628.99
  C 321.33 638.34 322.94 646.21 326.04 654.58
  Q 331.60 669.60 345.69 679.41
  C 352.34 684.04 359.65 685.88 367.80 687.81
  A 3.41 3.27 -23.6 0 1 368.67 688.13
  Q 376.07 692.08 377.70 701.35
  Q 378.80 707.65 374.42 711.13
  Q 368.60 715.77 362.01 716.11
  Q 358.58 716.28 352.17 713.56
  Q 338.25 707.65 336.12 706.64
  Q 324.82 701.29 317.47 691.38
  A 0.86 0.85 -50.3 0 0 316.01 691.52
  C 309.26 705.38 305.23 721.42 306.31 737.06
  C 307.07 747.99 311.19 759.77 315.79 770.10
  A 1.49 1.49 0.0 0 1 314.17 772.17
  Q 301.39 769.89 288.75 770.36
  A 4.35 4.30 -54.8 0 0 287.52 770.58
  L 285.68 771.18
  A 2.37 2.36 73.5 0 1 282.65 769.53
  Q 278.66 754.23 277.87 737.10
  Q 277.07 719.89 281.13 704.70
  Q 286.56 684.36 298.53 666.77
  A 1.95 1.93 -38.0 0 0 298.75 665.05
  C 297.34 661.04 295.63 655.81 294.71 651.54
  Q 290.85 633.55 293.18 612.99
  Q 294.77 598.92 297.35 590.32
  C 305.24 563.99 320.01 539.72 342.76 523.92
  A 1.32 1.31 70.3 0 0 343.31 522.74
  Q 340.13 483.14 359.69 448.95
  Q 363.64 442.04 373.94 429.42
  Q 379.57 422.53 391.32 413.94
  C 400.53 407.20 411.56 402.93 422.23 399.35
  A 1.31 1.31 0.0 0 0 423.11 398.32
  C 426.44 378.37 434.32 358.60 447.19 343.68
  Q 454.97 334.65 461.38 328.87
  Q 469.00 322.00 475.74 318.01
  C 478.70 316.25 484.79 312.35 488.79 310.42
  Q 507.72 301.27 529.22 300.03
  C 531.45 299.90 532.28 299.11 533.25 297.24
  C 539.53 285.22 548.27 272.98 558.49 264.42
  C 560.50 262.74 561.79 261.05 563.77 259.48
  Q 582.81 244.42 605.55 236.04
  Q 608.97 234.78 620.21 231.50
  Q 623.38 230.57 633.37 229.09
  C 643.07 227.65 652.96 227.98 661.82 227.62
  Q 664.63 227.51 666.26 225.78
  Q 674.19 217.44 684.00 211.75
  Q 688.40 209.19 696.57 205.34
  Q 699.63 203.90 709.75 200.89
  Q 716.80 198.79 723.42 198.38
  Q 740.66 197.33 752.04 200.01
  Q 764.06 202.84 778.21 209.89
  Q 790.18 215.84 800.19 227.19
  Q 804.64 232.24 806.45 235.57
  Q 813.35 248.28 817.23 261.25
  A 0.65 0.65 0.0 0 0 818.48 261.25
  C 820.67 254.13 823.37 247.23 827.18 241.14
  C 829.40 237.61 830.75 234.10 833.44 230.67
  Q 854.55 203.75 887.70 197.46
  Q 898.05 195.49 907.42 196.33
  Q 919.13 197.39 926.99 199.67
  Q 951.64 206.85 972.67 227.73
  Q 974.22 229.26 977.75 229.32
  C 984.23 229.44 993.74 229.42 1001.70 230.79
  Q 1026.93 235.12 1045.91 243.91
  Q 1053.21 247.29 1065.30 255.04
  Q 1076.86 262.45 1084.70 270.20
  C 1088.41 273.86 1090.78 277.41 1094.14 281.06
  C 1097.48 284.69 1099.37 287.99 1102.94 293.80
  A 3.45 3.44 -9.7 0 0 1105.14 295.35
  Q 1115.01 297.43 1122.74 299.51
  Q 1148.31 306.40 1168.38 322.86
  Q 1171.10 325.09 1178.10 331.15
  Q 1183.11 335.49 1186.96 340.27
  Q 1194.88 350.09 1200.96 360.81
  C 1207.41 372.17 1210.78 383.03 1213.16 395.69
  Q 1213.73 398.73 1216.27 399.56
  C 1235.25 405.82 1250.15 417.84 1263.77 432.78
  C 1273.55 443.52 1280.80 456.37 1286.10 469.88
  Q 1289.99 479.78 1291.57 489.33
  Q 1294.00 504.08 1293.88 518.76
  A 4.90 4.88 21.0 0 0 1295.54 522.47
  Q 1310.01 535.16 1320.85 550.87
  Q 1327.11 559.95 1333.43 573.93
  Q 1335.01 577.41 1336.12 580.53
  Q 1337.33 583.89 1338.46 587.14
  Q 1342.08 597.54 1343.43 606.87
  Q 1343.45 607.05 1345.30 623.25
  Q 1345.70 626.70 1345.29 633.18
  Q 1344.16 651.14 1339.44 667.65
  A 2.41 2.38 37.8 0 0 1339.69 669.55
  Q 1350.42 687.42 1355.88 708.92
  Q 1360.61 727.58 1359.89 745.46
  C 1359.35 758.79 1357.60 772.45 1352.86 784.87
  C 1350.54 790.95 1347.68 798.40 1344.86 803.69
  Q 1339.29 814.16 1330.59 824.43
  A 3.28 3.25 -28.9 0 0 1329.84 826.97
  Q 1331.48 839.24 1329.24 851.52
  Q 1326.85 864.58 1326.57 865.69
  A 2.75 2.74 3.8 0 1 1324.20 867.76
  Q 1315.62 868.71 1306.18 868.08
  Q 1304.86 867.99 1303.84 868.19
  Q 1301.94 868.56 1303.16 869.62
  Z"
/>
<path fill="#bcae8a" d="
  M 890.47 352.13
  A 0.85 0.84 1.7 0 1 889.58 351.19
  Q 891.22 336.91 898.09 324.32
  Q 900.60 319.70 902.34 316.31
  C 906.15 308.85 914.34 303.01 923.09 304.23
  C 930.78 305.30 935.28 312.58 933.86 320.03
  A 2.82 2.73 64.6 0 1 933.64 320.68
  L 924.44 340.09
  A 5.03 5.02 -4.2 0 1 922.66 342.15
  C 921.06 343.23 918.32 344.47 916.27 344.99
  Q 909.02 346.81 901.78 348.55
  Q 896.54 349.81 891.24 351.92
  Q 890.76 352.11 890.47 352.13
  Z"
/>
<path fill="#bcae8a" d="
  M 521.57 548.36
  Q 518.12 536.33 516.92 524.28
  C 515.07 505.64 518.22 489.47 525.00 470.43
  Q 526.47 466.30 529.64 460.05
  Q 534.32 450.80 534.69 449.85
  C 536.06 446.31 541.32 440.75 540.81 437.01
  Q 540.50 434.66 538.93 424.47
  C 537.99 418.35 536.07 411.93 533.98 406.56
  Q 528.80 393.22 527.70 388.61
  C 525.55 379.54 534.74 373.72 542.76 374.01
  C 548.82 374.24 553.89 380.17 556.26 385.25
  Q 562.44 398.53 565.48 412.75
  A 1.07 1.06 -20.1 0 0 567.03 413.46
  Q 572.18 410.67 580.30 406.69
  C 587.45 403.18 594.69 400.92 601.93 399.24
  A 1.85 1.84 -9.6 0 0 603.35 397.25
  Q 602.58 389.49 601.73 383.95
  C 600.01 372.70 600.98 362.62 604.66 352.85
  Q 605.38 350.92 607.94 346.21
  Q 608.61 344.97 611.43 339.67
  C 618.61 326.21 633.34 315.01 646.80 308.68
  Q 650.23 307.07 655.73 306.86
  C 664.27 306.53 670.77 314.44 669.92 322.52
  C 669.38 327.74 664.48 332.82 659.89 334.97
  C 655.08 337.22 654.11 338.09 649.39 340.69
  C 641.08 345.26 634.82 352.50 631.32 361.47
  Q 629.85 365.24 629.57 370.72
  Q 629.17 378.64 629.36 380.17
  Q 630.62 390.13 633.65 395.42
  C 639.15 405.00 648.16 407.20 658.42 409.06
  Q 662.25 409.76 665.17 410.08
  C 680.17 411.73 692.69 415.02 704.64 421.90
  Q 708.71 424.25 713.90 429.13
  Q 723.34 438.00 729.43 450.11
  C 731.13 453.48 731.67 455.95 733.06 460.61
  Q 734.00 463.79 734.15 470.04
  C 734.48 483.37 720.96 486.00 711.57 480.18
  C 706.98 477.33 706.64 466.56 704.40 461.98
  Q 700.33 453.65 694.92 449.33
  Q 685.25 441.60 673.77 439.95
  C 663.94 438.54 655.31 438.15 646.17 435.84
  Q 635.15 433.05 631.73 431.51
  Q 624.29 428.15 616.71 426.35
  Q 610.97 424.98 604.88 426.92
  Q 589.86 431.68 579.01 440.78
  Q 573.15 445.69 566.79 452.91
  Q 560.95 459.53 557.03 467.06
  Q 550.64 479.32 548.43 486.45
  Q 548.04 487.70 545.74 498.69
  Q 544.31 505.53 544.34 511.16
  C 544.41 521.67 545.40 532.93 548.72 543.24
  Q 553.71 558.76 561.56 572.20
  Q 566.14 580.05 571.24 585.18
  Q 580.13 594.12 582.99 596.41
  Q 586.32 599.07 590.38 600.60
  Q 600.37 604.37 603.83 605.90
  Q 613.41 610.15 611.10 620.87
  Q 610.40 624.12 608.75 625.72
  Q 600.60 633.66 589.59 630.89
  Q 574.77 627.17 563.24 617.80
  Q 561.01 616.00 556.68 611.49
  C 551.98 606.61 547.57 600.68 543.11 594.92
  Q 536.23 586.01 525.40 581.19
  Q 516.22 577.10 505.48 577.72
  C 487.54 578.75 473.01 585.38 461.94 599.79
  Q 459.08 603.51 457.81 607.19
  C 456.63 610.65 454.70 613.82 453.69 617.75
  Q 449.49 634.14 455.12 648.90
  Q 458.80 658.54 466.88 665.88
  Q 475.31 673.53 485.40 674.54
  Q 496.82 675.68 507.01 669.55
  Q 507.80 669.07 512.78 664.08
  A 9.05 8.99 -7.5 0 0 514.11 662.36
  Q 515.99 659.11 517.67 656.64
  C 521.60 650.87 529.34 651.00 534.75 654.56
  Q 535.97 655.36 539.04 658.45
  C 543.29 662.73 540.92 671.11 538.43 675.71
  Q 535.11 681.85 530.20 687.20
  C 528.50 689.06 524.43 691.47 521.64 692.85
  Q 508.45 699.35 505.36 701.58
  Q 503.24 703.12 501.19 706.92
  Q 496.21 716.10 494.67 723.64
  C 493.35 730.08 491.85 737.48 491.86 744.46
  A 2.41 2.40 78.2 0 1 490.43 746.66
  Q 484.98 749.08 479.17 750.34
  A 1.91 1.78 -61.0 0 0 478.80 750.46
  L 464.25 756.26
  A 0.60 0.60 0.0 0 1 463.43 755.73
  Q 462.93 745.86 463.75 733.30
  Q 463.87 731.33 464.25 729.98
  C 464.97 727.38 464.07 725.86 465.02 723.49
  Q 465.21 723.01 465.45 720.28
  Q 465.82 716.00 467.54 710.94
  C 468.56 707.96 469.11 704.48 470.84 701.78
  A 0.72 0.71 -61.2 0 0 470.55 700.75
  C 465.47 698.35 459.56 696.09 455.19 693.22
  Q 444.45 686.16 437.54 675.37
  Q 433.88 669.64 428.28 661.15
  Q 424.30 655.13 419.33 649.92
  Q 410.60 640.75 397.63 637.12
  C 389.08 634.72 375.76 632.03 374.58 623.22
  C 373.54 615.48 376.91 608.76 384.80 607.07
  Q 390.57 605.84 395.27 606.98
  Q 408.61 610.19 421.31 616.76
  A 1.49 1.48 30.0 0 0 423.25 616.24
  Q 425.08 613.39 425.82 610.29
  Q 426.55 607.21 427.02 605.91
  Q 432.00 592.20 438.15 583.62
  Q 457.34 556.84 489.93 550.65
  Q 505.00 547.80 520.73 549.36
  A 0.79 0.79 0.0 0 0 521.57 548.36
  Z"
/>
<path fill="#415241" d="
  M 1181.91 869.70
  Q 1182.61 871.06 1182.96 872.51
  Q 1183.43 874.50 1183.87 875.37
  C 1189.21 886.04 1191.62 895.32 1194.74 908.14
  Q 1195.95 913.11 1196.36 916.50
  C 1197.24 923.98 1199.01 930.29 1199.63 937.53
  Q 1201.10 954.66 1201.03 959.76
  C 1200.95 965.06 1201.30 970.59 1200.93 974.93
  Q 1199.45 992.22 1195.31 1010.73
  C 1193.04 1020.90 1189.75 1028.85 1186.10 1039.30
  Q 1184.00 1045.31 1182.45 1048.46
  Q 1176.40 1060.79 1168.62 1074.25
  C 1164.90 1080.69 1159.93 1086.63 1155.38 1092.01
  A 0.87 0.87 0.0 0 0 1155.48 1093.23
  Q 1155.88 1093.59 1156.80 1093.74
  Q 1159.02 1094.11 1169.29 1094.65
  Q 1199.49 1096.23 1226.68 1100.61
  Q 1239.04 1102.60 1250.83 1105.77
  C 1256.83 1107.38 1275.15 1113.91 1268.89 1122.74
  Q 1267.14 1125.21 1261.89 1129.36
  Q 1259.15 1131.53 1247.58 1137.28
  C 1234.59 1143.73 1216.85 1149.22 1203.63 1153.14
  Q 1202.83 1153.38 1186.46 1157.50
  Q 1185.62 1157.71 1179.69 1159.38
  Q 1174.86 1160.74 1146.96 1166.85
  Q 1138.18 1168.78 1137.82 1168.87
  Q 1135.95 1169.35 1128.64 1170.84
  Q 1120.55 1172.49 1114.00 1174.01
  Q 1113.09 1174.23 1099.00 1176.59
  C 1096.24 1177.06 1092.90 1177.86 1090.23 1178.24
  Q 1074.72 1180.44 1066.97 1181.83
  C 1059.38 1183.19 1052.60 1183.82 1046.03 1184.80
  C 1033.88 1186.61 1017.82 1187.98 1008.10 1189.29
  C 992.27 1191.42 977.96 1192.08 962.71 1193.48
  C 955.12 1194.17 948.57 1193.94 940.19 1194.58
  Q 927.24 1195.58 915.82 1196.44
  Q 907.54 1197.07 899.94 1197.19
  C 886.36 1197.41 876.50 1198.22 863.51 1198.18
  C 858.10 1198.16 852.39 1198.66 847.50 1198.73
  Q 820.59 1199.13 786.51 1198.88
  Q 777.05 1198.81 773.00 1198.55
  Q 764.29 1197.99 760.50 1197.93
  Q 752.19 1197.78 748.01 1197.37
  C 741.10 1196.68 733.56 1197.38 726.01 1196.59
  Q 719.93 1195.95 709.00 1195.41
  Q 693.53 1194.65 682.93 1194.14
  C 672.12 1193.61 663.20 1192.50 654.26 1191.83
  Q 643.65 1191.03 632.78 1189.69
  Q 613.32 1187.30 603.74 1186.25
  Q 598.47 1185.67 596.06 1185.22
  C 589.07 1183.91 585.53 1183.78 577.19 1182.53
  C 558.90 1179.76 551.59 1178.74 537.64 1176.26
  Q 526.49 1174.28 522.72 1173.67
  C 514.96 1172.42 508.29 1170.67 501.82 1169.21
  C 497.97 1168.33 493.15 1168.09 489.07 1167.20
  Q 459.03 1160.72 453.94 1159.52
  Q 428.24 1153.45 403.39 1145.07
  Q 373.88 1135.12 370.90 1134.05
  Q 364.94 1131.91 347.96 1126.02
  Q 329.40 1119.58 312.30 1111.87
  C 307.81 1109.85 305.10 1107.97 300.76 1105.32
  Q 300.31 1105.04 298.00 1102.77
  A 1.17 1.17 0.0 0 1 298.50 1100.81
  Q 302.83 1099.54 308.24 1099.84
  A 8.03 7.71 -46.2 0 0 309.72 1099.78
  Q 319.98 1098.31 333.74 1098.34
  Q 341.18 1098.36 351.26 1097.68
  Q 363.47 1096.86 368.76 1096.80
  C 376.68 1096.70 384.57 1095.26 392.75 1095.07
  Q 410.60 1094.66 420.31 1094.59
  A 0.70 0.70 0.0 0 0 420.88 1093.48
  Q 418.00 1089.42 414.05 1085.57
  Q 412.73 1084.28 406.87 1078.05
  Q 399.36 1070.07 377.29 1041.96
  Q 362.91 1023.66 357.20 1014.52
  C 354.05 1009.48 349.73 1004.72 346.95 1000.62
  Q 336.85 985.78 330.69 977.37
  Q 321.66 965.06 314.21 954.30
  Q 309.50 947.51 290.05 920.65
  Q 288.06 917.90 286.69 915.86
  Q 279.99 905.87 275.07 898.29
  C 272.95 895.04 271.76 892.59 270.03 890.03
  Q 268.21 887.34 266.26 883.84
  Q 262.10 876.36 257.44 869.19
  Q 256.99 868.27 256.43 867.28
  Q 249.39 854.95 244.77 840.74
  Q 243.43 836.60 243.87 831.48
  A 1.70 1.68 -18.1 0 1 244.45 830.35
  L 246.36 828.69
  A 1.81 1.75 -68.0 0 1 247.35 828.25
  Q 251.66 827.77 255.69 829.29
  Q 275.08 836.62 291.31 842.57
  Q 300.03 845.76 308.90 848.48
  Q 325.22 853.48 326.69 853.84
  Q 332.00 855.14 335.26 855.52
  A 0.52 0.52 0.0 0 0 335.60 854.56
  Q 330.58 851.38 324.49 846.58
  Q 312.93 837.48 302.00 827.59
  Q 290.81 817.49 283.40 804.60
  C 280.28 799.18 277.57 787.90 287.26 786.95
  C 294.46 786.24 300.84 787.31 309.29 788.77
  C 320.42 790.69 334.16 792.89 346.98 793.11
  Q 366.58 793.45 382.52 792.61
  Q 384.28 792.51 399.77 790.53
  Q 409.14 789.33 416.89 787.62
  C 443.55 781.71 467.78 774.60 493.15 765.59
  Q 498.63 763.64 554.81 743.05
  Q 558.36 741.75 584.21 733.54
  C 593.79 730.51 602.15 728.53 612.27 725.78
  Q 626.52 721.90 640.66 719.57
  A 3.55 3.47 -61.6 0 0 641.62 719.27
  Q 642.63 718.81 643.00 718.75
  Q 670.71 714.37 678.55 713.66
  Q 719.73 709.94 762.33 713.08
  Q 769.61 713.62 773.69 714.24
  C 778.40 714.95 783.03 715.15 788.77 716.05
  Q 801.25 717.99 822.36 721.70
  Q 822.86 721.79 823.15 721.93
  A 0.53 0.52 -87.8 0 0 823.86 721.27
  Q 815.25 697.52 812.93 691.13
  Q 808.17 678.06 803.53 663.14
  Q 795.33 636.79 794.84 634.93
  Q 790.39 618.27 788.19 606.60
  Q 788.18 606.51 787.98 606.14
  Q 787.80 605.78 787.78 605.64
  Q 784.66 588.70 784.00 582.04
  Q 783.10 572.94 782.90 570.60
  Q 780.64 543.40 784.49 516.01
  Q 789.94 477.37 809.05 443.83
  C 833.64 400.66 875.71 369.81 924.45 360.33
  C 931.31 358.99 939.21 358.33 946.25 357.59
  Q 953.43 356.84 965.61 357.44
  Q 968.73 357.60 980.90 359.24
  Q 989.16 360.35 995.96 361.92
  Q 1029.37 369.64 1056.39 390.01
  Q 1083.45 410.40 1095.95 440.77
  C 1100.90 452.80 1102.97 460.11 1108.61 477.12
  Q 1109.74 480.53 1114.91 487.44
  C 1122.54 497.66 1130.23 505.14 1140.78 514.50
  C 1154.08 526.33 1168.07 535.72 1183.87 544.60
  Q 1196.86 551.90 1204.23 555.52
  C 1222.57 564.52 1241.20 571.66 1259.75 577.95
  Q 1272.08 582.13 1281.00 586.27
  C 1290.66 590.76 1300.94 597.11 1303.56 608.30
  C 1306.07 619.03 1301.76 629.18 1292.61 635.47
  Q 1286.48 639.68 1279.56 642.30
  C 1272.32 645.04 1262.93 647.43 1254.29 648.37
  Q 1240.80 649.86 1228.25 649.55
  Q 1200.65 648.88 1188.95 647.18
  Q 1188.43 647.10 1181.00 646.14
  C 1173.29 645.14 1166.93 644.10 1158.08 642.81
  Q 1148.24 641.38 1127.75 636.74
  Q 1114.28 633.70 1075.76 623.25
  C 1069.70 621.60 1063.25 620.32 1058.26 619.61
  Q 1047.38 618.06 1037.26 621.04
  C 1022.54 625.39 1016.96 635.86 1019.31 650.73
  C 1021.17 662.47 1027.94 674.39 1035.47 684.07
  Q 1044.51 695.70 1053.89 704.88
  Q 1068.64 719.31 1095.82 746.25
  Q 1103.83 754.18 1119.18 771.87
  Q 1137.82 793.33 1152.84 817.38
  Q 1171.35 847.03 1181.91 869.70
  Z
  M 843.72 689.81
  Q 844.28 689.28 844.80 689.07
  A 1.52 1.50 -42.2 0 1 846.01 689.12
  Q 848.67 690.44 849.55 690.52
  Q 854.42 690.94 859.99 693.00
  Q 861.86 693.69 865.85 693.98
  A 12.59 12.06 53.7 0 1 868.20 694.39
  C 876.23 696.62 884.90 696.92 891.97 698.00
  C 898.17 698.95 903.42 698.92 909.03 699.67
  Q 914.62 700.41 921.83 700.13
  Q 936.46 699.57 950.25 698.82
  Q 955.78 698.52 961.77 697.57
  C 970.23 696.24 973.71 696.12 979.80 694.54
  Q 981.60 694.08 986.88 693.48
  A 2.21 1.79 -49.1 0 0 987.16 693.42
  L 1001.71 688.84
  A 0.81 0.69 -49.7 0 1 1001.95 688.80
  L 1005.02 688.69
  A 0.99 0.98 71.5 0 0 1005.79 687.14
  Q 1003.44 683.78 1001.84 680.93
  Q 997.90 673.94 993.78 665.71
  Q 985.89 649.96 986.66 632.44
  Q 986.92 626.64 990.49 619.57
  Q 993.18 614.25 999.37 609.60
  C 1008.69 602.61 1017.89 598.35 1028.75 593.26
  Q 1034.71 590.47 1045.28 582.95
  C 1054.56 576.35 1062.48 567.11 1068.18 558.20
  Q 1075.22 547.23 1078.24 532.73
  C 1079.01 529.05 1080.75 521.89 1080.94 517.18
  C 1081.32 508.15 1081.52 498.81 1080.10 489.85
  Q 1078.79 481.68 1078.44 479.58
  Q 1073.92 452.67 1058.28 431.12
  C 1053.41 424.40 1046.61 417.83 1040.92 412.82
  Q 1028.65 402.03 1011.91 395.63
  Q 1000.41 391.23 987.25 388.50
  Q 975.02 385.96 961.75 385.70
  Q 949.36 385.46 935.72 386.81
  Q 929.68 387.41 923.52 389.02
  Q 912.80 391.84 911.54 392.27
  Q 890.33 399.59 872.56 413.05
  C 864.71 418.98 856.68 426.72 850.71 433.44
  Q 839.87 445.64 831.04 462.73
  Q 823.65 477.04 820.57 486.51
  Q 817.68 495.39 814.52 510.50
  C 811.15 526.57 810.60 543.32 811.02 561.08
  C 811.23 570.19 812.62 581.34 814.25 589.57
  Q 815.72 596.94 816.59 601.43
  C 820.30 620.70 825.77 639.70 832.93 661.10
  C 834.25 665.03 835.27 670.24 837.04 674.25
  Q 838.15 676.76 842.38 689.47
  A 0.82 0.82 0.0 0 0 843.72 689.81
  Z
  M 1063.25 596.13
  A 0.20 0.20 0.0 0 0 1063.32 596.50
  Q 1076.60 599.41 1087.59 602.40
  Q 1096.93 604.93 1123.74 611.78
  Q 1148.54 618.12 1180.72 622.70
  Q 1183.71 623.13 1185.27 623.34
  C 1199.84 625.38 1215.52 626.87 1230.84 627.01
  Q 1243.72 627.13 1250.50 626.43
  Q 1263.06 625.15 1266.74 624.06
  Q 1274.43 621.79 1279.20 618.81
  C 1282.53 616.73 1282.49 612.43 1279.41 610.06
  C 1275.46 607.03 1271.00 604.99 1265.98 603.27
  Q 1258.86 600.82 1237.64 593.92
  C 1228.26 590.87 1217.98 586.18 1209.58 582.88
  Q 1206.21 581.55 1199.35 578.21
  Q 1189.42 573.37 1189.13 573.23
  Q 1170.23 563.98 1155.02 553.83
  C 1152.08 551.86 1148.80 549.13 1145.45 546.95
  Q 1141.67 544.49 1138.29 541.74
  Q 1121.82 528.38 1110.01 513.97
  Q 1107.77 511.25 1105.40 507.72
  A 0.37 0.37 0.0 0 0 1104.73 507.96
  Q 1105.55 515.49 1104.37 524.00
  Q 1103.87 527.60 1102.19 535.50
  Q 1099.44 548.47 1094.85 558.83
  C 1087.94 574.42 1077.53 586.76 1063.25 596.13
  Z
  M 893.54 736.92
  Q 905.02 738.67 909.93 738.83
  Q 930.24 739.52 950.02 738.61
  Q 954.92 738.39 961.06 737.53
  C 965.36 736.94 974.48 736.24 981.33 734.93
  Q 981.37 734.92 990.53 733.33
  Q 1003.06 731.15 1020.57 725.80
  L 1032.70 722.10
  A 0.80 0.79 -31.1 0 0 1033.03 720.78
  Q 1019.88 707.53 1009.18 692.32
  Q 1008.29 691.05 1006.62 689.47
  A 0.55 0.55 0.0 0 0 1005.77 689.58
  Q 1005.65 689.77 1005.65 689.78
  A 1.50 1.48 -83.1 0 1 1004.83 690.43
  Q 980.59 698.24 953.99 700.50
  C 949.44 700.89 943.11 701.69 937.98 701.88
  Q 907.80 702.98 877.23 698.46
  Q 865.90 696.79 852.07 693.16
  Q 847.26 691.89 843.54 690.43
  A 0.42 0.42 0.0 0 0 842.99 690.97
  Q 849.06 706.88 854.07 718.49
  Q 856.11 723.21 858.29 727.14
  A 4.52 4.51 -4.8 0 0 860.73 729.20
  Q 876.59 734.80 893.54 736.92
  Z
  M 1000.31 936.94
  Q 999.60 931.87 998.35 925.18
  Q 997.48 920.50 995.48 913.65
  Q 984.92 877.55 961.85 846.90
  Q 952.96 835.09 943.10 824.43
  Q 898.67 776.44 836.29 758.75
  Q 832.46 757.66 831.08 757.13
  C 827.01 755.56 822.52 755.25 818.59 754.00
  Q 815.69 753.07 811.33 752.41
  C 807.46 751.82 802.54 750.39 798.20 750.04
  Q 795.27 749.80 793.21 749.28
  Q 789.79 748.43 785.74 748.07
  Q 779.18 747.48 769.72 746.48
  C 745.28 743.89 720.67 743.49 696.16 744.87
  C 685.85 745.45 678.78 746.63 668.59 747.39
  Q 659.76 748.05 648.01 750.09
  Q 628.35 753.52 607.43 758.91
  Q 593.39 762.53 589.26 763.77
  Q 554.60 774.15 516.66 788.45
  C 507.12 792.04 498.09 794.82 487.36 798.56
  Q 471.47 804.10 446.96 810.21
  Q 442.83 811.24 441.31 811.46
  C 436.31 812.20 431.67 813.62 427.07 814.36
  C 411.37 816.88 395.01 818.96 378.80 818.75
  C 374.51 818.70 369.16 818.85 364.25 818.14
  Q 364.06 818.12 363.95 817.90
  A 0.37 0.36 76.4 0 0 363.65 817.71
  Q 359.00 817.50 354.77 816.71
  Q 354.51 816.66 354.32 816.88
  A 0.35 0.34 40.9 0 0 354.36 817.37
  Q 362.62 824.38 371.89 830.68
  Q 379.80 836.06 390.87 841.55
  C 412.99 852.53 434.54 860.03 457.24 864.03
  Q 480.65 868.16 508.88 868.88
  Q 518.22 869.12 530.61 868.36
  Q 548.57 867.26 552.27 866.67
  Q 571.31 863.60 579.43 861.88
  C 589.84 859.67 604.46 855.58 617.19 851.28
  Q 638.94 843.95 664.79 833.80
  Q 693.44 822.56 713.85 817.65
  C 749.12 809.16 786.19 808.31 821.41 817.18
  Q 837.28 821.17 853.19 828.98
  C 855.14 829.94 857.17 829.97 858.31 831.92
  A 0.47 0.46 -11.5 0 1 857.85 832.61
  C 856.01 832.40 853.44 831.78 850.69 831.73
  Q 831.89 831.45 818.68 831.68
  Q 801.27 831.99 790.75 833.31
  C 779.41 834.73 773.63 834.93 765.19 836.92
  Q 761.19 837.86 755.13 838.74
  C 750.89 839.36 747.53 840.72 742.99 841.62
  Q 739.41 842.32 733.94 843.98
  Q 709.95 851.28 687.23 860.50
  Q 650.05 875.60 644.90 877.62
  Q 627.87 884.32 613.73 888.71
  Q 609.83 889.92 605.72 890.80
  A 0.55 0.54 -40.2 0 0 605.63 891.84
  Q 628.82 900.93 648.30 915.95
  Q 668.97 931.89 689.89 951.03
  A 0.58 0.58 0.0 0 0 690.67 951.04
  Q 717.58 926.44 737.33 909.58
  Q 761.27 889.15 782.88 876.40
  Q 796.90 868.12 813.95 861.75
  Q 819.85 859.55 826.11 858.03
  Q 834.99 855.87 838.57 855.36
  Q 855.15 852.97 871.40 853.76
  Q 887.62 854.55 903.71 859.48
  Q 944.25 871.89 973.97 903.06
  Q 988.86 918.68 999.41 937.25
  A 0.49 0.48 -63.9 0 0 1000.31 936.94
  Z
  M 871.87 885.95
  L 871.87 1042.80
  A 1.39 1.38 -4.0 0 0 873.45 1044.17
  Q 886.64 1042.27 898.73 1039.44
  C 902.70 1038.51 905.98 1037.20 909.86 1035.98
  A 2.47 2.46 -73.2 0 0 910.66 1035.55
  Q 912.58 1033.99 912.58 1032.06
  Q 912.69 947.94 912.57 899.02
  Q 912.56 896.18 910.78 895.22
  Q 905.87 892.56 895.94 889.82
  Q 884.28 886.61 872.37 885.50
  A 0.45 0.45 0.0 0 0 871.87 885.95
  Z
  M 847.36 886.27
  Q 829.23 889.06 812.51 896.23
  C 808.90 897.78 807.86 899.15 807.67 903.08
  Q 807.44 907.98 807.44 908.50
  Q 807.57 978.24 807.37 1032.05
  Q 807.36 1035.54 810.38 1036.67
  C 821.17 1040.69 831.29 1042.33 845.19 1044.15
  Q 846.22 1044.28 846.86 1044.18
  A 1.06 1.05 85.1 0 0 847.73 1043.14
  L 847.73 886.58
  A 0.32 0.31 -4.7 0 0 847.36 886.27
  Z
  M 500.18 1012.72
  Q 510.24 1017.68 525.96 1023.23
  A 0.45 0.45 0.0 0 0 526.55 1022.73
  Q 526.17 1020.48 526.17 1020.25
  Q 526.45 992.65 525.93 968.64
  Q 525.82 963.39 525.98 960.85
  C 526.39 954.29 525.86 948.83 526.02 941.42
  Q 526.37 925.19 525.72 907.02
  A 1.62 1.62 0.0 0 0 524.11 905.46
  Q 509.63 905.40 497.18 903.91
  Q 486.26 902.60 474.06 901.71
  C 471.88 901.55 469.34 900.74 467.06 900.40
  Q 449.87 897.85 444.74 896.41
  Q 439.91 895.06 434.60 894.08
  A 0.75 0.75 0.0 0 0 433.82 895.20
  Q 454.58 930.19 485.16 956.72
  A 0.52 0.52 0.0 0 1 484.81 957.63
  Q 470.04 957.54 452.76 955.62
  Q 437.19 953.89 420.37 950.28
  Q 394.31 944.68 360.61 933.22
  Q 348.24 929.02 335.78 923.60
  A 0.39 0.38 -7.3 0 0 335.32 924.19
  C 349.79 942.39 363.16 961.31 376.12 981.99
  C 382.15 991.62 395.42 1013.12 406.55 1029.46
  Q 418.75 1047.38 433.04 1063.45
  Q 467.40 1102.10 513.52 1124.16
  C 526.98 1130.59 542.41 1136.05 556.22 1139.77
  Q 574.22 1144.63 596.92 1148.29
  Q 606.47 1149.84 619.68 1151.14
  Q 641.80 1153.33 642.50 1153.37
  Q 676.07 1155.08 694.50 1155.90
  Q 715.05 1156.82 752.50 1157.60
  C 757.82 1157.71 763.40 1158.23 768.52 1158.31
  Q 802.45 1158.88 830.20 1158.17
  C 834.20 1158.07 839.32 1157.57 842.61 1157.56
  Q 889.15 1157.40 938.49 1153.10
  Q 951.83 1151.94 960.80 1150.80
  A 4.91 4.87 21.1 0 0 963.36 1149.68
  Q 977.49 1137.75 990.25 1123.95
  Q 997.32 1116.30 1004.15 1106.57
  Q 1014.44 1091.93 1016.64 1088.15
  C 1024.28 1075.00 1030.98 1061.68 1036.09 1046.57
  Q 1043.97 1023.31 1044.32 999.76
  Q 1044.52 986.77 1043.57 978.69
  C 1041.49 960.83 1037.08 943.39 1029.77 926.06
  Q 1025.03 914.80 1020.67 905.41
  A 0.31 0.30 32.0 0 0 1020.09 905.54
  L 1020.13 907.68
  A 1.97 1.67 40.3 0 0 1020.20 908.10
  Q 1022.95 917.18 1023.01 919.02
  Q 1023.15 923.50 1024.30 930.73
  Q 1024.63 932.80 1024.54 939.54
  C 1024.47 945.55 1023.42 951.53 1022.37 958.48
  Q 1021.39 965.00 1020.28 968.52
  Q 1007.89 1007.86 978.53 1032.82
  Q 943.73 1062.41 896.63 1071.52
  Q 884.60 1073.85 870.30 1074.19
  Q 855.23 1074.55 843.78 1073.74
  Q 823.27 1072.30 801.28 1065.73
  Q 752.99 1051.30 715.04 1017.43
  Q 706.64 1009.94 690.80 994.66
  A 0.49 0.49 0.0 0 0 690.10 994.68
  Q 676.01 1009.96 657.28 1023.53
  Q 632.79 1041.28 605.46 1049.22
  Q 590.12 1053.67 571.48 1053.15
  Q 549.71 1052.54 531.19 1043.58
  Q 511.24 1033.94 500.56 1015.21
  Q 499.89 1014.02 499.72 1013.06
  A 0.32 0.32 0.0 0 1 500.18 1012.72
  Z
  M 585.68 1023.25
  Q 586.06 1019.69 586.04 1015.75
  Q 585.73 963.40 586.02 917.00
  C 586.04 912.91 583.37 912.55 580.31 911.70
  Q 564.28 907.20 548.67 905.73
  A 1.12 1.12 0.0 0 0 547.45 906.85
  Q 547.56 937.10 547.48 1010.75
  Q 547.47 1019.64 547.95 1026.25
  Q 548.09 1028.28 550.19 1028.37
  Q 566.59 1029.07 582.35 1025.86
  Q 584.75 1025.37 585.43 1024.09
  A 2.31 2.18 -30.1 0 0 585.68 1023.25
  Z
  M 937.90 1020.27
  A 0.73 0.73 0.0 0 0 938.99 1021.08
  Q 955.21 1010.79 968.06 996.32
  Q 979.24 983.73 986.73 968.03
  A 0.83 0.81 43.2 0 0 986.70 967.26
  C 979.27 954.33 970.98 941.41 960.86 930.91
  C 954.73 924.54 948.36 917.90 940.93 912.88
  Q 940.27 912.44 940.01 911.96
  Q 939.46 910.95 938.70 911.12
  A 0.56 0.55 -6.6 0 0 938.27 911.66
  Q 938.48 956.96 938.36 1016.49
  Q 938.35 1018.62 937.90 1020.27
  Z
  M 783.61 1026.58
  L 783.61 913.12
  A 0.79 0.79 0.0 0 0 782.36 912.47
  Q 756.68 930.65 732.96 952.48
  Q 719.51 964.86 711.96 972.54
  A 0.37 0.36 -51.7 0 0 712.02 973.11
  Q 714.33 974.54 715.81 975.99
  Q 725.11 985.00 737.64 995.82
  C 752.00 1008.22 767.30 1018.39 783.02 1026.93
  A 0.40 0.40 0.0 0 0 783.61 1026.58
  Z
  M 608.68 926.84
  Q 609.39 929.46 608.97 936.74
  Q 608.77 940.31 608.99 946.75
  Q 609.33 956.47 608.95 967.43
  C 608.82 971.03 609.23 975.65 609.19 978.25
  Q 608.83 997.78 608.88 1015.51
  A 0.33 0.33 0.0 0 0 609.36 1015.81
  Q 622.60 1009.18 635.12 999.88
  Q 652.11 987.26 667.23 973.15
  A 0.59 0.58 -45.3 0 0 667.23 972.30
  Q 653.99 959.92 637.42 946.35
  Q 632.18 942.07 623.73 936.09
  Q 610.73 926.89 609.50 926.21
  A 0.56 0.56 0.0 0 0 608.68 926.84
  Z"
/>
<path fill="#5e7060" d="
  M 843.72 689.81
  A 0.82 0.82 0.0 0 1 842.38 689.47
  Q 838.15 676.76 837.04 674.25
  C 835.27 670.24 834.25 665.03 832.93 661.10
  C 825.77 639.70 820.30 620.70 816.59 601.43
  Q 815.72 596.94 814.25 589.57
  C 812.62 581.34 811.23 570.19 811.02 561.08
  C 810.60 543.32 811.15 526.57 814.52 510.50
  Q 817.68 495.39 820.57 486.51
  Q 823.65 477.04 831.04 462.73
  Q 839.87 445.64 850.71 433.44
  C 856.68 426.72 864.71 418.98 872.56 413.05
  Q 890.33 399.59 911.54 392.27
  Q 912.80 391.84 923.52 389.02
  Q 929.68 387.41 935.72 386.81
  Q 949.36 385.46 961.75 385.70
  Q 975.02 385.96 987.25 388.50
  Q 1000.41 391.23 1011.91 395.63
  Q 1028.65 402.03 1040.92 412.82
  C 1046.61 417.83 1053.41 424.40 1058.28 431.12
  Q 1073.92 452.67 1078.44 479.58
  Q 1078.79 481.68 1080.10 489.85
  C 1081.52 498.81 1081.32 508.15 1080.94 517.18
  C 1080.75 521.89 1079.01 529.05 1078.24 532.73
  Q 1075.22 547.23 1068.18 558.20
  C 1062.48 567.11 1054.56 576.35 1045.28 582.95
  Q 1034.71 590.47 1028.75 593.26
  C 1017.89 598.35 1008.69 602.61 999.37 609.60
  Q 993.18 614.25 990.49 619.57
  Q 986.92 626.64 986.66 632.44
  Q 985.89 649.96 993.78 665.71
  Q 997.90 673.94 1001.84 680.93
  Q 1003.44 683.78 1005.79 687.14
  A 0.99 0.98 71.5 0 1 1005.02 688.69
  L 1001.95 688.80
  A 0.81 0.69 -49.7 0 0 1001.71 688.84
  L 987.16 693.42
  A 2.21 1.79 -49.1 0 1 986.88 693.48
  Q 981.60 694.08 979.80 694.54
  C 973.71 696.12 970.23 696.24 961.77 697.57
  Q 955.78 698.52 950.25 698.82
  Q 936.46 699.57 921.83 700.13
  Q 914.62 700.41 909.03 699.67
  C 903.42 698.92 898.17 698.95 891.97 698.00
  C 884.90 696.92 876.23 696.62 868.20 694.39
  A 12.59 12.06 53.7 0 0 865.85 693.98
  Q 861.86 693.69 859.99 693.00
  Q 854.42 690.94 849.55 690.52
  Q 848.67 690.44 846.01 689.12
  A 1.52 1.50 -42.2 0 0 844.80 689.07
  Q 844.28 689.28 843.72 689.81
  Z
  M 1020.3446 476.2119
  A 26.00 25.02 -10.5 0 0 990.2205 456.3490
  A 26.00 25.02 -10.5 0 0 969.2154 485.6881
  A 26.00 25.02 -10.5 0 0 999.3395 505.5510
  A 26.00 25.02 -10.5 0 0 1020.3446 476.2119
  Z"
/>
<ellipse fill="#415241" cx="0.00" cy="0.00" transform="translate(994.78,480.95) rotate(-10.5)" rx="26.00" ry="25.02"/>
<path fill="#bcae8a" d="
  M 762.84 584.78
  A 0.39 0.39 0.0 0 1 762.18 584.88
  C 759.74 582.05 756.05 580.46 753.64 578.28
  C 744.77 570.27 733.11 565.79 720.77 563.27
  Q 714.32 561.96 708.18 561.98
  C 701.42 562.00 695.43 561.84 689.10 563.29
  A 1.46 1.45 7.0 0 0 688.11 564.06
  C 683.31 573.65 680.99 581.97 683.14 592.35
  C 684.08 596.86 687.62 603.46 689.16 606.35
  Q 691.48 610.67 698.50 621.99
  Q 699.84 624.14 703.05 632.43
  Q 705.37 638.42 706.05 643.39
  Q 707.37 653.10 706.12 663.30
  A 4.10 3.69 -34.9 0 1 705.94 664.07
  L 702.74 673.37
  A 3.35 2.99 -26.6 0 1 702.55 673.78
  C 697.37 682.89 693.20 690.42 686.87 695.15
  Q 682.74 698.23 680.26 700.26
  C 677.99 702.12 673.37 701.87 669.38 701.94
  Q 666.14 702.00 663.05 702.61
  Q 662.01 702.81 648.43 704.62
  Q 644.00 705.21 638.43 706.58
  Q 631.08 708.38 628.41 708.60
  Q 626.34 708.78 618.74 711.40
  Q 616.15 712.29 614.18 712.13
  A 1.14 1.13 81.6 0 1 613.22 711.41
  C 610.67 704.80 613.61 697.35 617.15 691.28
  C 619.81 686.74 624.75 685.09 629.40 684.42
  Q 635.37 683.55 644.09 682.90
  A 16.04 15.92 -54.3 0 0 646.89 682.43
  Q 652.08 681.08 661.36 676.86
  C 670.95 672.51 677.89 664.13 678.67 653.65
  C 679.72 639.62 667.89 628.98 662.04 617.77
  C 659.71 613.31 658.49 607.85 657.21 603.35
  Q 653.72 591.02 654.49 578.98
  Q 654.82 573.86 655.77 570.20
  C 656.76 566.35 658.26 561.05 660.91 557.38
  A 0.57 0.57 0.0 0 0 660.65 556.52
  Q 656.15 554.76 652.26 553.70
  Q 645.83 551.94 643.80 551.12
  Q 632.70 546.66 625.45 540.69
  C 617.90 534.48 610.48 526.33 606.19 516.65
  Q 602.08 507.36 600.91 502.91
  Q 599.21 496.43 602.75 492.20
  C 605.17 489.31 607.66 486.56 611.30 486.28
  Q 615.45 485.95 619.73 487.08
  C 624.22 488.26 627.69 494.78 629.55 499.15
  Q 633.18 507.70 638.62 515.26
  A 6.40 6.04 89.6 0 0 639.72 516.41
  Q 646.70 522.01 654.84 525.15
  Q 670.13 531.05 684.31 532.61
  Q 688.58 533.08 708.49 533.32
  C 714.17 533.39 721.66 534.08 726.13 534.87
  Q 736.23 536.67 745.67 540.65
  C 750.16 542.54 753.93 545.24 758.51 547.71
  A 4.25 4.24 -77.2 0 1 760.73 551.25
  C 761.15 559.93 761.05 567.95 762.27 575.73
  C 762.81 579.17 763.58 583.09 762.84 584.78
  Z"
/>
<path fill="#bcae8a" d="
  M 1063.25 596.13
  C 1077.53 586.76 1087.94 574.42 1094.85 558.83
  Q 1099.44 548.47 1102.19 535.50
  Q 1103.87 527.60 1104.37 524.00
  Q 1105.55 515.49 1104.73 507.96
  A 0.37 0.37 0.0 0 1 1105.40 507.72
  Q 1107.77 511.25 1110.01 513.97
  Q 1121.82 528.38 1138.29 541.74
  Q 1141.67 544.49 1145.45 546.95
  C 1148.80 549.13 1152.08 551.86 1155.02 553.83
  Q 1170.23 563.98 1189.13 573.23
  Q 1189.42 573.37 1199.35 578.21
  Q 1206.21 581.55 1209.58 582.88
  C 1217.98 586.18 1228.26 590.87 1237.64 593.92
  Q 1258.86 600.82 1265.98 603.27
  C 1271.00 604.99 1275.46 607.03 1279.41 610.06
  C 1282.49 612.43 1282.53 616.73 1279.20 618.81
  Q 1274.43 621.79 1266.74 624.06
  Q 1263.06 625.15 1250.50 626.43
  Q 1243.72 627.13 1230.84 627.01
  C 1215.52 626.87 1199.84 625.38 1185.27 623.34
  Q 1183.71 623.13 1180.72 622.70
  Q 1148.54 618.12 1123.74 611.78
  Q 1096.93 604.93 1087.59 602.40
  Q 1076.60 599.41 1063.32 596.50
  A 0.20 0.20 0.0 0 1 1063.25 596.13
  Z
  M 1152.73 571.47
  C 1150.97 564.67 1142.40 558.84 1137.62 554.63
  C 1133.98 551.41 1126.73 547.30 1123.98 553.47
  C 1121.34 559.39 1123.17 565.82 1127.32 570.23
  C 1132.23 575.44 1138.05 579.14 1145.31 578.83
  Q 1151.73 578.56 1152.77 572.75
  A 3.05 2.93 -47.9 0 0 1152.73 571.47
  Z"
/>
<path fill="#415241" d="
  M 1152.77 572.75
  Q 1151.73 578.56 1145.31 578.83
  C 1138.05 579.14 1132.23 575.44 1127.32 570.23
  C 1123.17 565.82 1121.34 559.39 1123.98 553.47
  C 1126.73 547.30 1133.98 551.41 1137.62 554.63
  C 1142.40 558.84 1150.97 564.67 1152.73 571.47
  A 3.05 2.93 -47.9 0 1 1152.77 572.75
  Z"
/>
<path fill="#bcae8a" d="
  M 1143.44 659.04
  A 0.61 0.61 0.0 0 1 1143.81 659.99
  Q 1140.14 665.00 1138.28 669.57
  Q 1135.22 677.06 1134.09 679.83
  Q 1131.70 685.72 1131.42 693.44
  Q 1131.10 702.21 1135.11 710.38
  Q 1139.51 719.37 1144.94 724.82
  C 1152.23 732.13 1161.34 737.40 1171.27 741.05
  C 1176.36 742.91 1183.69 747.39 1186.57 751.53
  C 1188.79 754.72 1188.46 761.44 1187.24 764.24
  C 1184.11 771.39 1175.06 774.62 1168.03 771.67
  Q 1164.74 770.28 1161.39 768.86
  C 1155.76 766.46 1149.46 762.36 1145.92 760.42
  C 1132.72 753.17 1122.11 743.84 1113.49 731.03
  Q 1110.00 725.84 1106.57 716.23
  C 1102.65 705.26 1102.91 691.99 1104.42 680.91
  C 1105.13 675.67 1106.72 672.07 1108.82 666.05
  Q 1110.62 660.89 1112.26 659.32
  A 1.66 1.65 -19.4 0 0 1112.78 658.24
  Q 1112.99 655.65 1115.26 653.58
  A 2.09 2.07 -56.5 0 1 1117.35 653.15
  Q 1121.51 654.59 1125.79 655.44
  Q 1134.54 657.18 1143.44 659.04
  Z"
/>
<path fill="#bcae8a" d="
  M 788.77 682.34
  A 0.49 0.49 0.0 0 1 789.71 682.09
  L 795.33 696.17
  A 0.65 0.64 -13.1 0 1 794.78 697.05
  C 792.67 697.22 788.48 697.43 788.67 694.41
  Q 788.77 692.72 788.37 691.67
  Q 787.20 688.61 787.95 686.14
  Q 788.86 683.13 788.77 682.34
  Z"
/>
<path fill="#e4dec9" d="
  M 1020.57 725.80
  Q 1017.27 724.75 1014.48 725.43
  Q 989.50 731.49 969.23 734.42
  Q 958.54 735.97 933.70 736.76
  C 922.57 737.11 910.73 736.19 897.09 735.69
  Q 894.87 735.61 893.54 736.92
  Q 876.59 734.80 860.73 729.20
  A 4.52 4.51 -4.8 0 1 858.29 727.14
  Q 856.11 723.21 854.07 718.49
  Q 849.06 706.88 842.99 690.97
  A 0.42 0.42 0.0 0 1 843.54 690.43
  Q 847.26 691.89 852.07 693.16
  Q 865.90 696.79 877.23 698.46
  Q 907.80 702.98 937.98 701.88
  C 943.11 701.69 949.44 700.89 953.99 700.50
  Q 980.59 698.24 1004.83 690.43
  A 1.50 1.48 -83.1 0 0 1005.65 689.78
  Q 1005.65 689.77 1005.77 689.58
  A 0.55 0.55 0.0 0 1 1006.62 689.47
  Q 1008.29 691.05 1009.18 692.32
  Q 1019.88 707.53 1033.03 720.78
  A 0.80 0.79 -31.1 0 1 1032.70 722.10
  L 1020.57 725.80
  Z"
/>
<path fill="#bcae8a" d="
  M 1000.31 936.94
  A 0.49 0.48 -63.9 0 1 999.41 937.25
  Q 988.86 918.68 973.97 903.06
  Q 944.25 871.89 903.71 859.48
  Q 887.62 854.55 871.40 853.76
  Q 855.15 852.97 838.57 855.36
  Q 834.99 855.87 826.11 858.03
  Q 819.85 859.55 813.95 861.75
  Q 796.90 868.12 782.88 876.40
  Q 761.27 889.15 737.33 909.58
  Q 717.58 926.44 690.67 951.04
  A 0.58 0.58 0.0 0 1 689.89 951.03
  Q 668.97 931.89 648.30 915.95
  Q 628.82 900.93 605.63 891.84
  A 0.55 0.54 -40.2 0 1 605.72 890.80
  Q 609.83 889.92 613.73 888.71
  Q 627.87 884.32 644.90 877.62
  Q 650.05 875.60 687.23 860.50
  Q 709.95 851.28 733.94 843.98
  Q 739.41 842.32 742.99 841.62
  C 747.53 840.72 750.89 839.36 755.13 838.74
  Q 761.19 837.86 765.19 836.92
  C 773.63 834.93 779.41 834.73 790.75 833.31
  Q 801.27 831.99 818.68 831.68
  Q 831.89 831.45 850.69 831.73
  C 853.44 831.78 856.01 832.40 857.85 832.61
  A 0.47 0.46 -11.5 0 0 858.31 831.92
  C 857.17 829.97 855.14 829.94 853.19 828.98
  Q 837.28 821.17 821.41 817.18
  C 786.19 808.31 749.12 809.16 713.85 817.65
  Q 693.44 822.56 664.79 833.80
  Q 638.94 843.95 617.19 851.28
  C 604.46 855.58 589.84 859.67 579.43 861.88
  Q 571.31 863.60 552.27 866.67
  Q 548.57 867.26 530.61 868.36
  Q 518.22 869.12 508.88 868.88
  Q 480.65 868.16 457.24 864.03
  C 434.54 860.03 412.99 852.53 390.87 841.55
  Q 379.80 836.06 371.89 830.68
  Q 362.62 824.38 354.36 817.37
  A 0.35 0.34 40.9 0 1 354.32 816.88
  Q 354.51 816.66 354.77 816.71
  Q 359.00 817.50 363.65 817.71
  A 0.37 0.36 76.4 0 1 363.95 817.90
  Q 364.06 818.12 364.25 818.14
  C 369.16 818.85 374.51 818.70 378.80 818.75
  C 395.01 818.96 411.37 816.88 427.07 814.36
  C 431.67 813.62 436.31 812.20 441.31 811.46
  Q 442.83 811.24 446.96 810.21
  Q 471.47 804.10 487.36 798.56
  C 498.09 794.82 507.12 792.04 516.66 788.45
  Q 554.60 774.15 589.26 763.77
  Q 593.39 762.53 607.43 758.91
  Q 628.35 753.52 648.01 750.09
  Q 659.76 748.05 668.59 747.39
  C 678.78 746.63 685.85 745.45 696.16 744.87
  C 720.67 743.49 745.28 743.89 769.72 746.48
  Q 779.18 747.48 785.74 748.07
  Q 789.79 748.43 793.21 749.28
  Q 795.27 749.80 798.20 750.04
  C 802.54 750.39 807.46 751.82 811.33 752.41
  Q 815.69 753.07 818.59 754.00
  C 822.52 755.25 827.01 755.56 831.08 757.13
  Q 832.46 757.66 836.29 758.75
  Q 898.67 776.44 943.10 824.43
  Q 952.96 835.09 961.85 846.90
  Q 984.92 877.55 995.48 913.65
  Q 997.48 920.50 998.35 925.18
  Q 999.60 931.87 1000.31 936.94
  Z"
/>
<path fill="#5e7060" d="
  M 1181.91 869.70
  L 1296.79 869.68
  L 1303.16 869.62
  L 1355.96 870.06
  L 1353.07 870.19
  A 0.28 0.28 0.0 0 0 1352.80 870.51
  L 1352.86 870.77
  A 0.12 0.11 -6.4 0 0 1352.97 870.85
  L 1447.21 871.14
  A 1.13 1.13 0.0 0 1 1448.34 872.38
  L 1446.17 895.59
  A 2.04 1.04 83.1 0 1 1446.12 895.84
  C 1444.99 900.31 1444.93 905.08 1444.04 909.41
  C 1442.63 916.39 1442.09 923.84 1440.71 930.50
  Q 1437.92 943.96 1437.74 945.05
  Q 1436.89 950.21 1435.63 954.24
  C 1434.55 957.71 1434.06 962.65 1433.03 966.56
  Q 1425.38 995.64 1421.16 1008.22
  C 1416.82 1021.17 1413.90 1032.01 1408.57 1043.68
  Q 1407.19 1046.70 1404.44 1054.18
  C 1401.48 1062.23 1398.24 1068.98 1394.10 1078.68
  Q 1390.93 1086.10 1387.68 1092.75
  Q 1382.53 1103.27 1380.81 1106.61
  Q 1361.41 1144.47 1335.11 1181.64
  Q 1332.45 1185.39 1327.69 1191.71
  Q 1320.29 1201.55 1320.18 1201.73
  Q 1318.90 1203.87 1311.92 1212.87
  Q 1307.61 1218.42 1303.25 1223.33
  C 1299.13 1227.97 1295.19 1232.80 1291.27 1236.94
  Q 1262.61 1267.18 1230.83 1296.36
  Q 1226.93 1299.94 1224.12 1302.03
  C 1221.11 1304.27 1218.52 1306.93 1215.14 1309.48
  Q 1203.37 1318.34 1195.97 1324.27
  Q 1189.62 1329.36 1186.68 1331.35
  C 1182.32 1334.30 1178.56 1337.36 1173.94 1340.34
  Q 1159.45 1349.64 1152.95 1353.98
  Q 1149.06 1356.57 1141.72 1361.00
  Q 1134.08 1365.61 1120.41 1373.73
  Q 1118.87 1374.65 1114.71 1376.75
  Q 1114.38 1376.92 1108.97 1379.73
  Q 1077.29 1396.19 1055.87 1404.62
  Q 1046.96 1408.12 1046.60 1408.29
  C 1040.10 1411.25 1034.30 1412.80 1027.28 1415.54
  C 1019.70 1418.51 1012.75 1420.23 1005.23 1422.86
  Q 1002.62 1423.77 996.31 1425.51
  Q 992.00 1426.70 971.18 1432.13
  Q 970.81 1432.22 937.92 1439.87
  Q 931.61 1441.34 911.86 1444.00
  Q 906.58 1444.72 898.29 1445.93
  Q 883.43 1448.10 867.44 1448.90
  Q 861.16 1449.21 856.83 1449.61
  Q 849.85 1450.25 846.24 1450.38
  Q 822.19 1451.26 804.02 1451.16
  Q 784.88 1451.06 749.64 1447.82
  Q 744.45 1447.34 740.92 1446.64
  C 737.11 1445.89 733.28 1446.08 728.73 1445.34
  C 708.28 1442.02 692.26 1439.72 673.50 1435.20
  Q 641.61 1427.52 613.26 1418.44
  C 601.58 1414.69 583.67 1406.67 575.16 1403.43
  C 567.55 1400.52 559.19 1396.37 552.51 1393.00
  C 549.34 1391.40 544.84 1389.81 541.45 1387.95
  Q 523.88 1378.30 517.40 1375.14
  C 512.04 1372.52 507.29 1369.43 500.51 1365.77
  C 495.99 1363.33 492.15 1360.14 488.27 1357.86
  Q 459.34 1340.78 432.46 1319.27
  Q 431.01 1318.12 414.98 1305.16
  C 408.26 1299.74 401.82 1293.30 396.69 1288.92
  Q 387.92 1281.45 383.13 1276.49
  C 378.89 1272.09 374.10 1267.96 370.20 1263.94
  Q 346.17 1239.18 331.55 1221.83
  Q 328.58 1218.30 309.61 1194.44
  Q 301.17 1183.82 292.97 1171.24
  Q 279.28 1150.22 269.98 1135.07
  C 264.12 1125.52 259.95 1116.75 254.41 1106.52
  Q 248.88 1096.31 245.92 1089.83
  Q 231.55 1058.37 225.13 1041.63
  Q 224.46 1039.87 219.10 1024.79
  Q 213.41 1008.77 205.99 983.25
  Q 199.06 959.37 196.76 947.05
  C 194.28 933.72 192.52 926.07 191.16 915.90
  Q 189.64 904.46 188.21 898.36
  Q 187.59 895.69 187.43 892.05
  C 187.25 887.62 186.94 883.69 186.05 878.46
  Q 185.43 874.82 185.31 871.20
  A 0.67 0.66 -89.6 0 1 186.00 870.51
  Q 194.38 870.87 195.00 870.91
  C 200.02 871.21 203.64 870.69 208.35 871.00
  Q 209.66 871.09 213.66 870.95
  Q 230.53 870.35 233.00 870.65
  Q 244.84 872.07 256.40 870.12
  Q 257.15 869.80 257.44 869.19
  Q 262.10 876.36 266.26 883.84
  Q 268.21 887.34 270.03 890.03
  C 271.76 892.59 272.95 895.04 275.07 898.29
  Q 279.99 905.87 286.69 915.86
  Q 288.06 917.90 290.05 920.65
  Q 309.50 947.51 314.21 954.30
  Q 321.66 965.06 330.69 977.37
  Q 336.85 985.78 346.95 1000.62
  C 349.73 1004.72 354.05 1009.48 357.20 1014.52
  Q 362.91 1023.66 377.29 1041.96
  Q 399.36 1070.07 406.87 1078.05
  Q 412.73 1084.28 414.05 1085.57
  Q 418.00 1089.42 420.88 1093.48
  A 0.70 0.70 0.0 0 1 420.31 1094.59
  Q 410.60 1094.66 392.75 1095.07
  C 384.57 1095.26 376.68 1096.70 368.76 1096.80
  Q 363.47 1096.86 351.26 1097.68
  Q 341.18 1098.36 333.74 1098.34
  Q 319.98 1098.31 309.72 1099.78
  A 8.03 7.71 -46.2 0 1 308.24 1099.84
  Q 302.83 1099.54 298.50 1100.81
  A 1.17 1.17 0.0 0 0 298.00 1102.77
  Q 300.31 1105.04 300.76 1105.32
  C 305.10 1107.97 307.81 1109.85 312.30 1111.87
  Q 329.40 1119.58 347.96 1126.02
  Q 364.94 1131.91 370.90 1134.05
  Q 373.88 1135.12 403.39 1145.07
  Q 428.24 1153.45 453.94 1159.52
  Q 459.03 1160.72 489.07 1167.20
  C 493.15 1168.09 497.97 1168.33 501.82 1169.21
  C 508.29 1170.67 514.96 1172.42 522.72 1173.67
  Q 526.49 1174.28 537.64 1176.26
  C 551.59 1178.74 558.90 1179.76 577.19 1182.53
  C 585.53 1183.78 589.07 1183.91 596.06 1185.22
  Q 598.47 1185.67 603.74 1186.25
  Q 613.32 1187.30 632.78 1189.69
  Q 643.65 1191.03 654.26 1191.83
  C 663.20 1192.50 672.12 1193.61 682.93 1194.14
  Q 693.53 1194.65 709.00 1195.41
  Q 719.93 1195.95 726.01 1196.59
  C 733.56 1197.38 741.10 1196.68 748.01 1197.37
  Q 752.19 1197.78 760.50 1197.93
  Q 764.29 1197.99 773.00 1198.55
  Q 777.05 1198.81 786.51 1198.88
  Q 820.59 1199.13 847.50 1198.73
  C 852.39 1198.66 858.10 1198.16 863.51 1198.18
  C 876.50 1198.22 886.36 1197.41 899.94 1197.19
  Q 907.54 1197.07 915.82 1196.44
  Q 927.24 1195.58 940.19 1194.58
  C 948.57 1193.94 955.12 1194.17 962.71 1193.48
  C 977.96 1192.08 992.27 1191.42 1008.10 1189.29
  C 1017.82 1187.98 1033.88 1186.61 1046.03 1184.80
  C 1052.60 1183.82 1059.38 1183.19 1066.97 1181.83
  Q 1074.72 1180.44 1090.23 1178.24
  C 1092.90 1177.86 1096.24 1177.06 1099.00 1176.59
  Q 1113.09 1174.23 1114.00 1174.01
  Q 1120.55 1172.49 1128.64 1170.84
  Q 1135.95 1169.35 1137.82 1168.87
  Q 1138.18 1168.78 1146.96 1166.85
  Q 1174.86 1160.74 1179.69 1159.38
  Q 1185.62 1157.71 1186.46 1157.50
  Q 1202.83 1153.38 1203.63 1153.14
  C 1216.85 1149.22 1234.59 1143.73 1247.58 1137.28
  Q 1259.15 1131.53 1261.89 1129.36
  Q 1267.14 1125.21 1268.89 1122.74
  C 1275.15 1113.91 1256.83 1107.38 1250.83 1105.77
  Q 1239.04 1102.60 1226.68 1100.61
  Q 1199.49 1096.23 1169.29 1094.65
  Q 1159.02 1094.11 1156.80 1093.74
  Q 1155.88 1093.59 1155.48 1093.23
  A 0.87 0.87 0.0 0 1 1155.38 1092.01
  C 1159.93 1086.63 1164.90 1080.69 1168.62 1074.25
  Q 1176.40 1060.79 1182.45 1048.46
  Q 1184.00 1045.31 1186.10 1039.30
  C 1189.75 1028.85 1193.04 1020.90 1195.31 1010.73
  Q 1199.45 992.22 1200.93 974.93
  C 1201.30 970.59 1200.95 965.06 1201.03 959.76
  Q 1201.10 954.66 1199.63 937.53
  C 1199.01 930.29 1197.24 923.98 1196.36 916.50
  Q 1195.95 913.11 1194.74 908.14
  C 1191.62 895.32 1189.21 886.04 1183.87 875.37
  Q 1183.43 874.50 1182.96 872.51
  Q 1182.61 871.06 1181.91 869.70
  Z
  M 470.96 1224.48
  Q 470.73 1227.22 472.96 1229.27
  Q 477.36 1233.29 482.20 1236.04
  Q 492.52 1241.92 499.37 1245.36
  Q 512.10 1251.75 525.48 1255.18
  C 532.24 1256.91 539.76 1259.03 545.02 1259.92
  Q 554.35 1261.50 574.45 1263.66
  C 577.79 1264.01 583.13 1264.07 587.64 1264.79
  Q 590.91 1265.32 597.53 1265.52
  Q 621.97 1266.26 646.93 1270.01
  C 650.26 1270.51 653.57 1271.55 656.62 1271.91
  C 661.79 1272.51 667.93 1274.47 672.65 1275.36
  Q 677.27 1276.23 680.76 1277.02
  C 687.48 1278.56 689.97 1279.25 696.38 1280.17
  Q 699.13 1280.57 703.91 1281.85
  Q 712.60 1284.16 724.28 1285.70
  Q 739.69 1287.72 757.01 1289.39
  C 764.65 1290.13 772.31 1289.81 779.97 1290.39
  Q 788.46 1291.03 796.10 1291.11
  Q 824.15 1291.37 855.02 1289.77
  Q 859.26 1289.55 864.47 1288.99
  C 872.47 1288.14 880.35 1287.97 888.06 1287.01
  Q 910.04 1284.27 913.05 1283.76
  Q 927.41 1281.29 951.26 1275.26
  C 958.06 1273.54 965.24 1272.13 969.71 1271.51
  Q 976.76 1270.53 982.43 1269.21
  C 987.64 1268.00 996.41 1267.18 1003.18 1267.13
  C 1009.41 1267.09 1015.98 1266.19 1021.51 1266.07
  Q 1025.85 1265.97 1032.36 1264.99
  Q 1035.57 1264.51 1043.20 1264.00
  Q 1071.19 1262.14 1096.77 1253.23
  C 1102.18 1251.35 1105.81 1250.32 1110.48 1248.16
  C 1121.86 1242.92 1130.82 1238.60 1140.33 1232.25
  A 5.56 5.50 1.9 0 0 1141.57 1231.10
  C 1142.71 1229.65 1145.34 1226.46 1143.99 1224.71
  Q 1143.76 1224.41 1142.94 1224.36
  Q 1130.41 1223.63 1117.87 1225.05
  C 1108.53 1226.10 1102.90 1226.58 1088.36 1227.95
  Q 1078.49 1228.88 1068.11 1229.02
  Q 1044.92 1229.33 1037.76 1229.19
  Q 1014.57 1228.75 1008.54 1229.55
  Q 1007.85 1229.64 997.48 1229.98
  Q 992.09 1230.16 986.01 1230.83
  Q 956.86 1234.04 930.56 1240.54
  C 923.73 1242.22 917.24 1242.66 910.96 1244.32
  A 8.16 8.05 -53.1 0 1 909.09 1244.60
  C 903.25 1244.81 898.34 1246.07 892.63 1246.71
  Q 880.50 1248.09 868.49 1249.16
  Q 858.30 1250.07 852.06 1250.05
  Q 850.77 1250.05 836.44 1250.58
  Q 809.09 1251.59 782.50 1250.59
  Q 774.55 1250.30 757.82 1249.26
  Q 756.75 1249.19 753.97 1248.93
  Q 743.51 1247.96 726.24 1246.11
  Q 722.06 1245.66 672.40 1235.97
  Q 651.24 1231.85 636.34 1230.77
  Q 626.03 1230.02 625.40 1229.90
  C 622.93 1229.42 618.90 1229.76 616.75 1229.67
  Q 589.61 1228.55 575.70 1228.91
  C 567.40 1229.13 559.95 1228.75 551.91 1228.74
  Q 544.11 1228.72 534.11 1228.00
  Q 513.25 1226.49 498.64 1224.64
  C 492.79 1223.90 486.57 1223.94 480.32 1223.58
  Q 476.54 1223.36 471.53 1223.89
  A 0.64 0.63 89.5 0 0 470.96 1224.48
  Z
  M 1031.60 1312.80
  L 1029.59 1313.11
  A 2.83 2.80 47.7 0 1 1028.44 1313.05
  L 1025.05 1312.14
  A 9.24 9.12 -37.5 0 0 1022.50 1311.82
  C 1017.06 1311.78 1006.88 1311.64 999.23 1313.10
  Q 997.13 1313.50 990.26 1314.08
  Q 977.78 1315.14 962.21 1318.30
  C 954.78 1319.81 945.96 1320.65 938.14 1322.54
  Q 928.81 1324.78 922.11 1325.73
  C 912.82 1327.05 903.16 1329.26 893.58 1330.43
  Q 859.13 1334.66 836.02 1335.71
  Q 826.49 1336.15 793.44 1335.94
  C 786.10 1335.89 779.22 1334.78 772.75 1334.52
  C 763.22 1334.14 752.26 1332.46 742.46 1331.50
  Q 735.32 1330.80 727.72 1329.38
  Q 711.33 1326.33 699.07 1324.59
  Q 696.66 1324.25 693.76 1323.39
  C 690.26 1322.35 687.01 1322.29 683.43 1321.27
  Q 680.49 1320.43 678.47 1320.07
  Q 664.31 1317.51 658.69 1316.00
  C 653.72 1314.66 648.84 1314.31 644.19 1313.29
  Q 639.82 1312.33 633.25 1311.68
  Q 616.85 1310.06 597.26 1310.63
  Q 595.94 1310.67 594.98 1311.34
  A 1.60 1.56 55.6 0 0 594.60 1313.53
  Q 599.54 1320.75 606.73 1325.82
  Q 615.90 1332.30 623.37 1335.61
  C 635.50 1340.99 646.75 1345.77 658.77 1349.04
  C 666.78 1351.22 673.27 1354.12 681.24 1356.27
  Q 699.82 1361.29 706.78 1362.90
  Q 726.24 1367.40 747.75 1369.76
  Q 762.83 1371.42 780.50 1372.46
  Q 789.00 1372.97 794.50 1372.91
  C 803.65 1372.82 815.11 1373.47 824.00 1372.94
  C 832.96 1372.40 839.29 1372.47 846.66 1371.89
  Q 863.50 1370.56 882.39 1368.54
  Q 894.82 1367.21 901.02 1365.93
  C 911.13 1363.84 919.85 1362.59 929.38 1360.26
  C 939.23 1357.85 949.27 1355.45 958.36 1351.89
  C 961.75 1350.56 964.93 1350.03 968.12 1348.67
  Q 970.72 1347.56 975.33 1345.86
  Q 992.79 1339.43 996.45 1337.64
  Q 1005.26 1333.33 1007.76 1332.16
  C 1012.53 1329.92 1015.92 1326.97 1020.66 1324.12
  C 1025.42 1321.26 1028.78 1317.50 1031.87 1313.24
  A 0.28 0.28 0.0 0 0 1031.60 1312.80
  Z"
/>
<path fill="#bcae8a" d="
  M 871.87 885.95
  A 0.45 0.45 0.0 0 1 872.37 885.50
  Q 884.28 886.61 895.94 889.82
  Q 905.87 892.56 910.78 895.22
  Q 912.56 896.18 912.57 899.02
  Q 912.69 947.94 912.58 1032.06
  Q 912.58 1033.99 910.66 1035.55
  A 2.47 2.46 -73.2 0 1 909.86 1035.98
  C 905.98 1037.20 902.70 1038.51 898.73 1039.44
  Q 886.64 1042.27 873.45 1044.17
  A 1.39 1.38 -4.0 0 1 871.87 1042.80
  L 871.87 885.95
  Z"
/>
<path fill="#bcae8a" d="
  M 847.36 886.27
  A 0.32 0.31 -4.7 0 1 847.73 886.58
  L 847.73 1043.14
  A 1.06 1.05 85.1 0 1 846.86 1044.18
  Q 846.22 1044.28 845.19 1044.15
  C 831.29 1042.33 821.17 1040.69 810.38 1036.67
  Q 807.36 1035.54 807.37 1032.05
  Q 807.57 978.24 807.44 908.50
  Q 807.44 907.98 807.67 903.08
  C 807.86 899.15 808.90 897.78 812.51 896.23
  Q 829.23 889.06 847.36 886.27
  Z"
/>
<path fill="#bcae8a" d="
  M 499.72 1013.06
  Q 499.89 1014.02 500.56 1015.21
  Q 511.24 1033.94 531.19 1043.58
  Q 549.71 1052.54 571.48 1053.15
  Q 590.12 1053.67 605.46 1049.22
  Q 632.79 1041.28 657.28 1023.53
  Q 676.01 1009.96 690.10 994.68
  A 0.49 0.49 0.0 0 1 690.80 994.66
  Q 706.64 1009.94 715.04 1017.43
  Q 752.99 1051.30 801.28 1065.73
  Q 823.27 1072.30 843.78 1073.74
  Q 855.23 1074.55 870.30 1074.19
  Q 884.60 1073.85 896.63 1071.52
  Q 943.73 1062.41 978.53 1032.82
  Q 1007.89 1007.86 1020.28 968.52
  Q 1021.39 965.00 1022.37 958.48
  C 1023.42 951.53 1024.47 945.55 1024.54 939.54
  Q 1024.63 932.80 1024.30 930.73
  Q 1023.15 923.50 1023.01 919.02
  Q 1022.95 917.18 1020.20 908.10
  A 1.97 1.67 40.3 0 1 1020.13 907.68
  L 1020.09 905.54
  A 0.31 0.30 32.0 0 1 1020.67 905.41
  Q 1025.03 914.80 1029.77 926.06
  C 1037.08 943.39 1041.49 960.83 1043.57 978.69
  Q 1044.52 986.77 1044.32 999.76
  Q 1043.97 1023.31 1036.09 1046.57
  C 1030.98 1061.68 1024.28 1075.00 1016.64 1088.15
  Q 1014.44 1091.93 1004.15 1106.57
  Q 997.32 1116.30 990.25 1123.95
  Q 977.49 1137.75 963.36 1149.68
  A 4.91 4.87 21.1 0 1 960.80 1150.80
  Q 951.83 1151.94 938.49 1153.10
  Q 889.15 1157.40 842.61 1157.56
  C 839.32 1157.57 834.20 1158.07 830.20 1158.17
  Q 802.45 1158.88 768.52 1158.31
  C 763.40 1158.23 757.82 1157.71 752.50 1157.60
  Q 715.05 1156.82 694.50 1155.90
  Q 676.07 1155.08 642.50 1153.37
  Q 641.80 1153.33 619.68 1151.14
  Q 606.47 1149.84 596.92 1148.29
  Q 574.22 1144.63 556.22 1139.77
  C 542.41 1136.05 526.98 1130.59 513.52 1124.16
  Q 467.40 1102.10 433.04 1063.45
  Q 418.75 1047.38 406.55 1029.46
  C 395.42 1013.12 382.15 991.62 376.12 981.99
  C 363.16 961.31 349.79 942.39 335.32 924.19
  A 0.39 0.38 -7.3 0 1 335.78 923.60
  Q 348.24 929.02 360.61 933.22
  Q 394.31 944.68 420.37 950.28
  Q 437.19 953.89 452.76 955.62
  Q 470.04 957.54 484.81 957.63
  A 0.52 0.52 0.0 0 0 485.16 956.72
  Q 454.58 930.19 433.82 895.20
  A 0.75 0.75 0.0 0 1 434.60 894.08
  Q 439.91 895.06 444.74 896.41
  Q 449.87 897.85 467.06 900.40
  C 469.34 900.74 471.88 901.55 474.06 901.71
  Q 486.26 902.60 497.18 903.91
  Q 509.63 905.40 524.11 905.46
  A 1.62 1.62 0.0 0 1 525.72 907.02
  Q 526.37 925.19 526.02 941.42
  C 525.86 948.83 526.39 954.29 525.98 960.85
  Q 525.82 963.39 525.93 968.64
  Q 526.45 992.65 526.17 1020.25
  Q 526.17 1020.48 526.55 1022.73
  A 0.45 0.45 0.0 0 1 525.96 1023.23
  Q 510.24 1017.68 500.18 1012.72
  A 0.32 0.32 0.0 0 0 499.72 1013.06
  Z"
/>
<path fill="#bcae8a" d="
  M 585.43 1024.09
  Q 584.75 1025.37 582.35 1025.86
  Q 566.59 1029.07 550.19 1028.37
  Q 548.09 1028.28 547.95 1026.25
  Q 547.47 1019.64 547.48 1010.75
  Q 547.56 937.10 547.45 906.85
  A 1.12 1.12 0.0 0 1 548.67 905.73
  Q 564.28 907.20 580.31 911.70
  C 583.37 912.55 586.04 912.91 586.02 917.00
  Q 585.73 963.40 586.04 1015.75
  Q 586.06 1019.69 585.68 1023.25
  A 2.31 2.18 -30.1 0 1 585.43 1024.09
  Z"
/>
<path fill="#bcae8a" d="
  M 937.90 1020.27
  Q 938.35 1018.62 938.36 1016.49
  Q 938.48 956.96 938.27 911.66
  A 0.56 0.55 -6.6 0 1 938.70 911.12
  Q 939.46 910.95 940.01 911.96
  Q 940.27 912.44 940.93 912.88
  C 948.36 917.90 954.73 924.54 960.86 930.91
  C 970.98 941.41 979.27 954.33 986.70 967.26
  A 0.83 0.81 43.2 0 1 986.73 968.03
  Q 979.24 983.73 968.06 996.32
  Q 955.21 1010.79 938.99 1021.08
  A 0.73 0.73 0.0 0 1 937.90 1020.27
  Z"
/>
<path fill="#bcae8a" d="
  M 783.61 1026.58
  A 0.40 0.40 0.0 0 1 783.02 1026.93
  C 767.30 1018.39 752.00 1008.22 737.64 995.82
  Q 725.11 985.00 715.81 975.99
  Q 714.33 974.54 712.02 973.11
  A 0.37 0.36 -51.7 0 1 711.96 972.54
  Q 719.51 964.86 732.96 952.48
  Q 756.68 930.65 782.36 912.47
  A 0.79 0.79 0.0 0 1 783.61 913.12
  L 783.61 1026.58
  Z"
/>
<path fill="#bcae8a" d="
  M 608.68 926.84
  A 0.56 0.56 0.0 0 1 609.50 926.21
  Q 610.73 926.89 623.73 936.09
  Q 632.18 942.07 637.42 946.35
  Q 653.99 959.92 667.23 972.30
  A 0.59 0.58 -45.3 0 1 667.23 973.15
  Q 652.11 987.26 635.12 999.88
  Q 622.60 1009.18 609.36 1015.81
  A 0.33 0.33 0.0 0 1 608.88 1015.51
  Q 608.83 997.78 609.19 978.25
  C 609.23 975.65 608.82 971.03 608.95 967.43
  Q 609.33 956.47 608.99 946.75
  Q 608.77 940.31 608.97 936.74
  Q 609.39 929.46 608.68 926.84
  Z"
/>
<path fill="#415241" d="
  M 471.53 1223.89
  Q 476.54 1223.36 480.32 1223.58
  C 486.57 1223.94 492.79 1223.90 498.64 1224.64
  Q 513.25 1226.49 534.11 1228.00
  Q 544.11 1228.72 551.91 1228.74
  C 559.95 1228.75 567.40 1229.13 575.70 1228.91
  Q 589.61 1228.55 616.75 1229.67
  C 618.90 1229.76 622.93 1229.42 625.40 1229.90
  Q 626.03 1230.02 636.34 1230.77
  Q 651.24 1231.85 672.40 1235.97
  Q 722.06 1245.66 726.24 1246.11
  Q 743.51 1247.96 753.97 1248.93
  Q 756.75 1249.19 757.82 1249.26
  Q 774.55 1250.30 782.50 1250.59
  Q 809.09 1251.59 836.44 1250.58
  Q 850.77 1250.05 852.06 1250.05
  Q 858.30 1250.07 868.49 1249.16
  Q 880.50 1248.09 892.63 1246.71
  C 898.34 1246.07 903.25 1244.81 909.09 1244.60
  A 8.16 8.05 -53.1 0 0 910.96 1244.32
  C 917.24 1242.66 923.73 1242.22 930.56 1240.54
  Q 956.86 1234.04 986.01 1230.83
  Q 992.09 1230.16 997.48 1229.98
  Q 1007.85 1229.64 1008.54 1229.55
  Q 1014.57 1228.75 1037.76 1229.19
  Q 1044.92 1229.33 1068.11 1229.02
  Q 1078.49 1228.88 1088.36 1227.95
  C 1102.90 1226.58 1108.53 1226.10 1117.87 1225.05
  Q 1130.41 1223.63 1142.94 1224.36
  Q 1143.76 1224.41 1143.99 1224.71
  C 1145.34 1226.46 1142.71 1229.65 1141.57 1231.10
  A 5.56 5.50 1.9 0 1 1140.33 1232.25
  C 1130.82 1238.60 1121.86 1242.92 1110.48 1248.16
  C 1105.81 1250.32 1102.18 1251.35 1096.77 1253.23
  Q 1071.19 1262.14 1043.20 1264.00
  Q 1035.57 1264.51 1032.36 1264.99
  Q 1025.85 1265.97 1021.51 1266.07
  C 1015.98 1266.19 1009.41 1267.09 1003.18 1267.13
  C 996.41 1267.18 987.64 1268.00 982.43 1269.21
  Q 976.76 1270.53 969.71 1271.51
  C 965.24 1272.13 958.06 1273.54 951.26 1275.26
  Q 927.41 1281.29 913.05 1283.76
  Q 910.04 1284.27 888.06 1287.01
  C 880.35 1287.97 872.47 1288.14 864.47 1288.99
  Q 859.26 1289.55 855.02 1289.77
  Q 824.15 1291.37 796.10 1291.11
  Q 788.46 1291.03 779.97 1290.39
  C 772.31 1289.81 764.65 1290.13 757.01 1289.39
  Q 739.69 1287.72 724.28 1285.70
  Q 712.60 1284.16 703.91 1281.85
  Q 699.13 1280.57 696.38 1280.17
  C 689.97 1279.25 687.48 1278.56 680.76 1277.02
  Q 677.27 1276.23 672.65 1275.36
  C 667.93 1274.47 661.79 1272.51 656.62 1271.91
  C 653.57 1271.55 650.26 1270.51 646.93 1270.01
  Q 621.97 1266.26 597.53 1265.52
  Q 590.91 1265.32 587.64 1264.79
  C 583.13 1264.07 577.79 1264.01 574.45 1263.66
  Q 554.35 1261.50 545.02 1259.92
  C 539.76 1259.03 532.24 1256.91 525.48 1255.18
  Q 512.10 1251.75 499.37 1245.36
  Q 492.52 1241.92 482.20 1236.04
  Q 477.36 1233.29 472.96 1229.27
  Q 470.73 1227.22 470.96 1224.48
  A 0.64 0.63 89.5 0 1 471.53 1223.89
  Z"
/>
<path fill="#415241" d="
  M 1031.60 1312.80
  A 0.28 0.28 0.0 0 1 1031.87 1313.24
  C 1028.78 1317.50 1025.42 1321.26 1020.66 1324.12
  C 1015.92 1326.97 1012.53 1329.92 1007.76 1332.16
  Q 1005.26 1333.33 996.45 1337.64
  Q 992.79 1339.43 975.33 1345.86
  Q 970.72 1347.56 968.12 1348.67
  C 964.93 1350.03 961.75 1350.56 958.36 1351.89
  C 949.27 1355.45 939.23 1357.85 929.38 1360.26
  C 919.85 1362.59 911.13 1363.84 901.02 1365.93
  Q 894.82 1367.21 882.39 1368.54
  Q 863.50 1370.56 846.66 1371.89
  C 839.29 1372.47 832.96 1372.40 824.00 1372.94
  C 815.11 1373.47 803.65 1372.82 794.50 1372.91
  Q 789.00 1372.97 780.50 1372.46
  Q 762.83 1371.42 747.75 1369.76
  Q 726.24 1367.40 706.78 1362.90
  Q 699.82 1361.29 681.24 1356.27
  C 673.27 1354.12 666.78 1351.22 658.77 1349.04
  C 646.75 1345.77 635.50 1340.99 623.37 1335.61
  Q 615.90 1332.30 606.73 1325.82
  Q 599.54 1320.75 594.60 1313.53
  A 1.60 1.56 55.6 0 1 594.98 1311.34
  Q 595.94 1310.67 597.26 1310.63
  Q 616.85 1310.06 633.25 1311.68
  Q 639.82 1312.33 644.19 1313.29
  C 648.84 1314.31 653.72 1314.66 658.69 1316.00
  Q 664.31 1317.51 678.47 1320.07
  Q 680.49 1320.43 683.43 1321.27
  C 687.01 1322.29 690.26 1322.35 693.76 1323.39
  Q 696.66 1324.25 699.07 1324.59
  Q 711.33 1326.33 727.72 1329.38
  Q 735.32 1330.80 742.46 1331.50
  C 752.26 1332.46 763.22 1334.14 772.75 1334.52
  C 779.22 1334.78 786.10 1335.89 793.44 1335.94
  Q 826.49 1336.15 836.02 1335.71
  Q 859.13 1334.66 893.58 1330.43
  C 903.16 1329.26 912.82 1327.05 922.11 1325.73
  Q 928.81 1324.78 938.14 1322.54
  C 945.96 1320.65 954.78 1319.81 962.21 1318.30
  Q 977.78 1315.14 990.26 1314.08
  Q 997.13 1313.50 999.23 1313.10
  C 1006.88 1311.64 1017.06 1311.78 1022.50 1311.82
  A 9.24 9.12 -37.5 0 1 1025.05 1312.14
  L 1028.44 1313.05
  A 2.83 2.80 47.7 0 0 1029.59 1313.11
  L 1031.60 1312.80
  Z"
/>
</svg>
