<?xml version="1.0" encoding="UTF-8" standalone="no"?>
<!DOCTYPE svg PUBLIC "-//W3C//DTD SVG 1.1//EN" "http://www.w3.org/Graphics/SVG/1.1/DTD/svg11.dtd">
<svg xmlns="http://www.w3.org/2000/svg" version="1.1" viewBox="0.00 0.00 1024.00 1024.00">
<g stroke-width="2.00" fill="none" stroke-linecap="butt">
<path stroke="#41644a" vector-effect="non-scaling-stroke" d="
  M 118.22 544.47
  Q 119.55 554.45 120.92 564.06
  Q 122.16 572.84 128.68 599.31
  C 130.68 607.41 133.32 613.15 135.63 621.31
  Q 137.27 627.11 141.61 637.42
  Q 149.04 655.06 150.55 658.20
  Q 160.79 679.49 171.89 695.90
  Q 173.55 698.35 177.91 705.15
  Q 188.00 720.93 203.27 738.98
  Q 216.32 754.40 223.95 762.06
  Q 240.30 778.45 261.66 796.34
  C 264.47 798.70 266.20 800.50 271.28 800.41
  Q 282.29 800.23 306.50 800.45
  Q 342.30 800.77 363.17 800.59
  C 406.61 800.22 443.15 800.90 483.07 800.28
  C 499.70 800.02 515.45 800.74 530.81 800.38
  C 553.66 799.85 573.49 800.75 597.42 800.39
  Q 603.67 800.29 614.25 800.36
  C 648.01 800.57 682.24 799.94 715.36 800.41
  Q 733.55 800.68 752.54 800.35
  C 756.57 800.28 757.84 800.94 760.87 798.37
  Q 781.44 780.98 789.73 773.73
  Q 795.57 768.63 802.24 761.76
  Q 810.75 752.99 814.18 749.20
  Q 824.22 738.11 838.04 719.56
  Q 849.68 703.95 857.28 690.53
  C 861.93 682.32 866.71 674.57 870.39 666.75
  Q 880.31 645.64 882.17 641.22
  C 887.42 628.69 893.46 611.95 897.44 596.98
  Q 904.13 571.86 907.24 546.00
  Q 907.33 545.26 906.76 544.42"
/>
<path stroke="#939f8b" vector-effect="non-scaling-stroke" d="
  M 906.76 544.42
  Q 907.45 544.52 907.58 543.26
  Q 910.51 513.68 909.14 483.75
  Q 908.35 466.52 904.92 442.38
  Q 902.07 422.30 896.53 401.66
  Q 878.72 335.41 840.89 278.32
  Q 828.46 259.58 815.79 244.88
  Q 801.44 228.23 787.18 214.23
  Q 770.55 197.90 747.22 180.78
  C 699.67 145.90 644.37 121.35 586.26 111.01
  Q 563.42 106.95 547.74 105.52
  Q 493.68 100.59 439.93 110.62
  Q 412.76 115.70 391.51 122.56
  Q 323.04 144.67 264.81 190.68
  C 254.75 198.62 242.94 209.56 233.95 218.46
  C 175.08 276.73 136.47 352.75 121.91 434.37
  Q 112.11 489.26 118.22 544.47"
/>
<path stroke="#a4b49e" vector-effect="non-scaling-stroke" d="
  M 906.76 544.42
  L 836.63 544.42"
/>
<path stroke="#e9dbbd" vector-effect="non-scaling-stroke" d="
  M 836.63 544.42
  Q 836.53 543.79 837.06 542.62
  Q 837.60 541.46 837.78 540.90
  Q 842.21 527.03 838.20 513.21
  A 1.82 1.82 0.0 0 1 838.44 511.70
  C 842.55 505.59 846.63 498.58 848.90 491.58
  Q 856.73 467.39 849.91 442.82
  C 847.51 434.16 842.55 425.46 839.04 419.12
  A 1.27 1.27 0.0 0 1 838.98 418.01
  Q 841.80 411.20 842.79 405.34
  C 848.19 373.22 836.75 346.12 813.16 324.79
  A 1.25 1.23 22.3 0 1 812.76 323.86
  Q 813.42 301.45 802.46 283.20
  Q 787.93 259.00 761.79 248.02
  A 1.73 1.72 -85.3 0 1 760.78 246.82
  Q 756.25 227.19 743.07 212.44
  Q 736.76 205.36 733.98 203.24
  Q 715.93 189.46 693.40 183.92
  A 2.15 2.11 81.1 0 1 692.08 182.94
  C 685.52 172.00 677.13 163.72 665.91 156.98
  Q 640.60 141.79 610.77 143.46
  A 1.06 1.05 68.5 0 1 609.90 143.08
  Q 600.91 132.45 587.80 127.27
  C 573.64 121.67 554.67 121.39 540.44 129.25
  Q 519.52 140.79 513.36 163.88
  A 0.44 0.44 0.0 0 1 512.51 163.90
  Q 510.35 156.68 507.74 151.49
  C 501.73 139.53 489.55 130.54 476.91 126.88
  Q 455.55 120.71 435.81 129.20
  Q 427.00 133.00 417.62 142.75
  A 0.95 0.93 23.6 0 1 416.85 143.04
  C 398.38 141.71 378.80 145.34 363.13 155.64
  C 350.57 163.90 339.72 174.37 333.93 188.31
  A 1.24 1.24 0.0 0 1 332.85 189.07
  Q 325.12 189.50 316.66 191.63
  Q 289.21 198.54 274.21 222.93
  Q 266.85 234.89 265.47 248.85
  A 0.65 0.64 -1.8 0 1 264.93 249.42
  Q 260.71 250.08 257.77 251.24
  C 252.24 253.41 245.32 256.12 239.96 260.18
  Q 229.71 267.94 222.60 279.12
  C 213.94 292.76 211.19 309.02 213.28 324.83
  A 0.82 0.82 0.0 0 1 212.91 325.63
  Q 208.79 328.28 205.48 331.39
  Q 183.74 351.74 182.18 381.47
  C 181.61 392.46 183.99 404.01 187.28 414.53
  A 1.45 1.40 49.9 0 1 187.21 415.55
  C 186.58 416.88 185.23 418.24 184.53 419.37
  C 173.78 436.62 170.19 459.06 178.08 478.49"
/>
<path stroke="#f5ebd4" vector-effect="non-scaling-stroke" d="
  M 178.08 478.49
  Q 176.91 484.83 179.05 490.64"
/>
<path stroke="#939f8b" vector-effect="non-scaling-stroke" d="
  M 179.05 490.64
  Q 174.53 490.47 173.02 491.22
  C 167.08 494.17 174.06 504.27 176.92 507.62
  Q 183.04 514.78 191.94 521.57
  Q 203.62 530.47 208.20 533.64
  A 0.19 0.19 0.0 0 1 208.06 533.98
  C 200.13 532.48 192.47 530.55 185.17 527.72
  Q 185.13 527.70 158.60 518.17
  Q 155.46 517.04 152.89 516.94
  A 2.55 2.55 0.0 0 0 150.28 519.07
  C 149.45 524.07 152.71 530.71 155.43 535.35
  Q 158.06 539.85 160.40 544.44"
/>
<path stroke="#a4b49e" vector-effect="non-scaling-stroke" d="
  M 160.40 544.44
  L 118.22 544.47"
/>
<path stroke="#a3b194" vector-effect="non-scaling-stroke" d="
  M 817.54 544.48
  L 745.99 544.60"
/>
<path stroke="#929c81" vector-effect="non-scaling-stroke" d="
  M 745.99 544.60
  Q 737.27 523.28 723.35 504.90
  C 710.97 488.56 697.89 474.55 682.08 460.09
  Q 663.28 442.90 660.76 440.43
  Q 648.07 427.99 642.28 418.26
  C 636.70 408.88 634.75 395.63 646.64 390.30
  Q 657.20 385.57 669.61 389.47
  Q 669.73 389.51 693.63 395.97
  C 708.86 400.08 724.94 403.03 739.25 404.74
  Q 753.27 406.42 766.00 406.58
  C 778.71 406.75 788.51 406.42 799.49 402.51
  C 808.11 399.44 817.15 394.21 816.85 383.73
  C 816.66 376.76 812.61 371.52 806.71 368.29
  Q 798.63 363.86 791.14 361.10
  Q 783.86 358.42 766.40 351.08
  Q 744.82 342.02 725.10 328.26
  Q 719.63 324.45 714.18 319.46
  C 707.07 312.96 700.89 306.92 696.18 299.32
  C 693.61 295.19 691.10 288.06 689.21 282.16
  C 685.32 270.00 679.15 258.95 670.34 250.16
  Q 660.60 240.45 651.83 235.52
  Q 616.60 215.72 577.42 223.43
  C 545.70 229.67 519.45 250.49 504.66 279.04
  C 491.33 304.77 487.34 335.38 490.72 364.04
  C 494.31 394.42 503.37 422.51 515.07 451.41
  A 0.32 0.32 0.0 0 1 514.71 451.84
  C 469.13 442.23 421.84 443.09 376.70 454.96
  Q 354.99 460.66 344.39 464.39
  Q 295.76 481.46 294.80 481.79
  Q 273.34 488.94 252.85 492.57
  Q 230.50 496.53 207.61 494.57
  C 198.99 493.84 188.56 491.96 179.05 490.64"
/>
<path stroke="#97a07c" vector-effect="non-scaling-stroke" d="
  M 836.63 544.42
  L 817.54 544.48"
/>
<path stroke="#e7d8b3" vector-effect="non-scaling-stroke" d="
  M 817.54 544.48
  Q 816.17 542.70 816.90 540.98
  C 819.53 534.80 819.35 526.81 817.71 520.77
  Q 816.93 517.86 815.54 514.23
  A 2.66 2.64 -32.2 0 1 816.20 511.36
  Q 840.26 488.78 834.59 455.12
  Q 832.55 443.00 827.92 433.89
  A 0.54 0.54 0.0 0 0 827.01 433.80
  Q 819.99 442.84 810.80 449.19
  A 1.20 1.18 -13.3 0 0 810.31 449.97
  C 810.17 450.91 810.84 452.37 810.95 453.23
  Q 811.94 460.78 811.32 468.74
  Q 809.41 493.25 790.19 507.97
  Q 785.07 511.89 778.77 514.25
  C 773.03 516.40 765.24 516.33 763.43 509.23
  C 761.86 503.03 765.96 500.44 771.27 498.30
  C 785.00 492.75 793.56 482.68 794.74 467.84
  C 795.05 463.93 794.15 459.96 793.86 456.65
  A 0.50 0.49 79.6 0 0 793.23 456.21
  C 783.61 458.87 769.50 458.16 761.08 452.69
  C 757.17 450.15 754.25 444.61 757.18 440.43
  C 761.33 434.50 768.71 437.78 774.08 439.38
  C 784.97 442.63 797.09 438.36 805.60 431.17
  C 810.18 427.30 815.26 421.97 818.06 416.59
  Q 820.96 411.04 823.10 403.12
  A 7.91 7.59 69.5 0 1 823.95 401.15
  C 825.20 399.12 826.88 397.74 827.81 395.33
  C 831.93 384.68 830.85 373.06 822.50 364.75
  Q 819.07 361.33 818.85 361.12
  A 6.36 6.36 0.0 0 1 817.25 358.48
  C 813.87 347.75 804.45 337.34 793.56 332.97
  Q 786.15 330.00 778.52 331.31
  C 775.35 331.86 773.91 334.48 772.56 337.30
  A 2.26 2.26 0.0 0 1 770.06 338.55
  C 759.19 336.32 757.53 323.05 767.51 317.99
  C 775.73 313.82 785.12 313.32 794.29 315.68
  A 0.41 0.41 0.0 0 0 794.79 315.23
  Q 790.39 281.57 760.69 266.44
  A 0.24 0.24 0.0 0 0 760.34 266.64
  C 759.46 275.81 756.76 286.66 749.65 293.15
  Q 745.03 297.36 740.04 295.44
  C 735.35 293.63 734.02 288.67 736.32 284.59
  Q 743.17 272.43 743.19 258.51
  C 743.20 248.02 739.58 237.04 733.83 228.90
  Q 727.65 220.13 717.37 212.49
  C 711.75 208.31 704.36 205.18 697.74 202.75
  A 0.40 0.40 0.0 0 0 697.20 203.12
  Q 696.81 216.98 691.62 229.21
  A 0.71 0.71 0.0 0 0 691.82 230.04
  C 703.02 239.42 712.78 254.86 710.24 269.76
  Q 709.30 275.27 703.92 278.17
  C 702.07 279.17 701.10 277.78 700.61 276.11
  Q 698.38 268.53 695.71 263.11
  Q 683.30 237.82 658.39 224.46
  C 654.35 222.30 651.84 220.58 652.33 216.04
  C 653.29 207.34 662.19 207.27 668.16 211.08
  Q 673.75 214.63 676.53 217.45
  A 0.37 0.37 0.0 0 0 677.16 217.26
  C 679.35 205.63 681.94 197.70 676.33 189.13
  C 666.18 173.60 648.64 164.51 630.70 161.11
  Q 625.40 160.10 620.53 160.20
  A 0.45 0.45 0.0 0 0 620.11 160.78
  Q 622.35 168.30 621.97 177.00
  Q 621.77 181.48 620.43 183.57
  C 616.82 189.18 609.41 189.73 605.74 183.95
  A 2.85 2.82 28.7 0 1 605.30 182.47
  C 605.11 171.03 604.41 161.64 596.14 153.41
  Q 580.22 137.54 559.12 141.13
  Q 552.62 142.23 547.48 145.03
  C 539.61 149.32 532.87 157.67 530.07 166.09
  Q 529.00 169.30 526.84 180.46
  Q 525.30 188.45 524.88 195.03
  Q 523.51 216.45 523.38 235.96
  A 0.98 0.96 72.8 0 1 522.99 236.72
  Q 516.19 241.69 510.89 247.65
  Q 503.94 255.45 498.05 264.26
  A 0.56 0.56 0.0 0 1 497.04 264.06
  Q 495.90 258.80 495.53 253.05
  Q 495.34 250.11 492.33 246.87
  C 484.81 238.78 475.53 231.20 464.86 228.98
  C 460.76 228.13 456.02 228.82 451.51 228.78
  C 448.56 228.76 444.18 227.73 443.53 224.48
  Q 441.74 215.57 449.38 212.94
  C 457.25 210.22 466.49 211.16 474.79 214.29
  Q 486.95 218.88 497.31 226.28
  A 0.18 0.18 0.0 0 0 497.60 226.13
  Q 497.20 211.60 497.56 196.76
  Q 497.82 185.82 496.21 174.83
  Q 493.14 153.95 475.39 144.96
  C 468.09 141.26 459.44 141.10 451.54 142.39
  C 444.72 143.50 440.00 146.02 434.38 149.86
  A 0.53 0.53 0.0 0 0 434.39 150.74
  Q 443.18 156.53 449.85 161.87
  Q 452.48 163.97 453.42 168.84
  C 454.01 171.93 451.82 176.13 448.74 176.97
  C 443.32 178.45 439.95 176.57 435.58 172.83
  C 428.64 166.88 422.92 162.61 414.94 160.25
  Q 409.21 158.56 400.03 159.89
  C 379.54 162.86 362.26 174.50 350.86 192.03
  A 10.67 10.55 -24.6 0 0 349.28 196.20
  C 348.49 201.54 349.00 207.75 343.39 207.40
  C 340.03 207.18 336.52 206.36 333.51 206.40
  Q 323.60 206.52 316.30 209.32
  Q 302.01 214.79 291.92 227.19
  C 287.43 232.71 284.44 240.73 282.28 247.90
  A 0.48 0.48 0.0 0 0 282.64 248.51
  Q 291.47 250.40 298.98 253.58
  C 305.73 256.43 313.17 259.59 311.92 267.23
  Q 311.18 271.79 306.45 273.42
  C 302.22 274.89 298.89 273.21 295.48 271.23
  Q 291.22 268.75 289.37 268.02
  Q 274.23 262.07 260.51 268.00
  Q 240.39 276.70 233.14 297.83
  C 230.96 304.19 230.70 310.21 231.03 317.08
  A 0.29 0.29 0.0 0 0 231.41 317.34
  Q 235.49 315.98 239.74 315.65
  Q 248.54 314.97 254.98 314.27
  Q 265.76 313.11 271.65 305.64
  Q 275.13 301.22 276.13 300.71
  C 284.15 296.64 291.53 302.62 288.00 311.29
  C 283.38 322.68 269.15 329.71 257.41 331.08
  Q 246.28 332.38 246.15 332.39
  C 229.75 334.30 216.78 342.42 207.62 356.40
  Q 197.02 372.57 198.48 392.40
  Q 199.26 403.03 203.88 410.82
  C 208.33 418.32 215.24 424.45 223.63 427.21
  C 229.23 429.05 234.93 430.63 235.93 436.25
  C 237.18 443.27 230.19 447.40 223.89 445.82
  Q 212.42 442.95 202.52 435.46
  Q 199.37 433.08 197.43 430.37
  A 0.28 0.28 0.0 0 0 196.93 430.45
  C 195.22 436.27 193.29 442.51 193.52 449.01
  Q 194.13 466.40 203.43 480.74
  A 0.32 0.32 0.0 0 1 203.13 481.23
  Q 196.57 480.51 183.26 479.46
  C 181.67 479.33 179.16 480.34 178.08 478.49"
/>
<path stroke="#41644a" vector-effect="non-scaling-stroke" d="
  M 745.99 544.60
  Q 746.63 547.45 747.58 550.21
  Q 748.97 554.23 749.36 555.74
  Q 755.35 579.24 754.03 603.82
  Q 753.19 619.40 748.91 632.29
  Q 744.17 646.58 737.00 658.74
  A 0.44 0.44 0.0 0 0 737.34 659.40
  C 758.96 661.57 775.64 663.17 795.57 666.66
  C 800.61 667.55 808.94 669.45 813.15 673.08
  C 825.38 683.60 781.98 697.51 776.23 699.20
  Q 758.48 704.42 740.79 708.06
  C 738.49 708.53 736.53 708.46 734.80 708.84
  A 0.37 0.37 0.0 0 0 734.82 709.56
  Q 745.65 711.61 754.84 714.94
  Q 758.40 716.22 759.46 717.42
  C 763.25 721.71 757.49 724.75 754.38 726.14
  Q 745.26 730.20 734.55 732.76
  Q 716.36 737.11 697.56 739.71
  Q 690.62 740.67 685.91 741.02
  C 676.27 741.74 667.45 743.21 656.74 744.14
  Q 611.94 748.01 598.50 749.24
  Q 590.30 749.98 574.94 750.41
  C 570.66 750.53 565.93 751.43 561.32 751.57
  C 552.02 751.86 544.26 752.37 536.23 752.39
  Q 526.98 752.42 507.34 752.67
  C 500.08 752.76 492.96 752.21 485.00 752.23
  Q 474.04 752.25 415.83 749.72
  C 408.56 749.40 401.51 748.64 395.58 748.36
  Q 387.88 747.99 380.42 747.35
  C 349.22 744.71 324.49 743.13 297.28 737.68
  C 290.90 736.41 268.73 731.50 266.23 725.77
  Q 264.79 722.47 268.33 720.57
  C 275.34 716.80 282.82 715.04 290.32 713.47
  A 0.29 0.29 0.0 0 0 290.32 712.90
  Q 285.07 711.70 277.39 710.27
  Q 268.44 708.59 258.32 706.21
  C 246.37 703.40 236.39 700.17 224.95 696.93
  C 215.71 694.31 205.05 690.53 196.20 686.87
  Q 193.12 685.60 184.64 680.90
  C 180.40 678.55 175.15 675.26 173.56 670.74
  A 1.69 1.68 -15.0 0 1 174.85 668.52
  Q 181.54 667.27 189.00 667.01
  Q 215.38 666.08 243.43 664.00
  A 0.26 0.26 0.0 0 0 243.60 663.57
  Q 239.68 659.26 235.68 654.08
  Q 227.76 643.86 218.48 631.53
  C 210.63 621.10 204.53 610.40 196.62 599.63
  Q 194.58 596.84 183.14 579.17
  Q 171.85 561.71 160.40 544.44"
/>
<path stroke="#735730" vector-effect="non-scaling-stroke" d="
  M 863.45 832.31
  A 17.64 17.64 0.0 0 0 845.81 814.67
  L 177.81 814.67
  A 17.64 17.64 0.0 0 0 160.17 832.31
  L 160.17 926.71
  A 17.64 17.64 0.0 0 0 177.81 944.35
  L 845.81 944.35
  A 17.64 17.64 0.0 0 0 863.45 926.71
  L 863.45 832.31"
/>
<path stroke="#e7d8b3" vector-effect="non-scaling-stroke" d="
  M 558.42 216.11
  L 578.43 210.81
  A 1.84 1.82 -87.1 0 0 579.69 209.66
  Q 581.23 205.45 584.48 200.83
  C 587.22 196.95 586.17 192.25 582.06 189.78
  C 576.05 186.17 570.01 190.35 566.52 195.51
  Q 560.23 204.79 557.89 215.61
  A 0.43 0.43 0.0 0 0 558.42 216.11"
/>
<path stroke="#e7d8b3" vector-effect="non-scaling-stroke" d="
  M 326.54 343.90
  C 307.61 342.47 288.94 347.58 276.43 362.53
  C 270.69 369.39 266.64 378.85 265.23 387.62
  A 0.51 0.51 0.0 0 1 264.46 387.98
  C 258.16 384.17 239.27 376.13 234.46 385.24
  C 232.25 389.43 234.35 393.99 238.19 396.49
  Q 240.10 397.74 244.64 398.47
  Q 250.94 399.47 254.58 401.24
  Q 262.49 405.08 268.40 413.61
  Q 274.99 423.13 276.52 424.96
  Q 283.49 433.30 294.11 436.41
  A 0.47 0.47 0.0 0 1 294.41 437.04
  Q 289.72 447.97 290.01 460.26
  Q 290.10 464.04 290.62 469.42
  A 0.98 0.98 0.0 0 0 291.95 470.23
  L 306.26 464.61
  A 1.85 1.85 0.0 0 0 307.44 462.72
  Q 306.39 450.38 312.76 440.92
  C 314.20 438.78 316.49 436.38 318.77 435.46
  Q 327.89 431.78 333.36 427.08
  Q 338.49 422.66 338.85 415.63
  C 339.23 408.25 331.59 403.64 325.50 408.09
  C 323.67 409.43 322.67 412.12 321.41 414.42
  Q 319.83 417.30 315.73 419.07
  Q 304.49 423.94 294.57 417.89
  C 288.57 414.23 285.21 408.46 283.06 401.84
  C 280.98 395.43 281.69 388.13 284.34 382.01
  Q 292.70 362.77 315.21 361.20
  Q 322.98 360.65 328.71 363.30
  C 331.90 364.77 336.39 366.80 338.55 369.20
  Q 343.67 374.91 348.10 379.66
  C 354.34 386.35 364.10 392.80 373.48 393.54
  C 377.85 393.89 382.26 391.78 383.55 387.31
  C 385.18 381.70 381.39 379.01 376.33 377.07
  C 371.56 375.25 366.18 372.51 362.09 368.46
  Q 353.46 359.91 349.37 350.66
  C 346.68 344.57 344.61 340.71 343.45 335.80
  Q 340.78 324.45 341.38 316.48
  Q 343.35 290.35 364.50 274.75
  C 370.84 270.07 383.72 264.11 391.01 267.74
  Q 398.31 271.38 405.73 272.08
  C 418.56 273.31 433.64 273.94 440.15 287.38
  Q 441.60 290.38 443.14 295.09
  C 444.67 299.80 449.75 302.61 454.58 300.89
  C 464.65 297.31 456.80 280.82 452.78 275.17
  C 443.25 261.75 429.38 258.30 413.75 255.91
  Q 406.63 254.83 403.29 252.90
  C 396.06 248.72 393.81 241.17 394.17 233.00
  Q 394.52 225.25 399.02 219.75
  Q 403.79 213.90 409.29 210.81
  C 414.87 207.69 421.58 205.24 421.14 199.17
  C 420.59 191.56 413.57 188.93 406.89 192.18
  Q 391.52 199.65 383.41 212.73
  C 376.21 224.34 376.48 237.10 379.72 249.89
  A 0.42 0.42 0.0 0 1 379.39 250.41
  Q 366.69 252.81 354.94 259.62
  A 0.19 0.19 0.0 0 1 354.66 259.50
  C 352.78 251.95 350.10 236.28 341.25 234.34
  C 334.15 232.79 329.82 239.51 332.31 245.68
  Q 337.64 258.91 339.34 272.85
  A 2.93 2.93 0.0 0 1 338.88 274.84
  C 332.50 284.69 326.87 297.09 325.07 308.80
  Q 322.34 326.56 327.00 343.34
  A 0.45 0.44 84.8 0 1 326.54 343.90"
/>
<path stroke="#e7d8b3" vector-effect="non-scaling-stroke" d="
  M 413.56 347.68
  A 0.34 0.33 -68.1 0 1 413.77 348.18
  C 406.68 359.94 408.15 375.09 414.96 386.42
  Q 416.16 388.42 420.16 393.51
  Q 423.71 398.03 425.19 403.25
  C 429.12 417.18 414.60 424.74 403.25 425.53
  Q 394.04 426.18 393.51 426.23
  C 385.35 426.95 384.80 435.34 384.79 441.73
  A 0.44 0.43 84.1 0 0 385.31 442.16
  Q 403.61 438.14 423.65 436.50
  A 2.42 2.28 -57.0 0 0 424.35 436.33
  Q 434.76 432.06 440.21 420.33
  C 446.92 405.90 440.94 392.22 432.65 380.14
  C 427.04 371.97 424.45 365.99 428.16 356.88
  C 429.10 354.56 430.19 352.10 431.99 351.44
  Q 435.41 350.17 440.78 350.31
  Q 459.28 350.78 473.67 362.15
  Q 474.75 363.00 475.79 364.26
  A 0.52 0.52 0.0 0 0 476.70 363.86
  Q 475.32 353.34 475.62 344.22
  A 1.66 1.65 16.4 0 0 474.81 342.75
  Q 464.24 336.56 453.27 334.47
  C 443.13 332.54 430.72 334.04 420.03 331.71
  Q 409.39 329.39 401.76 322.27
  C 397.47 318.27 395.24 311.67 392.92 307.88
  C 387.68 299.29 374.53 305.20 377.39 315.24
  Q 381.02 327.99 389.16 335.13
  Q 399.85 344.50 413.56 347.68"
/>
<path stroke="#e7d8b3" vector-effect="non-scaling-stroke" d="
  M 715.21 413.18
  L 699.11 409.73
  A 1.35 1.34 20.4 0 0 697.65 410.39
  C 690.21 423.93 688.06 441.47 696.37 454.67
  Q 708.26 473.55 732.07 481.80
  Q 734.79 482.75 736.75 482.59
  C 745.34 481.93 747.37 472.25 740.57 467.43
  Q 737.87 465.52 730.38 462.63
  C 717.02 457.49 704.95 441.89 709.39 426.64
  Q 711.36 419.90 715.54 414.03
  A 0.55 0.54 24.0 0 0 715.21 413.18"
/>
<path stroke="#939f8b" vector-effect="non-scaling-stroke" d="
  M 530.35 433.55
  L 540.31 457.06"
/>
<path stroke="#5f5432" vector-effect="non-scaling-stroke" d="
  M 540.31 457.06
  Q 544.90 466.47 553.27 471.72
  C 561.25 476.72 572.76 482.65 581.18 488.60
  Q 589.44 494.46 593.98 498.04
  Q 616.63 515.94 631.13 540.87
  Q 636.71 550.48 640.47 560.51"
/>
<path stroke="#868b69" vector-effect="non-scaling-stroke" d="
  M 640.47 560.51
  Q 642.51 572.50 642.51 584.00
  C 642.52 612.79 625.98 639.57 602.38 655.35
  Q 574.45 674.02 541.25 674.31
  Q 517.21 674.52 496.01 666.47
  Q 470.86 656.92 447.23 636.56
  Q 442.14 632.17 433.30 623.72
  A 1.17 1.16 -45.9 0 0 431.66 623.75
  C 419.14 636.60 405.66 648.05 388.66 654.60
  C 362.35 664.74 328.52 662.01 312.54 635.39
  A 0.27 0.26 -1.7 0 1 312.89 635.02
  Q 320.26 638.86 328.95 641.62
  A 0.16 0.15 8.7 0 0 329.15 641.48
  L 329.15 566.92
  A 0.37 0.37 0.0 0 0 328.80 566.55
  C 308.98 565.57 289.52 563.53 269.88 558.52
  A 0.24 0.24 0.0 0 0 269.60 558.86
  C 273.85 567.70 280.33 575.58 287.43 583.25
  Q 295.93 592.40 300.51 596.64
  C 301.01 597.10 302.12 597.73 302.26 597.91
  A 0.42 0.42 0.0 0 1 301.91 598.59
  C 277.09 597.18 252.88 591.99 228.21 584.03
  Q 216.61 580.28 206.00 575.43
  A 0.31 0.31 0.0 0 0 205.62 575.89
  Q 222.53 599.06 241.02 625.74
  Q 252.04 641.65 263.24 655.24
  Q 279.65 675.14 301.90 689.67
  C 322.87 703.35 347.74 711.67 372.59 716.10
  Q 389.77 719.17 401.25 720.29
  C 466.15 726.66 532.74 726.79 597.96 718.22"
/>
<path stroke="#5f5432" vector-effect="non-scaling-stroke" d="
  M 597.96 718.22
  Q 602.19 717.91 606.44 716.91
  C 628.35 711.73 642.60 709.39 658.09 702.05
  C 668.00 697.35 677.89 692.50 686.12 686.12
  C 692.41 681.25 700.33 674.40 706.27 667.27
  C 723.34 646.80 732.77 622.48 732.48 596.02
  C 732.21 571.71 726.83 545.50 712.71 524.92
  Q 705.45 514.35 701.98 510.01
  Q 688.46 493.13 669.91 474.58
  Q 662.15 466.82 649.39 454.11
  Q 648.62 453.35 647.76 453.16
  A 0.71 0.69 -4.8 0 1 647.27 452.76
  Q 647.20 452.61 647.11 452.42"
/>
<path stroke="#939f8b" vector-effect="non-scaling-stroke" d="
  M 647.11 452.42
  Q 647.24 452.62 647.27 452.23
  A 0.56 0.54 26.4 0 0 647.12 451.81
  Q 637.93 442.83 630.08 432.90"
/>
<path stroke="#41644a" vector-effect="non-scaling-stroke" d="
  M 630.08 432.90
  Q 626.71 426.92 622.97 421.31
  C 614.86 409.10 613.33 390.88 625.68 380.68
  Q 630.84 376.42 633.55 375.04
  C 642.62 370.42 649.05 367.10 656.64 361.41
  C 662.20 357.24 665.23 351.83 668.76 346.19
  C 673.73 338.29 676.13 329.32 676.27 319.53
  Q 676.58 298.44 669.82 280.88
  C 666.76 272.94 662.37 266.49 657.35 260.25
  C 649.90 251.00 638.63 244.56 627.14 241.09
  C 606.76 234.92 584.10 236.06 564.77 243.80
  C 555.27 247.60 546.57 254.94 539.06 262.33
  Q 535.08 266.24 531.18 271.81
  Q 525.17 280.41 524.33 282.10
  C 519.61 291.68 515.81 301.26 513.81 311.75
  Q 508.55 339.26 511.94 365.79
  C 513.49 377.97 516.89 390.25 519.87 402.68
  C 521.47 409.32 524.03 415.18 526.25 422.18
  Q 528.16 428.22 530.35 433.55"
/>
<path stroke="#a4b49e" vector-effect="non-scaling-stroke" d="
  M 630.08 432.90
  C 611.06 439.01 591.50 441.17 571.25 440.31
  Q 550.71 439.44 530.35 433.55"
/>
<path stroke="#c2a485" vector-effect="non-scaling-stroke" d="
  M 647.11 452.42
  Q 619.37 461.86 589.00 463.06
  Q 564.26 464.03 540.31 457.06"
/>
<path stroke="#b59064" vector-effect="non-scaling-stroke" d="
  M 597.96 718.22
  C 619.10 706.29 634.79 688.02 645.21 666.17
  Q 653.36 649.09 655.48 633.73
  Q 660.79 595.21 640.47 560.51"
/>
<path stroke="#83743c" vector-effect="non-scaling-stroke" d="
  M 662.63 372.67
  C 664.09 373.04 665.99 373.26 667.34 373.63
  Q 706.33 384.45 727.76 388.44
  Q 750.13 392.61 770.75 392.77
  Q 779.29 392.83 787.79 391.59
  C 791.56 391.04 798.96 389.46 801.33 386.31
  C 805.36 380.96 797.26 377.35 793.35 375.92
  C 782.31 371.89 770.33 368.03 759.26 363.01
  C 745.68 356.85 732.08 349.79 720.03 341.17
  Q 711.91 335.37 709.60 333.41
  Q 699.23 324.62 691.31 314.27
  A 0.34 0.34 0.0 0 0 690.70 314.48
  Q 691.14 333.77 682.93 350.91
  C 678.55 360.05 671.14 367.28 662.57 372.25
  A 0.23 0.23 0.0 0 0 662.63 372.67"
/>
<path stroke="#868b69" vector-effect="non-scaling-stroke" d="
  M 219.78 510.06
  A 0.28 0.28 0.0 0 0 219.57 510.56
  C 246.81 532.58 279.08 541.54 314.25 543.20
  Q 337.01 544.27 358.12 539.82
  Q 375.99 536.05 385.82 532.57
  Q 403.36 526.36 428.20 517.43
  Q 457.50 506.90 488.71 507.97
  C 505.99 508.56 522.74 512.56 538.52 519.18
  A 0.42 0.42 0.0 0 1 538.32 519.99
  C 503.65 517.15 469.22 523.01 437.07 535.57
  Q 402.14 549.22 398.19 550.67
  C 389.04 554.04 382.01 556.78 375.84 558.10
  A 0.32 0.32 0.0 0 0 375.82 558.72
  Q 378.17 559.38 380.54 560.46
  Q 394.73 566.99 408.57 577.22
  C 414.99 581.97 424.36 589.37 431.63 596.12
  A 0.94 0.94 0.0 0 0 432.93 596.10
  Q 456.31 573.21 481.77 555.04
  Q 495.94 544.94 509.69 539.73
  C 535.37 530.00 564.61 531.59 588.86 545.19
  Q 614.13 559.36 628.30 585.06
  A 0.21 0.20 -63.6 0 0 628.68 584.93
  C 627.34 574.15 624.38 562.24 619.40 552.00
  Q 614.83 542.61 612.95 539.55
  C 587.18 497.70 543.63 476.33 496.07 469.20
  C 472.70 465.69 449.84 464.61 426.29 466.83
  C 399.47 469.36 374.54 474.82 348.98 483.41
  Q 333.35 488.66 314.47 495.43
  Q 291.77 503.57 268.03 508.29
  Q 248.93 512.09 229.76 511.25
  C 226.21 511.10 223.22 510.55 219.78 510.06"
/>
<path stroke="#868b69" vector-effect="non-scaling-stroke" d="
  M 547.41 554.09
  L 547.41 654.55
  A 0.58 0.58 0.0 0 0 548.05 655.13
  Q 560.53 653.87 572.22 649.19
  A 0.75 0.74 -11.2 0 0 572.69 648.50
  L 572.69 559.65
  A 1.29 1.29 0.0 0 0 571.84 558.44
  Q 560.31 554.23 548.09 553.44
  A 0.65 0.64 -88.3 0 0 547.41 554.09"
/>
<path stroke="#868b69" vector-effect="non-scaling-stroke" d="
  M 531.31 553.97
  C 523.03 555.36 513.89 557.56 506.72 561.68
  A 0.99 0.98 75.6 0 0 506.22 562.54
  L 506.22 648.78
  A 1.53 1.52 -80.3 0 0 507.23 650.22
  Q 518.55 654.23 531.08 655.20
  A 0.61 0.61 0.0 0 0 531.74 654.59
  L 531.74 554.34
  A 0.37 0.37 0.0 0 0 531.31 553.97"
/>
<path stroke="#868b69" vector-effect="non-scaling-stroke" d="
  M 342.70 567.93
  L 342.70 643.81
  A 0.69 0.68 2.8 0 0 343.32 644.49
  Q 354.80 645.71 366.23 642.60
  A 1.43 1.43 0.0 0 0 367.28 641.22
  L 367.28 573.89
  A 1.01 1.01 0.0 0 0 366.66 572.96
  Q 355.48 568.24 343.46 567.23
  A 0.70 0.70 0.0 0 0 342.70 567.93"
/>
<path stroke="#868b69" vector-effect="non-scaling-stroke" d="
  M 588.33 567.62
  L 588.33 640.39
  A 0.44 0.44 0.0 0 0 589.01 640.76
  Q 609.33 627.53 619.64 606.17
  A 2.96 2.94 -45.7 0 0 619.62 603.55
  Q 608.59 581.87 588.59 567.49
  A 0.16 0.16 0.0 0 0 588.33 567.62"
/>
<path stroke="#868b69" vector-effect="non-scaling-stroke" d="
  M 491.62 570.52
  C 475.39 581.96 460.20 595.88 446.15 609.86
  A 0.34 0.34 0.0 0 0 446.19 610.38
  Q 448.13 611.72 449.08 612.57
  Q 458.69 621.06 465.39 626.49
  Q 477.51 636.31 492.00 644.21
  A 0.14 0.13 -75.7 0 0 492.20 644.09
  L 492.20 570.82
  A 0.37 0.37 0.0 0 0 491.62 570.52"
/>
<path stroke="#868b69" vector-effect="non-scaling-stroke" d="
  M 380.80 637.16
  C 394.33 630.65 406.67 620.70 417.64 610.70
  A 0.68 0.68 0.0 0 0 417.63 609.69
  C 409.67 602.70 400.65 594.96 391.84 588.82
  Q 382.86 582.56 381.01 581.12
  A 0.24 0.24 0.0 0 0 380.62 581.31
  L 380.62 637.04
  A 0.13 0.13 0.0 0 0 380.80 637.16"
/>
<path stroke="#364e3a" vector-effect="non-scaling-stroke" d="
  M 639.0842 296.9594
  A 16.16 15.71 -9.8 0 0 620.4860 284.2292
  A 16.16 15.71 -9.8 0 0 607.2358 302.4606
  A 16.16 15.71 -9.8 0 0 625.8340 315.1908
  A 16.16 15.71 -9.8 0 0 639.0842 296.9594"
/>
<path stroke="#83743c" vector-effect="non-scaling-stroke" d="
  M 708.62 357.71
  C 711.16 359.86 715.70 361.75 718.70 360.41
  C 724.67 357.76 718.22 352.51 715.18 349.94
  C 712.13 347.37 705.87 341.89 704.26 348.22
  C 703.45 351.40 706.07 355.56 708.62 357.71"
/>
<path stroke="#41644a" vector-effect="non-scaling-stroke" d="
  M 716.73 769.96
  A 2.08 1.72 13.5 0 0 715.00 767.65
  Q 704.77 765.80 692.67 764.99
  Q 683.08 764.35 676.81 763.33
  C 661.28 760.81 645.35 760.02 629.76 760.96
  Q 619.43 761.59 602.40 764.30
  Q 584.12 767.21 575.14 768.35
  Q 530.31 774.05 486.09 771.37
  Q 455.63 769.52 426.02 764.64
  Q 425.59 764.57 411.01 762.80
  C 397.09 761.10 381.93 761.01 369.51 762.02
  Q 360.19 762.78 313.75 767.69
  Q 311.18 767.96 309.37 769.39
  A 1.54 1.54 0.0 0 0 309.24 771.69
  Q 311.13 773.56 313.77 774.47
  Q 332.69 780.99 353.28 782.65
  Q 364.57 783.57 383.13 784.41
  Q 390.04 784.72 406.66 786.27
  C 419.11 787.44 433.74 790.04 445.54 791.67
  C 466.94 794.63 491.04 796.31 514.02 796.14
  Q 535.71 795.98 537.00 795.95
  C 553.06 795.61 569.64 794.09 586.93 791.56
  Q 610.09 788.17 617.75 787.02
  C 635.20 784.40 658.44 783.86 671.00 782.02
  Q 687.96 779.53 693.72 778.43
  C 701.54 776.93 708.89 775.48 714.61 771.91
  Q 716.46 770.76 716.73 769.96"
/>
<path stroke="#d6a683" vector-effect="non-scaling-stroke" d="
  M 211.83 877.79
  Q 213.05 881.10 217.00 888.54
  C 220.51 895.18 223.28 902.25 227.24 910.86
  A 2.38 2.33 61.5 0 0 230.63 911.90
  Q 231.31 911.47 232.05 909.79
  Q 240.31 891.03 247.40 876.27
  A 0.33 0.33 0.0 0 1 248.02 876.41
  L 248.02 921.87
  A 2.05 2.05 0.0 0 0 250.03 923.92
  Q 256.02 924.04 260.99 924.05
  Q 263.47 924.05 263.48 921.76
  Q 263.54 881.32 263.47 845.11
  A 2.43 2.43 0.0 0 0 261.04 842.68
  L 248.59 842.68
  A 2.54 2.53 -77.2 0 0 246.30 844.13
  L 229.32 879.60
  A 0.33 0.33 0.0 0 1 228.73 879.60
  L 211.61 844.10
  A 2.57 2.57 0.0 0 0 209.29 842.64
  L 197.45 842.64
  A 1.79 1.78 90.0 0 0 195.67 844.43
  L 195.67 921.86
  A 2.22 2.22 0.0 0 0 197.88 924.08
  Q 203.87 924.12 209.02 924.02
  Q 211.48 923.98 211.47 921.28
  Q 211.35 878.81 211.39 877.86
  A 0.23 0.23 0.0 0 1 211.83 877.79"
/>
<path stroke="#d6a683" vector-effect="non-scaling-stroke" d="
  M 361.20 908.89
  Q 360.76 869.16 361.09 849.51
  Q 361.14 846.16 360.77 844.68
  A 2.35 2.34 -6.5 0 0 358.55 842.92
  L 346.24 842.66
  A 1.98 1.98 0.0 0 0 344.22 844.65
  Q 344.27 853.70 344.41 920.40
  C 344.42 922.68 344.65 924.17 347.27 924.12
  Q 358.30 923.92 381.50 924.06
  Q 383.29 924.07 384.18 922.74
  A 1.46 1.44 59.5 0 0 384.42 921.79
  Q 384.27 920.06 384.29 912.80
  Q 384.30 909.38 381.27 909.42
  Q 366.67 909.60 361.79 909.48
  A 0.60 0.60 0.0 0 1 361.20 908.89"
/>
<path stroke="#d6a683" vector-effect="non-scaling-stroke" d="
  M 474.93 909.66
  Q 484.00 909.62 484.97 909.63
  A 0.71 0.70 82.5 0 1 485.65 910.16
  L 488.89 922.39
  A 2.19 2.18 82.6 0 0 491.00 924.02
  L 503.50 924.03
  A 1.75 1.75 0.0 0 0 505.22 922.59
  Q 505.34 922.05 505.07 920.97
  Q 495.77 884.90 485.12 844.70
  A 2.68 2.67 82.9 0 0 482.57 842.71
  Q 479.38 842.66 474.69 842.68
  Q 469.99 842.70 466.80 842.76
  A 2.68 2.67 -83.3 0 0 464.27 844.77
  Q 453.90 885.05 444.86 921.19
  Q 444.60 922.27 444.73 922.81
  A 1.75 1.75 0.0 0 0 446.46 924.23
  L 458.95 924.14
  A 2.19 2.18 -83.0 0 0 461.05 922.49
  L 464.21 910.24
  A 0.71 0.70 -82.9 0 1 464.88 909.70
  Q 465.85 909.69 474.93 909.66"
/>
<path stroke="#d6a683" vector-effect="non-scaling-stroke" d="
  M 745.43 909.61
  Q 754.49 909.60 755.46 909.60
  A 0.71 0.70 82.6 0 1 756.14 910.13
  L 759.36 922.36
  A 2.19 2.18 82.7 0 0 761.47 923.99
  L 773.95 924.02
  A 1.75 1.75 0.0 0 0 775.67 922.58
  Q 775.79 922.04 775.53 920.96
  Q 766.29 884.91 755.71 844.74
  A 2.68 2.67 83.0 0 0 753.16 842.74
  Q 749.98 842.70 745.29 842.71
  Q 740.60 842.72 737.41 842.78
  A 2.68 2.67 -83.3 0 0 734.88 844.78
  Q 724.46 885.00 715.38 921.09
  Q 715.12 922.17 715.24 922.71
  A 1.75 1.75 0.0 0 0 716.97 924.14
  L 729.45 924.06
  A 2.19 2.18 -82.9 0 0 731.55 922.42
  L 734.72 910.18
  A 0.71 0.70 -82.8 0 1 735.39 909.65
  Q 736.36 909.63 745.43 909.61"
/>
<path stroke="#d6a683" vector-effect="non-scaling-stroke" d="
  M 825.57 883.05
  A 0.35 0.34 40.5 0 1 825.52 882.42
  C 839.59 874.99 837.44 852.80 823.92 846.28
  Q 817.20 843.05 811.23 842.84
  Q 807.43 842.71 787.75 842.63
  A 1.82 1.82 0.0 0 0 785.93 844.45
  L 785.93 921.90
  A 1.87 1.87 0.0 0 0 787.76 923.77
  Q 802.83 924.05 813.99 923.79
  C 823.65 923.56 833.63 919.47 836.21 909.24
  Q 839.24 897.19 832.49 888.28
  Q 829.65 884.55 825.57 883.05"
/>
<path stroke="#d6a683" vector-effect="non-scaling-stroke" d="
  M 303.91 909.50
  Q 312.96 909.48 313.93 909.49
  A 0.71 0.70 82.6 0 1 314.60 910.02
  L 317.81 922.22
  A 2.18 2.17 82.7 0 0 319.92 923.85
  L 332.38 923.87
  A 1.75 1.74 -84.8 0 0 334.09 922.44
  Q 334.21 921.90 333.95 920.83
  Q 324.73 884.85 314.17 844.76
  A 2.67 2.66 83.0 0 0 311.63 842.77
  Q 308.45 842.72 303.77 842.73
  Q 299.09 842.74 295.91 842.80
  A 2.67 2.66 -83.3 0 0 293.38 844.80
  Q 282.99 884.94 273.92 920.95
  Q 273.66 922.03 273.78 922.57
  A 1.75 1.74 84.5 0 0 275.51 923.99
  L 287.97 923.91
  A 2.18 2.17 -82.9 0 0 290.06 922.28
  L 293.22 910.06
  A 0.71 0.70 -82.8 0 1 293.90 909.53
  Q 294.86 909.52 303.91 909.50"
/>
<path stroke="#d6a683" vector-effect="non-scaling-stroke" d="
  M 413.52 909.51
  A 0.66 0.66 0.0 0 1 412.88 908.85
  Q 412.87 855.68 412.77 845.75
  Q 412.74 842.72 409.77 842.72
  Q 404.47 842.73 398.25 842.66
  A 2.21 2.21 0.0 0 0 396.02 844.88
  Q 396.16 879.93 395.95 920.36
  C 395.94 922.59 396.28 924.06 398.75 924.06
  Q 428.58 924.04 435.08 924.03
  A 1.80 1.80 0.0 0 0 436.88 922.20
  Q 436.84 919.60 436.67 912.12
  Q 436.60 909.47 433.52 909.53
  Q 421.69 909.76 413.52 909.51"
/>
<path stroke="#d6a683" vector-effect="non-scaling-stroke" d="
  M 532.07 896.17
  L 538.87 896.17
  A 0.95 0.93 -10.4 0 1 539.75 896.77
  L 550.00 922.90
  A 1.88 1.88 0.0 0 0 551.75 924.09
  L 564.99 924.09
  A 1.43 1.43 0.0 0 0 566.32 922.14
  L 555.34 894.13
  A 1.53 1.52 -28.1 0 1 555.90 892.31
  C 560.20 889.38 563.21 886.29 564.40 881.19
  C 566.25 873.30 566.84 862.89 562.80 855.66
  C 557.83 846.78 548.60 842.57 538.50 842.65
  Q 524.65 842.77 518.73 842.71
  Q 516.32 842.69 516.27 842.71
  Q 514.93 843.32 514.93 844.51
  Q 514.86 886.10 514.65 921.55
  Q 514.63 923.96 516.84 923.97
  Q 522.23 924.01 529.78 923.82
  A 1.64 1.63 89.5 0 0 531.38 922.18
  L 531.38 896.86
  A 0.69 0.69 0.0 0 1 532.07 896.17"
/>
<path stroke="#d6a683" vector-effect="non-scaling-stroke" d="
  M 578.84 844.48
  L 578.57 921.84
  A 1.88 1.88 0.0 0 0 580.44 923.73
  L 604.35 923.81
  A 26.35 25.39 0.2 0 0 630.79 898.51
  L 630.89 868.17
  A 26.35 25.39 0.2 0 0 604.63 842.69
  L 580.72 842.61
  A 1.88 1.88 0.0 0 0 578.84 844.48"
/>
<path stroke="#d6a683" vector-effect="non-scaling-stroke" d="
  M 685.41 909.41
  A 0.66 0.66 0.0 0 1 684.77 908.75
  Q 684.69 855.67 684.58 845.76
  Q 684.55 842.73 681.58 842.74
  Q 676.29 842.75 670.08 842.69
  A 2.21 2.21 0.0 0 0 667.86 844.91
  Q 668.04 879.90 667.88 920.27
  C 667.87 922.49 668.21 923.96 670.68 923.96
  Q 700.46 923.90 706.95 923.88
  A 1.80 1.80 0.0 0 0 708.75 922.05
  Q 708.70 919.46 708.52 911.99
  Q 708.45 909.34 705.38 909.41
  Q 693.57 909.65 685.41 909.41"
/>
<path stroke="#d6a683" vector-effect="non-scaling-stroke" d="
  M 467.44 895.18
  A 0.56 0.56 0.0 0 0 467.99 895.86
  L 481.88 895.79
  A 0.56 0.56 0.0 0 0 482.43 895.10
  L 475.32 865.71
  A 0.56 0.56 0.0 0 0 474.23 865.72
  L 467.44 895.18"
/>
<path stroke="#d6a683" vector-effect="non-scaling-stroke" d="
  M 737.88 895.23
  A 0.55 0.55 0.0 0 0 738.43 895.90
  L 752.44 895.78
  A 0.55 0.55 0.0 0 0 752.97 895.10
  L 745.71 865.71
  A 0.55 0.55 0.0 0 0 744.64 865.72
  L 737.88 895.23"
/>
<path stroke="#d6a683" vector-effect="non-scaling-stroke" d="
  M 801.61 857.48
  L 801.57 875.18
  A 0.57 0.57 0.0 0 0 802.14 875.76
  L 809.85 875.77
  A 8.98 8.46 0.1 0 0 818.85 867.33
  L 818.85 865.41
  A 8.98 8.46 0.1 0 0 809.89 856.93
  L 802.18 856.92
  A 0.57 0.57 0.0 0 0 801.61 857.48"
/>
<path stroke="#d6a683" vector-effect="non-scaling-stroke" d="
  M 801.57 889.57
  L 801.71 909.49
  A 0.54 0.54 0.0 0 0 802.25 910.02
  L 811.19 909.96
  A 10.28 9.88 -0.4 0 0 821.40 900.01
  L 821.40 898.77
  A 10.28 9.88 -0.4 0 0 811.05 888.96
  L 802.11 889.03
  A 0.54 0.54 0.0 0 0 801.57 889.57"
/>
<path stroke="#d6a683" vector-effect="non-scaling-stroke" d="
  M 296.67 895.27
  A 0.56 0.56 0.0 0 0 297.23 895.95
  L 310.99 895.83
  A 0.56 0.56 0.0 0 0 311.53 895.14
  L 304.39 865.48
  A 0.56 0.56 0.0 0 0 303.29 865.49
  L 296.67 895.27"
/>
<path stroke="#d6a683" vector-effect="non-scaling-stroke" d="
  M 531.47 858.36
  L 531.39 880.72
  A 0.66 0.66 0.0 0 0 532.05 881.38
  L 539.88 881.41
  A 8.54 8.53 -89.8 0 0 548.44 872.90
  L 548.46 866.30
  A 8.54 8.53 -89.8 0 0 539.96 857.73
  L 532.13 857.70
  A 0.66 0.66 0.0 0 0 531.47 858.36"
/>
<path stroke="#d6a683" vector-effect="non-scaling-stroke" d="
  M 596.23 909.25
  Q 601.46 909.76 604.56 909.01
  C 611.59 907.31 613.67 899.27 613.62 892.76
  Q 613.55 882.86 613.72 873.28
  C 613.84 866.54 612.78 860.30 606.00 858.28
  C 603.37 857.49 599.14 858.08 596.15 857.93
  A 0.56 0.56 0.0 0 0 595.56 858.49
  L 595.56 908.51
  A 0.74 0.74 0.0 0 0 596.23 909.25"
/>
</g>
<path fill="#304f37" d="
  M 793.09 799.98
  A 0.21 0.21 0.0 0 0 793.21 800.37
  Q 805.70 800.50 845.01 800.54
  C 859.84 800.56 872.10 808.90 876.55 822.78
  Q 878.09 827.58 878.12 838.38
  Q 878.19 872.02 878.13 925.01
  C 878.12 940.27 870.22 952.50 855.60 957.28
  Q 851.60 958.59 841.24 958.58
  Q 513.14 958.50 176.51 958.54
  Q 166.22 958.54 156.31 950.55
  Q 150.04 945.49 147.14 936.82
  Q 145.46 931.78 145.44 922.06
  Q 145.31 853.13 145.46 832.75
  C 145.50 827.75 146.67 822.08 149.30 817.54
  Q 159.16 800.51 180.08 800.43
  Q 216.70 800.29 232.77 800.59
  A 0.24 0.24 0.0 0 0 232.91 800.15
  Q 227.62 796.41 222.17 791.59
  C 205.20 776.55 188.43 759.47 173.83 740.40
  Q 148.27 707.02 131.84 672.48
  Q 120.62 648.90 115.13 632.91
  Q 113.35 627.71 110.14 617.62
  C 95.56 571.83 90.01 522.99 93.32 475.00
  Q 96.57 427.70 109.69 383.63
  Q 127.66 323.22 161.27 271.01
  C 183.84 235.96 212.85 204.08 244.89 177.22
  C 274.25 152.60 307.90 132.30 343.56 116.40
  C 406.14 88.50 476.19 77.37 544.15 82.29
  Q 604.86 86.68 660.94 107.91
  Q 721.26 130.73 772.40 170.36
  Q 795.87 188.54 819.47 213.54
  Q 843.18 238.67 861.37 266.62
  Q 878.79 293.38 892.60 322.35
  Q 901.05 340.08 910.99 368.26
  Q 917.07 385.47 921.31 404.25
  C 926.85 428.84 930.96 453.97 932.04 479.00
  Q 933.73 518.44 928.83 555.56
  C 925.27 582.54 918.44 611.05 908.37 637.58
  Q 895.42 671.72 878.68 700.21
  Q 849.23 750.36 803.99 790.97
  C 800.45 794.15 797.00 797.36 793.09 799.98
  Z
  M 118.22 544.47
  Q 119.55 554.45 120.92 564.06
  Q 122.16 572.84 128.68 599.31
  C 130.68 607.41 133.32 613.15 135.63 621.31
  Q 137.27 627.11 141.61 637.42
  Q 149.04 655.06 150.55 658.20
  Q 160.79 679.49 171.89 695.90
  Q 173.55 698.35 177.91 705.15
  Q 188.00 720.93 203.27 738.98
  Q 216.32 754.40 223.95 762.06
  Q 240.30 778.45 261.66 796.34
  C 264.47 798.70 266.20 800.50 271.28 800.41
  Q 282.29 800.23 306.50 800.45
  Q 342.30 800.77 363.17 800.59
  C 406.61 800.22 443.15 800.90 483.07 800.28
  C 499.70 800.02 515.45 800.74 530.81 800.38
  C 553.66 799.85 573.49 800.75 597.42 800.39
  Q 603.67 800.29 614.25 800.36
  C 648.01 800.57 682.24 799.94 715.36 800.41
  Q 733.55 800.68 752.54 800.35
  C 756.57 800.28 757.84 800.94 760.87 798.37
  Q 781.44 780.98 789.73 773.73
  Q 795.57 768.63 802.24 761.76
  Q 810.75 752.99 814.18 749.20
  Q 824.22 738.11 838.04 719.56
  Q 849.68 703.95 857.28 690.53
  C 861.93 682.32 866.71 674.57 870.39 666.75
  Q 880.31 645.64 882.17 641.22
  C 887.42 628.69 893.46 611.95 897.44 596.98
  Q 904.13 571.86 907.24 546.00
  Q 907.33 545.26 906.76 544.42
  Q 907.45 544.52 907.58 543.26
  Q 910.51 513.68 909.14 483.75
  Q 908.35 466.52 904.92 442.38
  Q 902.07 422.30 896.53 401.66
  Q 878.72 335.41 840.89 278.32
  Q 828.46 259.58 815.79 244.88
  Q 801.44 228.23 787.18 214.23
  Q 770.55 197.90 747.22 180.78
  C 699.67 145.90 644.37 121.35 586.26 111.01
  Q 563.42 106.95 547.74 105.52
  Q 493.68 100.59 439.93 110.62
  Q 412.76 115.70 391.51 122.56
  Q 323.04 144.67 264.81 190.68
  C 254.75 198.62 242.94 209.56 233.95 218.46
  C 175.08 276.73 136.47 352.75 121.91 434.37
  Q 112.11 489.26 118.22 544.47
  Z
  M 863.45 832.31
  A 17.64 17.64 0.0 0 0 845.81 814.67
  L 177.81 814.67
  A 17.64 17.64 0.0 0 0 160.17 832.31
  L 160.17 926.71
  A 17.64 17.64 0.0 0 0 177.81 944.35
  L 845.81 944.35
  A 17.64 17.64 0.0 0 0 863.45 926.71
  L 863.45 832.31
  Z"
/>
<path fill="#f6eede" d="
  M 906.76 544.42
  L 836.63 544.42
  Q 836.53 543.79 837.06 542.62
  Q 837.60 541.46 837.78 540.90
  Q 842.21 527.03 838.20 513.21
  A 1.82 1.82 0.0 0 1 838.44 511.70
  C 842.55 505.59 846.63 498.58 848.90 491.58
  Q 856.73 467.39 849.91 442.82
  C 847.51 434.16 842.55 425.46 839.04 419.12
  A 1.27 1.27 0.0 0 1 838.98 418.01
  Q 841.80 411.20 842.79 405.34
  C 848.19 373.22 836.75 346.12 813.16 324.79
  A 1.25 1.23 22.3 0 1 812.76 323.86
  Q 813.42 301.45 802.46 283.20
  Q 787.93 259.00 761.79 248.02
  A 1.73 1.72 -85.3 0 1 760.78 246.82
  Q 756.25 227.19 743.07 212.44
  Q 736.76 205.36 733.98 203.24
  Q 715.93 189.46 693.40 183.92
  A 2.15 2.11 81.1 0 1 692.08 182.94
  C 685.52 172.00 677.13 163.72 665.91 156.98
  Q 640.60 141.79 610.77 143.46
  A 1.06 1.05 68.5 0 1 609.90 143.08
  Q 600.91 132.45 587.80 127.27
  C 573.64 121.67 554.67 121.39 540.44 129.25
  Q 519.52 140.79 513.36 163.88
  A 0.44 0.44 0.0 0 1 512.51 163.90
  Q 510.35 156.68 507.74 151.49
  C 501.73 139.53 489.55 130.54 476.91 126.88
  Q 455.55 120.71 435.81 129.20
  Q 427.00 133.00 417.62 142.75
  A 0.95 0.93 23.6 0 1 416.85 143.04
  C 398.38 141.71 378.80 145.34 363.13 155.64
  C 350.57 163.90 339.72 174.37 333.93 188.31
  A 1.24 1.24 0.0 0 1 332.85 189.07
  Q 325.12 189.50 316.66 191.63
  Q 289.21 198.54 274.21 222.93
  Q 266.85 234.89 265.47 248.85
  A 0.65 0.64 -1.8 0 1 264.93 249.42
  Q 260.71 250.08 257.77 251.24
  C 252.24 253.41 245.32 256.12 239.96 260.18
  Q 229.71 267.94 222.60 279.12
  C 213.94 292.76 211.19 309.02 213.28 324.83
  A 0.82 0.82 0.0 0 1 212.91 325.63
  Q 208.79 328.28 205.48 331.39
  Q 183.74 351.74 182.18 381.47
  C 181.61 392.46 183.99 404.01 187.28 414.53
  A 1.45 1.40 49.9 0 1 187.21 415.55
  C 186.58 416.88 185.23 418.24 184.53 419.37
  C 173.78 436.62 170.19 459.06 178.08 478.49
  Q 176.91 484.83 179.05 490.64
  Q 174.53 490.47 173.02 491.22
  C 167.08 494.17 174.06 504.27 176.92 507.62
  Q 183.04 514.78 191.94 521.57
  Q 203.62 530.47 208.20 533.64
  A 0.19 0.19 0.0 0 1 208.06 533.98
  C 200.13 532.48 192.47 530.55 185.17 527.72
  Q 185.13 527.70 158.60 518.17
  Q 155.46 517.04 152.89 516.94
  A 2.55 2.55 0.0 0 0 150.28 519.07
  C 149.45 524.07 152.71 530.71 155.43 535.35
  Q 158.06 539.85 160.40 544.44
  L 118.22 544.47
  Q 112.11 489.26 121.91 434.37
  C 136.47 352.75 175.08 276.73 233.95 218.46
  C 242.94 209.56 254.75 198.62 264.81 190.68
  Q 323.04 144.67 391.51 122.56
  Q 412.76 115.70 439.93 110.62
  Q 493.68 100.59 547.74 105.52
  Q 563.42 106.95 586.26 111.01
  C 644.37 121.35 699.67 145.90 747.22 180.78
  Q 770.55 197.90 787.18 214.23
  Q 801.44 228.23 815.79 244.88
  Q 828.46 259.58 840.89 278.32
  Q 878.72 335.41 896.53 401.66
  Q 902.07 422.30 904.92 442.38
  Q 908.35 466.52 909.14 483.75
  Q 910.51 513.68 907.58 543.26
  Q 907.45 544.52 906.76 544.42
  Z"
/>
<path fill="#dbc79b" d="
  M 836.63 544.42
  L 817.54 544.48
  Q 816.17 542.70 816.90 540.98
  C 819.53 534.80 819.35 526.81 817.71 520.77
  Q 816.93 517.86 815.54 514.23
  A 2.66 2.64 -32.2 0 1 816.20 511.36
  Q 840.26 488.78 834.59 455.12
  Q 832.55 443.00 827.92 433.89
  A 0.54 0.54 0.0 0 0 827.01 433.80
  Q 819.99 442.84 810.80 449.19
  A 1.20 1.18 -13.3 0 0 810.31 449.97
  C 810.17 450.91 810.84 452.37 810.95 453.23
  Q 811.94 460.78 811.32 468.74
  Q 809.41 493.25 790.19 507.97
  Q 785.07 511.89 778.77 514.25
  C 773.03 516.40 765.24 516.33 763.43 509.23
  C 761.86 503.03 765.96 500.44 771.27 498.30
  C 785.00 492.75 793.56 482.68 794.74 467.84
  C 795.05 463.93 794.15 459.96 793.86 456.65
  A 0.50 0.49 79.6 0 0 793.23 456.21
  C 783.61 458.87 769.50 458.16 761.08 452.69
  C 757.17 450.15 754.25 444.61 757.18 440.43
  C 761.33 434.50 768.71 437.78 774.08 439.38
  C 784.97 442.63 797.09 438.36 805.60 431.17
  C 810.18 427.30 815.26 421.97 818.06 416.59
  Q 820.96 411.04 823.10 403.12
  A 7.91 7.59 69.5 0 1 823.95 401.15
  C 825.20 399.12 826.88 397.74 827.81 395.33
  C 831.93 384.68 830.85 373.06 822.50 364.75
  Q 819.07 361.33 818.85 361.12
  A 6.36 6.36 0.0 0 1 817.25 358.48
  C 813.87 347.75 804.45 337.34 793.56 332.97
  Q 786.15 330.00 778.52 331.31
  C 775.35 331.86 773.91 334.48 772.56 337.30
  A 2.26 2.26 0.0 0 1 770.06 338.55
  C 759.19 336.32 757.53 323.05 767.51 317.99
  C 775.73 313.82 785.12 313.32 794.29 315.68
  A 0.41 0.41 0.0 0 0 794.79 315.23
  Q 790.39 281.57 760.69 266.44
  A 0.24 0.24 0.0 0 0 760.34 266.64
  C 759.46 275.81 756.76 286.66 749.65 293.15
  Q 745.03 297.36 740.04 295.44
  C 735.35 293.63 734.02 288.67 736.32 284.59
  Q 743.17 272.43 743.19 258.51
  C 743.20 248.02 739.58 237.04 733.83 228.90
  Q 727.65 220.13 717.37 212.49
  C 711.75 208.31 704.36 205.18 697.74 202.75
  A 0.40 0.40 0.0 0 0 697.20 203.12
  Q 696.81 216.98 691.62 229.21
  A 0.71 0.71 0.0 0 0 691.82 230.04
  C 703.02 239.42 712.78 254.86 710.24 269.76
  Q 709.30 275.27 703.92 278.17
  C 702.07 279.17 701.10 277.78 700.61 276.11
  Q 698.38 268.53 695.71 263.11
  Q 683.30 237.82 658.39 224.46
  C 654.35 222.30 651.84 220.58 652.33 216.04
  C 653.29 207.34 662.19 207.27 668.16 211.08
  Q 673.75 214.63 676.53 217.45
  A 0.37 0.37 0.0 0 0 677.16 217.26
  C 679.35 205.63 681.94 197.70 676.33 189.13
  C 666.18 173.60 648.64 164.51 630.70 161.11
  Q 625.40 160.10 620.53 160.20
  A 0.45 0.45 0.0 0 0 620.11 160.78
  Q 622.35 168.30 621.97 177.00
  Q 621.77 181.48 620.43 183.57
  C 616.82 189.18 609.41 189.73 605.74 183.95
  A 2.85 2.82 28.7 0 1 605.30 182.47
  C 605.11 171.03 604.41 161.64 596.14 153.41
  Q 580.22 137.54 559.12 141.13
  Q 552.62 142.23 547.48 145.03
  C 539.61 149.32 532.87 157.67 530.07 166.09
  Q 529.00 169.30 526.84 180.46
  Q 525.30 188.45 524.88 195.03
  Q 523.51 216.45 523.38 235.96
  A 0.98 0.96 72.8 0 1 522.99 236.72
  Q 516.19 241.69 510.89 247.65
  Q 503.94 255.45 498.05 264.26
  A 0.56 0.56 0.0 0 1 497.04 264.06
  Q 495.90 258.80 495.53 253.05
  Q 495.34 250.11 492.33 246.87
  C 484.81 238.78 475.53 231.20 464.86 228.98
  C 460.76 228.13 456.02 228.82 451.51 228.78
  C 448.56 228.76 444.18 227.73 443.53 224.48
  Q 441.74 215.57 449.38 212.94
  C 457.25 210.22 466.49 211.16 474.79 214.29
  Q 486.95 218.88 497.31 226.28
  A 0.18 0.18 0.0 0 0 497.60 226.13
  Q 497.20 211.60 497.56 196.76
  Q 497.82 185.82 496.21 174.83
  Q 493.14 153.95 475.39 144.96
  C 468.09 141.26 459.44 141.10 451.54 142.39
  C 444.72 143.50 440.00 146.02 434.38 149.86
  A 0.53 0.53 0.0 0 0 434.39 150.74
  Q 443.18 156.53 449.85 161.87
  Q 452.48 163.97 453.42 168.84
  C 454.01 171.93 451.82 176.13 448.74 176.97
  C 443.32 178.45 439.95 176.57 435.58 172.83
  C 428.64 166.88 422.92 162.61 414.94 160.25
  Q 409.21 158.56 400.03 159.89
  C 379.54 162.86 362.26 174.50 350.86 192.03
  A 10.67 10.55 -24.6 0 0 349.28 196.20
  C 348.49 201.54 349.00 207.75 343.39 207.40
  C 340.03 207.18 336.52 206.36 333.51 206.40
  Q 323.60 206.52 316.30 209.32
  Q 302.01 214.79 291.92 227.19
  C 287.43 232.71 284.44 240.73 282.28 247.90
  A 0.48 0.48 0.0 0 0 282.64 248.51
  Q 291.47 250.40 298.98 253.58
  C 305.73 256.43 313.17 259.59 311.92 267.23
  Q 311.18 271.79 306.45 273.42
  C 302.22 274.89 298.89 273.21 295.48 271.23
  Q 291.22 268.75 289.37 268.02
  Q 274.23 262.07 260.51 268.00
  Q 240.39 276.70 233.14 297.83
  C 230.96 304.19 230.70 310.21 231.03 317.08
  A 0.29 0.29 0.0 0 0 231.41 317.34
  Q 235.49 315.98 239.74 315.65
  Q 248.54 314.97 254.98 314.27
  Q 265.76 313.11 271.65 305.64
  Q 275.13 301.22 276.13 300.71
  C 284.15 296.64 291.53 302.62 288.00 311.29
  C 283.38 322.68 269.15 329.71 257.41 331.08
  Q 246.28 332.38 246.15 332.39
  C 229.75 334.30 216.78 342.42 207.62 356.40
  Q 197.02 372.57 198.48 392.40
  Q 199.26 403.03 203.88 410.82
  C 208.33 418.32 215.24 424.45 223.63 427.21
  C 229.23 429.05 234.93 430.63 235.93 436.25
  C 237.18 443.27 230.19 447.40 223.89 445.82
  Q 212.42 442.95 202.52 435.46
  Q 199.37 433.08 197.43 430.37
  A 0.28 0.28 0.0 0 0 196.93 430.45
  C 195.22 436.27 193.29 442.51 193.52 449.01
  Q 194.13 466.40 203.43 480.74
  A 0.32 0.32 0.0 0 1 203.13 481.23
  Q 196.57 480.51 183.26 479.46
  C 181.67 479.33 179.16 480.34 178.08 478.49
  C 170.19 459.06 173.78 436.62 184.53 419.37
  C 185.23 418.24 186.58 416.88 187.21 415.55
  A 1.45 1.40 49.9 0 0 187.28 414.53
  C 183.99 404.01 181.61 392.46 182.18 381.47
  Q 183.74 351.74 205.48 331.39
  Q 208.79 328.28 212.91 325.63
  A 0.82 0.82 0.0 0 0 213.28 324.83
  C 211.19 309.02 213.94 292.76 222.60 279.12
  Q 229.71 267.94 239.96 260.18
  C 245.32 256.12 252.24 253.41 257.77 251.24
  Q 260.71 250.08 264.93 249.42
  A 0.65 0.64 -1.8 0 0 265.47 248.85
  Q 266.85 234.89 274.21 222.93
  Q 289.21 198.54 316.66 191.63
  Q 325.12 189.50 332.85 189.07
  A 1.24 1.24 0.0 0 0 333.93 188.31
  C 339.72 174.37 350.57 163.90 363.13 155.64
  C 378.80 145.34 398.38 141.71 416.85 143.04
  A 0.95 0.93 23.6 0 0 417.62 142.75
  Q 427.00 133.00 435.81 129.20
  Q 455.55 120.71 476.91 126.88
  C 489.55 130.54 501.73 139.53 507.74 151.49
  Q 510.35 156.68 512.51 163.90
  A 0.44 0.44 0.0 0 0 513.36 163.88
  Q 519.52 140.79 540.44 129.25
  C 554.67 121.39 573.64 121.67 587.80 127.27
  Q 600.91 132.45 609.90 143.08
  A 1.06 1.05 68.5 0 0 610.77 143.46
  Q 640.60 141.79 665.91 156.98
  C 677.13 163.72 685.52 172.00 692.08 182.94
  A 2.15 2.11 81.1 0 0 693.40 183.92
  Q 715.93 189.46 733.98 203.24
  Q 736.76 205.36 743.07 212.44
  Q 756.25 227.19 760.78 246.82
  A 1.73 1.72 -85.3 0 0 761.79 248.02
  Q 787.93 259.00 802.46 283.20
  Q 813.42 301.45 812.76 323.86
  A 1.25 1.23 22.3 0 0 813.16 324.79
  C 836.75 346.12 848.19 373.22 842.79 405.34
  Q 841.80 411.20 838.98 418.01
  A 1.27 1.27 0.0 0 0 839.04 419.12
  C 842.55 425.46 847.51 434.16 849.91 442.82
  Q 856.73 467.39 848.90 491.58
  C 846.63 498.58 842.55 505.59 838.44 511.70
  A 1.82 1.82 0.0 0 0 838.20 513.21
  Q 842.21 527.03 837.78 540.90
  Q 837.60 541.46 837.06 542.62
  Q 836.53 543.79 836.63 544.42
  Z"
/>
<path fill="#f3e8ca" d="
  M 817.54 544.48
  L 745.99 544.60
  Q 737.27 523.28 723.35 504.90
  C 710.97 488.56 697.89 474.55 682.08 460.09
  Q 663.28 442.90 660.76 440.43
  Q 648.07 427.99 642.28 418.26
  C 636.70 408.88 634.75 395.63 646.64 390.30
  Q 657.20 385.57 669.61 389.47
  Q 669.73 389.51 693.63 395.97
  C 708.86 400.08 724.94 403.03 739.25 404.74
  Q 753.27 406.42 766.00 406.58
  C 778.71 406.75 788.51 406.42 799.49 402.51
  C 808.11 399.44 817.15 394.21 816.85 383.73
  C 816.66 376.76 812.61 371.52 806.71 368.29
  Q 798.63 363.86 791.14 361.10
  Q 783.86 358.42 766.40 351.08
  Q 744.82 342.02 725.10 328.26
  Q 719.63 324.45 714.18 319.46
  C 707.07 312.96 700.89 306.92 696.18 299.32
  C 693.61 295.19 691.10 288.06 689.21 282.16
  C 685.32 270.00 679.15 258.95 670.34 250.16
  Q 660.60 240.45 651.83 235.52
  Q 616.60 215.72 577.42 223.43
  C 545.70 229.67 519.45 250.49 504.66 279.04
  C 491.33 304.77 487.34 335.38 490.72 364.04
  C 494.31 394.42 503.37 422.51 515.07 451.41
  A 0.32 0.32 0.0 0 1 514.71 451.84
  C 469.13 442.23 421.84 443.09 376.70 454.96
  Q 354.99 460.66 344.39 464.39
  Q 295.76 481.46 294.80 481.79
  Q 273.34 488.94 252.85 492.57
  Q 230.50 496.53 207.61 494.57
  C 198.99 493.84 188.56 491.96 179.05 490.64
  Q 176.91 484.83 178.08 478.49
  C 179.16 480.34 181.67 479.33 183.26 479.46
  Q 196.57 480.51 203.13 481.23
  A 0.32 0.32 0.0 0 0 203.43 480.74
  Q 194.13 466.40 193.52 449.01
  C 193.29 442.51 195.22 436.27 196.93 430.45
  A 0.28 0.28 0.0 0 1 197.43 430.37
  Q 199.37 433.08 202.52 435.46
  Q 212.42 442.95 223.89 445.82
  C 230.19 447.40 237.18 443.27 235.93 436.25
  C 234.93 430.63 229.23 429.05 223.63 427.21
  C 215.24 424.45 208.33 418.32 203.88 410.82
  Q 199.26 403.03 198.48 392.40
  Q 197.02 372.57 207.62 356.40
  C 216.78 342.42 229.75 334.30 246.15 332.39
  Q 246.28 332.38 257.41 331.08
  C 269.15 329.71 283.38 322.68 288.00 311.29
  C 291.53 302.62 284.15 296.64 276.13 300.71
  Q 275.13 301.22 271.65 305.64
  Q 265.76 313.11 254.98 314.27
  Q 248.54 314.97 239.74 315.65
  Q 235.49 315.98 231.41 317.34
  A 0.29 0.29 0.0 0 1 231.03 317.08
  C 230.70 310.21 230.96 304.19 233.14 297.83
  Q 240.39 276.70 260.51 268.00
  Q 274.23 262.07 289.37 268.02
  Q 291.22 268.75 295.48 271.23
  C 298.89 273.21 302.22 274.89 306.45 273.42
  Q 311.18 271.79 311.92 267.23
  C 313.17 259.59 305.73 256.43 298.98 253.58
  Q 291.47 250.40 282.64 248.51
  A 0.48 0.48 0.0 0 1 282.28 247.90
  C 284.44 240.73 287.43 232.71 291.92 227.19
  Q 302.01 214.79 316.30 209.32
  Q 323.60 206.52 333.51 206.40
  C 336.52 206.36 340.03 207.18 343.39 207.40
  C 349.00 207.75 348.49 201.54 349.28 196.20
  A 10.67 10.55 -24.6 0 1 350.86 192.03
  C 362.26 174.50 379.54 162.86 400.03 159.89
  Q 409.21 158.56 414.94 160.25
  C 422.92 162.61 428.64 166.88 435.58 172.83
  C 439.95 176.57 443.32 178.45 448.74 176.97
  C 451.82 176.13 454.01 171.93 453.42 168.84
  Q 452.48 163.97 449.85 161.87
  Q 443.18 156.53 434.39 150.74
  A 0.53 0.53 0.0 0 1 434.38 149.86
  C 440.00 146.02 444.72 143.50 451.54 142.39
  C 459.44 141.10 468.09 141.26 475.39 144.96
  Q 493.14 153.95 496.21 174.83
  Q 497.82 185.82 497.56 196.76
  Q 497.20 211.60 497.60 226.13
  A 0.18 0.18 0.0 0 1 497.31 226.28
  Q 486.95 218.88 474.79 214.29
  C 466.49 211.16 457.25 210.22 449.38 212.94
  Q 441.74 215.57 443.53 224.48
  C 444.18 227.73 448.56 228.76 451.51 228.78
  C 456.02 228.82 460.76 228.13 464.86 228.98
  C 475.53 231.20 484.81 238.78 492.33 246.87
  Q 495.34 250.11 495.53 253.05
  Q 495.90 258.80 497.04 264.06
  A 0.56 0.56 0.0 0 0 498.05 264.26
  Q 503.94 255.45 510.89 247.65
  Q 516.19 241.69 522.99 236.72
  A 0.98 0.96 72.8 0 0 523.38 235.96
  Q 523.51 216.45 524.88 195.03
  Q 525.30 188.45 526.84 180.46
  Q 529.00 169.30 530.07 166.09
  C 532.87 157.67 539.61 149.32 547.48 145.03
  Q 552.62 142.23 559.12 141.13
  Q 580.22 137.54 596.14 153.41
  C 604.41 161.64 605.11 171.03 605.30 182.47
  A 2.85 2.82 28.7 0 0 605.74 183.95
  C 609.41 189.73 616.82 189.18 620.43 183.57
  Q 621.77 181.48 621.97 177.00
  Q 622.35 168.30 620.11 160.78
  A 0.45 0.45 0.0 0 1 620.53 160.20
  Q 625.40 160.10 630.70 161.11
  C 648.64 164.51 666.18 173.60 676.33 189.13
  C 681.94 197.70 679.35 205.63 677.16 217.26
  A 0.37 0.37 0.0 0 1 676.53 217.45
  Q 673.75 214.63 668.16 211.08
  C 662.19 207.27 653.29 207.34 652.33 216.04
  C 651.84 220.58 654.35 222.30 658.39 224.46
  Q 683.30 237.82 695.71 263.11
  Q 698.38 268.53 700.61 276.11
  C 701.10 277.78 702.07 279.17 703.92 278.17
  Q 709.30 275.27 710.24 269.76
  C 712.78 254.86 703.02 239.42 691.82 230.04
  A 0.71 0.71 0.0 0 1 691.62 229.21
  Q 696.81 216.98 697.20 203.12
  A 0.40 0.40 0.0 0 1 697.74 202.75
  C 704.36 205.18 711.75 208.31 717.37 212.49
  Q 727.65 220.13 733.83 228.90
  C 739.58 237.04 743.20 248.02 743.19 258.51
  Q 743.17 272.43 736.32 284.59
  C 734.02 288.67 735.35 293.63 740.04 295.44
  Q 745.03 297.36 749.65 293.15
  C 756.76 286.66 759.46 275.81 760.34 266.64
  A 0.24 0.24 0.0 0 1 760.69 266.44
  Q 790.39 281.57 794.79 315.23
  A 0.41 0.41 0.0 0 1 794.29 315.68
  C 785.12 313.32 775.73 313.82 767.51 317.99
  C 757.53 323.05 759.19 336.32 770.06 338.55
  A 2.26 2.26 0.0 0 0 772.56 337.30
  C 773.91 334.48 775.35 331.86 778.52 331.31
  Q 786.15 330.00 793.56 332.97
  C 804.45 337.34 813.87 347.75 817.25 358.48
  A 6.36 6.36 0.0 0 0 818.85 361.12
  Q 819.07 361.33 822.50 364.75
  C 830.85 373.06 831.93 384.68 827.81 395.33
  C 826.88 397.74 825.20 399.12 823.95 401.15
  A 7.91 7.59 69.5 0 0 823.10 403.12
  Q 820.96 411.04 818.06 416.59
  C 815.26 421.97 810.18 427.30 805.60 431.17
  C 797.09 438.36 784.97 442.63 774.08 439.38
  C 768.71 437.78 761.33 434.50 757.18 440.43
  C 754.25 444.61 757.17 450.15 761.08 452.69
  C 769.50 458.16 783.61 458.87 793.23 456.21
  A 0.50 0.49 79.6 0 1 793.86 456.65
  C 794.15 459.96 795.05 463.93 794.74 467.84
  C 793.56 482.68 785.00 492.75 771.27 498.30
  C 765.96 500.44 761.86 503.03 763.43 509.23
  C 765.24 516.33 773.03 516.40 778.77 514.25
  Q 785.07 511.89 790.19 507.97
  Q 809.41 493.25 811.32 468.74
  Q 811.94 460.78 810.95 453.23
  C 810.84 452.37 810.17 450.91 810.31 449.97
  A 1.20 1.18 -13.3 0 1 810.80 449.19
  Q 819.99 442.84 827.01 433.80
  A 0.54 0.54 0.0 0 1 827.92 433.89
  Q 832.55 443.00 834.59 455.12
  Q 840.26 488.78 816.20 511.36
  A 2.66 2.64 -32.2 0 0 815.54 514.23
  Q 816.93 517.86 817.71 520.77
  C 819.35 526.81 819.53 534.80 816.90 540.98
  Q 816.17 542.70 817.54 544.48
  Z
  M 558.42 216.11
  L 578.43 210.81
  A 1.84 1.82 -87.1 0 0 579.69 209.66
  Q 581.23 205.45 584.48 200.83
  C 587.22 196.95 586.17 192.25 582.06 189.78
  C 576.05 186.17 570.01 190.35 566.52 195.51
  Q 560.23 204.79 557.89 215.61
  A 0.43 0.43 0.0 0 0 558.42 216.11
  Z
  M 326.54 343.90
  C 307.61 342.47 288.94 347.58 276.43 362.53
  C 270.69 369.39 266.64 378.85 265.23 387.62
  A 0.51 0.51 0.0 0 1 264.46 387.98
  C 258.16 384.17 239.27 376.13 234.46 385.24
  C 232.25 389.43 234.35 393.99 238.19 396.49
  Q 240.10 397.74 244.64 398.47
  Q 250.94 399.47 254.58 401.24
  Q 262.49 405.08 268.40 413.61
  Q 274.99 423.13 276.52 424.96
  Q 283.49 433.30 294.11 436.41
  A 0.47 0.47 0.0 0 1 294.41 437.04
  Q 289.72 447.97 290.01 460.26
  Q 290.10 464.04 290.62 469.42
  A 0.98 0.98 0.0 0 0 291.95 470.23
  L 306.26 464.61
  A 1.85 1.85 0.0 0 0 307.44 462.72
  Q 306.39 450.38 312.76 440.92
  C 314.20 438.78 316.49 436.38 318.77 435.46
  Q 327.89 431.78 333.36 427.08
  Q 338.49 422.66 338.85 415.63
  C 339.23 408.25 331.59 403.64 325.50 408.09
  C 323.67 409.43 322.67 412.12 321.41 414.42
  Q 319.83 417.30 315.73 419.07
  Q 304.49 423.94 294.57 417.89
  C 288.57 414.23 285.21 408.46 283.06 401.84
  C 280.98 395.43 281.69 388.13 284.34 382.01
  Q 292.70 362.77 315.21 361.20
  Q 322.98 360.65 328.71 363.30
  C 331.90 364.77 336.39 366.80 338.55 369.20
  Q 343.67 374.91 348.10 379.66
  C 354.34 386.35 364.10 392.80 373.48 393.54
  C 377.85 393.89 382.26 391.78 383.55 387.31
  C 385.18 381.70 381.39 379.01 376.33 377.07
  C 371.56 375.25 366.18 372.51 362.09 368.46
  Q 353.46 359.91 349.37 350.66
  C 346.68 344.57 344.61 340.71 343.45 335.80
  Q 340.78 324.45 341.38 316.48
  Q 343.35 290.35 364.50 274.75
  C 370.84 270.07 383.72 264.11 391.01 267.74
  Q 398.31 271.38 405.73 272.08
  C 418.56 273.31 433.64 273.94 440.15 287.38
  Q 441.60 290.38 443.14 295.09
  C 444.67 299.80 449.75 302.61 454.58 300.89
  C 464.65 297.31 456.80 280.82 452.78 275.17
  C 443.25 261.75 429.38 258.30 413.75 255.91
  Q 406.63 254.83 403.29 252.90
  C 396.06 248.72 393.81 241.17 394.17 233.00
  Q 394.52 225.25 399.02 219.75
  Q 403.79 213.90 409.29 210.81
  C 414.87 207.69 421.58 205.24 421.14 199.17
  C 420.59 191.56 413.57 188.93 406.89 192.18
  Q 391.52 199.65 383.41 212.73
  C 376.21 224.34 376.48 237.10 379.72 249.89
  A 0.42 0.42 0.0 0 1 379.39 250.41
  Q 366.69 252.81 354.94 259.62
  A 0.19 0.19 0.0 0 1 354.66 259.50
  C 352.78 251.95 350.10 236.28 341.25 234.34
  C 334.15 232.79 329.82 239.51 332.31 245.68
  Q 337.64 258.91 339.34 272.85
  A 2.93 2.93 0.0 0 1 338.88 274.84
  C 332.50 284.69 326.87 297.09 325.07 308.80
  Q 322.34 326.56 327.00 343.34
  A 0.45 0.44 84.8 0 1 326.54 343.90
  Z
  M 413.56 347.68
  A 0.34 0.33 -68.1 0 1 413.77 348.18
  C 406.68 359.94 408.15 375.09 414.96 386.42
  Q 416.16 388.42 420.16 393.51
  Q 423.71 398.03 425.19 403.25
  C 429.12 417.18 414.60 424.74 403.25 425.53
  Q 394.04 426.18 393.51 426.23
  C 385.35 426.95 384.80 435.34 384.79 441.73
  A 0.44 0.43 84.1 0 0 385.31 442.16
  Q 403.61 438.14 423.65 436.50
  A 2.42 2.28 -57.0 0 0 424.35 436.33
  Q 434.76 432.06 440.21 420.33
  C 446.92 405.90 440.94 392.22 432.65 380.14
  C 427.04 371.97 424.45 365.99 428.16 356.88
  C 429.10 354.56 430.19 352.10 431.99 351.44
  Q 435.41 350.17 440.78 350.31
  Q 459.28 350.78 473.67 362.15
  Q 474.75 363.00 475.79 364.26
  A 0.52 0.52 0.0 0 0 476.70 363.86
  Q 475.32 353.34 475.62 344.22
  A 1.66 1.65 16.4 0 0 474.81 342.75
  Q 464.24 336.56 453.27 334.47
  C 443.13 332.54 430.72 334.04 420.03 331.71
  Q 409.39 329.39 401.76 322.27
  C 397.47 318.27 395.24 311.67 392.92 307.88
  C 387.68 299.29 374.53 305.20 377.39 315.24
  Q 381.02 327.99 389.16 335.13
  Q 399.85 344.50 413.56 347.68
  Z
  M 715.21 413.18
  L 699.11 409.73
  A 1.35 1.34 20.4 0 0 697.65 410.39
  C 690.21 423.93 688.06 441.47 696.37 454.67
  Q 708.26 473.55 732.07 481.80
  Q 734.79 482.75 736.75 482.59
  C 745.34 481.93 747.37 472.25 740.57 467.43
  Q 737.87 465.52 730.38 462.63
  C 717.02 457.49 704.95 441.89 709.39 426.64
  Q 711.36 419.90 715.54 414.03
  A 0.55 0.54 24.0 0 0 715.21 413.18
  Z"
/>
<path fill="#dbc79b" d="
  M 558.42 216.11
  A 0.43 0.43 0.0 0 1 557.89 215.61
  Q 560.23 204.79 566.52 195.51
  C 570.01 190.35 576.05 186.17 582.06 189.78
  C 586.17 192.25 587.22 196.95 584.48 200.83
  Q 581.23 205.45 579.69 209.66
  A 1.84 1.82 -87.1 0 1 578.43 210.81
  L 558.42 216.11
  Z"
/>
<path fill="#dbc79b" d="
  M 327.00 343.34
  Q 322.34 326.56 325.07 308.80
  C 326.87 297.09 332.50 284.69 338.88 274.84
  A 2.93 2.93 0.0 0 0 339.34 272.85
  Q 337.64 258.91 332.31 245.68
  C 329.82 239.51 334.15 232.79 341.25 234.34
  C 350.10 236.28 352.78 251.95 354.66 259.50
  A 0.19 0.19 0.0 0 0 354.94 259.62
  Q 366.69 252.81 379.39 250.41
  A 0.42 0.42 0.0 0 0 379.72 249.89
  C 376.48 237.10 376.21 224.34 383.41 212.73
  Q 391.52 199.65 406.89 192.18
  C 413.57 188.93 420.59 191.56 421.14 199.17
  C 421.58 205.24 414.87 207.69 409.29 210.81
  Q 403.79 213.90 399.02 219.75
  Q 394.52 225.25 394.17 233.00
  C 393.81 241.17 396.06 248.72 403.29 252.90
  Q 406.63 254.83 413.75 255.91
  C 429.38 258.30 443.25 261.75 452.78 275.17
  C 456.80 280.82 464.65 297.31 454.58 300.89
  C 449.75 302.61 444.67 299.80 443.14 295.09
  Q 441.60 290.38 440.15 287.38
  C 433.64 273.94 418.56 273.31 405.73 272.08
  Q 398.31 271.38 391.01 267.74
  C 383.72 264.11 370.84 270.07 364.50 274.75
  Q 343.35 290.35 341.38 316.48
  Q 340.78 324.45 343.45 335.80
  C 344.61 340.71 346.68 344.57 349.37 350.66
  Q 353.46 359.91 362.09 368.46
  C 366.18 372.51 371.56 375.25 376.33 377.07
  C 381.39 379.01 385.18 381.70 383.55 387.31
  C 382.26 391.78 377.85 393.89 373.48 393.54
  C 364.10 392.80 354.34 386.35 348.10 379.66
  Q 343.67 374.91 338.55 369.20
  C 336.39 366.80 331.90 364.77 328.71 363.30
  Q 322.98 360.65 315.21 361.20
  Q 292.70 362.77 284.34 382.01
  C 281.69 388.13 280.98 395.43 283.06 401.84
  C 285.21 408.46 288.57 414.23 294.57 417.89
  Q 304.49 423.94 315.73 419.07
  Q 319.83 417.30 321.41 414.42
  C 322.67 412.12 323.67 409.43 325.50 408.09
  C 331.59 403.64 339.23 408.25 338.85 415.63
  Q 338.49 422.66 333.36 427.08
  Q 327.89 431.78 318.77 435.46
  C 316.49 436.38 314.20 438.78 312.76 440.92
  Q 306.39 450.38 307.44 462.72
  A 1.85 1.85 0.0 0 1 306.26 464.61
  L 291.95 470.23
  A 0.98 0.98 0.0 0 1 290.62 469.42
  Q 290.10 464.04 290.01 460.26
  Q 289.72 447.97 294.41 437.04
  A 0.47 0.47 0.0 0 0 294.11 436.41
  Q 283.49 433.30 276.52 424.96
  Q 274.99 423.13 268.40 413.61
  Q 262.49 405.08 254.58 401.24
  Q 250.94 399.47 244.64 398.47
  Q 240.10 397.74 238.19 396.49
  C 234.35 393.99 232.25 389.43 234.46 385.24
  C 239.27 376.13 258.16 384.17 264.46 387.98
  A 0.51 0.51 0.0 0 0 265.23 387.62
  C 266.64 378.85 270.69 369.39 276.43 362.53
  C 288.94 347.58 307.61 342.47 326.54 343.90
  A 0.45 0.44 84.8 0 0 327.00 343.34
  Z"
/>
<path fill="#304f37" d="
  M 745.99 544.60
  Q 746.63 547.45 747.58 550.21
  Q 748.97 554.23 749.36 555.74
  Q 755.35 579.24 754.03 603.82
  Q 753.19 619.40 748.91 632.29
  Q 744.17 646.58 737.00 658.74
  A 0.44 0.44 0.0 0 0 737.34 659.40
  C 758.96 661.57 775.64 663.17 795.57 666.66
  C 800.61 667.55 808.94 669.45 813.15 673.08
  C 825.38 683.60 781.98 697.51 776.23 699.20
  Q 758.48 704.42 740.79 708.06
  C 738.49 708.53 736.53 708.46 734.80 708.84
  A 0.37 0.37 0.0 0 0 734.82 709.56
  Q 745.65 711.61 754.84 714.94
  Q 758.40 716.22 759.46 717.42
  C 763.25 721.71 757.49 724.75 754.38 726.14
  Q 745.26 730.20 734.55 732.76
  Q 716.36 737.11 697.56 739.71
  Q 690.62 740.67 685.91 741.02
  C 676.27 741.74 667.45 743.21 656.74 744.14
  Q 611.94 748.01 598.50 749.24
  Q 590.30 749.98 574.94 750.41
  C 570.66 750.53 565.93 751.43 561.32 751.57
  C 552.02 751.86 544.26 752.37 536.23 752.39
  Q 526.98 752.42 507.34 752.67
  C 500.08 752.76 492.96 752.21 485.00 752.23
  Q 474.04 752.25 415.83 749.72
  C 408.56 749.40 401.51 748.64 395.58 748.36
  Q 387.88 747.99 380.42 747.35
  C 349.22 744.71 324.49 743.13 297.28 737.68
  C 290.90 736.41 268.73 731.50 266.23 725.77
  Q 264.79 722.47 268.33 720.57
  C 275.34 716.80 282.82 715.04 290.32 713.47
  A 0.29 0.29 0.0 0 0 290.32 712.90
  Q 285.07 711.70 277.39 710.27
  Q 268.44 708.59 258.32 706.21
  C 246.37 703.40 236.39 700.17 224.95 696.93
  C 215.71 694.31 205.05 690.53 196.20 686.87
  Q 193.12 685.60 184.64 680.90
  C 180.40 678.55 175.15 675.26 173.56 670.74
  A 1.69 1.68 -15.0 0 1 174.85 668.52
  Q 181.54 667.27 189.00 667.01
  Q 215.38 666.08 243.43 664.00
  A 0.26 0.26 0.0 0 0 243.60 663.57
  Q 239.68 659.26 235.68 654.08
  Q 227.76 643.86 218.48 631.53
  C 210.63 621.10 204.53 610.40 196.62 599.63
  Q 194.58 596.84 183.14 579.17
  Q 171.85 561.71 160.40 544.44
  Q 158.06 539.85 155.43 535.35
  C 152.71 530.71 149.45 524.07 150.28 519.07
  A 2.55 2.55 0.0 0 1 152.89 516.94
  Q 155.46 517.04 158.60 518.17
  Q 185.13 527.70 185.17 527.72
  C 192.47 530.55 200.13 532.48 208.06 533.98
  A 0.19 0.19 0.0 0 0 208.20 533.64
  Q 203.62 530.47 191.94 521.57
  Q 183.04 514.78 176.92 507.62
  C 174.06 504.27 167.08 494.17 173.02 491.22
  Q 174.53 490.47 179.05 490.64
  C 188.56 491.96 198.99 493.84 207.61 494.57
  Q 230.50 496.53 252.85 492.57
  Q 273.34 488.94 294.80 481.79
  Q 295.76 481.46 344.39 464.39
  Q 354.99 460.66 376.70 454.96
  C 421.84 443.09 469.13 442.23 514.71 451.84
  A 0.32 0.32 0.0 0 0 515.07 451.41
  C 503.37 422.51 494.31 394.42 490.72 364.04
  C 487.34 335.38 491.33 304.77 504.66 279.04
  C 519.45 250.49 545.70 229.67 577.42 223.43
  Q 616.60 215.72 651.83 235.52
  Q 660.60 240.45 670.34 250.16
  C 679.15 258.95 685.32 270.00 689.21 282.16
  C 691.10 288.06 693.61 295.19 696.18 299.32
  C 700.89 306.92 707.07 312.96 714.18 319.46
  Q 719.63 324.45 725.10 328.26
  Q 744.82 342.02 766.40 351.08
  Q 783.86 358.42 791.14 361.10
  Q 798.63 363.86 806.71 368.29
  C 812.61 371.52 816.66 376.76 816.85 383.73
  C 817.15 394.21 808.11 399.44 799.49 402.51
  C 788.51 406.42 778.71 406.75 766.00 406.58
  Q 753.27 406.42 739.25 404.74
  C 724.94 403.03 708.86 400.08 693.63 395.97
  Q 669.73 389.51 669.61 389.47
  Q 657.20 385.57 646.64 390.30
  C 634.75 395.63 636.70 408.88 642.28 418.26
  Q 648.07 427.99 660.76 440.43
  Q 663.28 442.90 682.08 460.09
  C 697.89 474.55 710.97 488.56 723.35 504.90
  Q 737.27 523.28 745.99 544.60
  Z
  M 530.35 433.55
  L 540.31 457.06
  Q 544.90 466.47 553.27 471.72
  C 561.25 476.72 572.76 482.65 581.18 488.60
  Q 589.44 494.46 593.98 498.04
  Q 616.63 515.94 631.13 540.87
  Q 636.71 550.48 640.47 560.51
  Q 642.51 572.50 642.51 584.00
  C 642.52 612.79 625.98 639.57 602.38 655.35
  Q 574.45 674.02 541.25 674.31
  Q 517.21 674.52 496.01 666.47
  Q 470.86 656.92 447.23 636.56
  Q 442.14 632.17 433.30 623.72
  A 1.17 1.16 -45.9 0 0 431.66 623.75
  C 419.14 636.60 405.66 648.05 388.66 654.60
  C 362.35 664.74 328.52 662.01 312.54 635.39
  A 0.27 0.26 -1.7 0 1 312.89 635.02
  Q 320.26 638.86 328.95 641.62
  A 0.16 0.15 8.7 0 0 329.15 641.48
  L 329.15 566.92
  A 0.37 0.37 0.0 0 0 328.80 566.55
  C 308.98 565.57 289.52 563.53 269.88 558.52
  A 0.24 0.24 0.0 0 0 269.60 558.86
  C 273.85 567.70 280.33 575.58 287.43 583.25
  Q 295.93 592.40 300.51 596.64
  C 301.01 597.10 302.12 597.73 302.26 597.91
  A 0.42 0.42 0.0 0 1 301.91 598.59
  C 277.09 597.18 252.88 591.99 228.21 584.03
  Q 216.61 580.28 206.00 575.43
  A 0.31 0.31 0.0 0 0 205.62 575.89
  Q 222.53 599.06 241.02 625.74
  Q 252.04 641.65 263.24 655.24
  Q 279.65 675.14 301.90 689.67
  C 322.87 703.35 347.74 711.67 372.59 716.10
  Q 389.77 719.17 401.25 720.29
  C 466.15 726.66 532.74 726.79 597.96 718.22
  Q 602.19 717.91 606.44 716.91
  C 628.35 711.73 642.60 709.39 658.09 702.05
  C 668.00 697.35 677.89 692.50 686.12 686.12
  C 692.41 681.25 700.33 674.40 706.27 667.27
  C 723.34 646.80 732.77 622.48 732.48 596.02
  C 732.21 571.71 726.83 545.50 712.71 524.92
  Q 705.45 514.35 701.98 510.01
  Q 688.46 493.13 669.91 474.58
  Q 662.15 466.82 649.39 454.11
  Q 648.62 453.35 647.76 453.16
  A 0.71 0.69 -4.8 0 1 647.27 452.76
  Q 647.20 452.61 647.11 452.42
  Q 647.24 452.62 647.27 452.23
  A 0.56 0.54 26.4 0 0 647.12 451.81
  Q 637.93 442.83 630.08 432.90
  Q 626.71 426.92 622.97 421.31
  C 614.86 409.10 613.33 390.88 625.68 380.68
  Q 630.84 376.42 633.55 375.04
  C 642.62 370.42 649.05 367.10 656.64 361.41
  C 662.20 357.24 665.23 351.83 668.76 346.19
  C 673.73 338.29 676.13 329.32 676.27 319.53
  Q 676.58 298.44 669.82 280.88
  C 666.76 272.94 662.37 266.49 657.35 260.25
  C 649.90 251.00 638.63 244.56 627.14 241.09
  C 606.76 234.92 584.10 236.06 564.77 243.80
  C 555.27 247.60 546.57 254.94 539.06 262.33
  Q 535.08 266.24 531.18 271.81
  Q 525.17 280.41 524.33 282.10
  C 519.61 291.68 515.81 301.26 513.81 311.75
  Q 508.55 339.26 511.94 365.79
  C 513.49 377.97 516.89 390.25 519.87 402.68
  C 521.47 409.32 524.03 415.18 526.25 422.18
  Q 528.16 428.22 530.35 433.55
  Z
  M 662.63 372.67
  C 664.09 373.04 665.99 373.26 667.34 373.63
  Q 706.33 384.45 727.76 388.44
  Q 750.13 392.61 770.75 392.77
  Q 779.29 392.83 787.79 391.59
  C 791.56 391.04 798.96 389.46 801.33 386.31
  C 805.36 380.96 797.26 377.35 793.35 375.92
  C 782.31 371.89 770.33 368.03 759.26 363.01
  C 745.68 356.85 732.08 349.79 720.03 341.17
  Q 711.91 335.37 709.60 333.41
  Q 699.23 324.62 691.31 314.27
  A 0.34 0.34 0.0 0 0 690.70 314.48
  Q 691.14 333.77 682.93 350.91
  C 678.55 360.05 671.14 367.28 662.57 372.25
  A 0.23 0.23 0.0 0 0 662.63 372.67
  Z
  M 219.78 510.06
  A 0.28 0.28 0.0 0 0 219.57 510.56
  C 246.81 532.58 279.08 541.54 314.25 543.20
  Q 337.01 544.27 358.12 539.82
  Q 375.99 536.05 385.82 532.57
  Q 403.36 526.36 428.20 517.43
  Q 457.50 506.90 488.71 507.97
  C 505.99 508.56 522.74 512.56 538.52 519.18
  A 0.42 0.42 0.0 0 1 538.32 519.99
  C 503.65 517.15 469.22 523.01 437.07 535.57
  Q 402.14 549.22 398.19 550.67
  C 389.04 554.04 382.01 556.78 375.84 558.10
  A 0.32 0.32 0.0 0 0 375.82 558.72
  Q 378.17 559.38 380.54 560.46
  Q 394.73 566.99 408.57 577.22
  C 414.99 581.97 424.36 589.37 431.63 596.12
  A 0.94 0.94 0.0 0 0 432.93 596.10
  Q 456.31 573.21 481.77 555.04
  Q 495.94 544.94 509.69 539.73
  C 535.37 530.00 564.61 531.59 588.86 545.19
  Q 614.13 559.36 628.30 585.06
  A 0.21 0.20 -63.6 0 0 628.68 584.93
  C 627.34 574.15 624.38 562.24 619.40 552.00
  Q 614.83 542.61 612.95 539.55
  C 587.18 497.70 543.63 476.33 496.07 469.20
  C 472.70 465.69 449.84 464.61 426.29 466.83
  C 399.47 469.36 374.54 474.82 348.98 483.41
  Q 333.35 488.66 314.47 495.43
  Q 291.77 503.57 268.03 508.29
  Q 248.93 512.09 229.76 511.25
  C 226.21 511.10 223.22 510.55 219.78 510.06
  Z
  M 547.41 554.09
  L 547.41 654.55
  A 0.58 0.58 0.0 0 0 548.05 655.13
  Q 560.53 653.87 572.22 649.19
  A 0.75 0.74 -11.2 0 0 572.69 648.50
  L 572.69 559.65
  A 1.29 1.29 0.0 0 0 571.84 558.44
  Q 560.31 554.23 548.09 553.44
  A 0.65 0.64 -88.3 0 0 547.41 554.09
  Z
  M 531.31 553.97
  C 523.03 555.36 513.89 557.56 506.72 561.68
  A 0.99 0.98 75.6 0 0 506.22 562.54
  L 506.22 648.78
  A 1.53 1.52 -80.3 0 0 507.23 650.22
  Q 518.55 654.23 531.08 655.20
  A 0.61 0.61 0.0 0 0 531.74 654.59
  L 531.74 554.34
  A 0.37 0.37 0.0 0 0 531.31 553.97
  Z
  M 342.70 567.93
  L 342.70 643.81
  A 0.69 0.68 2.8 0 0 343.32 644.49
  Q 354.80 645.71 366.23 642.60
  A 1.43 1.43 0.0 0 0 367.28 641.22
  L 367.28 573.89
  A 1.01 1.01 0.0 0 0 366.66 572.96
  Q 355.48 568.24 343.46 567.23
  A 0.70 0.70 0.0 0 0 342.70 567.93
  Z
  M 588.33 567.62
  L 588.33 640.39
  A 0.44 0.44 0.0 0 0 589.01 640.76
  Q 609.33 627.53 619.64 606.17
  A 2.96 2.94 -45.7 0 0 619.62 603.55
  Q 608.59 581.87 588.59 567.49
  A 0.16 0.16 0.0 0 0 588.33 567.62
  Z
  M 491.62 570.52
  C 475.39 581.96 460.20 595.88 446.15 609.86
  A 0.34 0.34 0.0 0 0 446.19 610.38
  Q 448.13 611.72 449.08 612.57
  Q 458.69 621.06 465.39 626.49
  Q 477.51 636.31 492.00 644.21
  A 0.14 0.13 -75.7 0 0 492.20 644.09
  L 492.20 570.82
  A 0.37 0.37 0.0 0 0 491.62 570.52
  Z
  M 380.80 637.16
  C 394.33 630.65 406.67 620.70 417.64 610.70
  A 0.68 0.68 0.0 0 0 417.63 609.69
  C 409.67 602.70 400.65 594.96 391.84 588.82
  Q 382.86 582.56 381.01 581.12
  A 0.24 0.24 0.0 0 0 380.62 581.31
  L 380.62 637.04
  A 0.13 0.13 0.0 0 0 380.80 637.16
  Z"
/>
<path fill="#52795d" d="
  M 630.08 432.90
  C 611.06 439.01 591.50 441.17 571.25 440.31
  Q 550.71 439.44 530.35 433.55
  Q 528.16 428.22 526.25 422.18
  C 524.03 415.18 521.47 409.32 519.87 402.68
  C 516.89 390.25 513.49 377.97 511.94 365.79
  Q 508.55 339.26 513.81 311.75
  C 515.81 301.26 519.61 291.68 524.33 282.10
  Q 525.17 280.41 531.18 271.81
  Q 535.08 266.24 539.06 262.33
  C 546.57 254.94 555.27 247.60 564.77 243.80
  C 584.10 236.06 606.76 234.92 627.14 241.09
  C 638.63 244.56 649.90 251.00 657.35 260.25
  C 662.37 266.49 666.76 272.94 669.82 280.88
  Q 676.58 298.44 676.27 319.53
  C 676.13 329.32 673.73 338.29 668.76 346.19
  C 665.23 351.83 662.20 357.24 656.64 361.41
  C 649.05 367.10 642.62 370.42 633.55 375.04
  Q 630.84 376.42 625.68 380.68
  C 613.33 390.88 614.86 409.10 622.97 421.31
  Q 626.71 426.92 630.08 432.90
  Z
  M 639.0842 296.9594
  A 16.16 15.71 -9.8 0 0 620.4860 284.2292
  A 16.16 15.71 -9.8 0 0 607.2358 302.4606
  A 16.16 15.71 -9.8 0 0 625.8340 315.1908
  A 16.16 15.71 -9.8 0 0 639.0842 296.9594
  Z"
/>
<ellipse fill="#192217" cx="0.00" cy="0.00" transform="translate(623.16,299.71) rotate(-9.8)" rx="16.16" ry="15.71"/>
<path fill="#dbc79b" d="
  M 413.56 347.68
  Q 399.85 344.50 389.16 335.13
  Q 381.02 327.99 377.39 315.24
  C 374.53 305.20 387.68 299.29 392.92 307.88
  C 395.24 311.67 397.47 318.27 401.76 322.27
  Q 409.39 329.39 420.03 331.71
  C 430.72 334.04 443.13 332.54 453.27 334.47
  Q 464.24 336.56 474.81 342.75
  A 1.66 1.65 16.4 0 1 475.62 344.22
  Q 475.32 353.34 476.70 363.86
  A 0.52 0.52 0.0 0 1 475.79 364.26
  Q 474.75 363.00 473.67 362.15
  Q 459.28 350.78 440.78 350.31
  Q 435.41 350.17 431.99 351.44
  C 430.19 352.10 429.10 354.56 428.16 356.88
  C 424.45 365.99 427.04 371.97 432.65 380.14
  C 440.94 392.22 446.92 405.90 440.21 420.33
  Q 434.76 432.06 424.35 436.33
  A 2.42 2.28 -57.0 0 1 423.65 436.50
  Q 403.61 438.14 385.31 442.16
  A 0.44 0.43 84.1 0 1 384.79 441.73
  C 384.80 435.34 385.35 426.95 393.51 426.23
  Q 394.04 426.18 403.25 425.53
  C 414.60 424.74 429.12 417.18 425.19 403.25
  Q 423.71 398.03 420.16 393.51
  Q 416.16 388.42 414.96 386.42
  C 408.15 375.09 406.68 359.94 413.77 348.18
  A 0.34 0.33 -68.1 0 0 413.56 347.68
  Z"
/>
<path fill="#d69840" d="
  M 662.63 372.67
  A 0.23 0.23 0.0 0 1 662.57 372.25
  C 671.14 367.28 678.55 360.05 682.93 350.91
  Q 691.14 333.77 690.70 314.48
  A 0.34 0.34 0.0 0 1 691.31 314.27
  Q 699.23 324.62 709.60 333.41
  Q 711.91 335.37 720.03 341.17
  C 732.08 349.79 745.68 356.85 759.26 363.01
  C 770.33 368.03 782.31 371.89 793.35 375.92
  C 797.26 377.35 805.36 380.96 801.33 386.31
  C 798.96 389.46 791.56 391.04 787.79 391.59
  Q 779.29 392.83 770.75 392.77
  Q 750.13 392.61 727.76 388.44
  Q 706.33 384.45 667.34 373.63
  C 665.99 373.26 664.09 373.04 662.63 372.67
  Z
  M 708.62 357.71
  C 711.16 359.86 715.70 361.75 718.70 360.41
  C 724.67 357.76 718.22 352.51 715.18 349.94
  C 712.13 347.37 705.87 341.89 704.26 348.22
  C 703.45 351.40 706.07 355.56 708.62 357.71
  Z"
/>
<path fill="#304f37" d="
  M 715.18 349.94
  C 718.22 352.51 724.67 357.76 718.70 360.41
  C 715.70 361.75 711.16 359.86 708.62 357.71
  C 706.07 355.56 703.45 351.40 704.26 348.22
  C 705.87 341.89 712.13 347.37 715.18 349.94
  Z"
/>
<path fill="#dbc79b" d="
  M 715.21 413.18
  A 0.55 0.54 24.0 0 1 715.54 414.03
  Q 711.36 419.90 709.39 426.64
  C 704.95 441.89 717.02 457.49 730.38 462.63
  Q 737.87 465.52 740.57 467.43
  C 747.37 472.25 745.34 481.93 736.75 482.59
  Q 734.79 482.75 732.07 481.80
  Q 708.26 473.55 696.37 454.67
  C 688.06 441.47 690.21 423.93 697.65 410.39
  A 1.35 1.34 20.4 0 1 699.11 409.73
  L 715.21 413.18
  Z"
/>
<path fill="#f6eede" d="
  M 630.08 432.90
  Q 637.93 442.83 647.12 451.81
  A 0.56 0.54 26.4 0 1 647.27 452.23
  Q 647.24 452.62 647.11 452.42
  Q 619.37 461.86 589.00 463.06
  Q 564.26 464.03 540.31 457.06
  L 530.35 433.55
  Q 550.71 439.44 571.25 440.31
  C 591.50 441.17 611.06 439.01 630.08 432.90
  Z"
/>
<path fill="#8e592c" d="
  M 647.11 452.42
  Q 647.20 452.61 647.27 452.76
  A 0.71 0.69 -4.8 0 0 647.76 453.16
  Q 648.62 453.35 649.39 454.11
  Q 662.15 466.82 669.91 474.58
  Q 688.46 493.13 701.98 510.01
  Q 705.45 514.35 712.71 524.92
  C 726.83 545.50 732.21 571.71 732.48 596.02
  C 732.77 622.48 723.34 646.80 706.27 667.27
  C 700.33 674.40 692.41 681.25 686.12 686.12
  C 677.89 692.50 668.00 697.35 658.09 702.05
  C 642.60 709.39 628.35 711.73 606.44 716.91
  Q 602.19 717.91 597.96 718.22
  C 619.10 706.29 634.79 688.02 645.21 666.17
  Q 653.36 649.09 655.48 633.73
  Q 660.79 595.21 640.47 560.51
  Q 636.71 550.48 631.13 540.87
  Q 616.63 515.94 593.98 498.04
  Q 589.44 494.46 581.18 488.60
  C 572.76 482.65 561.25 476.72 553.27 471.72
  Q 544.90 466.47 540.31 457.06
  Q 564.26 464.03 589.00 463.06
  Q 619.37 461.86 647.11 452.42
  Z"
/>
<path fill="#dbc79b" d="
  M 219.78 510.06
  C 223.22 510.55 226.21 511.10 229.76 511.25
  Q 248.93 512.09 268.03 508.29
  Q 291.77 503.57 314.47 495.43
  Q 333.35 488.66 348.98 483.41
  C 374.54 474.82 399.47 469.36 426.29 466.83
  C 449.84 464.61 472.70 465.69 496.07 469.20
  C 543.63 476.33 587.18 497.70 612.95 539.55
  Q 614.83 542.61 619.40 552.00
  C 624.38 562.24 627.34 574.15 628.68 584.93
  A 0.21 0.20 -63.6 0 1 628.30 585.06
  Q 614.13 559.36 588.86 545.19
  C 564.61 531.59 535.37 530.00 509.69 539.73
  Q 495.94 544.94 481.77 555.04
  Q 456.31 573.21 432.93 596.10
  A 0.94 0.94 0.0 0 1 431.63 596.12
  C 424.36 589.37 414.99 581.97 408.57 577.22
  Q 394.73 566.99 380.54 560.46
  Q 378.17 559.38 375.82 558.72
  A 0.32 0.32 0.0 0 1 375.84 558.10
  C 382.01 556.78 389.04 554.04 398.19 550.67
  Q 402.14 549.22 437.07 535.57
  C 469.22 523.01 503.65 517.15 538.32 519.99
  A 0.42 0.42 0.0 0 0 538.52 519.18
  C 522.74 512.56 505.99 508.56 488.71 507.97
  Q 457.50 506.90 428.20 517.43
  Q 403.36 526.36 385.82 532.57
  Q 375.99 536.05 358.12 539.82
  Q 337.01 544.27 314.25 543.20
  C 279.08 541.54 246.81 532.58 219.57 510.56
  A 0.28 0.28 0.0 0 1 219.78 510.06
  Z"
/>
<path fill="#52795d" d="
  M 817.54 544.48
  L 836.63 544.42
  L 906.76 544.42
  Q 907.33 545.26 907.24 546.00
  Q 904.13 571.86 897.44 596.98
  C 893.46 611.95 887.42 628.69 882.17 641.22
  Q 880.31 645.64 870.39 666.75
  C 866.71 674.57 861.93 682.32 857.28 690.53
  Q 849.68 703.95 838.04 719.56
  Q 824.22 738.11 814.18 749.20
  Q 810.75 752.99 802.24 761.76
  Q 795.57 768.63 789.73 773.73
  Q 781.44 780.98 760.87 798.37
  C 757.84 800.94 756.57 800.28 752.54 800.35
  Q 733.55 800.68 715.36 800.41
  C 682.24 799.94 648.01 800.57 614.25 800.36
  Q 603.67 800.29 597.42 800.39
  C 573.49 800.75 553.66 799.85 530.81 800.38
  C 515.45 800.74 499.70 800.02 483.07 800.28
  C 443.15 800.90 406.61 800.22 363.17 800.59
  Q 342.30 800.77 306.50 800.45
  Q 282.29 800.23 271.28 800.41
  C 266.20 800.50 264.47 798.70 261.66 796.34
  Q 240.30 778.45 223.95 762.06
  Q 216.32 754.40 203.27 738.98
  Q 188.00 720.93 177.91 705.15
  Q 173.55 698.35 171.89 695.90
  Q 160.79 679.49 150.55 658.20
  Q 149.04 655.06 141.61 637.42
  Q 137.27 627.11 135.63 621.31
  C 133.32 613.15 130.68 607.41 128.68 599.31
  Q 122.16 572.84 120.92 564.06
  Q 119.55 554.45 118.22 544.47
  L 160.40 544.44
  Q 171.85 561.71 183.14 579.17
  Q 194.58 596.84 196.62 599.63
  C 204.53 610.40 210.63 621.10 218.48 631.53
  Q 227.76 643.86 235.68 654.08
  Q 239.68 659.26 243.60 663.57
  A 0.26 0.26 0.0 0 1 243.43 664.00
  Q 215.38 666.08 189.00 667.01
  Q 181.54 667.27 174.85 668.52
  A 1.69 1.68 -15.0 0 0 173.56 670.74
  C 175.15 675.26 180.40 678.55 184.64 680.90
  Q 193.12 685.60 196.20 686.87
  C 205.05 690.53 215.71 694.31 224.95 696.93
  C 236.39 700.17 246.37 703.40 258.32 706.21
  Q 268.44 708.59 277.39 710.27
  Q 285.07 711.70 290.32 712.90
  A 0.29 0.29 0.0 0 1 290.32 713.47
  C 282.82 715.04 275.34 716.80 268.33 720.57
  Q 264.79 722.47 266.23 725.77
  C 268.73 731.50 290.90 736.41 297.28 737.68
  C 324.49 743.13 349.22 744.71 380.42 747.35
  Q 387.88 747.99 395.58 748.36
  C 401.51 748.64 408.56 749.40 415.83 749.72
  Q 474.04 752.25 485.00 752.23
  C 492.96 752.21 500.08 752.76 507.34 752.67
  Q 526.98 752.42 536.23 752.39
  C 544.26 752.37 552.02 751.86 561.32 751.57
  C 565.93 751.43 570.66 750.53 574.94 750.41
  Q 590.30 749.98 598.50 749.24
  Q 611.94 748.01 656.74 744.14
  C 667.45 743.21 676.27 741.74 685.91 741.02
  Q 690.62 740.67 697.56 739.71
  Q 716.36 737.11 734.55 732.76
  Q 745.26 730.20 754.38 726.14
  C 757.49 724.75 763.25 721.71 759.46 717.42
  Q 758.40 716.22 754.84 714.94
  Q 745.65 711.61 734.82 709.56
  A 0.37 0.37 0.0 0 1 734.80 708.84
  C 736.53 708.46 738.49 708.53 740.79 708.06
  Q 758.48 704.42 776.23 699.20
  C 781.98 697.51 825.38 683.60 813.15 673.08
  C 808.94 669.45 800.61 667.55 795.57 666.66
  C 775.64 663.17 758.96 661.57 737.34 659.40
  A 0.44 0.44 0.0 0 1 737.00 658.74
  Q 744.17 646.58 748.91 632.29
  Q 753.19 619.40 754.03 603.82
  Q 755.35 579.24 749.36 555.74
  Q 748.97 554.23 747.58 550.21
  Q 746.63 547.45 745.99 544.60
  L 817.54 544.48
  Z
  M 716.73 769.96
  A 2.08 1.72 13.5 0 0 715.00 767.65
  Q 704.77 765.80 692.67 764.99
  Q 683.08 764.35 676.81 763.33
  C 661.28 760.81 645.35 760.02 629.76 760.96
  Q 619.43 761.59 602.40 764.30
  Q 584.12 767.21 575.14 768.35
  Q 530.31 774.05 486.09 771.37
  Q 455.63 769.52 426.02 764.64
  Q 425.59 764.57 411.01 762.80
  C 397.09 761.10 381.93 761.01 369.51 762.02
  Q 360.19 762.78 313.75 767.69
  Q 311.18 767.96 309.37 769.39
  A 1.54 1.54 0.0 0 0 309.24 771.69
  Q 311.13 773.56 313.77 774.47
  Q 332.69 780.99 353.28 782.65
  Q 364.57 783.57 383.13 784.41
  Q 390.04 784.72 406.66 786.27
  C 419.11 787.44 433.74 790.04 445.54 791.67
  C 466.94 794.63 491.04 796.31 514.02 796.14
  Q 535.71 795.98 537.00 795.95
  C 553.06 795.61 569.64 794.09 586.93 791.56
  Q 610.09 788.17 617.75 787.02
  C 635.20 784.40 658.44 783.86 671.00 782.02
  Q 687.96 779.53 693.72 778.43
  C 701.54 776.93 708.89 775.48 714.61 771.91
  Q 716.46 770.76 716.73 769.96
  Z"
/>
<path fill="#dbc79b" d="
  M 548.09 553.44
  Q 560.31 554.23 571.84 558.44
  A 1.29 1.29 0.0 0 1 572.69 559.65
  L 572.69 648.50
  A 0.75 0.74 -11.2 0 1 572.22 649.19
  Q 560.53 653.87 548.05 655.13
  A 0.58 0.58 0.0 0 1 547.41 654.55
  L 547.41 554.09
  A 0.65 0.64 -88.3 0 1 548.09 553.44
  Z"
/>
<path fill="#dbc79b" d="
  M 531.31 553.97
  A 0.37 0.37 0.0 0 1 531.74 554.34
  L 531.74 654.59
  A 0.61 0.61 0.0 0 1 531.08 655.20
  Q 518.55 654.23 507.23 650.22
  A 1.53 1.52 -80.3 0 1 506.22 648.78
  L 506.22 562.54
  A 0.99 0.98 75.6 0 1 506.72 561.68
  C 513.89 557.56 523.03 555.36 531.31 553.97
  Z"
/>
<path fill="#dbc79b" d="
  M 640.47 560.51
  Q 660.79 595.21 655.48 633.73
  Q 653.36 649.09 645.21 666.17
  C 634.79 688.02 619.10 706.29 597.96 718.22
  C 532.74 726.79 466.15 726.66 401.25 720.29
  Q 389.77 719.17 372.59 716.10
  C 347.74 711.67 322.87 703.35 301.90 689.67
  Q 279.65 675.14 263.24 655.24
  Q 252.04 641.65 241.02 625.74
  Q 222.53 599.06 205.62 575.89
  A 0.31 0.31 0.0 0 1 206.00 575.43
  Q 216.61 580.28 228.21 584.03
  C 252.88 591.99 277.09 597.18 301.91 598.59
  A 0.42 0.42 0.0 0 0 302.26 597.91
  C 302.12 597.73 301.01 597.10 300.51 596.64
  Q 295.93 592.40 287.43 583.25
  C 280.33 575.58 273.85 567.70 269.60 558.86
  A 0.24 0.24 0.0 0 1 269.88 558.52
  C 289.52 563.53 308.98 565.57 328.80 566.55
  A 0.37 0.37 0.0 0 1 329.15 566.92
  L 329.15 641.48
  A 0.16 0.15 8.7 0 1 328.95 641.62
  Q 320.26 638.86 312.89 635.02
  A 0.27 0.26 -1.7 0 0 312.54 635.39
  C 328.52 662.01 362.35 664.74 388.66 654.60
  C 405.66 648.05 419.14 636.60 431.66 623.75
  A 1.17 1.16 -45.9 0 1 433.30 623.72
  Q 442.14 632.17 447.23 636.56
  Q 470.86 656.92 496.01 666.47
  Q 517.21 674.52 541.25 674.31
  Q 574.45 674.02 602.38 655.35
  C 625.98 639.57 642.52 612.79 642.51 584.00
  Q 642.51 572.50 640.47 560.51
  Z"
/>
<path fill="#dbc79b" d="
  M 343.46 567.23
  Q 355.48 568.24 366.66 572.96
  A 1.01 1.01 0.0 0 1 367.28 573.89
  L 367.28 641.22
  A 1.43 1.43 0.0 0 1 366.23 642.60
  Q 354.80 645.71 343.32 644.49
  A 0.69 0.68 2.8 0 1 342.70 643.81
  L 342.70 567.93
  A 0.70 0.70 0.0 0 1 343.46 567.23
  Z"
/>
<path fill="#dbc79b" d="
  M 588.33 567.62
  A 0.16 0.16 0.0 0 1 588.59 567.49
  Q 608.59 581.87 619.62 603.55
  A 2.96 2.94 -45.7 0 1 619.64 606.17
  Q 609.33 627.53 589.01 640.76
  A 0.44 0.44 0.0 0 1 588.33 640.39
  L 588.33 567.62
  Z"
/>
<path fill="#dbc79b" d="
  M 492.20 570.82
  L 492.20 644.09
  A 0.14 0.13 -75.7 0 1 492.00 644.21
  Q 477.51 636.31 465.39 626.49
  Q 458.69 621.06 449.08 612.57
  Q 448.13 611.72 446.19 610.38
  A 0.34 0.34 0.0 0 1 446.15 609.86
  C 460.20 595.88 475.39 581.96 491.62 570.52
  A 0.37 0.37 0.0 0 1 492.20 570.82
  Z"
/>
<path fill="#dbc79b" d="
  M 380.80 637.16
  A 0.13 0.13 0.0 0 1 380.62 637.04
  L 380.62 581.31
  A 0.24 0.24 0.0 0 1 381.01 581.12
  Q 382.86 582.56 391.84 588.82
  C 400.65 594.96 409.67 602.70 417.63 609.69
  A 0.68 0.68 0.0 0 1 417.64 610.70
  C 406.67 620.70 394.33 630.65 380.80 637.16
  Z"
/>
<path fill="#304f37" d="
  M 716.73 769.96
  Q 716.46 770.76 714.61 771.91
  C 708.89 775.48 701.54 776.93 693.72 778.43
  Q 687.96 779.53 671.00 782.02
  C 658.44 783.86 635.20 784.40 617.75 787.02
  Q 610.09 788.17 586.93 791.56
  C 569.64 794.09 553.06 795.61 537.00 795.95
  Q 535.71 795.98 514.02 796.14
  C 491.04 796.31 466.94 794.63 445.54 791.67
  C 433.74 790.04 419.11 787.44 406.66 786.27
  Q 390.04 784.72 383.13 784.41
  Q 364.57 783.57 353.28 782.65
  Q 332.69 780.99 313.77 774.47
  Q 311.13 773.56 309.24 771.69
  A 1.54 1.54 0.0 0 1 309.37 769.39
  Q 311.18 767.96 313.75 767.69
  Q 360.19 762.78 369.51 762.02
  C 381.93 761.01 397.09 761.10 411.01 762.80
  Q 425.59 764.57 426.02 764.64
  Q 455.63 769.52 486.09 771.37
  Q 530.31 774.05 575.14 768.35
  Q 584.12 767.21 602.40 764.30
  Q 619.43 761.59 629.76 760.96
  C 645.35 760.02 661.28 760.81 676.81 763.33
  Q 683.08 764.35 692.67 764.99
  Q 704.77 765.80 715.00 767.65
  A 2.08 1.72 13.5 0 1 716.73 769.96
  Z"
/>
<path fill="#b55e28" d="
  M 863.45 926.71
  A 17.64 17.64 0.0 0 1 845.81 944.35
  L 177.81 944.35
  A 17.64 17.64 0.0 0 1 160.17 926.71
  L 160.17 832.31
  A 17.64 17.64 0.0 0 1 177.81 814.67
  L 845.81 814.67
  A 17.64 17.64 0.0 0 1 863.45 832.31
  L 863.45 926.71
  Z
  M 211.83 877.79
  Q 213.05 881.10 217.00 888.54
  C 220.51 895.18 223.28 902.25 227.24 910.86
  A 2.38 2.33 61.5 0 0 230.63 911.90
  Q 231.31 911.47 232.05 909.79
  Q 240.31 891.03 247.40 876.27
  A 0.33 0.33 0.0 0 1 248.02 876.41
  L 248.02 921.87
  A 2.05 2.05 0.0 0 0 250.03 923.92
  Q 256.02 924.04 260.99 924.05
  Q 263.47 924.05 263.48 921.76
  Q 263.54 881.32 263.47 845.11
  A 2.43 2.43 0.0 0 0 261.04 842.68
  L 248.59 842.68
  A 2.54 2.53 -77.2 0 0 246.30 844.13
  L 229.32 879.60
  A 0.33 0.33 0.0 0 1 228.73 879.60
  L 211.61 844.10
  A 2.57 2.57 0.0 0 0 209.29 842.64
  L 197.45 842.64
  A 1.79 1.78 90.0 0 0 195.67 844.43
  L 195.67 921.86
  A 2.22 2.22 0.0 0 0 197.88 924.08
  Q 203.87 924.12 209.02 924.02
  Q 211.48 923.98 211.47 921.28
  Q 211.35 878.81 211.39 877.86
  A 0.23 0.23 0.0 0 1 211.83 877.79
  Z
  M 361.20 908.89
  Q 360.76 869.16 361.09 849.51
  Q 361.14 846.16 360.77 844.68
  A 2.35 2.34 -6.5 0 0 358.55 842.92
  L 346.24 842.66
  A 1.98 1.98 0.0 0 0 344.22 844.65
  Q 344.27 853.70 344.41 920.40
  C 344.42 922.68 344.65 924.17 347.27 924.12
  Q 358.30 923.92 381.50 924.06
  Q 383.29 924.07 384.18 922.74
  A 1.46 1.44 59.5 0 0 384.42 921.79
  Q 384.27 920.06 384.29 912.80
  Q 384.30 909.38 381.27 909.42
  Q 366.67 909.60 361.79 909.48
  A 0.60 0.60 0.0 0 1 361.20 908.89
  Z
  M 474.93 909.66
  Q 484.00 909.62 484.97 909.63
  A 0.71 0.70 82.5 0 1 485.65 910.16
  L 488.89 922.39
  A 2.19 2.18 82.6 0 0 491.00 924.02
  L 503.50 924.03
  A 1.75 1.75 0.0 0 0 505.22 922.59
  Q 505.34 922.05 505.07 920.97
  Q 495.77 884.90 485.12 844.70
  A 2.68 2.67 82.9 0 0 482.57 842.71
  Q 479.38 842.66 474.69 842.68
  Q 469.99 842.70 466.80 842.76
  A 2.68 2.67 -83.3 0 0 464.27 844.77
  Q 453.90 885.05 444.86 921.19
  Q 444.60 922.27 444.73 922.81
  A 1.75 1.75 0.0 0 0 446.46 924.23
  L 458.95 924.14
  A 2.19 2.18 -83.0 0 0 461.05 922.49
  L 464.21 910.24
  A 0.71 0.70 -82.9 0 1 464.88 909.70
  Q 465.85 909.69 474.93 909.66
  Z
  M 745.43 909.61
  Q 754.49 909.60 755.46 909.60
  A 0.71 0.70 82.6 0 1 756.14 910.13
  L 759.36 922.36
  A 2.19 2.18 82.7 0 0 761.47 923.99
  L 773.95 924.02
  A 1.75 1.75 0.0 0 0 775.67 922.58
  Q 775.79 922.04 775.53 920.96
  Q 766.29 884.91 755.71 844.74
  A 2.68 2.67 83.0 0 0 753.16 842.74
  Q 749.98 842.70 745.29 842.71
  Q 740.60 842.72 737.41 842.78
  A 2.68 2.67 -83.3 0 0 734.88 844.78
  Q 724.46 885.00 715.38 921.09
  Q 715.12 922.17 715.24 922.71
  A 1.75 1.75 0.0 0 0 716.97 924.14
  L 729.45 924.06
  A 2.19 2.18 -82.9 0 0 731.55 922.42
  L 734.72 910.18
  A 0.71 0.70 -82.8 0 1 735.39 909.65
  Q 736.36 909.63 745.43 909.61
  Z
  M 825.57 883.05
  A 0.35 0.34 40.5 0 1 825.52 882.42
  C 839.59 874.99 837.44 852.80 823.92 846.28
  Q 817.20 843.05 811.23 842.84
  Q 807.43 842.71 787.75 842.63
  A 1.82 1.82 0.0 0 0 785.93 844.45
  L 785.93 921.90
  A 1.87 1.87 0.0 0 0 787.76 923.77
  Q 802.83 924.05 813.99 923.79
  C 823.65 923.56 833.63 919.47 836.21 909.24
  Q 839.24 897.19 832.49 888.28
  Q 829.65 884.55 825.57 883.05
  Z
  M 303.91 909.50
  Q 312.96 909.48 313.93 909.49
  A 0.71 0.70 82.6 0 1 314.60 910.02
  L 317.81 922.22
  A 2.18 2.17 82.7 0 0 319.92 923.85
  L 332.38 923.87
  A 1.75 1.74 -84.8 0 0 334.09 922.44
  Q 334.21 921.90 333.95 920.83
  Q 324.73 884.85 314.17 844.76
  A 2.67 2.66 83.0 0 0 311.63 842.77
  Q 308.45 842.72 303.77 842.73
  Q 299.09 842.74 295.91 842.80
  A 2.67 2.66 -83.3 0 0 293.38 844.80
  Q 282.99 884.94 273.92 920.95
  Q 273.66 922.03 273.78 922.57
  A 1.75 1.74 84.5 0 0 275.51 923.99
  L 287.97 923.91
  A 2.18 2.17 -82.9 0 0 290.06 922.28
  L 293.22 910.06
  A 0.71 0.70 -82.8 0 1 293.90 909.53
  Q 294.86 909.52 303.91 909.50
  Z
  M 413.52 909.51
  A 0.66 0.66 0.0 0 1 412.88 908.85
  Q 412.87 855.68 412.77 845.75
  Q 412.74 842.72 409.77 842.72
  Q 404.47 842.73 398.25 842.66
  A 2.21 2.21 0.0 0 0 396.02 844.88
  Q 396.16 879.93 395.95 920.36
  C 395.94 922.59 396.28 924.06 398.75 924.06
  Q 428.58 924.04 435.08 924.03
  A 1.80 1.80 0.0 0 0 436.88 922.20
  Q 436.84 919.60 436.67 912.12
  Q 436.60 909.47 433.52 909.53
  Q 421.69 909.76 413.52 909.51
  Z
  M 532.07 896.17
  L 538.87 896.17
  A 0.95 0.93 -10.4 0 1 539.75 896.77
  L 550.00 922.90
  A 1.88 1.88 0.0 0 0 551.75 924.09
  L 564.99 924.09
  A 1.43 1.43 0.0 0 0 566.32 922.14
  L 555.34 894.13
  A 1.53 1.52 -28.1 0 1 555.90 892.31
  C 560.20 889.38 563.21 886.29 564.40 881.19
  C 566.25 873.30 566.84 862.89 562.80 855.66
  C 557.83 846.78 548.60 842.57 538.50 842.65
  Q 524.65 842.77 518.73 842.71
  Q 516.32 842.69 516.27 842.71
  Q 514.93 843.32 514.93 844.51
  Q 514.86 886.10 514.65 921.55
  Q 514.63 923.96 516.84 923.97
  Q 522.23 924.01 529.78 923.82
  A 1.64 1.63 89.5 0 0 531.38 922.18
  L 531.38 896.86
  A 0.69 0.69 0.0 0 1 532.07 896.17
  Z
  M 578.84 844.48
  L 578.57 921.84
  A 1.88 1.88 0.0 0 0 580.44 923.73
  L 604.35 923.81
  A 26.35 25.39 0.2 0 0 630.79 898.51
  L 630.89 868.17
  A 26.35 25.39 0.2 0 0 604.63 842.69
  L 580.72 842.61
  A 1.88 1.88 0.0 0 0 578.84 844.48
  Z
  M 685.41 909.41
  A 0.66 0.66 0.0 0 1 684.77 908.75
  Q 684.69 855.67 684.58 845.76
  Q 684.55 842.73 681.58 842.74
  Q 676.29 842.75 670.08 842.69
  A 2.21 2.21 0.0 0 0 667.86 844.91
  Q 668.04 879.90 667.88 920.27
  C 667.87 922.49 668.21 923.96 670.68 923.96
  Q 700.46 923.90 706.95 923.88
  A 1.80 1.80 0.0 0 0 708.75 922.05
  Q 708.70 919.46 708.52 911.99
  Q 708.45 909.34 705.38 909.41
  Q 693.57 909.65 685.41 909.41
  Z"
/>
<path fill="#f6eede" d="
  M 211.83 877.79
  A 0.23 0.23 0.0 0 0 211.39 877.86
  Q 211.35 878.81 211.47 921.28
  Q 211.48 923.98 209.02 924.02
  Q 203.87 924.12 197.88 924.08
  A 2.22 2.22 0.0 0 1 195.67 921.86
  L 195.67 844.43
  A 1.79 1.78 90.0 0 1 197.45 842.64
  L 209.29 842.64
  A 2.57 2.57 0.0 0 1 211.61 844.10
  L 228.73 879.60
  A 0.33 0.33 0.0 0 0 229.32 879.60
  L 246.30 844.13
  A 2.54 2.53 -77.2 0 1 248.59 842.68
  L 261.04 842.68
  A 2.43 2.43 0.0 0 1 263.47 845.11
  Q 263.54 881.32 263.48 921.76
  Q 263.47 924.05 260.99 924.05
  Q 256.02 924.04 250.03 923.92
  A 2.05 2.05 0.0 0 1 248.02 921.87
  L 248.02 876.41
  A 0.33 0.33 0.0 0 0 247.40 876.27
  Q 240.31 891.03 232.05 909.79
  Q 231.31 911.47 230.63 911.90
  A 2.38 2.33 61.5 0 1 227.24 910.86
  C 223.28 902.25 220.51 895.18 217.00 888.54
  Q 213.05 881.10 211.83 877.79
  Z"
/>
<path fill="#f6eede" d="
  M 361.20 908.89
  A 0.60 0.60 0.0 0 0 361.79 909.48
  Q 366.67 909.60 381.27 909.42
  Q 384.30 909.38 384.29 912.80
  Q 384.27 920.06 384.42 921.79
  A 1.46 1.44 59.5 0 1 384.18 922.74
  Q 383.29 924.07 381.50 924.06
  Q 358.30 923.92 347.27 924.12
  C 344.65 924.17 344.42 922.68 344.41 920.40
  Q 344.27 853.70 344.22 844.65
  A 1.98 1.98 0.0 0 1 346.24 842.66
  L 358.55 842.92
  A 2.35 2.34 -6.5 0 1 360.77 844.68
  Q 361.14 846.16 361.09 849.51
  Q 360.76 869.16 361.20 908.89
  Z"
/>
<path fill="#f6eede" d="
  M 474.69 842.68
  Q 479.38 842.66 482.57 842.71
  A 2.68 2.67 82.9 0 1 485.12 844.70
  Q 495.77 884.90 505.07 920.97
  Q 505.34 922.05 505.22 922.59
  A 1.75 1.75 0.0 0 1 503.50 924.03
  L 491.00 924.02
  A 2.19 2.18 82.6 0 1 488.89 922.39
  L 485.65 910.16
  A 0.71 0.70 82.5 0 0 484.97 909.63
  Q 484.00 909.62 474.93 909.66
  Q 465.85 909.69 464.88 909.70
  A 0.71 0.70 -82.9 0 0 464.21 910.24
  L 461.05 922.49
  A 2.19 2.18 -83.0 0 1 458.95 924.14
  L 446.46 924.23
  A 1.75 1.75 0.0 0 1 444.73 922.81
  Q 444.60 922.27 444.86 921.19
  Q 453.90 885.05 464.27 844.77
  A 2.68 2.67 -83.3 0 1 466.80 842.76
  Q 469.99 842.70 474.69 842.68
  Z
  M 467.44 895.18
  A 0.56 0.56 0.0 0 0 467.99 895.86
  L 481.88 895.79
  A 0.56 0.56 0.0 0 0 482.43 895.10
  L 475.32 865.71
  A 0.56 0.56 0.0 0 0 474.23 865.72
  L 467.44 895.18
  Z"
/>
<path fill="#f6eede" d="
  M 745.43 909.61
  Q 736.36 909.63 735.39 909.65
  A 0.71 0.70 -82.8 0 0 734.72 910.18
  L 731.55 922.42
  A 2.19 2.18 -82.9 0 1 729.45 924.06
  L 716.97 924.14
  A 1.75 1.75 0.0 0 1 715.24 922.71
  Q 715.12 922.17 715.38 921.09
  Q 724.46 885.00 734.88 844.78
  A 2.68 2.67 -83.3 0 1 737.41 842.78
  Q 740.60 842.72 745.29 842.71
  Q 749.98 842.70 753.16 842.74
  A 2.68 2.67 83.0 0 1 755.71 844.74
  Q 766.29 884.91 775.53 920.96
  Q 775.79 922.04 775.67 922.58
  A 1.75 1.75 0.0 0 1 773.95 924.02
  L 761.47 923.99
  A 2.19 2.18 82.7 0 1 759.36 922.36
  L 756.14 910.13
  A 0.71 0.70 82.6 0 0 755.46 909.60
  Q 754.49 909.60 745.43 909.61
  Z
  M 737.88 895.23
  A 0.55 0.55 0.0 0 0 738.43 895.90
  L 752.44 895.78
  A 0.55 0.55 0.0 0 0 752.97 895.10
  L 745.71 865.71
  A 0.55 0.55 0.0 0 0 744.64 865.72
  L 737.88 895.23
  Z"
/>
<path fill="#f6eede" d="
  M 825.57 883.05
  Q 829.65 884.55 832.49 888.28
  Q 839.24 897.19 836.21 909.24
  C 833.63 919.47 823.65 923.56 813.99 923.79
  Q 802.83 924.05 787.76 923.77
  A 1.87 1.87 0.0 0 1 785.93 921.90
  L 785.93 844.45
  A 1.82 1.82 0.0 0 1 787.75 842.63
  Q 807.43 842.71 811.23 842.84
  Q 817.20 843.05 823.92 846.28
  C 837.44 852.80 839.59 874.99 825.52 882.42
  A 0.35 0.34 40.5 0 0 825.57 883.05
  Z
  M 801.61 857.48
  L 801.57 875.18
  A 0.57 0.57 0.0 0 0 802.14 875.76
  L 809.85 875.77
  A 8.98 8.46 0.1 0 0 818.85 867.33
  L 818.85 865.41
  A 8.98 8.46 0.1 0 0 809.89 856.93
  L 802.18 856.92
  A 0.57 0.57 0.0 0 0 801.61 857.48
  Z
  M 801.57 889.57
  L 801.71 909.49
  A 0.54 0.54 0.0 0 0 802.25 910.02
  L 811.19 909.96
  A 10.28 9.88 -0.4 0 0 821.40 900.01
  L 821.40 898.77
  A 10.28 9.88 -0.4 0 0 811.05 888.96
  L 802.11 889.03
  A 0.54 0.54 0.0 0 0 801.57 889.57
  Z"
/>
<path fill="#f6eede" d="
  M 303.91 909.50
  Q 294.86 909.52 293.90 909.53
  A 0.71 0.70 -82.8 0 0 293.22 910.06
  L 290.06 922.28
  A 2.18 2.17 -82.9 0 1 287.97 923.91
  L 275.51 923.99
  A 1.75 1.74 84.5 0 1 273.78 922.57
  Q 273.66 922.03 273.92 920.95
  Q 282.99 884.94 293.38 844.80
  A 2.67 2.66 -83.3 0 1 295.91 842.80
  Q 299.09 842.74 303.77 842.73
  Q 308.45 842.72 311.63 842.77
  A 2.67 2.66 83.0 0 1 314.17 844.76
  Q 324.73 884.85 333.95 920.83
  Q 334.21 921.90 334.09 922.44
  A 1.75 1.74 -84.8 0 1 332.38 923.87
  L 319.92 923.85
  A 2.18 2.17 82.7 0 1 317.81 922.22
  L 314.60 910.02
  A 0.71 0.70 82.6 0 0 313.93 909.49
  Q 312.96 909.48 303.91 909.50
  Z
  M 296.67 895.27
  A 0.56 0.56 0.0 0 0 297.23 895.95
  L 310.99 895.83
  A 0.56 0.56 0.0 0 0 311.53 895.14
  L 304.39 865.48
  A 0.56 0.56 0.0 0 0 303.29 865.49
  L 296.67 895.27
  Z"
/>
<path fill="#f6eede" d="
  M 413.52 909.51
  Q 421.69 909.76 433.52 909.53
  Q 436.60 909.47 436.67 912.12
  Q 436.84 919.60 436.88 922.20
  A 1.80 1.80 0.0 0 1 435.08 924.03
  Q 428.58 924.04 398.75 924.06
  C 396.28 924.06 395.94 922.59 395.95 920.36
  Q 396.16 879.93 396.02 844.88
  A 2.21 2.21 0.0 0 1 398.25 842.66
  Q 404.47 842.73 409.77 842.72
  Q 412.74 842.72 412.77 845.75
  Q 412.87 855.68 412.88 908.85
  A 0.66 0.66 0.0 0 0 413.52 909.51
  Z"
/>
<path fill="#f6eede" d="
  M 532.07 896.17
  A 0.69 0.69 0.0 0 0 531.38 896.86
  L 531.38 922.18
  A 1.64 1.63 89.5 0 1 529.78 923.82
  Q 522.23 924.01 516.84 923.97
  Q 514.63 923.96 514.65 921.55
  Q 514.86 886.10 514.93 844.51
  Q 514.93 843.32 516.27 842.71
  Q 516.32 842.69 518.73 842.71
  Q 524.65 842.77 538.50 842.65
  C 548.60 842.57 557.83 846.78 562.80 855.66
  C 566.84 862.89 566.25 873.30 564.40 881.19
  C 563.21 886.29 560.20 889.38 555.90 892.31
  A 1.53 1.52 -28.1 0 0 555.34 894.13
  L 566.32 922.14
  A 1.43 1.43 0.0 0 1 564.99 924.09
  L 551.75 924.09
  A 1.88 1.88 0.0 0 1 550.00 922.90
  L 539.75 896.77
  A 0.95 0.93 -10.4 0 0 538.87 896.17
  L 532.07 896.17
  Z
  M 531.47 858.36
  L 531.39 880.72
  A 0.66 0.66 0.0 0 0 532.05 881.38
  L 539.88 881.41
  A 8.54 8.53 -89.8 0 0 548.44 872.90
  L 548.46 866.30
  A 8.54 8.53 -89.8 0 0 539.96 857.73
  L 532.13 857.70
  A 0.66 0.66 0.0 0 0 531.47 858.36
  Z"
/>
<path fill="#f6eede" d="
  M 578.84 844.48
  A 1.88 1.88 0.0 0 1 580.72 842.61
  L 604.63 842.69
  A 26.35 25.39 0.2 0 1 630.89 868.17
  L 630.79 898.51
  A 26.35 25.39 0.2 0 1 604.35 923.81
  L 580.44 923.73
  A 1.88 1.88 0.0 0 1 578.57 921.84
  L 578.84 844.48
  Z
  M 596.23 909.25
  Q 601.46 909.76 604.56 909.01
  C 611.59 907.31 613.67 899.27 613.62 892.76
  Q 613.55 882.86 613.72 873.28
  C 613.84 866.54 612.78 860.30 606.00 858.28
  C 603.37 857.49 599.14 858.08 596.15 857.93
  A 0.56 0.56 0.0 0 0 595.56 858.49
  L 595.56 908.51
  A 0.74 0.74 0.0 0 0 596.23 909.25
  Z"
/>
<path fill="#f6eede" d="
  M 685.41 909.41
  Q 693.57 909.65 705.38 909.41
  Q 708.45 909.34 708.52 911.99
  Q 708.70 919.46 708.75 922.05
  A 1.80 1.80 0.0 0 1 706.95 923.88
  Q 700.46 923.90 670.68 923.96
  C 668.21 923.96 667.87 922.49 667.88 920.27
  Q 668.04 879.90 667.86 844.91
  A 2.21 2.21 0.0 0 1 670.08 842.69
  Q 676.29 842.75 681.58 842.74
  Q 684.55 842.73 684.58 845.76
  Q 684.69 855.67 684.77 908.75
  A 0.66 0.66 0.0 0 0 685.41 909.41
  Z"
/>
<path fill="#b55e28" d="
  M 801.61 857.48
  A 0.57 0.57 0.0 0 1 802.18 856.92
  L 809.89 856.93
  A 8.98 8.46 0.1 0 1 818.85 865.41
  L 818.85 867.33
  A 8.98 8.46 0.1 0 1 809.85 875.77
  L 802.14 875.76
  A 0.57 0.57 0.0 0 1 801.57 875.18
  L 801.61 857.48
  Z"
/>
<path fill="#b55e28" d="
  M 531.47 858.36
  A 0.66 0.66 0.0 0 1 532.13 857.70
  L 539.96 857.73
  A 8.54 8.53 -89.8 0 1 548.46 866.30
  L 548.44 872.90
  A 8.54 8.53 -89.8 0 1 539.88 881.41
  L 532.05 881.38
  A 0.66 0.66 0.0 0 1 531.39 880.72
  L 531.47 858.36
  Z"
/>
<path fill="#b55e28" d="
  M 595.56 908.51
  L 595.56 858.49
  A 0.56 0.56 0.0 0 1 596.15 857.93
  C 599.14 858.08 603.37 857.49 606.00 858.28
  C 612.78 860.30 613.84 866.54 613.72 873.28
  Q 613.55 882.86 613.62 892.76
  C 613.67 899.27 611.59 907.31 604.56 909.01
  Q 601.46 909.76 596.23 909.25
  A 0.74 0.74 0.0 0 1 595.56 908.51
  Z"
/>
<path fill="#b55e28" d="
  M 296.67 895.27
  L 303.29 865.49
  A 0.56 0.56 0.0 0 1 304.39 865.48
  L 311.53 895.14
  A 0.56 0.56 0.0 0 1 310.99 895.83
  L 297.23 895.95
  A 0.56 0.56 0.0 0 1 296.67 895.27
  Z"
/>
<path fill="#b55e28" d="
  M 737.88 895.23
  L 744.64 865.72
  A 0.55 0.55 0.0 0 1 745.71 865.71
  L 752.97 895.10
  A 0.55 0.55 0.0 0 1 752.44 895.78
  L 738.43 895.90
  A 0.55 0.55 0.0 0 1 737.88 895.23
  Z"
/>
<path fill="#b55e28" d="
  M 467.44 895.18
  L 474.23 865.72
  A 0.56 0.56 0.0 0 1 475.32 865.71
  L 482.43 895.10
  A 0.56 0.56 0.0 0 1 481.88 895.79
  L 467.99 895.86
  A 0.56 0.56 0.0 0 1 467.44 895.18
  Z"
/>
<path fill="#b55e28" d="
  M 801.57 889.57
  A 0.54 0.54 0.0 0 1 802.11 889.03
  L 811.05 888.96
  A 10.28 9.88 -0.4 0 1 821.40 898.77
  L 821.40 900.01
  A 10.28 9.88 -0.4 0 1 811.19 909.96
  L 802.25 910.02
  A 0.54 0.54 0.0 0 1 801.71 909.49
  L 801.57 889.57
  Z"
/>
</svg>
