<?xml version="1.0" encoding="UTF-8" standalone="no"?>
<!DOCTYPE svg PUBLIC "-//W3C//DTD SVG 1.1//EN" "http://www.w3.org/Graphics/SVG/1.1/DTD/svg11.dtd">
<svg xmlns="http://www.w3.org/2000/svg" version="1.1" viewBox="0.00 0.00 1773.00 1773.00">
<g stroke-width="2.00" fill="none" stroke-linecap="butt">
<path stroke="#46694e" vector-effect="non-scaling-stroke" d="
  M 198.28 942.66
  Q 199.44 958.25 201.32 970.23
  Q 202.11 975.24 206.23 999.38
  C 210.46 1024.16 216.56 1047.31 223.53 1072.29
  Q 224.83 1076.95 229.77 1090.45
  Q 231.51 1095.23 234.69 1105.40
  Q 236.99 1112.76 239.99 1120.26
  Q 246.72 1137.05 255.74 1157.52
  Q 261.11 1169.70 265.20 1177.42
  Q 270.95 1188.29 275.18 1196.97
  Q 281.43 1209.80 291.12 1225.70
  Q 303.50 1246.02 316.52 1265.00
  Q 319.24 1268.97 319.44 1269.26
  Q 331.26 1285.65 349.13 1308.23
  C 356.59 1317.64 365.44 1327.04 373.94 1337.06
  Q 381.33 1345.77 408.63 1372.49
  C 424.51 1388.04 441.18 1402.60 458.07 1416.06
  Q 458.80 1416.64 464.39 1421.56
  Q 466.73 1423.62 471.01 1426.74
  Q 480.34 1433.52 489.56 1440.17
  C 495.17 1444.21 502.01 1448.40 508.02 1452.69
  C 513.28 1456.44 518.19 1459.06 523.06 1462.75
  C 530.76 1468.59 543.16 1474.70 549.06 1478.38
  C 557.35 1483.54 561.96 1485.50 572.39 1490.74
  C 579.07 1494.09 587.08 1499.01 593.68 1502.09
  Q 608.72 1509.10 635.83 1520.19
  C 643.38 1523.28 651.26 1525.79 657.35 1528.26
  Q 665.43 1531.54 673.57 1533.99
  C 681.95 1536.51 690.03 1540.12 698.03 1542.32
  Q 727.36 1550.37 740.39 1553.11
  Q 750.67 1555.28 765.57 1558.39
  C 774.83 1560.33 784.25 1561.25 792.27 1562.71
  C 805.89 1565.20 815.68 1565.72 836.73 1567.39
  Q 852.98 1568.67 868.04 1568.72
  Q 900.30 1568.82 912.50 1568.27
  C 935.11 1567.23 960.09 1565.32 984.19 1561.76
  Q 1001.74 1559.17 1003.62 1558.86
  C 1016.52 1556.68 1029.06 1554.15 1043.92 1550.36
  Q 1070.97 1543.46 1073.47 1542.69
  C 1080.00 1540.70 1084.48 1539.68 1090.39 1537.51
  Q 1094.92 1535.84 1121.27 1527.04
  C 1125.14 1525.75 1129.60 1523.39 1132.82 1522.34
  Q 1141.87 1519.39 1155.06 1513.60
  Q 1155.18 1513.54 1159.04 1512.00
  Q 1162.58 1510.58 1176.36 1504.37
  C 1188.96 1498.70 1197.18 1493.92 1212.62 1485.97
  C 1237.29 1473.26 1258.35 1459.57 1280.58 1444.60
  Q 1287.30 1440.07 1296.20 1433.62
  C 1305.26 1427.05 1313.03 1422.17 1320.86 1414.81
  Q 1324.65 1411.24 1329.92 1407.02
  C 1351.27 1389.93 1371.07 1370.85 1389.92 1351.17
  Q 1395.47 1345.37 1417.10 1321.09
  Q 1426.44 1310.62 1435.70 1298.33
  Q 1451.46 1277.43 1453.27 1274.76
  Q 1463.21 1260.04 1466.09 1255.93
  C 1477.04 1240.26 1485.59 1224.93 1495.86 1206.58
  Q 1501.04 1197.33 1504.59 1189.61
  C 1509.39 1179.17 1515.60 1167.72 1520.73 1155.98
  Q 1526.26 1143.33 1527.63 1139.14
  Q 1530.52 1130.28 1535.14 1120.32
  C 1536.81 1116.72 1537.51 1114.49 1539.11 1109.92
  Q 1550.94 1076.14 1561.04 1035.80
  C 1565.31 1018.74 1567.66 1005.38 1570.98 986.66
  C 1573.21 974.10 1574.84 958.94 1576.38 946.57
  Q 1576.56 945.07 1576.00 942.71"
/>
<path stroke="#46694e" vector-effect="non-scaling-stroke" d="
  M 1284.51 942.88
  Q 1291.69 962.11 1297.18 982.14
  C 1298.96 988.63 1299.89 994.98 1301.18 1001.12
  C 1304.06 1014.83 1305.07 1028.60 1305.27 1043.13
  Q 1305.49 1058.29 1303.47 1070.76
  C 1299.42 1095.73 1293.01 1120.64 1281.74 1142.92
  Q 1274.43 1157.37 1269.99 1164.27
  Q 1263.32 1174.63 1254.59 1184.48
  A 0.66 0.65 35.3 0 0 1254.77 1185.48
  Q 1255.13 1185.68 1256.00 1185.75
  Q 1294.50 1188.92 1298.08 1189.11
  Q 1300.81 1189.26 1306.43 1189.96
  C 1313.11 1190.79 1320.21 1191.19 1327.24 1192.33
  Q 1341.74 1194.67 1357.06 1198.18
  Q 1362.73 1199.48 1369.93 1202.10
  Q 1375.66 1204.18 1379.76 1209.23
  C 1382.44 1212.53 1380.76 1216.84 1377.87 1219.39
  Q 1371.97 1224.62 1369.62 1226.10
  Q 1367.51 1227.43 1357.95 1232.41
  Q 1352.87 1235.07 1345.76 1237.56
  Q 1318.73 1247.05 1301.73 1251.20
  Q 1271.89 1258.47 1265.77 1259.79
  Q 1226.61 1268.22 1213.02 1271.13
  C 1201.12 1273.68 1186.73 1275.64 1177.65 1277.52
  C 1169.07 1279.29 1162.68 1279.85 1154.41 1281.33
  Q 1149.40 1282.24 1136.92 1283.78
  Q 1126.95 1285.02 1106.00 1287.92
  Q 1097.49 1289.10 1053.92 1293.47
  C 1034.71 1295.40 1017.21 1295.85 997.19 1297.55
  Q 997.05 1297.56 972.25 1298.98
  Q 958.21 1299.78 929.25 1299.98
  Q 878.22 1300.33 830.50 1299.91
  Q 786.38 1299.52 725.91 1294.95
  C 718.16 1294.37 711.86 1293.00 703.28 1292.20
  Q 667.03 1288.80 624.88 1282.44
  Q 612.02 1280.50 601.04 1278.36
  C 584.10 1275.06 569.69 1273.35 552.86 1269.26
  Q 537.13 1265.44 520.29 1261.96
  Q 503.73 1258.54 495.80 1256.61
  Q 476.32 1251.86 471.52 1250.43
  Q 457.44 1246.21 445.63 1242.95
  C 438.63 1241.02 433.82 1239.14 427.46 1237.43
  Q 423.34 1236.32 413.96 1232.95
  Q 409.09 1231.20 396.62 1227.25
  C 390.78 1225.39 385.50 1223.28 379.02 1221.19
  Q 368.65 1217.86 349.61 1211.16
  Q 335.20 1206.09 323.06 1196.97
  Q 322.31 1196.40 322.09 1195.68
  A 0.71 0.71 0.0 0 1 322.79 1194.76
  C 331.05 1195.04 339.97 1193.65 348.79 1193.21
  Q 356.93 1192.80 380.30 1191.34
  C 388.02 1190.86 395.11 1190.94 402.10 1190.31
  Q 407.80 1189.80 418.41 1189.46
  Q 433.81 1188.97 445.56 1187.98
  C 449.57 1187.65 454.41 1187.77 458.35 1187.53
  A 0.64 0.64 0.0 0 0 458.73 1186.41
  Q 450.59 1179.48 443.65 1171.11
  Q 439.00 1165.50 435.61 1161.63
  C 430.74 1156.09 424.30 1149.51 418.78 1142.53
  Q 413.14 1135.42 402.34 1122.01
  Q 390.75 1107.62 365.22 1072.09
  C 363.48 1069.68 361.28 1067.24 359.73 1064.86
  Q 353.06 1054.64 347.30 1047.29
  C 345.13 1044.53 342.55 1040.02 340.16 1037.43
  C 338.42 1035.53 336.11 1031.18 334.19 1028.69
  Q 323.02 1014.23 313.11 998.66
  C 308.96 992.14 305.90 987.88 301.85 980.93
  Q 299.89 977.55 296.41 972.33
  Q 286.74 957.83 278.46 942.41"
/>
<path stroke="#98a27c" vector-effect="non-scaling-stroke" d="
  M 1441.12 942.44
  L 1409.95 942.38"
/>
<path stroke="#8a906c" vector-effect="non-scaling-stroke" d="
  M 915.54 748.72
  Q 915.98 750.74 916.20 751.31
  Q 920.43 762.60 924.54 773.95
  Q 925.07 775.42 930.75 787.89
  C 931.86 790.32 932.88 790.94 935.40 791.65
  Q 947.55 795.07 949.77 795.47
  Q 969.38 799.01 981.99 800.06
  Q 1008.58 802.29 1038.99 799.96
  Q 1061.41 798.24 1089.38 791.67
  C 1099.24 789.35 1111.83 785.04 1121.08 782.39
  A 0.38 0.38 0.0 0 0 1121.24 781.76
  Q 1111.95 772.58 1105.34 764.64
  Q 1098.42 756.34 1092.18 747.90"
/>
<path stroke="#46694e" vector-effect="non-scaling-stroke" d="
  M 1092.18 747.90
  Q 1091.02 746.60 1090.19 745.13
  Q 1088.54 742.26 1088.49 742.19
  Q 1079.91 729.39 1074.51 717.04
  Q 1069.04 704.54 1068.69 692.58
  Q 1068.19 675.43 1080.35 664.15
  Q 1084.63 660.19 1092.61 656.11
  Q 1101.29 651.67 1105.90 649.89
  Q 1121.97 643.71 1135.80 633.30
  Q 1141.85 628.76 1145.33 624.63
  C 1148.67 620.66 1153.33 616.36 1156.26 611.54
  C 1160.85 603.97 1165.36 597.30 1168.34 587.96
  Q 1170.65 580.71 1172.74 568.52
  Q 1174.88 556.03 1174.20 542.26
  Q 1173.16 521.20 1168.57 501.87
  Q 1164.19 483.42 1152.65 466.63
  Q 1140.95 449.59 1125.43 438.33
  Q 1121.70 435.63 1116.06 432.68
  Q 1105.27 427.04 1095.30 423.71
  Q 1073.11 416.29 1049.24 414.03
  C 1027.57 411.97 1005.84 414.66 985.12 422.04
  C 974.40 425.86 964.57 429.81 956.01 435.53
  C 948.56 440.50 939.64 446.83 932.35 453.96
  Q 920.07 465.97 910.48 479.97
  Q 909.11 481.99 903.85 491.37
  Q 900.13 498.03 897.99 503.15
  Q 880.78 544.37 881.73 588.25
  Q 882.30 614.59 884.64 629.66
  Q 888.83 656.68 897.91 692.11
  Q 901.13 704.69 904.76 715.31
  C 908.27 725.59 911.08 736.18 914.86 747.62
  Q 915.08 748.31 915.54 748.72"
/>
<path stroke="#98a27c" vector-effect="non-scaling-stroke" d="
  M 1092.18 747.90
  Q 1059.13 758.16 1025.48 759.88
  Q 1006.40 760.86 983.06 759.29
  Q 959.49 757.71 941.02 754.04
  Q 927.91 751.45 919.12 749.50
  Q 918.22 749.30 915.87 748.37
  A 0.19 0.19 0.0 0 0 915.64 748.43
  Q 915.56 748.54 915.54 748.72"
/>
<path stroke="#8a906c" vector-effect="non-scaling-stroke" d="
  M 1153.62 648.08
  Q 1170.07 652.64 1183.02 655.71
  Q 1209.17 661.90 1241.77 669.71
  C 1274.50 677.55 1305.47 681.64 1337.84 680.16
  C 1346.65 679.75 1354.78 678.24 1364.73 676.18
  Q 1371.27 674.82 1376.73 672.55
  C 1381.63 670.51 1386.08 668.91 1389.53 665.53
  C 1393.36 661.77 1389.72 657.22 1386.12 655.11
  Q 1379.80 651.41 1373.20 649.29
  Q 1361.74 645.63 1338.62 638.13
  Q 1325.73 633.95 1313.63 628.67
  Q 1297.17 621.49 1289.22 617.73
  Q 1266.63 607.07 1243.97 592.02
  Q 1234.06 585.44 1227.73 579.83
  Q 1217.11 570.40 1212.63 565.80
  Q 1205.53 558.53 1198.96 548.54
  A 0.50 0.50 0.0 0 0 1198.04 548.82
  C 1198.15 554.05 1198.41 560.05 1197.84 565.71
  Q 1196.34 580.69 1192.33 594.82
  C 1189.01 606.52 1183.37 616.69 1176.42 626.43
  Q 1170.71 634.43 1165.06 639.06
  Q 1160.09 643.14 1153.54 647.57
  A 0.29 0.29 0.0 0 0 1153.62 648.08"
/>
<path stroke="#8a906c" vector-effect="non-scaling-stroke" d="
  M 656.72 967.67
  C 664.32 970.62 668.41 972.04 674.07 974.96
  C 686.80 981.51 700.86 990.46 712.54 1000.26
  C 721.04 1007.39 729.21 1013.45 737.17 1020.93
  Q 742.26 1025.72 748.90 1031.41
  A 1.33 1.33 0.0 0 0 750.69 1031.36
  Q 778.52 1004.65 807.12 980.42
  C 816.13 972.80 826.60 965.02 835.91 958.18
  Q 846.16 950.66 863.02 941.30
  Q 878.62 932.64 896.60 927.81
  Q 934.85 917.54 975.14 928.08
  Q 987.72 931.37 998.43 936.61
  Q 1003.14 938.92 1011.17 942.80
  C 1029.07 951.43 1044.93 964.44 1058.88 980.12
  Q 1073.76 996.85 1084.72 1015.65
  A 0.35 0.34 -63.8 0 0 1085.36 1015.43
  Q 1084.06 1005.03 1082.16 995.54
  Q 1080.48 987.14 1075.91 975.33
  Q 1067.01 952.33 1052.83 929.26
  Q 1041.71 911.15 1029.56 897.93
  Q 1016.71 883.95 1001.09 871.23
  C 991.28 863.25 979.55 856.03 968.43 849.32
  Q 961.82 845.34 948.80 839.45
  Q 927.37 829.78 906.19 823.42
  Q 876.04 814.37 837.42 810.14
  C 802.44 806.32 767.01 805.15 732.50 808.74
  Q 712.70 810.80 701.75 812.49
  Q 689.56 814.38 671.22 818.52
  Q 655.05 822.16 631.19 829.75
  Q 611.68 835.95 572.70 850.82
  Q 548.36 860.10 540.56 862.67
  Q 519.29 869.68 507.80 872.77
  Q 484.31 879.09 463.73 882.39
  Q 450.23 884.56 431.25 885.96
  Q 413.15 887.30 397.81 886.56
  C 393.22 886.34 388.80 885.66 384.66 884.81
  A 0.36 0.36 0.0 0 0 384.37 885.44
  Q 393.34 892.68 402.98 899.27
  C 413.17 906.24 425.33 911.82 436.73 916.93
  Q 443.94 920.16 453.39 923.35
  Q 469.42 928.76 470.27 929.00
  Q 524.60 943.94 576.51 942.20
  Q 623.97 940.61 670.89 922.79
  C 682.47 918.39 698.42 910.75 710.24 906.28
  Q 719.03 902.96 739.70 895.99
  C 767.81 886.51 797.21 880.08 827.00 879.89
  Q 843.58 879.78 853.24 880.49
  Q 893.59 883.43 930.06 900.51
  A 0.36 0.36 0.0 0 1 929.90 901.19
  C 898.50 900.64 867.21 901.75 835.29 906.64
  Q 817.72 909.34 805.36 912.60
  Q 771.69 921.51 738.64 935.63
  Q 714.83 945.81 713.87 946.26
  Q 713.24 946.55 686.99 957.12
  C 677.21 961.06 667.12 964.14 656.74 967.29
  A 0.20 0.20 0.0 0 0 656.72 967.67"
/>
<path stroke="#8a906c" vector-effect="non-scaling-stroke" d="
  M 946.76 959.19
  L 946.76 1131.57
  A 0.61 0.61 0.0 0 0 947.46 1132.17
  Q 952.07 1131.52 961.81 1129.94
  C 971.83 1128.33 980.01 1125.70 989.55 1122.47
  A 1.26 1.24 -9.5 0 0 990.40 1121.29
  L 990.40 970.61
  A 2.47 2.46 -79.4 0 0 988.83 968.31
  Q 968.40 960.45 947.25 958.75
  A 0.45 0.44 2.4 0 0 946.76 959.19"
/>
<path stroke="#8a906c" vector-effect="non-scaling-stroke" d="
  M 920.42 960.23
  A 0.57 0.56 -3.6 0 0 919.78 959.67
  Q 901.78 962.15 884.81 969.08
  Q 881.08 970.61 878.41 972.44
  A 4.13 4.12 72.6 0 0 876.64 975.83
  L 876.64 1122.20
  A 0.97 0.95 -77.4 0 0 877.18 1123.07
  Q 884.44 1126.52 892.23 1128.26
  Q 906.05 1131.35 919.19 1132.46
  A 1.14 1.13 2.3 0 0 920.42 1131.33
  L 920.42 960.23"
/>
<path stroke="#8a906c" vector-effect="non-scaling-stroke" d="
  M 524.13 1034.57
  Q 499.90 1034.08 473.25 1029.74
  Q 446.29 1025.35 422.58 1019.13
  Q 399.27 1013.01 371.17 1002.85
  Q 365.21 1000.70 360.40 997.58
  A 0.37 0.37 0.0 0 0 359.83 997.82
  Q 359.74 998.29 360.04 998.72
  Q 379.52 1026.33 392.76 1044.76
  C 397.57 1051.46 402.72 1059.82 408.62 1067.94
  Q 413.63 1074.84 420.96 1085.82
  Q 422.83 1088.62 439.33 1111.71
  Q 442.87 1116.66 458.53 1135.26
  Q 469.66 1148.48 479.18 1157.58
  C 496.82 1174.46 514.10 1188.58 533.69 1200.75
  Q 547.96 1209.63 550.69 1211.05
  C 571.97 1222.22 592.02 1231.21 613.39 1237.30
  Q 636.83 1243.99 658.96 1247.27
  Q 686.78 1251.40 699.51 1252.12
  Q 748.05 1254.85 813.01 1256.17
  Q 874.05 1257.41 930.25 1255.48
  Q 967.95 1254.18 1001.52 1251.46
  C 1016.38 1250.25 1031.08 1248.39 1044.38 1247.32
  A 4.87 4.80 22.9 0 0 1047.04 1246.26
  C 1067.01 1230.17 1085.22 1211.07 1099.93 1189.21
  C 1110.19 1173.96 1119.44 1156.59 1125.34 1138.86
  Q 1129.25 1127.11 1131.38 1117.46
  Q 1136.90 1092.35 1134.83 1067.38
  Q 1133.09 1046.35 1125.75 1021.61
  Q 1119.14 999.33 1107.81 978.52
  A 0.38 0.38 0.0 0 0 1107.10 978.79
  Q 1112.99 1004.05 1109.95 1030.91
  Q 1109.54 1034.57 1108.55 1039.47
  C 1105.79 1053.11 1101.48 1065.73 1094.53 1078.07
  C 1086.61 1092.12 1077.52 1104.87 1066.35 1115.10
  C 1061.05 1119.95 1054.67 1125.49 1049.48 1129.16
  Q 1032.60 1141.06 1014.07 1148.53
  Q 981.57 1161.61 947.85 1163.55
  C 891.76 1166.77 835.37 1150.23 790.53 1115.78
  Q 781.99 1109.22 774.91 1102.42
  C 763.28 1091.25 757.83 1086.71 750.70 1078.31
  A 0.96 0.96 0.0 0 0 749.27 1078.28
  Q 735.33 1093.18 718.35 1106.87
  Q 708.79 1114.59 702.28 1118.60
  C 690.93 1125.60 678.22 1132.56 665.53 1136.16
  C 649.02 1140.85 631.84 1143.99 615.11 1142.47
  C 596.70 1140.79 579.45 1135.15 564.34 1122.74
  Q 548.93 1110.09 540.42 1092.85
  A 0.29 0.28 1.9 0 1 540.82 1092.48
  Q 551.84 1098.91 565.84 1104.16
  Q 566.80 1104.52 568.94 1105.89
  A 0.46 0.45 -73.8 0 0 569.64 1105.50
  L 569.64 981.65
  A 0.56 0.56 0.0 0 0 569.11 981.09
  Q 546.94 979.89 523.76 977.43
  C 506.02 975.54 486.32 970.99 469.55 967.42
  A 0.35 0.35 0.0 0 0 469.17 967.92
  C 478.14 985.76 490.05 1000.41 504.82 1015.26
  Q 513.25 1023.73 524.32 1034.12
  A 0.26 0.26 0.0 0 1 524.13 1034.57"
/>
<path stroke="#8a906c" vector-effect="non-scaling-stroke" d="
  M 594.08 982.86
  L 594.08 1113.39
  A 1.82 1.82 0.0 0 0 595.71 1115.20
  Q 610.81 1116.82 625.93 1114.41
  Q 630.45 1113.69 634.19 1112.31
  A 1.62 1.61 83.4 0 0 635.25 1110.96
  Q 635.53 1108.54 635.58 1102.23
  Q 635.78 1078.08 635.60 1004.00
  Q 635.58 996.95 635.28 991.30
  A 1.22 1.21 -83.1 0 0 634.43 990.21
  C 621.23 986.08 608.37 982.81 594.91 982.07
  A 0.79 0.79 0.0 0 0 594.08 982.86"
/>
<path stroke="#8a906c" vector-effect="non-scaling-stroke" d="
  M 1017.89 985.52
  A 0.37 0.37 0.0 0 0 1017.31 985.82
  L 1017.31 1107.27
  A 0.92 0.92 0.0 0 0 1018.76 1108.03
  C 1040.53 1092.83 1058.20 1074.23 1069.72 1050.14
  A 3.18 3.18 0.0 0 0 1069.70 1047.35
  C 1059.98 1027.71 1045.68 1009.72 1030.11 995.12
  Q 1025.66 990.95 1017.89 985.52"
/>
<path stroke="#8a906c" vector-effect="non-scaling-stroke" d="
  M 851.59 1113.42
  L 851.59 989.16
  A 0.59 0.58 -7.6 0 0 850.85 988.60
  Q 849.93 988.84 848.58 989.83
  Q 820.17 1010.84 795.48 1033.99
  Q 776.85 1051.46 774.15 1054.33
  A 1.39 1.38 -50.4 0 0 774.34 1056.39
  Q 775.98 1057.58 776.72 1058.28
  Q 787.96 1068.81 803.18 1081.82
  Q 815.39 1092.25 839.16 1107.46
  Q 843.65 1110.33 851.09 1113.74
  A 0.35 0.35 0.0 0 0 851.59 1113.42"
/>
<path stroke="#8a906c" vector-effect="non-scaling-stroke" d="
  M 660.95 1005.02
  L 660.95 1100.80
  A 0.37 0.37 0.0 0 0 661.52 1101.11
  C 665.44 1098.55 670.49 1096.46 674.12 1094.22
  Q 691.00 1083.82 707.61 1070.61
  Q 716.33 1063.68 724.52 1055.46
  A 0.49 0.48 -46.2 0 0 724.51 1054.76
  Q 694.97 1026.87 661.52 1004.71
  A 0.37 0.37 0.0 0 0 660.95 1005.02"
/>
<path stroke="#46694e" vector-effect="non-scaling-stroke" d="
  M 1052.5285 512.6785
  A 29.38 28.91 -164.5 0 0 1073.1141 548.3886
  A 29.38 28.91 -164.5 0 0 1109.1515 528.3815
  A 29.38 28.91 -164.5 0 0 1088.5659 492.6714
  A 29.38 28.91 -164.5 0 0 1052.5285 512.6785"
/>
<path stroke="#8a906c" vector-effect="non-scaling-stroke" d="
  M 1245.11 625.79
  C 1251.97 623.73 1252.22 617.77 1248.24 613.02
  Q 1242.70 606.42 1233.86 599.91
  C 1230.29 597.29 1224.80 594.47 1221.32 597.44
  Q 1219.04 599.38 1218.72 602.77
  C 1217.63 614.06 1226.08 621.21 1236.19 625.03
  C 1238.32 625.83 1243.39 626.30 1245.11 625.79"
/>
<path stroke="#46694e" vector-effect="non-scaling-stroke" d="
  M 509.34 1330.01
  C 510.10 1332.47 513.39 1335.23 515.26 1336.48
  C 525.52 1343.31 534.59 1347.71 547.27 1353.03
  Q 554.97 1356.26 561.92 1358.08
  Q 593.72 1366.42 616.77 1367.75
  Q 617.79 1367.81 625.61 1368.47
  Q 634.31 1369.21 634.45 1369.22
  Q 657.21 1370.82 683.18 1373.99
  C 705.29 1376.69 732.50 1382.85 751.34 1386.25
  C 762.81 1388.33 771.64 1389.55 782.14 1391.58
  Q 783.68 1391.88 795.38 1393.29
  C 805.43 1394.50 824.22 1396.61 838.57 1397.47
  Q 868.38 1399.24 896.02 1398.35
  Q 937.23 1397.02 977.05 1392.20
  C 981.78 1391.62 986.39 1390.55 991.71 1389.80
  C 1001.21 1388.48 1008.63 1386.77 1021.01 1384.26
  C 1026.80 1383.09 1033.38 1381.37 1038.31 1380.01
  Q 1042.07 1378.98 1051.44 1377.58
  Q 1056.39 1376.84 1063.19 1375.57
  C 1068.26 1374.62 1072.44 1374.25 1078.45 1373.66
  Q 1085.34 1372.98 1089.94 1372.78
  Q 1121.36 1371.39 1154.10 1366.77
  Q 1167.89 1364.82 1176.04 1362.73
  Q 1185.44 1360.31 1194.15 1357.60
  Q 1210.68 1352.45 1227.44 1343.66
  Q 1236.95 1338.68 1244.27 1331.41
  A 1.65 1.63 -38.5 0 0 1244.51 1329.37
  Q 1244.10 1328.72 1242.22 1328.24
  Q 1240.66 1327.85 1239.50 1327.87
  C 1228.85 1328.06 1217.21 1328.69 1204.28 1329.98
  C 1180.53 1332.34 1155.89 1333.79 1131.08 1333.24
  Q 1121.99 1333.04 1099.25 1332.90
  Q 1090.38 1332.85 1075.54 1334.29
  Q 1053.98 1336.38 1037.25 1339.74
  Q 1018.64 1343.49 1008.29 1345.65
  C 999.91 1347.41 993.09 1348.08 985.27 1349.51
  Q 977.55 1350.91 967.95 1351.91
  Q 933.80 1355.46 907.50 1356.29
  Q 891.19 1356.81 850.88 1355.94
  Q 836.34 1355.62 824.63 1354.60
  Q 808.25 1353.17 798.44 1352.34
  Q 787.49 1351.42 751.21 1345.31
  C 744.94 1344.26 736.65 1342.11 729.99 1341.30
  Q 728.67 1341.14 714.11 1338.38
  C 692.68 1334.31 670.46 1332.72 648.52 1332.44
  Q 615.21 1332.02 582.00 1331.49
  Q 565.45 1331.22 548.85 1329.96
  C 534.56 1328.87 523.77 1328.65 510.38 1328.61
  A 1.09 1.08 -8.5 0 0 509.34 1330.01"
/>
<path stroke="#46694e" vector-effect="non-scaling-stroke" d="
  M 1121.15 1423.30
  Q 1117.51 1423.09 1108.77 1422.03
  C 1105.20 1421.60 1102.41 1421.74 1097.76 1421.77
  Q 1092.69 1421.81 1089.51 1422.21
  C 1081.85 1423.16 1072.67 1423.40 1063.51 1424.84
  Q 1038.90 1428.71 1035.63 1429.38
  Q 1014.58 1433.68 995.22 1436.83
  C 991.94 1437.37 987.78 1438.46 984.65 1438.87
  C 970.55 1440.72 952.97 1443.16 937.34 1444.49
  Q 862.09 1450.84 789.52 1440.22
  Q 771.34 1437.56 733.27 1429.36
  Q 724.18 1427.40 718.25 1425.95
  C 696.47 1420.62 672.07 1418.10 650.12 1421.11
  Q 648.09 1421.39 646.71 1422.30
  A 0.95 0.95 0.0 0 0 646.37 1423.49
  C 649.06 1429.51 656.47 1434.64 662.13 1438.13
  C 678.93 1448.52 697.66 1454.77 716.42 1461.37
  Q 725.16 1464.44 735.50 1467.45
  Q 748.43 1471.23 754.82 1472.90
  Q 767.84 1476.29 786.91 1479.56
  Q 798.69 1481.57 801.88 1481.87
  C 815.05 1483.09 826.13 1484.93 839.61 1485.31
  Q 862.49 1485.97 883.28 1485.79
  Q 926.61 1485.43 969.45 1479.48
  C 978.37 1478.25 985.97 1476.43 993.86 1475.34
  Q 1000.86 1474.37 1012.06 1471.61
  Q 1032.13 1466.66 1044.27 1463.09
  C 1052.21 1460.75 1062.20 1457.19 1067.42 1455.37
  Q 1075.72 1452.48 1085.54 1447.87
  Q 1099.04 1441.54 1103.06 1439.10
  Q 1113.42 1432.82 1121.37 1423.83
  A 0.32 0.32 0.0 0 0 1121.15 1423.30"
/>
</g>
<path fill="#37573e" d="
  M 1472.93 1320.09
  C 1469.21 1324.45 1466.03 1329.12 1462.17 1333.93
  Q 1446.24 1353.72 1426.69 1374.72
  C 1398.61 1404.89 1368.10 1432.02 1335.15 1457.76
  Q 1307.91 1479.03 1282.98 1494.37
  Q 1250.11 1514.58 1227.74 1526.22
  Q 1226.33 1526.95 1193.92 1542.78
  Q 1181.50 1548.84 1169.41 1553.69
  C 1155.98 1559.08 1147.85 1562.72 1136.13 1566.85
  Q 1109.98 1576.06 1082.26 1584.46
  Q 1075.96 1586.37 1043.67 1594.10
  Q 1034.97 1596.19 1008.74 1600.77
  Q 988.96 1604.23 973.55 1605.94
  Q 912.11 1612.79 850.00 1610.10
  Q 841.30 1609.72 826.58 1608.44
  Q 805.89 1606.63 803.22 1606.30
  Q 797.05 1605.55 773.89 1602.27
  Q 760.93 1600.43 744.76 1596.98
  Q 719.89 1591.67 700.91 1586.90
  Q 693.98 1585.16 686.23 1582.70
  Q 672.40 1578.30 671.66 1578.10
  Q 659.62 1574.81 649.16 1571.10
  Q 619.88 1560.69 592.67 1548.62
  Q 585.53 1545.46 571.58 1538.47
  C 556.41 1530.88 541.50 1523.85 528.23 1515.85
  C 519.21 1510.41 509.15 1505.11 498.90 1498.68
  C 480.71 1487.28 461.70 1474.77 444.57 1461.11
  Q 439.03 1456.69 424.87 1445.89
  Q 422.07 1443.75 402.14 1426.50
  Q 390.07 1416.05 380.09 1406.16
  Q 351.84 1378.17 350.49 1376.53
  C 342.21 1366.50 324.94 1348.65 314.96 1335.86
  C 308.24 1327.25 300.13 1317.74 292.81 1307.76
  C 273.89 1281.99 256.45 1254.25 240.58 1225.49
  Q 230.41 1207.06 214.15 1171.96
  C 209.17 1161.20 202.44 1143.31 198.09 1132.22
  Q 192.88 1118.97 183.17 1086.90
  Q 172.45 1051.49 166.26 1018.59
  C 163.53 1004.08 161.14 992.71 158.96 979.02
  Q 150.18 924.01 150.75 864.75
  Q 151.26 811.46 157.51 765.51
  Q 159.15 753.43 163.87 728.82
  Q 175.83 666.51 199.13 606.09
  Q 201.99 598.66 205.92 589.81
  C 209.08 582.67 211.62 575.80 215.24 568.19
  Q 232.07 532.82 240.66 517.89
  C 247.81 505.46 254.25 493.69 261.86 481.98
  Q 271.40 467.29 275.77 460.59
  C 281.19 452.28 287.23 445.03 292.75 437.09
  C 297.66 430.05 301.25 425.82 308.91 416.11
  C 315.83 407.34 323.37 398.99 329.23 391.81
  C 337.50 381.68 345.80 373.55 356.69 362.37
  Q 366.97 351.83 373.19 346.01
  C 381.69 338.06 387.61 331.73 395.70 324.79
  Q 417.75 305.89 426.38 299.13
  Q 441.67 287.17 462.28 272.54
  Q 468.17 268.36 474.67 264.36
  C 486.30 257.19 498.97 248.57 509.21 242.70
  Q 520.20 236.40 538.22 226.65
  Q 555.79 217.15 567.84 211.73
  Q 584.95 204.03 607.67 194.40
  C 635.56 182.58 666.43 173.16 696.74 164.77
  Q 718.68 158.70 745.01 153.80
  C 780.93 147.11 817.74 142.26 854.21 140.87
  C 907.77 138.82 961.78 141.97 1014.56 151.38
  Q 1044.14 156.66 1049.37 157.88
  Q 1077.61 164.51 1092.50 168.80
  Q 1107.19 173.04 1122.96 178.12
  Q 1144.67 185.12 1167.71 194.17
  Q 1186.23 201.44 1201.78 208.80
  Q 1222.01 218.37 1235.04 225.23
  Q 1236.26 225.88 1256.36 236.70
  Q 1266.36 242.08 1277.35 248.78
  Q 1298.24 261.52 1312.94 271.84
  C 1321.51 277.87 1334.07 286.50 1344.11 294.43
  Q 1358.50 305.80 1367.43 313.36
  Q 1380.71 324.60 1404.04 346.38
  C 1412.80 354.56 1418.79 361.39 1428.88 371.87
  C 1441.10 384.55 1450.59 395.93 1465.54 414.34
  Q 1475.71 426.86 1482.45 436.15
  Q 1499.15 459.18 1503.13 465.62
  Q 1509.43 475.81 1513.93 482.82
  C 1521.18 494.13 1525.63 502.90 1532.34 514.24
  Q 1534.93 518.60 1539.85 528.48
  C 1545.92 540.64 1551.41 551.15 1556.22 561.84
  Q 1570.86 594.41 1582.53 626.60
  Q 1587.13 639.30 1591.32 652.74
  Q 1594.52 663.01 1598.82 679.31
  C 1601.60 689.85 1603.77 697.35 1605.49 705.61
  Q 1611.44 734.26 1613.96 749.26
  Q 1614.67 753.52 1618.52 781.69
  C 1620.89 799.04 1622.26 821.88 1622.85 833.52
  Q 1624.87 872.80 1622.72 913.49
  C 1622.21 922.99 1621.23 931.44 1620.71 941.01
  Q 1620.51 944.75 1619.71 952.00
  Q 1615.55 989.75 1608.67 1023.97
  C 1602.52 1054.57 1594.33 1082.31 1584.20 1113.73
  Q 1579.11 1129.54 1572.80 1144.84
  Q 1559.39 1177.35 1550.02 1196.08
  C 1544.51 1207.10 1536.38 1222.71 1528.66 1235.81
  Q 1515.53 1258.12 1501.82 1279.13
  C 1493.44 1291.98 1486.39 1301.42 1475.93 1316.27
  Q 1474.77 1317.93 1472.93 1320.09
  Z
  M 198.28 942.66
  Q 199.44 958.25 201.32 970.23
  Q 202.11 975.24 206.23 999.38
  C 210.46 1024.16 216.56 1047.31 223.53 1072.29
  Q 224.83 1076.95 229.77 1090.45
  Q 231.51 1095.23 234.69 1105.40
  Q 236.99 1112.76 239.99 1120.26
  Q 246.72 1137.05 255.74 1157.52
  Q 261.11 1169.70 265.20 1177.42
  Q 270.95 1188.29 275.18 1196.97
  Q 281.43 1209.80 291.12 1225.70
  Q 303.50 1246.02 316.52 1265.00
  Q 319.24 1268.97 319.44 1269.26
  Q 331.26 1285.65 349.13 1308.23
  C 356.59 1317.64 365.44 1327.04 373.94 1337.06
  Q 381.33 1345.77 408.63 1372.49
  C 424.51 1388.04 441.18 1402.60 458.07 1416.06
  Q 458.80 1416.64 464.39 1421.56
  Q 466.73 1423.62 471.01 1426.74
  Q 480.34 1433.52 489.56 1440.17
  C 495.17 1444.21 502.01 1448.40 508.02 1452.69
  C 513.28 1456.44 518.19 1459.06 523.06 1462.75
  C 530.76 1468.59 543.16 1474.70 549.06 1478.38
  C 557.35 1483.54 561.96 1485.50 572.39 1490.74
  C 579.07 1494.09 587.08 1499.01 593.68 1502.09
  Q 608.72 1509.10 635.83 1520.19
  C 643.38 1523.28 651.26 1525.79 657.35 1528.26
  Q 665.43 1531.54 673.57 1533.99
  C 681.95 1536.51 690.03 1540.12 698.03 1542.32
  Q 727.36 1550.37 740.39 1553.11
  Q 750.67 1555.28 765.57 1558.39
  C 774.83 1560.33 784.25 1561.25 792.27 1562.71
  C 805.89 1565.20 815.68 1565.72 836.73 1567.39
  Q 852.98 1568.67 868.04 1568.72
  Q 900.30 1568.82 912.50 1568.27
  C 935.11 1567.23 960.09 1565.32 984.19 1561.76
  Q 1001.74 1559.17 1003.62 1558.86
  C 1016.52 1556.68 1029.06 1554.15 1043.92 1550.36
  Q 1070.97 1543.46 1073.47 1542.69
  C 1080.00 1540.70 1084.48 1539.68 1090.39 1537.51
  Q 1094.92 1535.84 1121.27 1527.04
  C 1125.14 1525.75 1129.60 1523.39 1132.82 1522.34
  Q 1141.87 1519.39 1155.06 1513.60
  Q 1155.18 1513.54 1159.04 1512.00
  Q 1162.58 1510.58 1176.36 1504.37
  C 1188.96 1498.70 1197.18 1493.92 1212.62 1485.97
  C 1237.29 1473.26 1258.35 1459.57 1280.58 1444.60
  Q 1287.30 1440.07 1296.20 1433.62
  C 1305.26 1427.05 1313.03 1422.17 1320.86 1414.81
  Q 1324.65 1411.24 1329.92 1407.02
  C 1351.27 1389.93 1371.07 1370.85 1389.92 1351.17
  Q 1395.47 1345.37 1417.10 1321.09
  Q 1426.44 1310.62 1435.70 1298.33
  Q 1451.46 1277.43 1453.27 1274.76
  Q 1463.21 1260.04 1466.09 1255.93
  C 1477.04 1240.26 1485.59 1224.93 1495.86 1206.58
  Q 1501.04 1197.33 1504.59 1189.61
  C 1509.39 1179.17 1515.60 1167.72 1520.73 1155.98
  Q 1526.26 1143.33 1527.63 1139.14
  Q 1530.52 1130.28 1535.14 1120.32
  C 1536.81 1116.72 1537.51 1114.49 1539.11 1109.92
  Q 1550.94 1076.14 1561.04 1035.80
  C 1565.31 1018.74 1567.66 1005.38 1570.98 986.66
  C 1573.21 974.10 1574.84 958.94 1576.38 946.57
  Q 1576.56 945.07 1576.00 942.71
  Q 1576.70 942.60 1576.77 941.98
  Q 1578.91 921.80 1579.49 902.50
  Q 1580.78 859.52 1578.06 818.97
  Q 1577.35 808.49 1576.00 796.58
  Q 1573.77 777.04 1573.32 774.25
  Q 1566.24 730.77 1561.16 710.03
  Q 1554.71 683.69 1548.52 663.97
  Q 1543.86 649.12 1534.42 623.02
  C 1531.32 614.46 1528.19 607.95 1524.78 599.44
  Q 1521.55 591.41 1517.15 581.93
  Q 1504.02 553.67 1494.25 535.95
  Q 1479.23 508.71 1456.97 476.22
  Q 1436.84 446.82 1415.83 422.57
  Q 1394.79 398.27 1368.96 373.80
  Q 1344.88 350.99 1334.24 342.91
  Q 1332.27 341.42 1322.21 332.98
  Q 1315.05 326.98 1308.15 321.84
  C 1289.29 307.82 1269.13 293.70 1248.35 281.92
  C 1231.12 272.16 1218.21 265.08 1201.74 257.11
  Q 1199.93 256.24 1180.98 247.09
  Q 1178.75 246.01 1175.10 244.33
  Q 1144.11 229.98 1108.46 218.79
  Q 1076.74 208.84 1058.28 204.57
  Q 1025.73 197.05 1012.79 195.00
  Q 973.71 188.79 937.25 185.99
  Q 899.69 183.10 868.50 184.22
  Q 808.67 186.38 748.06 198.36
  Q 702.51 207.36 662.42 221.26
  Q 624.72 234.34 606.64 242.44
  Q 570.69 258.55 555.83 266.64
  C 533.38 278.86 508.62 292.68 486.88 308.13
  Q 473.70 317.50 473.63 317.55
  C 465.72 322.94 456.61 330.88 449.66 336.10
  C 444.13 340.25 440.44 344.00 435.85 347.61
  C 429.30 352.76 422.50 359.77 415.09 366.19
  C 407.11 373.08 398.19 382.30 391.33 388.98
  Q 384.49 395.64 378.39 402.24
  Q 362.08 419.90 344.28 441.29
  Q 329.51 459.05 310.97 486.77
  Q 290.90 516.76 279.94 537.16
  C 269.76 556.12 262.58 569.59 255.56 586.06
  C 248.13 603.51 241.31 619.70 235.10 637.57
  C 224.76 667.29 215.23 697.53 209.17 727.98
  Q 201.79 765.04 198.06 802.51
  Q 195.73 825.94 194.70 859.48
  Q 193.38 902.35 198.28 942.66
  Z"
/>
<path fill="#dcc999" d="
  M 1441.12 942.44
  L 1409.95 942.38
  Q 1417.41 923.60 1413.28 905.26
  C 1412.57 902.12 1411.21 898.74 1410.39 896.47
  C 1409.35 893.63 1410.26 891.83 1412.28 890.02
  Q 1418.79 884.19 1425.83 875.35
  Q 1438.77 859.11 1444.18 839.62
  Q 1445.23 835.82 1446.08 829.54
  C 1447.68 817.56 1448.33 804.98 1446.73 793.97
  Q 1444.60 779.33 1442.14 771.27
  Q 1439.95 764.08 1435.97 753.82
  A 0.80 0.80 0.0 0 0 1434.61 753.60
  Q 1426.71 763.35 1416.82 772.05
  C 1413.23 775.20 1410.21 776.96 1406.19 779.34
  A 1.07 1.07 0.0 0 0 1405.70 780.56
  Q 1407.13 785.54 1407.24 791.51
  Q 1407.67 814.62 1401.45 834.28
  Q 1397.55 846.63 1387.34 860.65
  Q 1375.95 876.28 1358.50 885.62
  C 1347.38 891.58 1337.11 895.72 1324.82 895.18
  C 1318.21 894.89 1314.52 892.67 1312.19 886.58
  Q 1309.81 880.39 1313.50 874.84
  C 1320.61 864.17 1333.91 864.79 1343.96 858.88
  Q 1354.14 852.90 1361.83 844.51
  C 1371.78 833.65 1376.44 819.43 1376.63 804.74
  Q 1376.69 800.83 1376.31 794.26
  C 1376.14 791.44 1374.11 792.12 1371.84 792.45
  C 1354.33 795.03 1331.35 793.13 1316.72 782.05
  Q 1312.46 778.82 1310.43 773.36
  Q 1308.59 768.44 1311.47 763.02
  C 1315.37 755.65 1326.22 755.40 1333.34 757.66
  C 1341.06 760.11 1347.73 762.96 1355.75 763.73
  Q 1357.23 763.87 1364.92 763.60
  C 1377.06 763.19 1389.98 756.79 1398.95 749.02
  C 1410.45 739.05 1421.75 725.85 1424.01 710.99
  C 1424.78 705.88 1424.16 697.99 1428.50 692.38
  C 1434.57 684.53 1439.04 675.07 1438.88 664.64
  Q 1438.68 651.91 1433.96 641.37
  C 1429.47 631.34 1419.94 624.19 1410.24 619.49
  A 2.70 2.68 3.7 0 1 1408.89 617.96
  Q 1407.42 613.65 1405.81 609.67
  Q 1401.60 599.26 1392.26 590.76
  Q 1384.91 584.08 1382.21 582.32
  C 1375.99 578.26 1368.55 575.31 1361.14 575.65
  C 1355.29 575.92 1348.99 576.47 1345.03 580.77
  C 1342.28 583.75 1341.05 591.45 1334.72 590.57
  C 1325.71 589.31 1321.13 582.17 1319.57 573.67
  C 1318.53 568.00 1320.70 562.19 1324.53 558.28
  C 1327.45 555.29 1330.94 552.17 1335.37 550.35
  C 1347.03 545.56 1359.63 545.53 1371.73 548.33
  A 1.04 1.03 4.4 0 0 1373.00 547.25
  Q 1371.62 527.85 1364.71 510.80
  Q 1363.79 508.52 1358.26 498.48
  Q 1354.67 491.97 1350.11 487.00
  Q 1338.43 474.28 1334.51 471.25
  Q 1326.74 465.24 1318.97 461.13
  A 1.37 1.37 0.0 0 0 1316.99 462.04
  Q 1315.32 469.43 1313.42 476.42
  Q 1309.47 490.96 1301.15 503.64
  C 1295.48 512.28 1287.43 519.42 1276.64 516.63
  C 1267.94 514.39 1264.90 505.85 1268.51 497.77
  Q 1269.04 496.59 1272.09 492.53
  C 1278.84 483.56 1283.24 472.76 1284.72 462.04
  Q 1285.21 458.47 1285.72 446.02
  Q 1286.04 438.26 1284.11 427.01
  C 1281.62 412.45 1273.69 397.12 1264.61 386.49
  Q 1258.16 378.94 1250.17 371.87
  C 1238.52 361.57 1224.21 354.04 1209.33 349.25
  A 1.12 1.12 0.0 0 0 1207.87 350.41
  Q 1208.35 356.09 1207.74 361.75
  Q 1205.77 380.04 1198.63 396.41
  A 0.93 0.93 0.0 0 0 1198.87 397.49
  C 1206.58 404.32 1213.44 409.84 1218.65 417.40
  Q 1222.78 423.39 1225.41 428.82
  C 1231.47 441.35 1234.11 457.04 1229.18 470.43
  C 1227.34 475.43 1222.29 479.16 1218.00 482.02
  A 0.90 0.89 51.1 0 1 1216.84 481.89
  Q 1214.72 479.66 1213.85 476.67
  Q 1206.54 451.46 1191.32 432.43
  C 1182.31 421.17 1174.32 411.40 1162.79 403.24
  Q 1148.17 392.89 1131.13 386.63
  C 1125.44 384.55 1121.98 378.75 1122.96 372.73
  C 1124.07 365.98 1131.07 361.41 1137.74 361.59
  C 1148.89 361.89 1157.38 365.38 1166.67 371.41
  A 9.60 9.50 -3.4 0 1 1168.71 373.20
  L 1171.24 376.13
  A 0.81 0.81 0.0 0 0 1172.64 375.77
  Q 1174.93 364.94 1175.44 352.26
  Q 1175.85 341.85 1171.68 333.34
  C 1169.36 328.61 1165.25 323.96 1161.54 319.69
  Q 1138.25 292.81 1104.06 281.71
  Q 1090.72 277.38 1076.54 277.10
  A 0.98 0.98 0.0 0 0 1075.59 278.36
  Q 1080.02 293.00 1078.87 308.23
  Q 1078.66 310.96 1076.95 315.22
  C 1073.22 324.55 1063.17 328.44 1054.15 323.78
  C 1049.12 321.18 1048.27 317.33 1048.04 311.32
  Q 1047.67 302.09 1046.21 293.24
  C 1042.41 270.33 1024.77 254.12 1003.46 246.14
  C 996.90 243.69 989.21 242.73 983.02 242.66
  Q 981.90 242.64 973.48 243.25
  C 964.74 243.87 956.74 246.59 949.03 251.00
  Q 928.28 262.88 920.62 284.35
  Q 919.37 287.89 916.15 301.20
  C 913.41 312.52 912.31 322.17 910.89 334.03
  Q 910.08 340.73 909.78 349.76
  C 909.46 359.45 908.01 369.25 907.66 379.75
  Q 907.11 396.38 907.55 410.51
  A 2.99 2.98 74.8 0 1 906.00 413.23
  C 900.30 416.36 895.82 420.92 888.23 428.45
  Q 886.40 430.27 883.65 433.89
  Q 882.59 435.30 879.10 439.35
  Q 870.50 449.35 862.85 460.05
  A 0.66 0.66 0.0 0 1 861.70 459.90
  Q 860.42 456.48 859.84 452.69
  Q 858.85 446.30 856.98 436.02
  Q 856.32 432.34 853.48 428.53
  Q 842.35 413.51 824.05 404.52
  Q 810.07 397.65 796.02 398.03
  Q 785.99 398.30 781.53 397.71
  Q 771.20 396.35 769.34 386.43
  C 768.04 379.50 773.03 371.93 779.95 369.95
  C 783.25 369.01 786.69 368.10 789.95 367.92
  Q 811.44 366.73 830.93 375.33
  Q 841.10 379.82 851.28 385.71
  Q 856.99 389.01 860.16 393.97
  A 0.55 0.55 0.0 0 0 861.15 393.81
  C 862.04 390.28 860.88 383.01 860.89 378.00
  C 860.90 357.60 861.38 337.99 859.70 317.26
  Q 858.51 302.59 853.39 288.50
  C 845.47 266.73 829.61 252.16 807.03 247.51
  Q 787.15 243.41 768.54 250.11
  C 762.55 252.26 756.17 256.27 750.65 259.86
  A 0.64 0.64 0.0 0 0 750.64 260.92
  Q 759.60 266.91 766.86 272.78
  C 770.84 275.99 774.83 278.35 778.39 281.74
  Q 786.82 289.78 783.38 300.89
  C 781.12 308.20 772.83 311.17 765.81 311.04
  A 2.72 2.72 0.0 0 1 764.74 310.80
  Q 760.82 309.01 758.88 306.86
  Q 750.73 297.78 750.37 297.36
  C 739.33 284.51 723.54 277.25 706.81 276.63
  Q 692.10 276.09 676.16 279.94
  Q 659.60 283.95 644.59 292.68
  Q 634.99 298.27 625.04 308.32
  C 617.42 316.02 609.55 324.32 605.32 333.55
  C 603.14 338.30 602.86 344.29 602.69 349.48
  Q 602.65 350.75 601.97 352.91
  C 600.95 356.14 595.74 357.05 592.99 356.79
  Q 584.52 355.99 577.50 355.60
  Q 563.52 354.84 550.39 359.15
  C 544.69 361.01 539.57 363.93 534.55 366.06
  Q 531.12 367.52 525.52 372.01
  Q 514.71 380.68 505.31 392.36
  C 496.56 403.24 493.22 416.92 489.32 428.69
  A 1.36 1.35 -75.4 0 0 490.35 430.45
  Q 504.16 433.03 516.73 439.08
  Q 524.57 442.86 527.19 444.32
  C 534.38 448.31 539.71 451.49 540.00 460.74
  Q 540.20 466.86 536.41 470.27
  C 525.71 479.90 513.07 471.89 502.15 466.18
  Q 492.00 460.87 481.35 459.96
  C 458.47 458.00 435.69 469.23 420.51 486.27
  Q 416.05 491.28 413.26 496.29
  Q 399.85 520.41 401.11 548.59
  Q 401.24 551.35 404.05 550.85
  C 411.45 549.54 420.67 548.62 437.50 546.81
  Q 443.52 546.16 452.03 543.07
  C 459.79 540.25 465.24 535.11 470.25 529.49
  C 475.93 523.11 479.19 518.12 488.01 518.60
  Q 498.51 519.17 500.95 529.61
  Q 501.77 533.13 500.74 536.26
  Q 499.41 540.26 497.64 543.36
  A 5.57 5.46 -8.9 0 1 496.82 544.46
  Q 494.86 546.47 490.66 550.90
  Q 488.77 552.89 480.67 558.81
  C 469.62 566.88 457.50 571.88 443.94 574.44
  Q 436.10 575.93 428.63 577.12
  C 409.70 580.16 390.48 587.51 376.44 600.73
  Q 366.90 609.71 360.66 620.12
  Q 355.28 629.10 350.80 642.92
  C 342.43 668.77 344.55 700.26 361.14 722.32
  Q 365.99 728.78 374.67 734.78
  C 379.98 738.45 386.50 740.18 393.41 741.85
  C 395.35 742.32 400.43 743.70 402.80 745.36
  C 408.60 749.43 413.82 759.35 409.14 766.35
  C 401.74 777.40 389.48 774.38 378.38 770.36
  Q 372.00 768.06 359.81 761.18
  Q 349.44 755.32 342.41 746.54
  A 0.93 0.93 0.0 0 0 340.81 746.79
  Q 338.52 752.79 336.02 761.24
  C 332.28 773.91 331.62 785.24 333.19 798.54
  Q 334.10 806.22 337.34 816.15
  Q 340.90 827.08 343.19 833.40
  A 1.03 1.03 0.0 0 1 342.26 834.78
  C 340.20 834.87 337.88 834.24 335.66 834.00
  Q 325.78 832.92 315.25 833.02
  Q 312.10 833.05 309.15 834.47
  A 0.94 0.94 0.0 0 1 307.90 834.02
  Q 304.45 826.80 302.86 818.21
  Q 299.12 798.03 300.50 776.50
  Q 301.06 767.79 302.94 761.64
  Q 304.76 755.69 305.76 752.34
  C 309.04 741.27 315.05 730.08 321.54 721.30
  A 3.94 3.94 0.0 0 0 322.08 717.61
  C 314.64 697.12 313.41 675.99 315.81 654.50
  Q 320.24 614.82 347.77 584.22
  Q 355.90 575.18 368.05 567.24
  Q 369.80 566.10 369.70 565.20
  C 369.55 563.92 369.02 562.92 368.97 561.51
  C 368.38 546.08 368.35 530.67 372.05 516.29
  Q 377.92 493.43 390.99 475.97
  Q 394.44 471.36 403.74 461.39
  Q 410.56 454.07 418.41 448.85
  Q 431.95 439.85 448.35 433.84
  Q 451.84 432.56 456.25 431.72
  A 2.26 2.24 87.6 0 0 458.07 429.73
  Q 458.43 426.21 458.90 424.15
  Q 462.65 407.74 471.43 389.72
  C 473.72 385.00 476.43 381.73 480.36 376.11
  Q 485.79 368.35 494.61 359.38
  Q 502.17 351.69 511.60 345.56
  Q 533.02 331.63 557.47 326.23
  Q 566.17 324.31 574.78 323.21
  A 2.36 2.34 -78.9 0 0 576.53 322.02
  C 582.37 311.44 588.83 301.11 597.12 292.33
  Q 612.41 276.12 632.77 265.34
  Q 638.71 262.19 642.33 260.87
  C 646.52 259.36 650.76 257.16 655.33 255.54
  Q 673.94 248.96 695.03 247.34
  Q 705.82 246.52 718.37 246.24
  A 3.62 3.62 0.0 0 0 721.06 244.94
  C 726.52 238.42 734.28 233.12 743.25 227.98
  C 766.21 214.83 794.82 212.83 820.31 219.27
  C 836.52 223.37 854.41 234.30 866.54 247.24
  C 874.57 255.79 880.14 266.02 884.13 275.89
  Q 885.89 280.23 887.50 283.53
  A 0.20 0.20 0.0 0 0 887.87 283.49
  Q 892.39 267.27 901.72 252.96
  Q 904.66 248.46 909.92 242.95
  Q 929.30 222.70 956.50 215.51
  Q 961.86 214.09 968.25 213.78
  Q 979.05 213.25 990.00 213.98
  C 995.85 214.37 1001.13 215.63 1006.88 217.10
  Q 1035.30 224.35 1056.21 245.81
  Q 1057.51 247.13 1059.50 247.22
  C 1077.21 248.04 1090.71 248.58 1105.77 252.50
  Q 1107.28 252.89 1117.95 256.06
  C 1132.00 260.24 1144.67 267.11 1158.27 276.20
  Q 1181.79 291.93 1196.48 315.51
  A 3.59 3.57 78.0 0 0 1198.99 317.15
  Q 1228.96 321.67 1254.57 338.24
  Q 1268.06 346.98 1279.14 357.25
  C 1290.89 368.16 1299.52 381.72 1307.44 397.34
  Q 1312.14 406.62 1314.16 414.26
  Q 1317.04 425.16 1317.86 428.11
  A 3.03 3.01 89.4 0 0 1319.99 430.21
  Q 1329.86 432.85 1337.98 437.50
  C 1350.05 444.42 1360.71 451.78 1370.10 461.64
  Q 1384.42 476.68 1393.62 494.37
  Q 1395.61 498.18 1399.16 507.91
  C 1403.44 519.64 1405.13 531.20 1405.31 543.51
  Q 1405.45 554.01 1405.34 559.51
  Q 1405.27 562.67 1407.47 564.29
  Q 1416.05 570.60 1420.53 575.57
  Q 1426.92 582.65 1431.74 588.76
  Q 1441.31 600.91 1448.89 616.40
  Q 1452.98 624.78 1454.08 628.41
  Q 1461.05 651.51 1461.84 668.32
  C 1462.73 687.00 1460.55 705.49 1453.64 722.56
  A 3.60 3.59 40.3 0 0 1453.91 725.79
  Q 1461.29 737.83 1467.22 751.72
  Q 1480.26 782.23 1478.32 815.77
  Q 1477.76 825.27 1475.88 835.96
  C 1473.09 851.82 1466.08 866.61 1457.28 880.04
  Q 1452.96 886.63 1447.42 892.17
  Q 1445.61 893.97 1446.02 896.59
  Q 1448.87 914.91 1443.74 937.25
  Q 1443.01 940.47 1441.12 942.44
  Z"
/>
<path fill="#dcc999" d="
  M 967.44 377.14
  C 970.14 362.30 973.84 348.11 982.45 335.75
  C 988.75 326.71 1000.17 323.94 1010.00 329.34
  A 2.13 2.13 0.0 0 1 1010.49 329.69
  Q 1016.79 335.42 1015.42 344.51
  C 1014.26 352.23 1009.72 358.65 1006.42 365.89
  C 1005.07 368.86 998.67 369.90 994.65 370.74
  C 985.80 372.57 977.01 375.10 968.45 378.02
  A 0.78 0.77 85.8 0 1 967.44 377.14
  Z"
/>
<path fill="#dcc999" d="
  M 565.13 594.84
  A 0.92 0.92 0.0 0 0 566.07 593.67
  Q 557.96 565.08 562.94 536.21
  Q 564.43 527.52 568.14 515.33
  Q 573.53 497.63 583.87 481.62
  Q 585.32 479.37 587.29 474.67
  A 5.09 5.04 56.9 0 0 587.68 472.77
  Q 587.68 471.16 586.86 465.86
  Q 584.53 450.81 580.38 440.32
  Q 573.46 422.84 573.18 422.12
  Q 569.73 413.02 577.25 407.57
  C 584.36 402.43 594.30 403.53 599.68 410.54
  Q 606.70 419.67 610.76 433.02
  Q 613.36 441.56 614.84 444.95
  A 1.93 1.93 0.0 0 0 617.77 445.73
  Q 619.47 444.46 620.99 443.76
  Q 621.82 443.38 635.43 438.20
  Q 646.07 434.15 656.57 432.18
  A 1.03 1.03 0.0 0 0 657.32 430.73
  Q 656.24 428.39 655.99 427.50
  Q 650.81 408.81 653.73 391.46
  Q 655.19 382.73 660.96 372.19
  Q 663.95 366.72 670.53 358.87
  Q 676.13 352.18 682.40 347.60
  Q 693.29 339.63 704.01 335.01
  C 709.45 332.67 715.86 331.20 721.73 334.01
  C 726.91 336.48 729.36 342.39 729.36 348.03
  C 729.35 355.47 724.22 359.19 718.02 362.26
  C 709.42 366.51 700.28 370.73 694.23 376.55
  Q 680.07 390.16 681.94 410.05
  Q 682.92 420.41 687.67 427.37
  C 693.95 436.60 704.27 441.31 714.95 442.82
  C 730.50 445.01 745.25 447.41 758.98 453.82
  Q 768.16 458.11 774.10 463.69
  C 780.96 470.15 786.76 476.57 791.25 484.96
  C 796.27 494.34 802.16 517.57 787.77 522.81
  Q 781.37 525.14 775.48 521.97
  C 766.52 517.15 765.98 509.29 763.90 500.83
  C 760.39 486.49 746.37 478.06 733.27 474.23
  Q 725.76 472.04 707.76 469.50
  C 701.35 468.59 695.80 467.80 690.38 466.23
  Q 678.35 462.73 666.77 461.42
  C 664.04 461.11 658.85 461.86 655.69 462.83
  Q 642.78 466.80 633.46 472.74
  C 627.07 476.81 620.74 483.35 614.40 490.79
  Q 610.16 495.77 607.91 499.50
  Q 594.36 522.03 592.35 547.29
  Q 591.18 562.12 594.07 577.94
  Q 596.18 589.44 601.30 601.65
  C 607.33 616.02 613.12 627.42 623.47 638.10
  C 630.84 645.71 636.03 650.50 645.29 653.47
  Q 650.43 655.12 656.70 657.30
  Q 663.49 659.66 664.65 666.49
  Q 666.84 679.52 655.21 683.64
  Q 654.51 683.89 648.52 684.68
  A 4.88 4.80 48.4 0 1 646.60 684.55
  C 644.13 683.85 639.65 683.41 636.46 682.34
  Q 616.34 675.60 602.04 659.21
  Q 596.65 653.04 587.33 642.01
  C 580.97 634.48 573.04 629.96 563.15 627.35
  C 546.05 622.83 527.36 626.13 513.00 636.78
  C 505.99 641.97 500.68 648.25 496.22 656.63
  Q 493.29 662.14 492.12 666.42
  Q 487.78 682.38 492.73 699.57
  Q 497.88 717.47 513.21 727.30
  Q 517.03 729.75 523.18 731.76
  Q 533.00 734.96 542.71 731.21
  Q 551.62 727.76 556.57 718.81
  C 560.43 711.84 561.12 705.16 571.52 704.96
  C 581.32 704.76 589.75 714.25 587.59 724.10
  Q 585.58 733.24 580.00 739.75
  C 572.44 748.59 562.00 752.52 551.50 757.76
  C 543.03 761.99 540.48 767.90 537.09 776.99
  Q 535.25 781.93 534.19 788.39
  Q 532.90 796.27 532.26 802.81
  A 3.74 3.69 -17.6 0 1 530.98 805.25
  Q 529.43 806.58 527.20 807.45
  Q 514.64 812.33 511.24 813.77
  Q 506.59 815.74 503.36 816.86
  A 1.11 1.11 0.0 0 1 501.89 815.87
  Q 500.76 795.54 504.75 774.34
  C 505.85 768.45 507.33 764.75 509.72 759.40
  A 1.74 1.74 0.0 0 0 508.66 757.04
  L 503.01 755.21
  A 4.58 4.17 66.1 0 1 502.33 754.91
  Q 489.32 747.51 487.25 745.75
  Q 478.35 738.20 473.74 730.50
  C 463.55 713.47 454.02 696.60 433.87 689.89
  Q 428.72 688.18 416.63 684.88
  Q 413.89 684.13 407.37 679.67
  A 5.11 5.01 1.3 0 1 405.94 678.20
  Q 402.09 672.11 404.50 665.54
  C 408.99 653.31 426.87 655.92 436.10 658.90
  C 442.26 660.88 450.75 664.34 456.79 668.11
  A 0.82 0.82 0.0 0 0 458.00 667.68
  Q 459.64 662.79 461.33 658.10
  Q 467.48 641.13 478.47 627.24
  Q 482.49 622.16 485.72 619.30
  C 496.65 609.61 508.76 602.12 522.81 597.98
  C 532.84 595.04 544.11 594.01 554.31 594.20
  Q 554.33 594.20 565.13 594.84
  Z"
/>
<path fill="#37573e" d="
  M 1284.51 942.88
  Q 1291.69 962.11 1297.18 982.14
  C 1298.96 988.63 1299.89 994.98 1301.18 1001.12
  C 1304.06 1014.83 1305.07 1028.60 1305.27 1043.13
  Q 1305.49 1058.29 1303.47 1070.76
  C 1299.42 1095.73 1293.01 1120.64 1281.74 1142.92
  Q 1274.43 1157.37 1269.99 1164.27
  Q 1263.32 1174.63 1254.59 1184.48
  A 0.66 0.65 35.3 0 0 1254.77 1185.48
  Q 1255.13 1185.68 1256.00 1185.75
  Q 1294.50 1188.92 1298.08 1189.11
  Q 1300.81 1189.26 1306.43 1189.96
  C 1313.11 1190.79 1320.21 1191.19 1327.24 1192.33
  Q 1341.74 1194.67 1357.06 1198.18
  Q 1362.73 1199.48 1369.93 1202.10
  Q 1375.66 1204.18 1379.76 1209.23
  C 1382.44 1212.53 1380.76 1216.84 1377.87 1219.39
  Q 1371.97 1224.62 1369.62 1226.10
  Q 1367.51 1227.43 1357.95 1232.41
  Q 1352.87 1235.07 1345.76 1237.56
  Q 1318.73 1247.05 1301.73 1251.20
  Q 1271.89 1258.47 1265.77 1259.79
  Q 1226.61 1268.22 1213.02 1271.13
  C 1201.12 1273.68 1186.73 1275.64 1177.65 1277.52
  C 1169.07 1279.29 1162.68 1279.85 1154.41 1281.33
  Q 1149.40 1282.24 1136.92 1283.78
  Q 1126.95 1285.02 1106.00 1287.92
  Q 1097.49 1289.10 1053.92 1293.47
  C 1034.71 1295.40 1017.21 1295.85 997.19 1297.55
  Q 997.05 1297.56 972.25 1298.98
  Q 958.21 1299.78 929.25 1299.98
  Q 878.22 1300.33 830.50 1299.91
  Q 786.38 1299.52 725.91 1294.95
  C 718.16 1294.37 711.86 1293.00 703.28 1292.20
  Q 667.03 1288.80 624.88 1282.44
  Q 612.02 1280.50 601.04 1278.36
  C 584.10 1275.06 569.69 1273.35 552.86 1269.26
  Q 537.13 1265.44 520.29 1261.96
  Q 503.73 1258.54 495.80 1256.61
  Q 476.32 1251.86 471.52 1250.43
  Q 457.44 1246.21 445.63 1242.95
  C 438.63 1241.02 433.82 1239.14 427.46 1237.43
  Q 423.34 1236.32 413.96 1232.95
  Q 409.09 1231.20 396.62 1227.25
  C 390.78 1225.39 385.50 1223.28 379.02 1221.19
  Q 368.65 1217.86 349.61 1211.16
  Q 335.20 1206.09 323.06 1196.97
  Q 322.31 1196.40 322.09 1195.68
  A 0.71 0.71 0.0 0 1 322.79 1194.76
  C 331.05 1195.04 339.97 1193.65 348.79 1193.21
  Q 356.93 1192.80 380.30 1191.34
  C 388.02 1190.86 395.11 1190.94 402.10 1190.31
  Q 407.80 1189.80 418.41 1189.46
  Q 433.81 1188.97 445.56 1187.98
  C 449.57 1187.65 454.41 1187.77 458.35 1187.53
  A 0.64 0.64 0.0 0 0 458.73 1186.41
  Q 450.59 1179.48 443.65 1171.11
  Q 439.00 1165.50 435.61 1161.63
  C 430.74 1156.09 424.30 1149.51 418.78 1142.53
  Q 413.14 1135.42 402.34 1122.01
  Q 390.75 1107.62 365.22 1072.09
  C 363.48 1069.68 361.28 1067.24 359.73 1064.86
  Q 353.06 1054.64 347.30 1047.29
  C 345.13 1044.53 342.55 1040.02 340.16 1037.43
  C 338.42 1035.53 336.11 1031.18 334.19 1028.69
  Q 323.02 1014.23 313.11 998.66
  C 308.96 992.14 305.90 987.88 301.85 980.93
  Q 299.89 977.55 296.41 972.33
  Q 286.74 957.83 278.46 942.41
  C 276.39 939.38 275.00 935.36 273.60 932.79
  C 269.03 924.40 265.84 918.10 263.28 909.54
  C 262.02 905.31 261.36 900.67 264.85 897.52
  C 267.00 895.59 272.64 897.01 274.96 897.79
  C 304.22 907.58 333.32 920.94 363.04 926.62
  A 0.31 0.31 0.0 0 0 363.27 926.06
  Q 346.92 914.40 333.21 903.04
  C 322.80 894.42 314.13 885.62 307.08 874.69
  C 302.78 868.01 297.66 852.73 311.52 852.32
  C 321.44 852.03 331.38 853.83 341.06 855.74
  C 365.07 860.48 392.42 860.37 417.50 858.39
  Q 433.22 857.15 453.36 853.01
  Q 480.56 847.41 507.53 839.08
  C 517.54 835.98 530.69 830.57 539.58 827.25
  Q 541.13 826.67 550.17 823.25
  Q 571.73 815.10 591.80 807.40
  Q 625.94 794.30 657.39 786.20
  C 673.52 782.04 693.51 777.76 711.82 775.28
  Q 754.65 769.49 799.86 770.77
  C 829.41 771.60 858.70 775.78 886.49 781.53
  Q 888.77 782.01 892.40 783.31
  A 0.28 0.27 -88.6 0 0 892.75 782.97
  C 888.66 769.71 884.48 758.34 880.84 746.65
  Q 867.89 704.99 858.42 665.32
  Q 856.17 655.91 853.42 639.34
  C 849.72 617.09 849.13 594.86 850.31 572.25
  C 851.15 556.27 853.59 542.49 857.83 525.51
  Q 864.32 499.53 879.12 474.62
  Q 894.64 448.49 917.92 428.67
  Q 925.38 422.32 937.83 413.85
  Q 950.26 405.39 967.47 398.47
  Q 1010.73 381.08 1058.32 386.51
  C 1074.95 388.40 1092.69 392.71 1108.66 399.56
  Q 1118.43 403.74 1120.54 404.70
  C 1131.15 409.53 1139.61 415.58 1149.20 422.99
  Q 1158.57 430.24 1165.95 438.29
  Q 1167.44 439.93 1174.72 449.02
  C 1182.19 458.35 1188.32 470.80 1191.96 480.55
  Q 1196.32 492.21 1201.97 511.01
  Q 1204.59 519.73 1211.27 528.27
  Q 1218.90 538.03 1226.93 545.86
  C 1234.71 553.45 1245.38 562.84 1255.41 570.02
  Q 1277.57 585.87 1300.25 596.46
  C 1311.42 601.68 1320.69 606.13 1330.64 609.88
  Q 1353.37 618.45 1370.22 623.99
  C 1379.51 627.05 1388.39 630.60 1395.96 634.30
  C 1403.40 637.94 1410.83 644.45 1413.77 652.53
  C 1426.95 688.77 1373.53 699.90 1350.41 702.01
  Q 1336.86 703.25 1315.05 702.54
  Q 1288.16 701.65 1260.00 697.27
  Q 1251.86 696.00 1229.22 691.80
  C 1219.59 690.01 1212.58 688.03 1201.72 685.21
  Q 1168.30 676.53 1153.63 673.62
  C 1141.16 671.14 1124.98 672.76 1115.02 679.04
  C 1102.60 686.87 1103.56 704.50 1108.83 716.95
  C 1113.16 727.18 1120.74 737.55 1128.92 747.15
  Q 1134.37 753.54 1141.05 760.18
  Q 1153.78 772.82 1175.89 794.14
  C 1188.09 805.90 1198.50 816.37 1209.12 828.41
  C 1215.48 835.62 1222.68 843.58 1227.42 849.44
  Q 1247.09 873.72 1262.42 899.49
  Q 1267.29 907.69 1271.87 916.99
  C 1275.80 924.98 1279.59 931.86 1282.45 938.94
  Q 1283.26 940.96 1284.51 942.88
  Z
  M 915.54 748.72
  Q 915.98 750.74 916.20 751.31
  Q 920.43 762.60 924.54 773.95
  Q 925.07 775.42 930.75 787.89
  C 931.86 790.32 932.88 790.94 935.40 791.65
  Q 947.55 795.07 949.77 795.47
  Q 969.38 799.01 981.99 800.06
  Q 1008.58 802.29 1038.99 799.96
  Q 1061.41 798.24 1089.38 791.67
  C 1099.24 789.35 1111.83 785.04 1121.08 782.39
  A 0.38 0.38 0.0 0 0 1121.24 781.76
  Q 1111.95 772.58 1105.34 764.64
  Q 1098.42 756.34 1092.18 747.90
  Q 1091.02 746.60 1090.19 745.13
  Q 1088.54 742.26 1088.49 742.19
  Q 1079.91 729.39 1074.51 717.04
  Q 1069.04 704.54 1068.69 692.58
  Q 1068.19 675.43 1080.35 664.15
  Q 1084.63 660.19 1092.61 656.11
  Q 1101.29 651.67 1105.90 649.89
  Q 1121.97 643.71 1135.80 633.30
  Q 1141.85 628.76 1145.33 624.63
  C 1148.67 620.66 1153.33 616.36 1156.26 611.54
  C 1160.85 603.97 1165.36 597.30 1168.34 587.96
  Q 1170.65 580.71 1172.74 568.52
  Q 1174.88 556.03 1174.20 542.26
  Q 1173.16 521.20 1168.57 501.87
  Q 1164.19 483.42 1152.65 466.63
  Q 1140.95 449.59 1125.43 438.33
  Q 1121.70 435.63 1116.06 432.68
  Q 1105.27 427.04 1095.30 423.71
  Q 1073.11 416.29 1049.24 414.03
  C 1027.57 411.97 1005.84 414.66 985.12 422.04
  C 974.40 425.86 964.57 429.81 956.01 435.53
  C 948.56 440.50 939.64 446.83 932.35 453.96
  Q 920.07 465.97 910.48 479.97
  Q 909.11 481.99 903.85 491.37
  Q 900.13 498.03 897.99 503.15
  Q 880.78 544.37 881.73 588.25
  Q 882.30 614.59 884.64 629.66
  Q 888.83 656.68 897.91 692.11
  Q 901.13 704.69 904.76 715.31
  C 908.27 725.59 911.08 736.18 914.86 747.62
  Q 915.08 748.31 915.54 748.72
  Z
  M 1153.62 648.08
  Q 1170.07 652.64 1183.02 655.71
  Q 1209.17 661.90 1241.77 669.71
  C 1274.50 677.55 1305.47 681.64 1337.84 680.16
  C 1346.65 679.75 1354.78 678.24 1364.73 676.18
  Q 1371.27 674.82 1376.73 672.55
  C 1381.63 670.51 1386.08 668.91 1389.53 665.53
  C 1393.36 661.77 1389.72 657.22 1386.12 655.11
  Q 1379.80 651.41 1373.20 649.29
  Q 1361.74 645.63 1338.62 638.13
  Q 1325.73 633.95 1313.63 628.67
  Q 1297.17 621.49 1289.22 617.73
  Q 1266.63 607.07 1243.97 592.02
  Q 1234.06 585.44 1227.73 579.83
  Q 1217.11 570.40 1212.63 565.80
  Q 1205.53 558.53 1198.96 548.54
  A 0.50 0.50 0.0 0 0 1198.04 548.82
  C 1198.15 554.05 1198.41 560.05 1197.84 565.71
  Q 1196.34 580.69 1192.33 594.82
  C 1189.01 606.52 1183.37 616.69 1176.42 626.43
  Q 1170.71 634.43 1165.06 639.06
  Q 1160.09 643.14 1153.54 647.57
  A 0.29 0.29 0.0 0 0 1153.62 648.08
  Z
  M 656.72 967.67
  C 664.32 970.62 668.41 972.04 674.07 974.96
  C 686.80 981.51 700.86 990.46 712.54 1000.26
  C 721.04 1007.39 729.21 1013.45 737.17 1020.93
  Q 742.26 1025.72 748.90 1031.41
  A 1.33 1.33 0.0 0 0 750.69 1031.36
  Q 778.52 1004.65 807.12 980.42
  C 816.13 972.80 826.60 965.02 835.91 958.18
  Q 846.16 950.66 863.02 941.30
  Q 878.62 932.64 896.60 927.81
  Q 934.85 917.54 975.14 928.08
  Q 987.72 931.37 998.43 936.61
  Q 1003.14 938.92 1011.17 942.80
  C 1029.07 951.43 1044.93 964.44 1058.88 980.12
  Q 1073.76 996.85 1084.72 1015.65
  A 0.35 0.34 -63.8 0 0 1085.36 1015.43
  Q 1084.06 1005.03 1082.16 995.54
  Q 1080.48 987.14 1075.91 975.33
  Q 1067.01 952.33 1052.83 929.26
  Q 1041.71 911.15 1029.56 897.93
  Q 1016.71 883.95 1001.09 871.23
  C 991.28 863.25 979.55 856.03 968.43 849.32
  Q 961.82 845.34 948.80 839.45
  Q 927.37 829.78 906.19 823.42
  Q 876.04 814.37 837.42 810.14
  C 802.44 806.32 767.01 805.15 732.50 808.74
  Q 712.70 810.80 701.75 812.49
  Q 689.56 814.38 671.22 818.52
  Q 655.05 822.16 631.19 829.75
  Q 611.68 835.95 572.70 850.82
  Q 548.36 860.10 540.56 862.67
  Q 519.29 869.68 507.80 872.77
  Q 484.31 879.09 463.73 882.39
  Q 450.23 884.56 431.25 885.96
  Q 413.15 887.30 397.81 886.56
  C 393.22 886.34 388.80 885.66 384.66 884.81
  A 0.36 0.36 0.0 0 0 384.37 885.44
  Q 393.34 892.68 402.98 899.27
  C 413.17 906.24 425.33 911.82 436.73 916.93
  Q 443.94 920.16 453.39 923.35
  Q 469.42 928.76 470.27 929.00
  Q 524.60 943.94 576.51 942.20
  Q 623.97 940.61 670.89 922.79
  C 682.47 918.39 698.42 910.75 710.24 906.28
  Q 719.03 902.96 739.70 895.99
  C 767.81 886.51 797.21 880.08 827.00 879.89
  Q 843.58 879.78 853.24 880.49
  Q 893.59 883.43 930.06 900.51
  A 0.36 0.36 0.0 0 1 929.90 901.19
  C 898.50 900.64 867.21 901.75 835.29 906.64
  Q 817.72 909.34 805.36 912.60
  Q 771.69 921.51 738.64 935.63
  Q 714.83 945.81 713.87 946.26
  Q 713.24 946.55 686.99 957.12
  C 677.21 961.06 667.12 964.14 656.74 967.29
  A 0.20 0.20 0.0 0 0 656.72 967.67
  Z
  M 946.76 959.19
  L 946.76 1131.57
  A 0.61 0.61 0.0 0 0 947.46 1132.17
  Q 952.07 1131.52 961.81 1129.94
  C 971.83 1128.33 980.01 1125.70 989.55 1122.47
  A 1.26 1.24 -9.5 0 0 990.40 1121.29
  L 990.40 970.61
  A 2.47 2.46 -79.4 0 0 988.83 968.31
  Q 968.40 960.45 947.25 958.75
  A 0.45 0.44 2.4 0 0 946.76 959.19
  Z
  M 920.42 960.23
  A 0.57 0.56 -3.6 0 0 919.78 959.67
  Q 901.78 962.15 884.81 969.08
  Q 881.08 970.61 878.41 972.44
  A 4.13 4.12 72.6 0 0 876.64 975.83
  L 876.64 1122.20
  A 0.97 0.95 -77.4 0 0 877.18 1123.07
  Q 884.44 1126.52 892.23 1128.26
  Q 906.05 1131.35 919.19 1132.46
  A 1.14 1.13 2.3 0 0 920.42 1131.33
  L 920.42 960.23
  Z
  M 524.13 1034.57
  Q 499.90 1034.08 473.25 1029.74
  Q 446.29 1025.35 422.58 1019.13
  Q 399.27 1013.01 371.17 1002.85
  Q 365.21 1000.70 360.40 997.58
  A 0.37 0.37 0.0 0 0 359.83 997.82
  Q 359.74 998.29 360.04 998.72
  Q 379.52 1026.33 392.76 1044.76
  C 397.57 1051.46 402.72 1059.82 408.62 1067.94
  Q 413.63 1074.84 420.96 1085.82
  Q 422.83 1088.62 439.33 1111.71
  Q 442.87 1116.66 458.53 1135.26
  Q 469.66 1148.48 479.18 1157.58
  C 496.82 1174.46 514.10 1188.58 533.69 1200.75
  Q 547.96 1209.63 550.69 1211.05
  C 571.97 1222.22 592.02 1231.21 613.39 1237.30
  Q 636.83 1243.99 658.96 1247.27
  Q 686.78 1251.40 699.51 1252.12
  Q 748.05 1254.85 813.01 1256.17
  Q 874.05 1257.41 930.25 1255.48
  Q 967.95 1254.18 1001.52 1251.46
  C 1016.38 1250.25 1031.08 1248.39 1044.38 1247.32
  A 4.87 4.80 22.9 0 0 1047.04 1246.26
  C 1067.01 1230.17 1085.22 1211.07 1099.93 1189.21
  C 1110.19 1173.96 1119.44 1156.59 1125.34 1138.86
  Q 1129.25 1127.11 1131.38 1117.46
  Q 1136.90 1092.35 1134.83 1067.38
  Q 1133.09 1046.35 1125.75 1021.61
  Q 1119.14 999.33 1107.81 978.52
  A 0.38 0.38 0.0 0 0 1107.10 978.79
  Q 1112.99 1004.05 1109.95 1030.91
  Q 1109.54 1034.57 1108.55 1039.47
  C 1105.79 1053.11 1101.48 1065.73 1094.53 1078.07
  C 1086.61 1092.12 1077.52 1104.87 1066.35 1115.10
  C 1061.05 1119.95 1054.67 1125.49 1049.48 1129.16
  Q 1032.60 1141.06 1014.07 1148.53
  Q 981.57 1161.61 947.85 1163.55
  C 891.76 1166.77 835.37 1150.23 790.53 1115.78
  Q 781.99 1109.22 774.91 1102.42
  C 763.28 1091.25 757.83 1086.71 750.70 1078.31
  A 0.96 0.96 0.0 0 0 749.27 1078.28
  Q 735.33 1093.18 718.35 1106.87
  Q 708.79 1114.59 702.28 1118.60
  C 690.93 1125.60 678.22 1132.56 665.53 1136.16
  C 649.02 1140.85 631.84 1143.99 615.11 1142.47
  C 596.70 1140.79 579.45 1135.15 564.34 1122.74
  Q 548.93 1110.09 540.42 1092.85
  A 0.29 0.28 1.9 0 1 540.82 1092.48
  Q 551.84 1098.91 565.84 1104.16
  Q 566.80 1104.52 568.94 1105.89
  A 0.46 0.45 -73.8 0 0 569.64 1105.50
  L 569.64 981.65
  A 0.56 0.56 0.0 0 0 569.11 981.09
  Q 546.94 979.89 523.76 977.43
  C 506.02 975.54 486.32 970.99 469.55 967.42
  A 0.35 0.35 0.0 0 0 469.17 967.92
  C 478.14 985.76 490.05 1000.41 504.82 1015.26
  Q 513.25 1023.73 524.32 1034.12
  A 0.26 0.26 0.0 0 1 524.13 1034.57
  Z
  M 594.08 982.86
  L 594.08 1113.39
  A 1.82 1.82 0.0 0 0 595.71 1115.20
  Q 610.81 1116.82 625.93 1114.41
  Q 630.45 1113.69 634.19 1112.31
  A 1.62 1.61 83.4 0 0 635.25 1110.96
  Q 635.53 1108.54 635.58 1102.23
  Q 635.78 1078.08 635.60 1004.00
  Q 635.58 996.95 635.28 991.30
  A 1.22 1.21 -83.1 0 0 634.43 990.21
  C 621.23 986.08 608.37 982.81 594.91 982.07
  A 0.79 0.79 0.0 0 0 594.08 982.86
  Z
  M 1017.89 985.52
  A 0.37 0.37 0.0 0 0 1017.31 985.82
  L 1017.31 1107.27
  A 0.92 0.92 0.0 0 0 1018.76 1108.03
  C 1040.53 1092.83 1058.20 1074.23 1069.72 1050.14
  A 3.18 3.18 0.0 0 0 1069.70 1047.35
  C 1059.98 1027.71 1045.68 1009.72 1030.11 995.12
  Q 1025.66 990.95 1017.89 985.52
  Z
  M 851.59 1113.42
  L 851.59 989.16
  A 0.59 0.58 -7.6 0 0 850.85 988.60
  Q 849.93 988.84 848.58 989.83
  Q 820.17 1010.84 795.48 1033.99
  Q 776.85 1051.46 774.15 1054.33
  A 1.39 1.38 -50.4 0 0 774.34 1056.39
  Q 775.98 1057.58 776.72 1058.28
  Q 787.96 1068.81 803.18 1081.82
  Q 815.39 1092.25 839.16 1107.46
  Q 843.65 1110.33 851.09 1113.74
  A 0.35 0.35 0.0 0 0 851.59 1113.42
  Z
  M 660.95 1005.02
  L 660.95 1100.80
  A 0.37 0.37 0.0 0 0 661.52 1101.11
  C 665.44 1098.55 670.49 1096.46 674.12 1094.22
  Q 691.00 1083.82 707.61 1070.61
  Q 716.33 1063.68 724.52 1055.46
  A 0.49 0.48 -46.2 0 0 724.51 1054.76
  Q 694.97 1026.87 661.52 1004.71
  A 0.37 0.37 0.0 0 0 660.95 1005.02
  Z"
/>
<path fill="#547b5e" d="
  M 1092.18 747.90
  Q 1059.13 758.16 1025.48 759.88
  Q 1006.40 760.86 983.06 759.29
  Q 959.49 757.71 941.02 754.04
  Q 927.91 751.45 919.12 749.50
  Q 918.22 749.30 915.87 748.37
  A 0.19 0.19 0.0 0 0 915.64 748.43
  Q 915.56 748.54 915.54 748.72
  Q 915.08 748.31 914.86 747.62
  C 911.08 736.18 908.27 725.59 904.76 715.31
  Q 901.13 704.69 897.91 692.11
  Q 888.83 656.68 884.64 629.66
  Q 882.30 614.59 881.73 588.25
  Q 880.78 544.37 897.99 503.15
  Q 900.13 498.03 903.85 491.37
  Q 909.11 481.99 910.48 479.97
  Q 920.07 465.97 932.35 453.96
  C 939.64 446.83 948.56 440.50 956.01 435.53
  C 964.57 429.81 974.40 425.86 985.12 422.04
  C 1005.84 414.66 1027.57 411.97 1049.24 414.03
  Q 1073.11 416.29 1095.30 423.71
  Q 1105.27 427.04 1116.06 432.68
  Q 1121.70 435.63 1125.43 438.33
  Q 1140.95 449.59 1152.65 466.63
  Q 1164.19 483.42 1168.57 501.87
  Q 1173.16 521.20 1174.20 542.26
  Q 1174.88 556.03 1172.74 568.52
  Q 1170.65 580.71 1168.34 587.96
  C 1165.36 597.30 1160.85 603.97 1156.26 611.54
  C 1153.33 616.36 1148.67 620.66 1145.33 624.63
  Q 1141.85 628.76 1135.80 633.30
  Q 1121.97 643.71 1105.90 649.89
  Q 1101.29 651.67 1092.61 656.11
  Q 1084.63 660.19 1080.35 664.15
  Q 1068.19 675.43 1068.69 692.58
  Q 1069.04 704.54 1074.51 717.04
  Q 1079.91 729.39 1088.49 742.19
  Q 1088.54 742.26 1090.19 745.13
  Q 1091.02 746.60 1092.18 747.90
  Z
  M 1052.5285 512.6785
  A 29.38 28.91 -164.5 0 0 1073.1141 548.3886
  A 29.38 28.91 -164.5 0 0 1109.1515 528.3815
  A 29.38 28.91 -164.5 0 0 1088.5659 492.6714
  A 29.38 28.91 -164.5 0 0 1052.5285 512.6785
  Z"
/>
<ellipse fill="#37573e" cx="0.00" cy="0.00" transform="translate(1080.84,520.53) rotate(-164.5)" rx="29.38" ry="28.91"/>
<path fill="#dcc999" d="
  M 825.68 626.33
  L 822.59 623.52
  A 6.99 6.78 79.6 0 0 821.31 622.61
  Q 803.00 612.43 788.96 609.27
  Q 769.88 604.98 749.99 607.54
  Q 744.69 608.23 742.12 613.16
  C 735.72 625.46 737.36 639.24 744.27 650.99
  Q 744.85 651.97 755.25 668.21
  Q 762.85 680.07 765.02 686.06
  C 769.55 698.54 770.56 713.56 764.95 725.88
  C 761.47 733.51 756.97 740.91 750.21 746.44
  C 744.83 750.84 738.23 755.00 731.50 755.87
  Q 721.62 757.14 712.30 758.34
  Q 699.38 760.01 682.18 763.88
  Q 674.52 765.60 666.46 769.03
  A 1.62 1.62 0.0 0 1 664.24 767.84
  Q 662.73 759.82 665.37 752.40
  Q 665.83 751.09 669.17 746.38
  C 672.74 741.34 677.38 739.26 683.25 738.97
  C 691.71 738.55 701.54 738.18 709.77 735.26
  C 718.96 732.01 729.67 726.23 734.11 717.21
  C 740.62 704.01 735.42 690.44 726.66 679.83
  C 723.64 676.17 719.85 672.06 717.39 667.87
  C 707.78 651.47 705.87 632.49 710.08 613.85
  Q 711.90 605.74 715.13 601.89
  A 0.45 0.44 30.9 0 0 714.95 601.19
  Q 710.56 599.50 709.25 599.24
  Q 700.02 597.35 689.13 592.34
  Q 678.62 587.50 671.57 580.53
  C 661.37 570.45 654.69 560.43 652.11 546.52
  Q 650.74 539.13 653.82 533.89
  C 660.32 522.87 676.66 521.91 681.21 535.54
  C 684.09 544.16 685.53 549.20 690.41 555.70
  Q 693.77 560.17 699.39 563.51
  Q 709.99 569.80 721.27 572.44
  Q 728.64 574.16 742.76 575.08
  C 749.15 575.50 759.74 575.72 770.72 575.81
  Q 793.59 576.02 813.53 585.26
  Q 818.25 587.44 823.89 590.06
  A 2.90 2.90 0.0 0 1 825.57 592.63
  Q 825.85 606.65 825.91 619.31
  C 825.92 620.96 826.72 625.59 826.48 626.15
  A 0.50 0.50 0.0 0 1 825.68 626.33
  Z"
/>
<path fill="#dcc999" d="
  M 1153.62 648.08
  A 0.29 0.29 0.0 0 1 1153.54 647.57
  Q 1160.09 643.14 1165.06 639.06
  Q 1170.71 634.43 1176.42 626.43
  C 1183.37 616.69 1189.01 606.52 1192.33 594.82
  Q 1196.34 580.69 1197.84 565.71
  C 1198.41 560.05 1198.15 554.05 1198.04 548.82
  A 0.50 0.50 0.0 0 1 1198.96 548.54
  Q 1205.53 558.53 1212.63 565.80
  Q 1217.11 570.40 1227.73 579.83
  Q 1234.06 585.44 1243.97 592.02
  Q 1266.63 607.07 1289.22 617.73
  Q 1297.17 621.49 1313.63 628.67
  Q 1325.73 633.95 1338.62 638.13
  Q 1361.74 645.63 1373.20 649.29
  Q 1379.80 651.41 1386.12 655.11
  C 1389.72 657.22 1393.36 661.77 1389.53 665.53
  C 1386.08 668.91 1381.63 670.51 1376.73 672.55
  Q 1371.27 674.82 1364.73 676.18
  C 1354.78 678.24 1346.65 679.75 1337.84 680.16
  C 1305.47 681.64 1274.50 677.55 1241.77 669.71
  Q 1209.17 661.90 1183.02 655.71
  Q 1170.07 652.64 1153.62 648.08
  Z
  M 1245.11 625.79
  C 1251.97 623.73 1252.22 617.77 1248.24 613.02
  Q 1242.70 606.42 1233.86 599.91
  C 1230.29 597.29 1224.80 594.47 1221.32 597.44
  Q 1219.04 599.38 1218.72 602.77
  C 1217.63 614.06 1226.08 621.21 1236.19 625.03
  C 1238.32 625.83 1243.39 626.30 1245.11 625.79
  Z"
/>
<path fill="#37573e" d="
  M 1245.11 625.79
  C 1243.39 626.30 1238.32 625.83 1236.19 625.03
  C 1226.08 621.21 1217.63 614.06 1218.72 602.77
  Q 1219.04 599.38 1221.32 597.44
  C 1224.80 594.47 1230.29 597.29 1233.86 599.91
  Q 1242.70 606.42 1248.24 613.02
  C 1252.22 617.77 1251.97 623.73 1245.11 625.79
  Z"
/>
<path fill="#dcc999" d="
  M 1207.41 709.64
  A 1.29 1.29 0.0 0 1 1208.89 708.90
  Q 1225.62 712.86 1229.52 713.62
  C 1232.22 714.14 1235.05 713.88 1237.62 714.88
  A 0.80 0.80 0.0 0 1 1238.01 716.05
  Q 1229.47 729.65 1227.25 745.60
  Q 1226.83 748.64 1227.14 751.41
  C 1227.44 754.00 1227.18 756.41 1227.83 759.16
  Q 1230.68 771.11 1236.65 779.59
  Q 1246.52 793.60 1263.01 800.47
  Q 1270.81 803.72 1274.77 805.49
  C 1282.90 809.13 1290.43 814.06 1290.52 823.73
  Q 1290.57 829.78 1285.35 833.83
  C 1280.41 837.64 1275.00 838.54 1268.65 836.65
  Q 1260.16 834.12 1252.40 829.62
  Q 1242.61 823.94 1236.20 819.81
  Q 1217.39 807.66 1205.85 789.26
  Q 1197.73 776.32 1196.46 761.29
  Q 1194.88 742.70 1201.07 723.86
  C 1202.62 719.16 1205.60 713.76 1207.41 709.64
  Z"
/>
<path fill="#dcc999" d="
  M 1092.18 747.90
  Q 1098.42 756.34 1105.34 764.64
  Q 1111.95 772.58 1121.24 781.76
  A 0.38 0.38 0.0 0 1 1121.08 782.39
  C 1111.83 785.04 1099.24 789.35 1089.38 791.67
  Q 1061.41 798.24 1038.99 799.96
  Q 1008.58 802.29 981.99 800.06
  Q 969.38 799.01 949.77 795.47
  Q 947.55 795.07 935.40 791.65
  C 932.88 790.94 931.86 790.32 930.75 787.89
  Q 925.07 775.42 924.54 773.95
  Q 920.43 762.60 916.20 751.31
  Q 915.98 750.74 915.54 748.72
  Q 915.56 748.54 915.64 748.43
  A 0.19 0.19 0.0 0 1 915.87 748.37
  Q 918.22 749.30 919.12 749.50
  Q 927.91 751.45 941.02 754.04
  Q 959.49 757.71 983.06 759.29
  Q 1006.40 760.86 1025.48 759.88
  Q 1059.13 758.16 1092.18 747.90
  Z"
/>
<path fill="#dcc999" d="
  M 656.72 967.67
  A 0.20 0.20 0.0 0 1 656.74 967.29
  C 667.12 964.14 677.21 961.06 686.99 957.12
  Q 713.24 946.55 713.87 946.26
  Q 714.83 945.81 738.64 935.63
  Q 771.69 921.51 805.36 912.60
  Q 817.72 909.34 835.29 906.64
  C 867.21 901.75 898.50 900.64 929.90 901.19
  A 0.36 0.36 0.0 0 0 930.06 900.51
  Q 893.59 883.43 853.24 880.49
  Q 843.58 879.78 827.00 879.89
  C 797.21 880.08 767.81 886.51 739.70 895.99
  Q 719.03 902.96 710.24 906.28
  C 698.42 910.75 682.47 918.39 670.89 922.79
  Q 623.97 940.61 576.51 942.20
  Q 524.60 943.94 470.27 929.00
  Q 469.42 928.76 453.39 923.35
  Q 443.94 920.16 436.73 916.93
  C 425.33 911.82 413.17 906.24 402.98 899.27
  Q 393.34 892.68 384.37 885.44
  A 0.36 0.36 0.0 0 1 384.66 884.81
  C 388.80 885.66 393.22 886.34 397.81 886.56
  Q 413.15 887.30 431.25 885.96
  Q 450.23 884.56 463.73 882.39
  Q 484.31 879.09 507.80 872.77
  Q 519.29 869.68 540.56 862.67
  Q 548.36 860.10 572.70 850.82
  Q 611.68 835.95 631.19 829.75
  Q 655.05 822.16 671.22 818.52
  Q 689.56 814.38 701.75 812.49
  Q 712.70 810.80 732.50 808.74
  C 767.01 805.15 802.44 806.32 837.42 810.14
  Q 876.04 814.37 906.19 823.42
  Q 927.37 829.78 948.80 839.45
  Q 961.82 845.34 968.43 849.32
  C 979.55 856.03 991.28 863.25 1001.09 871.23
  Q 1016.71 883.95 1029.56 897.93
  Q 1041.71 911.15 1052.83 929.26
  Q 1067.01 952.33 1075.91 975.33
  Q 1080.48 987.14 1082.16 995.54
  Q 1084.06 1005.03 1085.36 1015.43
  A 0.35 0.34 -63.8 0 1 1084.72 1015.65
  Q 1073.76 996.85 1058.88 980.12
  C 1044.93 964.44 1029.07 951.43 1011.17 942.80
  Q 1003.14 938.92 998.43 936.61
  Q 987.72 931.37 975.14 928.08
  Q 934.85 917.54 896.60 927.81
  Q 878.62 932.64 863.02 941.30
  Q 846.16 950.66 835.91 958.18
  C 826.60 965.02 816.13 972.80 807.12 980.42
  Q 778.52 1004.65 750.69 1031.36
  A 1.33 1.33 0.0 0 1 748.90 1031.41
  Q 742.26 1025.72 737.17 1020.93
  C 729.21 1013.45 721.04 1007.39 712.54 1000.26
  C 700.86 990.46 686.80 981.51 674.07 974.96
  C 668.41 972.04 664.32 970.62 656.72 967.67
  Z"
/>
<path fill="#547b5e" d="
  M 278.46 942.41
  Q 286.74 957.83 296.41 972.33
  Q 299.89 977.55 301.85 980.93
  C 305.90 987.88 308.96 992.14 313.11 998.66
  Q 323.02 1014.23 334.19 1028.69
  C 336.11 1031.18 338.42 1035.53 340.16 1037.43
  C 342.55 1040.02 345.13 1044.53 347.30 1047.29
  Q 353.06 1054.64 359.73 1064.86
  C 361.28 1067.24 363.48 1069.68 365.22 1072.09
  Q 390.75 1107.62 402.34 1122.01
  Q 413.14 1135.42 418.78 1142.53
  C 424.30 1149.51 430.74 1156.09 435.61 1161.63
  Q 439.00 1165.50 443.65 1171.11
  Q 450.59 1179.48 458.73 1186.41
  A 0.64 0.64 0.0 0 1 458.35 1187.53
  C 454.41 1187.77 449.57 1187.65 445.56 1187.98
  Q 433.81 1188.97 418.41 1189.46
  Q 407.80 1189.80 402.10 1190.31
  C 395.11 1190.94 388.02 1190.86 380.30 1191.34
  Q 356.93 1192.80 348.79 1193.21
  C 339.97 1193.65 331.05 1195.04 322.79 1194.76
  A 0.71 0.71 0.0 0 0 322.09 1195.68
  Q 322.31 1196.40 323.06 1196.97
  Q 335.20 1206.09 349.61 1211.16
  Q 368.65 1217.86 379.02 1221.19
  C 385.50 1223.28 390.78 1225.39 396.62 1227.25
  Q 409.09 1231.20 413.96 1232.95
  Q 423.34 1236.32 427.46 1237.43
  C 433.82 1239.14 438.63 1241.02 445.63 1242.95
  Q 457.44 1246.21 471.52 1250.43
  Q 476.32 1251.86 495.80 1256.61
  Q 503.73 1258.54 520.29 1261.96
  Q 537.13 1265.44 552.86 1269.26
  C 569.69 1273.35 584.10 1275.06 601.04 1278.36
  Q 612.02 1280.50 624.88 1282.44
  Q 667.03 1288.80 703.28 1292.20
  C 711.86 1293.00 718.16 1294.37 725.91 1294.95
  Q 786.38 1299.52 830.50 1299.91
  Q 878.22 1300.33 929.25 1299.98
  Q 958.21 1299.78 972.25 1298.98
  Q 997.05 1297.56 997.19 1297.55
  C 1017.21 1295.85 1034.71 1295.40 1053.92 1293.47
  Q 1097.49 1289.10 1106.00 1287.92
  Q 1126.95 1285.02 1136.92 1283.78
  Q 1149.40 1282.24 1154.41 1281.33
  C 1162.68 1279.85 1169.07 1279.29 1177.65 1277.52
  C 1186.73 1275.64 1201.12 1273.68 1213.02 1271.13
  Q 1226.61 1268.22 1265.77 1259.79
  Q 1271.89 1258.47 1301.73 1251.20
  Q 1318.73 1247.05 1345.76 1237.56
  Q 1352.87 1235.07 1357.95 1232.41
  Q 1367.51 1227.43 1369.62 1226.10
  Q 1371.97 1224.62 1377.87 1219.39
  C 1380.76 1216.84 1382.44 1212.53 1379.76 1209.23
  Q 1375.66 1204.18 1369.93 1202.10
  Q 1362.73 1199.48 1357.06 1198.18
  Q 1341.74 1194.67 1327.24 1192.33
  C 1320.21 1191.19 1313.11 1190.79 1306.43 1189.96
  Q 1300.81 1189.26 1298.08 1189.11
  Q 1294.50 1188.92 1256.00 1185.75
  Q 1255.13 1185.68 1254.77 1185.48
  A 0.66 0.65 35.3 0 1 1254.59 1184.48
  Q 1263.32 1174.63 1269.99 1164.27
  Q 1274.43 1157.37 1281.74 1142.92
  C 1293.01 1120.64 1299.42 1095.73 1303.47 1070.76
  Q 1305.49 1058.29 1305.27 1043.13
  C 1305.07 1028.60 1304.06 1014.83 1301.18 1001.12
  C 1299.89 994.98 1298.96 988.63 1297.18 982.14
  Q 1291.69 962.11 1284.51 942.88
  L 1409.95 942.38
  L 1441.12 942.44
  L 1576.00 942.71
  Q 1576.56 945.07 1576.38 946.57
  C 1574.84 958.94 1573.21 974.10 1570.98 986.66
  C 1567.66 1005.38 1565.31 1018.74 1561.04 1035.80
  Q 1550.94 1076.14 1539.11 1109.92
  C 1537.51 1114.49 1536.81 1116.72 1535.14 1120.32
  Q 1530.52 1130.28 1527.63 1139.14
  Q 1526.26 1143.33 1520.73 1155.98
  C 1515.60 1167.72 1509.39 1179.17 1504.59 1189.61
  Q 1501.04 1197.33 1495.86 1206.58
  C 1485.59 1224.93 1477.04 1240.26 1466.09 1255.93
  Q 1463.21 1260.04 1453.27 1274.76
  Q 1451.46 1277.43 1435.70 1298.33
  Q 1426.44 1310.62 1417.10 1321.09
  Q 1395.47 1345.37 1389.92 1351.17
  C 1371.07 1370.85 1351.27 1389.93 1329.92 1407.02
  Q 1324.65 1411.24 1320.86 1414.81
  C 1313.03 1422.17 1305.26 1427.05 1296.20 1433.62
  Q 1287.30 1440.07 1280.58 1444.60
  C 1258.35 1459.57 1237.29 1473.26 1212.62 1485.97
  C 1197.18 1493.92 1188.96 1498.70 1176.36 1504.37
  Q 1162.58 1510.58 1159.04 1512.00
  Q 1155.18 1513.54 1155.06 1513.60
  Q 1141.87 1519.39 1132.82 1522.34
  C 1129.60 1523.39 1125.14 1525.75 1121.27 1527.04
  Q 1094.92 1535.84 1090.39 1537.51
  C 1084.48 1539.68 1080.00 1540.70 1073.47 1542.69
  Q 1070.97 1543.46 1043.92 1550.36
  C 1029.06 1554.15 1016.52 1556.68 1003.62 1558.86
  Q 1001.74 1559.17 984.19 1561.76
  C 960.09 1565.32 935.11 1567.23 912.50 1568.27
  Q 900.30 1568.82 868.04 1568.72
  Q 852.98 1568.67 836.73 1567.39
  C 815.68 1565.72 805.89 1565.20 792.27 1562.71
  C 784.25 1561.25 774.83 1560.33 765.57 1558.39
  Q 750.67 1555.28 740.39 1553.11
  Q 727.36 1550.37 698.03 1542.32
  C 690.03 1540.12 681.95 1536.51 673.57 1533.99
  Q 665.43 1531.54 657.35 1528.26
  C 651.26 1525.79 643.38 1523.28 635.83 1520.19
  Q 608.72 1509.10 593.68 1502.09
  C 587.08 1499.01 579.07 1494.09 572.39 1490.74
  C 561.96 1485.50 557.35 1483.54 549.06 1478.38
  C 543.16 1474.70 530.76 1468.59 523.06 1462.75
  C 518.19 1459.06 513.28 1456.44 508.02 1452.69
  C 502.01 1448.40 495.17 1444.21 489.56 1440.17
  Q 480.34 1433.52 471.01 1426.74
  Q 466.73 1423.62 464.39 1421.56
  Q 458.80 1416.64 458.07 1416.06
  C 441.18 1402.60 424.51 1388.04 408.63 1372.49
  Q 381.33 1345.77 373.94 1337.06
  C 365.44 1327.04 356.59 1317.64 349.13 1308.23
  Q 331.26 1285.65 319.44 1269.26
  Q 319.24 1268.97 316.52 1265.00
  Q 303.50 1246.02 291.12 1225.70
  Q 281.43 1209.80 275.18 1196.97
  Q 270.95 1188.29 265.20 1177.42
  Q 261.11 1169.70 255.74 1157.52
  Q 246.72 1137.05 239.99 1120.26
  Q 236.99 1112.76 234.69 1105.40
  Q 231.51 1095.23 229.77 1090.45
  Q 224.83 1076.95 223.53 1072.29
  C 216.56 1047.31 210.46 1024.16 206.23 999.38
  Q 202.11 975.24 201.32 970.23
  Q 199.44 958.25 198.28 942.66
  L 278.46 942.41
  Z
  M 509.34 1330.01
  C 510.10 1332.47 513.39 1335.23 515.26 1336.48
  C 525.52 1343.31 534.59 1347.71 547.27 1353.03
  Q 554.97 1356.26 561.92 1358.08
  Q 593.72 1366.42 616.77 1367.75
  Q 617.79 1367.81 625.61 1368.47
  Q 634.31 1369.21 634.45 1369.22
  Q 657.21 1370.82 683.18 1373.99
  C 705.29 1376.69 732.50 1382.85 751.34 1386.25
  C 762.81 1388.33 771.64 1389.55 782.14 1391.58
  Q 783.68 1391.88 795.38 1393.29
  C 805.43 1394.50 824.22 1396.61 838.57 1397.47
  Q 868.38 1399.24 896.02 1398.35
  Q 937.23 1397.02 977.05 1392.20
  C 981.78 1391.62 986.39 1390.55 991.71 1389.80
  C 1001.21 1388.48 1008.63 1386.77 1021.01 1384.26
  C 1026.80 1383.09 1033.38 1381.37 1038.31 1380.01
  Q 1042.07 1378.98 1051.44 1377.58
  Q 1056.39 1376.84 1063.19 1375.57
  C 1068.26 1374.62 1072.44 1374.25 1078.45 1373.66
  Q 1085.34 1372.98 1089.94 1372.78
  Q 1121.36 1371.39 1154.10 1366.77
  Q 1167.89 1364.82 1176.04 1362.73
  Q 1185.44 1360.31 1194.15 1357.60
  Q 1210.68 1352.45 1227.44 1343.66
  Q 1236.95 1338.68 1244.27 1331.41
  A 1.65 1.63 -38.5 0 0 1244.51 1329.37
  Q 1244.10 1328.72 1242.22 1328.24
  Q 1240.66 1327.85 1239.50 1327.87
  C 1228.85 1328.06 1217.21 1328.69 1204.28 1329.98
  C 1180.53 1332.34 1155.89 1333.79 1131.08 1333.24
  Q 1121.99 1333.04 1099.25 1332.90
  Q 1090.38 1332.85 1075.54 1334.29
  Q 1053.98 1336.38 1037.25 1339.74
  Q 1018.64 1343.49 1008.29 1345.65
  C 999.91 1347.41 993.09 1348.08 985.27 1349.51
  Q 977.55 1350.91 967.95 1351.91
  Q 933.80 1355.46 907.50 1356.29
  Q 891.19 1356.81 850.88 1355.94
  Q 836.34 1355.62 824.63 1354.60
  Q 808.25 1353.17 798.44 1352.34
  Q 787.49 1351.42 751.21 1345.31
  C 744.94 1344.26 736.65 1342.11 729.99 1341.30
  Q 728.67 1341.14 714.11 1338.38
  C 692.68 1334.31 670.46 1332.72 648.52 1332.44
  Q 615.21 1332.02 582.00 1331.49
  Q 565.45 1331.22 548.85 1329.96
  C 534.56 1328.87 523.77 1328.65 510.38 1328.61
  A 1.09 1.08 -8.5 0 0 509.34 1330.01
  Z
  M 1121.15 1423.30
  Q 1117.51 1423.09 1108.77 1422.03
  C 1105.20 1421.60 1102.41 1421.74 1097.76 1421.77
  Q 1092.69 1421.81 1089.51 1422.21
  C 1081.85 1423.16 1072.67 1423.40 1063.51 1424.84
  Q 1038.90 1428.71 1035.63 1429.38
  Q 1014.58 1433.68 995.22 1436.83
  C 991.94 1437.37 987.78 1438.46 984.65 1438.87
  C 970.55 1440.72 952.97 1443.16 937.34 1444.49
  Q 862.09 1450.84 789.52 1440.22
  Q 771.34 1437.56 733.27 1429.36
  Q 724.18 1427.40 718.25 1425.95
  C 696.47 1420.62 672.07 1418.10 650.12 1421.11
  Q 648.09 1421.39 646.71 1422.30
  A 0.95 0.95 0.0 0 0 646.37 1423.49
  C 649.06 1429.51 656.47 1434.64 662.13 1438.13
  C 678.93 1448.52 697.66 1454.77 716.42 1461.37
  Q 725.16 1464.44 735.50 1467.45
  Q 748.43 1471.23 754.82 1472.90
  Q 767.84 1476.29 786.91 1479.56
  Q 798.69 1481.57 801.88 1481.87
  C 815.05 1483.09 826.13 1484.93 839.61 1485.31
  Q 862.49 1485.97 883.28 1485.79
  Q 926.61 1485.43 969.45 1479.48
  C 978.37 1478.25 985.97 1476.43 993.86 1475.34
  Q 1000.86 1474.37 1012.06 1471.61
  Q 1032.13 1466.66 1044.27 1463.09
  C 1052.21 1460.75 1062.20 1457.19 1067.42 1455.37
  Q 1075.72 1452.48 1085.54 1447.87
  Q 1099.04 1441.54 1103.06 1439.10
  Q 1113.42 1432.82 1121.37 1423.83
  A 0.32 0.32 0.0 0 0 1121.15 1423.30
  Z"
/>
<path fill="#dcc999" d="
  M 947.25 958.75
  Q 968.40 960.45 988.83 968.31
  A 2.47 2.46 -79.4 0 1 990.40 970.61
  L 990.40 1121.29
  A 1.26 1.24 -9.5 0 1 989.55 1122.47
  C 980.01 1125.70 971.83 1128.33 961.81 1129.94
  Q 952.07 1131.52 947.46 1132.17
  A 0.61 0.61 0.0 0 1 946.76 1131.57
  L 946.76 959.19
  A 0.45 0.44 2.4 0 1 947.25 958.75
  Z"
/>
<path fill="#dcc999" d="
  M 920.42 960.23
  L 920.42 1131.33
  A 1.14 1.13 2.3 0 1 919.19 1132.46
  Q 906.05 1131.35 892.23 1128.26
  Q 884.44 1126.52 877.18 1123.07
  A 0.97 0.95 -77.4 0 1 876.64 1122.20
  L 876.64 975.83
  A 4.13 4.12 72.6 0 1 878.41 972.44
  Q 881.08 970.61 884.81 969.08
  Q 901.78 962.15 919.78 959.67
  A 0.57 0.56 -3.6 0 1 920.42 960.23
  Z"
/>
<path fill="#dcc999" d="
  M 524.32 1034.12
  Q 513.25 1023.73 504.82 1015.26
  C 490.05 1000.41 478.14 985.76 469.17 967.92
  A 0.35 0.35 0.0 0 1 469.55 967.42
  C 486.32 970.99 506.02 975.54 523.76 977.43
  Q 546.94 979.89 569.11 981.09
  A 0.56 0.56 0.0 0 1 569.64 981.65
  L 569.64 1105.50
  A 0.46 0.45 -73.8 0 1 568.94 1105.89
  Q 566.80 1104.52 565.84 1104.16
  Q 551.84 1098.91 540.82 1092.48
  A 0.29 0.28 1.9 0 0 540.42 1092.85
  Q 548.93 1110.09 564.34 1122.74
  C 579.45 1135.15 596.70 1140.79 615.11 1142.47
  C 631.84 1143.99 649.02 1140.85 665.53 1136.16
  C 678.22 1132.56 690.93 1125.60 702.28 1118.60
  Q 708.79 1114.59 718.35 1106.87
  Q 735.33 1093.18 749.27 1078.28
  A 0.96 0.96 0.0 0 1 750.70 1078.31
  C 757.83 1086.71 763.28 1091.25 774.91 1102.42
  Q 781.99 1109.22 790.53 1115.78
  C 835.37 1150.23 891.76 1166.77 947.85 1163.55
  Q 981.57 1161.61 1014.07 1148.53
  Q 1032.60 1141.06 1049.48 1129.16
  C 1054.67 1125.49 1061.05 1119.95 1066.35 1115.10
  C 1077.52 1104.87 1086.61 1092.12 1094.53 1078.07
  C 1101.48 1065.73 1105.79 1053.11 1108.55 1039.47
  Q 1109.54 1034.57 1109.95 1030.91
  Q 1112.99 1004.05 1107.10 978.79
  A 0.38 0.38 0.0 0 1 1107.81 978.52
  Q 1119.14 999.33 1125.75 1021.61
  Q 1133.09 1046.35 1134.83 1067.38
  Q 1136.90 1092.35 1131.38 1117.46
  Q 1129.25 1127.11 1125.34 1138.86
  C 1119.44 1156.59 1110.19 1173.96 1099.93 1189.21
  C 1085.22 1211.07 1067.01 1230.17 1047.04 1246.26
  A 4.87 4.80 22.9 0 1 1044.38 1247.32
  C 1031.08 1248.39 1016.38 1250.25 1001.52 1251.46
  Q 967.95 1254.18 930.25 1255.48
  Q 874.05 1257.41 813.01 1256.17
  Q 748.05 1254.85 699.51 1252.12
  Q 686.78 1251.40 658.96 1247.27
  Q 636.83 1243.99 613.39 1237.30
  C 592.02 1231.21 571.97 1222.22 550.69 1211.05
  Q 547.96 1209.63 533.69 1200.75
  C 514.10 1188.58 496.82 1174.46 479.18 1157.58
  Q 469.66 1148.48 458.53 1135.26
  Q 442.87 1116.66 439.33 1111.71
  Q 422.83 1088.62 420.96 1085.82
  Q 413.63 1074.84 408.62 1067.94
  C 402.72 1059.82 397.57 1051.46 392.76 1044.76
  Q 379.52 1026.33 360.04 998.72
  Q 359.74 998.29 359.83 997.82
  A 0.37 0.37 0.0 0 1 360.40 997.58
  Q 365.21 1000.70 371.17 1002.85
  Q 399.27 1013.01 422.58 1019.13
  Q 446.29 1025.35 473.25 1029.74
  Q 499.90 1034.08 524.13 1034.57
  A 0.26 0.26 0.0 0 0 524.32 1034.12
  Z"
/>
<path fill="#dcc999" d="
  M 594.08 982.86
  A 0.79 0.79 0.0 0 1 594.91 982.07
  C 608.37 982.81 621.23 986.08 634.43 990.21
  A 1.22 1.21 -83.1 0 1 635.28 991.30
  Q 635.58 996.95 635.60 1004.00
  Q 635.78 1078.08 635.58 1102.23
  Q 635.53 1108.54 635.25 1110.96
  A 1.62 1.61 83.4 0 1 634.19 1112.31
  Q 630.45 1113.69 625.93 1114.41
  Q 610.81 1116.82 595.71 1115.20
  A 1.82 1.82 0.0 0 1 594.08 1113.39
  L 594.08 982.86
  Z"
/>
<path fill="#dcc999" d="
  M 1017.89 985.52
  Q 1025.66 990.95 1030.11 995.12
  C 1045.68 1009.72 1059.98 1027.71 1069.70 1047.35
  A 3.18 3.18 0.0 0 1 1069.72 1050.14
  C 1058.20 1074.23 1040.53 1092.83 1018.76 1108.03
  A 0.92 0.92 0.0 0 1 1017.31 1107.27
  L 1017.31 985.82
  A 0.37 0.37 0.0 0 1 1017.89 985.52
  Z"
/>
<path fill="#dcc999" d="
  M 851.09 1113.74
  Q 843.65 1110.33 839.16 1107.46
  Q 815.39 1092.25 803.18 1081.82
  Q 787.96 1068.81 776.72 1058.28
  Q 775.98 1057.58 774.34 1056.39
  A 1.39 1.38 -50.4 0 1 774.15 1054.33
  Q 776.85 1051.46 795.48 1033.99
  Q 820.17 1010.84 848.58 989.83
  Q 849.93 988.84 850.85 988.60
  A 0.59 0.58 -7.6 0 1 851.59 989.16
  L 851.59 1113.42
  A 0.35 0.35 0.0 0 1 851.09 1113.74
  Z"
/>
<path fill="#dcc999" d="
  M 660.95 1005.02
  A 0.37 0.37 0.0 0 1 661.52 1004.71
  Q 694.97 1026.87 724.51 1054.76
  A 0.49 0.48 -46.2 0 1 724.52 1055.46
  Q 716.33 1063.68 707.61 1070.61
  Q 691.00 1083.82 674.12 1094.22
  C 670.49 1096.46 665.44 1098.55 661.52 1101.11
  A 0.37 0.37 0.0 0 1 660.95 1100.80
  L 660.95 1005.02
  Z"
/>
<path fill="#37573e" d="
  M 509.34 1330.01
  A 1.09 1.08 -8.5 0 1 510.38 1328.61
  C 523.77 1328.65 534.56 1328.87 548.85 1329.96
  Q 565.45 1331.22 582.00 1331.49
  Q 615.21 1332.02 648.52 1332.44
  C 670.46 1332.72 692.68 1334.31 714.11 1338.38
  Q 728.67 1341.14 729.99 1341.30
  C 736.65 1342.11 744.94 1344.26 751.21 1345.31
  Q 787.49 1351.42 798.44 1352.34
  Q 808.25 1353.17 824.63 1354.60
  Q 836.34 1355.62 850.88 1355.94
  Q 891.19 1356.81 907.50 1356.29
  Q 933.80 1355.46 967.95 1351.91
  Q 977.55 1350.91 985.27 1349.51
  C 993.09 1348.08 999.91 1347.41 1008.29 1345.65
  Q 1018.64 1343.49 1037.25 1339.74
  Q 1053.98 1336.38 1075.54 1334.29
  Q 1090.38 1332.85 1099.25 1332.90
  Q 1121.99 1333.04 1131.08 1333.24
  C 1155.89 1333.79 1180.53 1332.34 1204.28 1329.98
  C 1217.21 1328.69 1228.85 1328.06 1239.50 1327.87
  Q 1240.66 1327.85 1242.22 1328.24
  Q 1244.10 1328.72 1244.51 1329.37
  A 1.65 1.63 -38.5 0 1 1244.27 1331.41
  Q 1236.95 1338.68 1227.44 1343.66
  Q 1210.68 1352.45 1194.15 1357.60
  Q 1185.44 1360.31 1176.04 1362.73
  Q 1167.89 1364.82 1154.10 1366.77
  Q 1121.36 1371.39 1089.94 1372.78
  Q 1085.34 1372.98 1078.45 1373.66
  C 1072.44 1374.25 1068.26 1374.62 1063.19 1375.57
  Q 1056.39 1376.84 1051.44 1377.58
  Q 1042.07 1378.98 1038.31 1380.01
  C 1033.38 1381.37 1026.80 1383.09 1021.01 1384.26
  C 1008.63 1386.77 1001.21 1388.48 991.71 1389.80
  C 986.39 1390.55 981.78 1391.62 977.05 1392.20
  Q 937.23 1397.02 896.02 1398.35
  Q 868.38 1399.24 838.57 1397.47
  C 824.22 1396.61 805.43 1394.50 795.38 1393.29
  Q 783.68 1391.88 782.14 1391.58
  C 771.64 1389.55 762.81 1388.33 751.34 1386.25
  C 732.50 1382.85 705.29 1376.69 683.18 1373.99
  Q 657.21 1370.82 634.45 1369.22
  Q 634.31 1369.21 625.61 1368.47
  Q 617.79 1367.81 616.77 1367.75
  Q 593.72 1366.42 561.92 1358.08
  Q 554.97 1356.26 547.27 1353.03
  C 534.59 1347.71 525.52 1343.31 515.26 1336.48
  C 513.39 1335.23 510.10 1332.47 509.34 1330.01
  Z"
/>
<path fill="#37573e" d="
  M 1121.15 1423.30
  A 0.32 0.32 0.0 0 1 1121.37 1423.83
  Q 1113.42 1432.82 1103.06 1439.10
  Q 1099.04 1441.54 1085.54 1447.87
  Q 1075.72 1452.48 1067.42 1455.37
  C 1062.20 1457.19 1052.21 1460.75 1044.27 1463.09
  Q 1032.13 1466.66 1012.06 1471.61
  Q 1000.86 1474.37 993.86 1475.34
  C 985.97 1476.43 978.37 1478.25 969.45 1479.48
  Q 926.61 1485.43 883.28 1485.79
  Q 862.49 1485.97 839.61 1485.31
  C 826.13 1484.93 815.05 1483.09 801.88 1481.87
  Q 798.69 1481.57 786.91 1479.56
  Q 767.84 1476.29 754.82 1472.90
  Q 748.43 1471.23 735.50 1467.45
  Q 725.16 1464.44 716.42 1461.37
  C 697.66 1454.77 678.93 1448.52 662.13 1438.13
  C 656.47 1434.64 649.06 1429.51 646.37 1423.49
  A 0.95 0.95 0.0 0 1 646.71 1422.30
  Q 648.09 1421.39 650.12 1421.11
  C 672.07 1418.10 696.47 1420.62 718.25 1425.95
  Q 724.18 1427.40 733.27 1429.36
  Q 771.34 1437.56 789.52 1440.22
  Q 862.09 1450.84 937.34 1444.49
  C 952.97 1443.16 970.55 1440.72 984.65 1438.87
  C 987.78 1438.46 991.94 1437.37 995.22 1436.83
  Q 1014.58 1433.68 1035.63 1429.38
  Q 1038.90 1428.71 1063.51 1424.84
  C 1072.67 1423.40 1081.85 1423.16 1089.51 1422.21
  Q 1092.69 1421.81 1097.76 1421.77
  C 1102.41 1421.74 1105.20 1421.60 1108.77 1422.03
  Q 1117.51 1423.09 1121.15 1423.30
  Z"
/>
</svg>
